<?xml version="1.0" standalone="no"?>
<!DOCTYPE svg PUBLIC "-//W3C//DTD SVG 1.1//EN" "http://www.w3.org/Graphics/SVG/1.1/DTD/svg11.dtd" >
<svg xmlns="http://www.w3.org/2000/svg">
<metadata>Generated by IcoMoon</metadata>
<defs>
<font id="icomoon" horiz-adv-x="1024">
<font-face units-per-em="1024" ascent="960" descent="-64" />
<missing-glyph horiz-adv-x="1024" />
<glyph unicode="&#x20;" horiz-adv-x="512" d="" />
<glyph unicode="&#xe01a;" glyph-name="upload" d="M679.287 431.204c0-8.897-7.335-16.707-16.707-16.707h-117.165v-184.047c0-8.897-7.796-16.707-16.707-16.707h-100.282c-8.897 0-16.707 7.796-16.707 16.707v184.047h-117.165c-9.358 0-16.707 7.335-16.707 16.707 0 4.849 2.024 8.897 5.148 12.659l183.586 183.517c3.124 3.124 7.796 4.686 12.021 4.686 4.686 0 8.897-1.562 12.021-4.686l183.993-184.156c3.124-3.124 4.686-7.796 4.686-12.021zM1013.9 280.624c0 93.070-64.328 174.159-155.266 195.552 14.045 21.556 21.393 46.589 21.393 72.193 0 73.7-60.118 133.981-133.872 133.981-31.852 0-62.658-11.505-86.699-32.49-41.387 100.459-139.020 166.417-247.737 166.417-148.094 0-267.745-119.828-267.745-267.921 0-7.226 0.462-14.561 1.1-22.479-82.19-38.154-134.973-120.751-134.973-211.851 0-129.186 105.145-234.331 234.331-234.331h568.727c110.755 0 200.754 90 200.754 200.917z" />
<glyph unicode="&#xe02a;" glyph-name="icon_email" d="M24.355 137.682h975.28v544.635c-151.997-88.655-341.989-278.646-481.313-405.312-63.324 50.667-455.979 405.312-493.967 405.312v-544.635zM518.34 353.005c76.001 63.324 430.646 329.312 468.638 405.312h-949.947c12.665-37.995 392.649-341.989 481.313-405.312z" />
<glyph unicode="&#xe03a;" glyph-name="admin_owner" d="M401.523 287.372c-40.157-10.039-160.627-80.314-200.784-110.431-180.706-100.392-180.706-30.118-180.706-240.941h983.843c0 210.824 10.039 140.549-180.706 240.941-40.157 30.118-160.627 100.392-200.784 110.431 0 110.431 20.078 100.392 30.118 120.471 20.078 20.078 40.157 50.196 50.196 90.353 10.039 20.078 10.039 40.157 10.039 60.235 20.078-10.039 30.118 50.196 30.118 60.235s10.039 80.314-20.078 70.275l-10.039 90.353c-50.196 240.941-351.373 240.941-391.529 0l-20.078-90.353c-20.078 10.039-20.078-60.235-20.078-70.275 10.039-40.157 20.078-60.235 40.157-60.235 0 0 0-60.235 0-60.235 10.039-40.157 30.118-70.275 50.196-90.353s30.118-10.039 30.118-120.471z" />
<glyph unicode="&#xe04a;" glyph-name="left-new" d="M825.528 879.461l-448.719-431.461 414.202-396.944c5.753-5.753 17.258-23.011 28.764-23.011l-86.292-92.045-535.011 512 535.011 512 92.045-80.539z" />
<glyph unicode="&#xe05a;" glyph-name="right-new" d="M199.214 878.079l450.56-431.942-417.047-394.705c-7.447-11.171-18.618-26.065-29.789-26.065l85.644-89.367 536.204 510.138-536.204 513.862-89.367-81.92z" />
<glyph unicode="&#xe06a;" glyph-name="linkedin" d="M185.089 129.113v427.983h142.228v-427.983h-142.228zM336.68 688.301c0-40.601-30.877-73.847-80.858-73.847v0h-0.572c-48.167 0-78.815 33.263-78.815 73.847 0 41.9 31.964 73.847 80.686 73.847 48.665 0 78.815-31.964 79.559-73.847zM696.683 129.113v228.78c0 58.045-20.386 96.831-71.306 96.831-39.301 0-62.669-26.424-73.12-51.835-3.669-9.151-4.413-22.183-4.413-34.505v-239.288h-142.228c1.814 387.955 0 427.983 0 427.983h142.228v-62.269h-1.127c18.4 29.578 52.179 72.050 128.452 72.050 93.563 0 163.742-60.872 163.742-192.249v-245.498h-142.228zM984.464 743.805c0 97.73-79.215 177.117-176.945 177.117h-591.038c-97.73 0-176.945-79.387-176.945-177.117v-591.21c0-98.131 79.215-177.517 176.945-177.517h591.038c97.73 0 176.945 79.387 176.945 177.517v591.21z" />
<glyph unicode="&#xe07a;" glyph-name="telegram" d="M674.856 219.523c-6.145-27.209-22.229-33.867-44.992-21.064l-124.523 91.644-60.088-57.776c-6.659-6.659-12.093-12.271-24.897-12.271l8.793 126.835 230.75 208.362c9.959 8.971-2.312 13.95-15.57 4.979l-285.226-179.474-122.844 38.333c-26.576 8.338-27.268 26.754 5.612 39.538l480.152 184.967c22.229 8.457 41.85-4.979 34.5-38.847l-81.685-385.208zM1010.093 447.98c0 275.109-223.004 498.093-498.093 498.093s-498.093-223.004-498.093-498.093c0-275.109 223.004-498.053 498.093-498.053s498.093 222.944 498.093 498.053z" />
<glyph unicode="&#xe08a;" glyph-name="snapchat" d="M165.165 497.775c-86.358-65.333-139.672-147.258-139.672-258.103 0-20.519 5.154-37.053 12.741-55.414 3.345-1.012 1.693-5.504 6.126-5.504h0.681c32.131 3.345 60.918 33.766 73.152 62.046 0.972 2.839 2.665 11.106 6.632 11.106l2.606-1.635c8.441-39.892 62.046-136.385 100.286-145.117l1.128-1.693c0-1.635-0.448-1.635-1.128-2.275-2.665-0.506-4.98-1.012-7.586-1.012-20.054-1.128-32.812-10.6-49.968-13.887-21.531-20.054-28.338-28.786-28.338-59.888 0-72.024 163.012-74.787 205.063-74.787 47.653 0 130.218 10.094 163.984 47.147 14.393-1.635 34.388 0.506 47.653-3.287 63.681-18.867 118.588-36.605 186.138-36.605 50.94 0 135.646 6.126 167.271 53.779 4.474 5.952 3.345 12.741 6.126 18.692-9.413 52.807-60.394 49.968-91.961 80.407 36.041 34.272 55.414 77.626 73.094 123.47l2.839 2.315c0.506 0 1.128 0 1.635-0.681 7.761-14.393 31.625-67.026 53.313-67.026 30.945 0 41.527 67.707 41.527 87.097 0 87.487-43.412 163.926-90.89 234.297-0.622 1.128-3.968 5.602-3.968 6.574 0 13.421 9.919 28.338 9.919 43.237 0 29.915-14.393 58.701-30.421 83.188l-0.506 2.665c-27.756 130.218-57.066 232.139-187.267 287.105-45.378 18.692-98.651 30.421-147.258 30.421-62.727 0-122.44-9.413-179.564-36.547-92.467-44.366-171.745-173.438-171.745-275.998-11.106-9.297-17.232-38.764-16.708-53.157-9.297-11.554-19.373-36.547-19.373-52.068 0-9.978 0.681-19.373 4.474-28.844z" />
<glyph unicode="&#xe09a;" glyph-name="skype" d="M763.464 344.334c0-126.082-121.634-184.509-238.49-184.509-139.62 0-256.243 62.176-256.243 138.532 0 34.167 19.307 65.11 62.7 65.11 66.373 0 72.665-95.703 187.443-95.703 54.505 0 89.953 24.319 89.953 56 0 39.703-34.109 45.977-89.37 59.749l-90.692 22.241c-90.459 21.658-160.016 58.952-160.016 163.357 0 126.082 124.819 172.641 232.157 172.641 117.205 0 235.848-46.56 235.848-117.944 0-35.954-24.261-67.654-64.546-67.654-60.215 0-62.118 71.402-159.608 71.402-54.505 0-89.37-14.86-89.37-47.881 0-35.954 35.372-44.132 82.688-55.261l64.546-14.802c88.049-20.046 193.037-57.34 193.037-165.26zM988.765 209.55c0 54.505-18.725 104.929-49.726 145.214 6.158 29.854 9.848 61.536 9.848 93.236 0 241.674-195.446 437.295-436.888 437.295-31.7 0-63.206-3.749-93.061-10.023-40.46 30.943-90.692 49.668-145.214 49.668-131.675 0-238.49-106.774-238.49-238.45 0-54.679 18.725-104.987 49.726-145.389-6.158-29.68-9.848-61.361-9.848-93.119 0-241.616 195.446-437.237 436.888-437.237 31.7 0 63.206 3.69 93.119 10.023 40.402-31.001 90.633-49.726 145.156-49.726 131.326 0 238.1 106.833 238.1 238.49h0.408z" />
<glyph unicode="&#xe10a;" glyph-name="wechat" d="M295.699 659.69c0-26.329-17.414-43.797-44.199-43.797-26.329 0-53.099 17.469-53.099 43.797 0 26.785 26.785 44.365 53.099 44.365 26.785 0 44.199-17.594 44.199-44.365zM657.608 412.839c0-18.051-17.469-35.465-44.365-35.465-17.469 0-35.063 17.414-35.063 35.465 0 17.469 17.594 35.063 35.063 35.063 26.896 0 44.365-17.594 44.365-35.063zM542.66 659.69c0-26.329-17.594-43.797-43.742-43.797-26.896 0-53.099 17.469-53.099 43.797 0 26.785 26.203 44.365 53.099 44.365 26.148 0 43.742-17.594 43.742-44.365zM851.927 412.839c0-18.051-18.051-35.465-44.365-35.465-17.469 0-35.063 17.414-35.063 35.465 0 17.469 17.594 35.063 35.063 35.063 26.329 0 44.365-17.594 44.365-35.063zM722.307 606.19c-30.093 142.064-182.498 247.82-355.916 247.82-194.32 0-353.175-131.904-353.175-300.061 0-96.841 53.099-176.56 141.261-238.393l-35.063-106.032 123.17 61.668c44.365-8.734 79.428-17.414 123.792-17.414 11.199 0 21.982 0.402 33.181 1.426-7.419 23.407-11.199 48.129-11.199 73.891 0 153.886 132.361 278.993 299.895 278.993 11.656 0 22.84-0.457 34.039-1.882zM1010.783 333.025c0 141.095-141.261 255.987-300.061 255.987-168.046 0-299.95-114.892-299.95-255.987s131.904-255.987 299.95-255.987c35.008 0 70.693 9.302 106.158 18.051l96.896-53.099-26.785 88.107c71.095 53.099 123.792 123.682 123.792 202.944z" />
<glyph unicode="&#xe11a;" glyph-name="whatsapp" d="M649.013 398.74c-16.427 0-48.093-61.255-66.97-61.255-5.074 0-9.409 1.885-13.919 4.335-35.303 17.748-66.231 35.984-95.43 63.938-23.95 22.647-50.368 56.764-64.345 86.352-1.885 3.189-3.189 6.453-3.189 9.642 0 14.483 43.584 41.64 43.584 65.59 0 6.22-32.289 92.241-36.624 103.012-6.395 16.368-9.409 21.501-26.575 21.501-8.106 0-15.63 1.885-23.386 1.885-13.18 0-23.386-5.132-32.795-13.977-30.404-28.46-45.469-58.067-46.772-99.765v-5.074c-0.564-43.584 20.936-87.149 44.887-122.645 54.296-80.15 110.495-150.308 200.833-191.191 27.157-12.656 89.774-39.249 120.119-39.249 36.042 0 94.691 22.647 109.232 58.067 5.638 14.541 10.73 32.289 10.73 48.134 0 2.45 0 6.22-1.303 9.409-4.335 7.524-107.289 61.255-118.077 61.255zM520.787 64.025c-77.176 0-153.555 23.386-218.017 65.59l-152.816-48.658 50.019 147.101c-49.455 67.709-75.855 149.22-75.855 232.558 0 218.581 178.087 396.592 396.651 396.592s396.592-178.029 396.592-396.592c0-218.581-178.029-396.592-396.592-396.592zM520.787 936.464c-262.729 0-475.828-213.099-475.828-475.828 0-86.585 23.153-171.809 67.883-245.738l-85.439-255.362 262.904 84.077c70.723-38.608 150.366-58.806 230.498-58.806 262.729 0 475.828 213.099 475.828 475.828s-213.099 475.828-475.828 475.828z" />
<glyph unicode="&#xe12b;" glyph-name="diamond" d="M488.292 901.697l-189.666-271.575-104.532 270.497zM173.611 883.377l102.377-265.109-250.022 1.078zM31.361 594.56l254.332-1.078 226.306-599.18zM512 16.933l-199.365 575.472 186.433-1.078zM499.068 617.191l-178.89 1.078 178.89 255.41 1.078 1.078-1.078-210.142zM998.027 619.346l-251.099-1.078 103.454 265.109zM829.914 900.62l-104.532-270.497-189.666 271.575zM523.854 664.608v210.142l1.078-1.078 178.89-255.41-178.89-1.078zM524.932 591.327l186.433 1.078-199.365-575.472zM512-5.697l226.306 599.18 254.332 1.078z" />
<glyph unicode="&#xe13b;" glyph-name="notification" d="M103.597 246.911v-81.689h816.886c0 204.214-68.071 108.923-108.923 231.449-40.837 122.486 54.671 272.3-122.526 435.663-68.071 54.671-54.671 0-122.526 81.689-68.071 95.36-122.526-27.329-136.143-27.329-27.383-27.329-163.377-54.671-190.652-217.886-27.329-81.689 0-176.994-13.671-258.683-27.329-81.689-122.526-122.526-122.526-163.323l0.108 0.108zM389.5 56.313c0-122.526 245.066-190.611 245.066 54.712h-245.066v-54.712z" />
<glyph unicode="&#xe14b;" glyph-name="home" d="M869.66 387.47c0 1.149 0 2.424-0.748 3.74l-356.913 294.223-356.913-294.223c0-1.33-0.748-2.59-0.748-3.74v-297.908c0-21.87 18.186-39.891 39.891-39.891h238.21v238.446h159.121v-238.446h238.21c21.705 0 39.891 18.020 39.891 39.891v297.908zM1007.935 430.311c6.857 8.006 5.582 21.122-2.424 27.799l-135.865 113.122v253.238c0 11.164-8.754 19.863-20.028 19.863h-119.050c-11.289 0-20.028-8.699-20.028-19.863v-121.058l-151.461 126.654c-25.956 21.705-68.216 21.705-94.188 0l-446.432-371.942c-8.006-6.676-9.266-19.807-2.424-27.799l38.34-45.944c3.172-3.74 8.172-6.164 13.186-6.912 5.582-0.512 10.596 1.33 14.848 4.488l429.562 358.188 429.562-358.188c3.74-3.172 8.006-4.488 13.006-4.488 0.748 0 1.26 0 1.842 0 5.015 0.748 10.014 3.172 13.186 6.912l38.34 45.944z" />
<glyph unicode="&#xe15b;" glyph-name="help" d="M23.998 463.018v0c0 37.54 7.508 75.076 15.016 105.108 7.508 37.54 22.524 82.584 45.048 112.616l15.016 30.032c15.016 15.016 30.032 37.54 37.54 52.552l15.016 15.016c7.508 0 7.508 7.508 7.508 7.508 15.016 15.016 37.54 37.54 52.552 52.552 37.54 22.524 75.076 45.048 112.616 60.060 22.524 7.508 45.048 15.016 67.568 22.524 52.552 15.016 82.584 15.016 135.14 15.016v0c60.060 0 142.648-15.016 195.2-45.048l15.016-7.508c37.54-15.016 60.060-37.54 90.092-60.060l15.016-15.016c22.524-15.016 37.54-37.54 52.552-52.552 0-7.508 0-7.508 7.508-7.508 22.524-37.54 37.54-60.060 52.552-90.092s22.524-60.060 30.032-90.092c15.016-45.048 15.016-82.584 15.016-135.14v0c0-52.552-15.016-97.6-30.032-150.152 0-7.508 0-15.016-7.508-22.524l-15.016-30.032c0 0 0 0 0-7.508-15.016-30.032-37.54-52.552-52.552-82.584l-52.552-52.552c-7.508 0-7.508 0-7.508-7.508l-22.524-22.524c-22.524-15.016-45.048-22.524-67.568-37.54 0 0-7.508 0-7.508-7.508-30.032-15.016-52.552-22.524-82.584-30.032-7.508-7.508-15.016-7.508-22.524-7.508-37.54-7.508-67.568-15.016-105.108-15.016v0c-82.584 0-112.616 7.508-180.184 30.032-7.508 0-15.016 0-22.524 7.508-7.508 0-15.016 7.508-22.524 7.508-30.032 15.016-52.552 30.032-82.584 52.552l-37.54 30.032c0 0-7.508 0-7.508 7.508 0 0-7.508 0-7.508 7.508l-15.016 15.016c-22.524 15.016-37.54 45.048-52.552 67.568-30.032 37.54-45.048 90.092-60.060 142.648 0 7.508-7.508 15.016-7.508 22.524-7.508 37.54-7.508 67.568-7.508 112.616zM557.046 200.25v90.092c-7.508 0-52.552 0-60.060 0 0 0 0 0-7.508 0h-22.524v-97.6h90.092c0 0 0 0 0 7.508zM339.322 545.602c7.508 0 7.508 0 15.016 0 15.016 0 52.552-7.508 60.060-7.508 15.016 45.048 52.552 82.584 90.092 82.584 22.524 0 45.048 0 60.060-15.016 15.016-7.508 22.524-22.524 30.032-30.032 7.508-22.524 0-37.54-7.508-52.552-7.508-7.508-15.016-15.016-22.524-22.524l-45.048-37.54c-15.016-15.016-22.524-22.524-37.54-45.048-7.508-7.508-7.508-15.016-7.508-22.524-7.508-22.524-7.508-45.048-7.508-75.076h82.584c0 22.524 0 45.048 15.016 60.060l67.568 67.568c0 0 7.508 7.508 7.508 7.508l15.016 15.016c60.060 60.060 37.54 142.648-22.524 187.692-30.032 22.524-60.060 37.54-97.6 45.048-7.508 0-7.508 0-15.016 0-15.016 0-30.032 0-45.048-7.508-45.048-7.508-97.6-37.54-120.124-82.584-7.508-15.016-15.016-37.54-15.016-67.568z" />
<glyph unicode="&#xe16b;" glyph-name="admin-owner" d="M406.791 295.083c-67.491-27.441-131.822-62.917-191.162-105.091-172.027-95.618-172.027-28.665-172.027-229.489l936.709-0.114c0 200.767 9.588 133.871-172.027 229.489-59.3 42.231-123.786 77.708-191.219 105.206 0 105.149 19.135 95.561 28.665 114.753 23.422 23.88 39.936 53.559 47.801 86.071 6.583 15.174 9.988 31.573 9.988 48.087 0 3.062-0.172 6.199-0.384 9.261 19.135-9.588 28.665 47.801 28.665 57.405s9.588 76.483-19.078 66.878l-9.931 85.956c-47.743 229.489-334.581 229.489-372.794 0l-18.694-86.071c-19.078 9.588-19.078-57.348-19.078-66.878 9.588-38.213 19.078-57.348 38.213-57.348v-57.405c7.865-32.472 24.378-62.191 47.801-86.013 19.135-19.078 28.665-9.588 28.665-114.753l-0.114 0.057z" />
<glyph unicode="&#xe17b;" glyph-name="profile" d="M925.752 122.704c0 170.198-42.133 366.637-211.505 366.637-52.35-50.978-123.429-82.681-202.247-82.681s-149.897 31.703-202.247 82.681c-169.385 0-211.505-196.453-211.505-366.637 0-94.283 62.181-171.317 137.735-171.317h552.047c75.555 0 137.735 77.033 137.735 171.317zM760.19 696.224c0 137.123-111.227 248.39-248.19 248.39s-248.243-111.28-248.243-248.39c0-136.963 111.28-248.243 248.243-248.243s248.19 111.28 248.19 248.243z" />
<glyph unicode="&#xe18b;" glyph-name="logout" d="M966.17 410.172c0 143.636-66.2 276.149-181.598 362.526-33.177 25.461-81.094 18.895-105.828-14.682-25.404-33.177-18.34-81.094 14.837-105.999 76.881-57.911 121.008-146.068 121.008-241.845 0-166.744-135.845-302.761-302.606-302.761s-302.606 136.017-302.606 302.761c0 95.776 44.299 183.934 121.18 241.845 33.022 24.906 40.069 72.822 14.682 105.999-24.734 33.578-72.095 40.126-105.828 14.682-115.398-86.377-181.598-218.891-181.598-362.526 0-250.133 204.054-454.342 454.17-454.342s454.17 204.209 454.17 454.342zM587.753 864.416c0 41.523-34.402 75.753-75.753 75.753s-75.753-34.247-75.753-75.753v-378.588c0-41.351 34.402-75.656 75.753-75.656s75.753 34.288 75.753 75.656v378.588z" />
<glyph unicode="&#xe19b;" glyph-name="trash" d="M411.981 960h204.8c38.102 0 66.679-33.34 66.679-71.442v-57.153c0 0 0-4.763 0-4.763h157.172c28.577 0 47.628-19.051 47.628-47.628v-9.526c0-28.577-19.051-47.628-47.628-47.628h-657.265c-28.577 0-47.628 19.051-47.628 47.628v9.526c0 28.577 19.051 47.628 47.628 47.628h161.935c0 0 0 4.763 0 4.763v57.153c0 38.102 28.577 71.442 66.679 71.442zM169.079 674.233l71.442-676.316c4.763-38.102 19.051-61.916 57.153-61.916h438.177c38.102 0 52.391 47.628 57.153 85.73l61.916 662.028-685.842-9.526zM678.697 621.842v0c19.051 0 33.34-14.288 33.34-33.34l-38.102-514.381c-4.763-19.051-19.051-33.34-38.102-33.34v0c-19.051 0-33.34 14.288-33.34 33.34l38.102 514.381c4.763 19.051 19.051 33.34 38.102 33.34zM507.237 617.079v0c19.051 0 33.34-14.288 33.34-33.34v-514.381c0-19.051-14.288-33.34-33.34-33.34v0c-19.051 0-33.34 14.288-33.34 33.34v514.381c0 19.051 14.288 33.34 33.34 33.34zM345.302 617.079v0c19.051 0 33.34-14.288 33.34-33.34l33.34-514.381c0-19.051-14.288-33.34-33.34-33.34v0c-19.051 0-33.34 14.288-33.34 33.34l-33.34 514.381c0 19.051 14.288 33.34 33.34 33.34zM407.218 826.642h214.326v61.916c0 4.763 0 9.526-4.763 9.526h-204.8c-4.763 0-4.763-4.763-4.763-9.526v-61.916z" />
<glyph unicode="&#xe20b;" glyph-name="edit" d="M235.546 9.279l-163.469 163.469-67.311-230.78 230.78 67.311zM649.025 797.775l221.164-211.548c28.847 28.847 67.311 67.311 105.774 105.774 57.695 57.695 57.695 153.853 0 211.548-67.311 67.311-163.469 67.311-221.164 0-38.463-28.847-67.311-67.311-105.774-105.774zM822.109 547.764l-211.548 211.548-509.638-500.022 221.164-221.164 500.022 509.638z" />
<glyph unicode="&#xe21b;" glyph-name="delete" d="M181.576 911.999l-126.544-126.544 330.424-337.456-330.424-337.456 126.544-126.544 330.424 337.456 330.424-330.424 126.544 119.513-330.424 337.456 330.424 337.456-126.544 126.544-330.424-337.456z" />
<glyph unicode="&#xe22b;" glyph-name="save" d="M19.884 960v-1024h984.233v825.165l-188.893 198.835h-795.34zM278.369 254.136h188.893c19.883 0 29.825-9.942 29.825-19.883v0c0-19.883-9.942-29.825-29.825-29.825h-188.893c-19.883 0-29.825 9.942-29.825 29.825v0c0 9.942 9.942 19.883 29.825 19.883zM536.854 254.136c29.825 0 29.825-49.709 0-49.709s-29.825 49.709 0 49.709zM278.369 343.612h139.184c9.942 0 19.883-9.942 19.883-29.825v0c0-9.942-9.942-29.825-19.883-29.825h-139.184c-9.942 0-19.883 19.883-19.883 29.825v0c0 19.883 9.942 29.825 19.883 29.825zM169.010 413.204h636.272v-427.495h-636.272v427.495zM208.777 920.233h546.796v-338.019h-546.796v338.019zM566.68 850.641h119.301v-208.777h-119.301v208.777z" />
<glyph unicode="&#xe23b;" glyph-name="add" d="M414.091 952.606h195.818v-406.697h406.697v-195.818h-406.697v-406.697h-195.818v406.697h-406.697v195.818h406.697z" />
<glyph unicode="&#xe24b;" glyph-name="admin_department" d="M504.347 960.713c76.524 0 137.744-61.219 137.744-137.744s-61.219-153.049-137.744-153.049c-91.829 0-153.049 76.524-153.049 153.049s61.219 137.744 153.049 137.744zM458.433 593.396h61.219v-107.134h397.926v-183.658h-76.524v107.134h-688.719v-107.134h-76.524v183.658h382.621v107.134zM886.969 226.080c76.524 0 137.744-61.219 137.744-137.744s-61.219-153.049-137.744-153.049c-91.829 0-153.049 76.524-153.049 153.049s61.219 137.744 153.049 137.744zM504.347 226.080c76.524 0 137.744-61.219 137.744-137.744 0-91.829-61.219-153.049-137.744-153.049s-137.744 61.219-137.744 153.049c0 76.524 61.219 137.744 137.744 137.744zM137.031 226.080c76.524 0 153.049-61.219 153.049-137.744s-76.524-153.049-153.049-153.049c-76.524 0-137.744 76.524-137.744 153.049s61.219 137.744 137.744 137.744z" />
<glyph unicode="&#xe25b;" glyph-name="setting" d="M327.9 786.694c-18.108 0-111.667 48.289-126.757 57.342l-84.504-81.486c15.090-51.307 111.667-162.974 3.018-217.299-18.108-9.054-87.523-30.181-111.667-33.199v-126.757c30.181-3.018 75.451-21.126 108.649-30.181 39.234-15.090 18.108 3.018 36.216-27.162 48.289-75.451-15.090-114.685-36.216-199.19l81.486-75.451c30.181 18.108 57.342 30.181 87.523 45.27 39.234 21.126 48.289 21.126 87.523 3.018 42.252-18.108 36.216-30.181 51.307-78.469 33.199-96.577 21.126-78.469 123.74-78.469 63.378 0 18.108 117.703 99.595 156.937 57.342 27.162 78.469 6.036 175.045-45.27l84.504 78.469c-24.144 93.559-169.010 196.171 108.649 259.551v117.703c-33.199 9.054-60.36 18.108-90.541 30.181-51.307 15.090-51.307 6.036-72.433 57.342-15.090 45.27-9.054 39.234 12.072 81.486 18.108 33.199 24.144 60.36 39.234 87.523l-78.469 75.451c-33.199-9.054-178.063-114.685-223.334 0-12.072 36.216-21.126 75.451-36.216 108.649h-117.703c-9.054-33.199-21.126-69.415-33.199-105.631-12.072-33.199-45.27-60.36-87.523-60.36zM512 608.631c87.523 0 159.955-72.433 159.955-159.955s-72.433-159.955-159.955-159.955c-87.523 0-159.955 72.433-159.955 159.955s72.433 159.955 159.955 159.955z" />
<glyph unicode="&#xe26b;" glyph-name="user_permissions" d="M832.286 665.521c-101.168 0-183.673-79.559-183.673-177.78 0-11.786 1.964-23.573 3.928-35.359l-285.823-287.787 0.983-143.402c59.915 0 102.149 0.983 126.705 0.983 20.626-0.983 25.537 0 25.537 13.751 0.983 40.27 0.983 59.915 0.983 59.915 33.395 0 55.986 0.983 66.79 0 7.858 0 8.84 2.947 9.822 9.822 1.964 49.11 5.894 72.684 5.894 72.684l63.843 3.928c20.626 0.983 19.644 1.964 21.609 19.644l5.894 58.932c38.306 1.964 57.95 2.947 57.95 2.947l42.235 50.093c11.786-2.947 24.555-3.928 37.323-3.928 101.168 0 182.691 79.559 182.691 177.78s-81.523 177.78-182.691 177.78zM33.75 76.196c-29.467 38.306-32.412 77.595-9.822 116.883 43.217 38.306 81.523 58.932 120.812 84.47 43.217 27.502 102.149 55.004 130.633 76.612 34.378 25.537 36.342 76.612 33.395 94.292 0 2.947-15.715 16.698-28.484 33.395-5.894 7.858-12.769 45.181-15.715 50.093-34.378 51.075-51.075 85.452-17.68 104.114 34.378 35.359-42.235 66.79-2.947 151.26 13.751 30.448 36.342 46.164 72.684 62.862 29.467 16.698 62.862 25.537 97.238 24.555 35.359 0.983 68.754-7.858 98.221-24.555 36.342-16.698 58.932-32.412 72.684-62.862 39.289-84.47-37.323-115.901-2.947-151.26 33.395-18.662 16.698-53.039-17.68-104.114-2.947-4.911-9.822-42.235-15.715-50.093-12.769-16.698-28.484-30.448-28.484-33.395-1.964-12.769-1.964-43.217 11.786-68.754l-194.477-200.37c0-39.289 0-73.665 0.983-103.132h-304.485zM730.136 248.083c23.573-14.733 48.128-31.431 74.648-55.004 22.591-39.289 19.644-78.576-9.822-116.883h-189.566c33.395 9.822 26.52 34.378 34.378 80.541 37.323 0 68.754 1.964 75.63 11.786 8.84 13.751 6.875 46.164 14.733 79.559zM413.865 149.862l229.837 229.837c4.911 4.911 12.769 4.911 18.662 0v0c4.911-4.911 4.911-13.751 0-18.662l-229.837-229.837c-4.911-5.894-13.751-5.894-18.662 0v0c-4.911 4.911-4.911 12.769 0 18.662zM888.271 583.998c22.591 0 41.253-17.68 41.253-40.27 0-21.609-18.662-40.27-41.253-40.27s-41.253 18.662-41.253 40.27c0 22.591 18.662 40.27 41.253 40.27z" />
<glyph unicode="&#xe27b;" glyph-name="admin_main" d="M507.406 170.858c134.295 83.934 100.721 125.902 109.115 167.869 8.393 83.934 25.18 8.393 67.148 167.869 16.787 75.541 58.754 58.754 58.754 167.869-75.541 25.18 16.787 25.18-41.967 176.262-67.148 151.082-352.525 151.082-386.098-33.574-8.393-75.541 8.393-83.934-16.787-125.902 0-8.393-33.574-33.574 8.393-117.508 8.393-25.18 16.787-16.787 25.18-41.967s8.393-41.967 16.787-67.148c0-25.18 8.393-33.574 25.18-58.754 8.393-16.787 0 0 16.787-16.787 41.967-58.754-41.967-67.148 33.574-142.689 33.574-33.574 58.754-58.754 83.934-75.541zM12.193 53.35v-117.508h453.246c16.787 75.541 25.18 100.721 25.18 193.049l-75.541-16.787-58.754 151.082c-16.787-8.393-344.131-159.475-344.131-209.836zM599.734 112.104l-67.148 16.787c0-83.934 8.393-125.902 25.18-193.049h453.246c0 193.049 33.574 125.902-335.738 327.344l-75.541-151.082z" />
<glyph unicode="&#xe28b;" glyph-name="addemployee" d="M99.003 282.632c12.412 204.8 304.097 347.539 490.279 148.945 12.412-12.412 12.412-12.412 37.236-12.412 12.412 6.206 31.030 12.412 49.648 12.412 136.533 0 242.036-105.503 248.242-229.624 12.412-179.976-173.77-322.715-341.333-242.036-68.267 31.030-99.297 68.267-130.327 136.533-6.206 12.412 6.206 6.206-18.618 12.412h-335.127v173.77zM645.136 59.214v93.091h-99.297v68.267h99.297v93.091h62.061v-93.091h99.297v-68.267h-99.297v-93.091h-62.061zM223.124 897.032c-124.121-148.945-12.412-353.745 155.152-347.539 173.77 0 273.067 198.594 155.152 341.333-68.267 86.885-229.624 93.091-310.303 6.206zM645.136 369.517c-254.448-55.855-167.564-422.012 74.473-372.364 93.091 18.618 173.77 111.709 148.945 223.418-18.618 93.091-111.709 173.77-223.418 148.945z" />
<glyph unicode="&#xe29b;" glyph-name="mapmarker" d="M513.74 931.435c-198.246 0-358.229-159.982-358.229-354.755 0-52.167 10.436-100.86 31.302-146.072 90.424-194.765 260.85-399.967 309.536-459.089 3.481-3.481 10.436-6.955 17.391-6.955 3.481 0 10.436 3.481 13.91 6.955 48.693 59.122 219.112 264.324 309.536 459.089 20.865 45.212 31.302 93.905 31.302 146.072 0 194.765-159.982 354.755-354.755 354.755zM513.74 392.351c-104.341 0-184.329 83.469-184.329 184.329s79.995 184.329 184.329 184.329c100.86 0 184.329-83.469 184.329-184.329s-83.469-184.329-184.329-184.329z" />
<glyph unicode="&#xe30c;" glyph-name="assignment_large" d="M186.184 893.506v-731.429l226.078-226.078h425.558v957.506h-93.091v-39.896c0-13.299 0-13.299 0-26.597 0-39.896-26.597-66.494-53.195-66.494-39.896 0-66.494 26.597-66.494 66.494 0 13.299 0 13.299 13.299 26.597v39.896h-66.494v-39.896c0-13.299 0-13.299 0-26.597 0-39.896-26.597-66.494-53.195-66.494-39.896 0-66.494 26.597-66.494 66.494 0 13.299 0 13.299 13.299 26.597v39.896h-66.494v-39.896c0-13.299 0-13.299 0-26.597 0-39.896-26.597-66.494-53.195-66.494-39.896 0-66.494 26.597-66.494 66.494 0 13.299 0 13.299 13.299 26.597v39.896h-106.39zM691.535 960v0c13.299 0 39.896-26.597 39.896-39.896v-93.091c0-26.597-26.597-39.896-39.896-39.896v0c-26.597 0-39.896 13.299-39.896 39.896v93.091c0 13.299 13.299 39.896 39.896 39.896zM518.652 960v0c13.299 0 39.896-26.597 39.896-39.896v-93.091c0-26.597-26.597-39.896-39.896-39.896v0c-26.597 0-39.896 13.299-39.896 39.896v93.091c0 13.299 13.299 39.896 39.896 39.896zM345.769 960v0c13.299 0 39.896-26.597 39.896-39.896v-93.091c0-26.597-26.597-39.896-39.896-39.896v0c-26.597 0-39.896 13.299-39.896 39.896v93.091c0 13.299 13.299 39.896 39.896 39.896zM292.574 654.13v-79.792h438.857v79.792h-438.857zM292.574 521.143v-79.792h438.857v79.792h-438.857zM292.574 388.156v-79.792h438.857v79.792h-438.857zM252.678 707.325h518.649v-704.831h-279.273c-66.494 53.195-79.792 132.987-39.896 199.481-39.896-39.896-159.584-66.494-199.481 39.896v465.455z" />
<glyph unicode="&#xe31b;" glyph-name="leftall" d="M77.678 449.79c0-20.264 9.359-24.897 21.409-37.318 9.772-10.025 18.293-18.706 28.065-28.744l361.668-371.174c21.102-21.675 19.798-24.684 42.458-24.684 12.888 0 43.443 36.693 57.329 50.779 10.917 11.024 12.728 12.528 12.728 30.089 0 13.101-32.019 40.9-41.632 50.779-15.59 16.003-29.929 30.715-45.533 46.718-20.636 21.209-267.233 271.92-273.624 281.732 6.55 10.132 301.33 310.223 341.085 350.963 12.888 13.247 19.691 15.431 19.691 33.724 0 12.728-5.299 17.201-11.849 23.805-14.086 14.246-45.213 51.657-58.208 51.657-22.194 0-20.889-2.543-41.632-23.805l-361.614-371.174c-9.772-10.025-18.293-18.706-28.065-28.744-8.521-8.787-22.3-18.4-22.3-34.616zM422.664 449.79c0-20.264 9.413-24.897 21.462-37.318l389.68-399.918c21.102-21.675 19.851-24.684 42.458-24.684 12.941 0 43.496 36.693 57.382 50.779 10.917 11.024 12.675 12.528 12.675 30.089 0 13.101-31.966 40.9-41.579 50.779-31.34 32.166-312.447 318.118-319.21 328.463 6.55 10.025 287.191 295.671 318.331 327.571 9.772 10.025 42.458 38.557 42.458 51.711 0 24.737-9.772 27.133-31.074 48.955-23.858 24.484-23.486 31.913-49.474 31.913-12.528 0-49.008-42.258-59.086-52.549l-361.668-371.174c-8.574-8.787-22.354-18.4-22.354-34.616z" />
<glyph unicode="&#xe32b;" glyph-name="branch" d="M774.899 848.597c-96.635 0-175.28-78.605-175.28-175.28 0-77.819 51.343-143.159 121.704-165.954-7.31-46.686-27.411-85.129-61.603-116.316-97.461-88.811-276.788-96.946-360.523-95.498v310.832c72.067 21.766 125.183 87.986 125.183 167.105 0 96.635-78.659 175.28-175.28 175.28s-175.24-78.659-175.24-175.28c0-79.119 53.062-145.338 125.183-167.105v-316.734c-72.121-21.766-125.183-88.026-125.183-167.105 0-96.635 78.605-175.28 175.24-175.28 96.689 0 175.28 78.659 175.28 175.28 0 27.56-7.053 53.319-18.396 76.534 103.159 9.326 233.215 37.928 320.93 117.67 54.916 49.949 86.686 113.366 95.335 188.708 73.569 20.778 127.877 87.769 127.877 167.876 0 96.689-78.605 175.28-175.24 175.28zM174.013 773.471c0 41.394 33.678 75.126 75.072 75.126s75.126-33.732 75.126-75.126c0-41.394-33.732-75.072-75.126-75.072s-75.072 33.678-75.072 75.072zM249.099 47.403c-41.394 0-75.072 33.678-75.072 75.126 0 41.082 33.218 74.503 74.192 74.977 1.705-0.149 3.628-0.257 6.47-0.46 38.863-2.897 69.536-35.032 69.536-74.503 0-41.448-33.732-75.126-75.126-75.126zM774.899 598.231c-41.394 0-75.126 33.678-75.126 75.072s33.732 75.126 75.126 75.126c41.394 0 75.072-33.732 75.072-75.126s-33.678-75.072-75.072-75.072z" />
<glyph unicode="&#xe33b;" glyph-name="candidates" d="M698.852 248.236c-18.082 6.027-18.082 6.027-36.165 12.055-6.027 6.027-12.055 6.027-18.082 12.055-24.11 6.027-12.055 0-24.11 12.055 36.165-6.027 60.274-12.055 78.356-36.165zM783.234 302.483c30.137-6.027 78.356-24.11 96.439-42.191-24.11 0-30.137 6.027-54.246 18.082-12.055 0-12.055 0-24.11 6.027-18.082 12.055-12.055 12.055-18.082 18.082zM879.673 260.291c24.11-24.11 18.082-12.055 18.082-54.246h114.521c0 120.548-60.274 54.246-132.603 132.603 6.027 48.219 24.11 42.191 24.11 78.356 0 12.055-6.027 66.301-6.027 102.466-30.137 6.027-150.685 72.329-132.603-102.466 0-48.219 0-18.082 12.055-42.191 24.11-60.274-12.055-36.165 6.027-72.329-36.165 0-54.246 6.027-72.329 30.137-6.027 18.082-6.027 18.082-6.027 36.165l12.055 42.191c24.11 36.165 24.11 6.027 12.055 84.384-6.027 30.137 0 66.301 0 102.466-192.877 126.575-216.987-90.411-186.85-174.795 54.246-132.603 24.11-30.137 18.082-114.521-102.466 12.055-72.329 54.246-108.494 66.301 0 30.137 6.027 24.11 6.027 30.137l6.027 18.082c18.082 66.301 0 18.082 30.137 54.246 24.11 42.191 0 78.356 0 126.575 0 96.439 18.082 120.548-48.219 150.685l-18.082 12.055c-66.301 30.137-210.959 24.11-198.904-156.713 0-42.191 0-18.082 0-60.274-6.027-72.329 6.027-60.274 24.11-90.411l30.137-84.384c-36.165-12.055-6.027 0-36.165-30.137-12.055-18.082-12.055-18.082-36.165-24.11-30.137-12.055-60.274-30.137-96.439-42.191-102.466-42.191-102.466-24.11-102.466-162.74h705.207c0 42.191-6.027 96.439-18.082 132.603 36.165-24.11 30.137-36.165 30.137-90.411h162.74l-12.055 102.466zM620.495 284.401c-24.11 0-18.082 0-36.165 6.027-12.055 6.027-18.082 12.055-24.11 18.082 24.11 0 18.082 0 36.165-6.027 12.055-6.027 18.082-12.055 24.11-18.082z" />
<glyph unicode="&#xe34b;" glyph-name="badge" d="M184.733 751.843c0 23.73 35.048 34.44 49.956 40.038 36.873 14.786 27.868 10.587 34.805 52.815l0.015 0.252c1.2 15.726 7.292 30.084 16.657 41.429 27.868 25.13 79.102-4.685 95.165 15.334 33.953 42.532 29.937 78.432 96.504 44.662 8.762-4.503 25.799-17.463 34.744-17.463 29.45 0 66.932 64.316 109.525 7.545l24.339-36.143c18.315-17.889 67.175 12.352 94.922-15.638 29.389-29.511 4.016-72.773 34.44-86.464 57.379-25.738 80.805-23.67 56.466-95.287-13.143-38.395-2.495-30.302 24.339-63.525 37.725-46.67 3.103-62.855-24.826-96.747-16.672-20.323 9.918-40.159 9.918-78.736 0-46.305-67.297-43.202-78.371-63.464-5.111-9.37-6.328-44.844-11.561-59.387-15.759-43.445-57.744-26.529-87.498-27.199-17.585-0.426-20.262-8.701-27.807-20.201-34.5-52.268-46.913-52.876-90.967-30.059-8.458 4.381-22.879 16.611-33.101 16.064l-0.882-0.257c-12.193-4.098-23.545-10.024-33.375-17.206-44.114-23.609-57.136-16.368-89.446 32.31-8.64 13.265-9.066 19.349-30.85 19.349-26.286-0.183-69.366-14.847-84.334 28.172-4.989 14.299-5.72 49.773-10.405 58.413s-12.169 10.587-21.783 13.691c-96.747 31.397-41.985 73.321-41.985 118.652 0 14.725-45.879 35.778-45.879 73.017 0 18.254 22.757 43.080 34.926 54.763 27.32 26.408-3.651 33.283-3.651 91.271zM299.43 603.741c0.412-117.742 95.956-213.031 213.755-213.031 1.862 0 3.718 0.024 5.569 0.071l-0.274-0.006c43.508 1.268 83.427 15.625 116.231 39.246l-0.621-0.425c55.043 38.953 90.541 102.366 90.541 174.070 0 117.416-95.185 212.601-212.601 212.601s-212.601-95.185-212.601-212.601c0-0.038 0-0.076 0-0.113v0.006zM117.801 38.53c0-39.612 62.186 2.921 85.491 14.603 22.088 11.013 44.966 21.844 66.932 33.344 2.012-14.825 5.077-28.065 9.221-40.819l-0.459 1.633c3.103-12.535 7.119-27.016 9.857-40.22s6.085-24.643 9.31-38.638c4.442-17.889 3.286-30.059 22.148-30.059 12.169 0 16.672 12.656 23.548 28.598 21.844 51.294 51.416 111.229 75.877 163.923 3.347 7.241 4.685 11.683 8.336 18.802l34.075 72.287c-33.953-0.73-48.678-14.482-90.297 41.072-4.896 6.255-9.514 13.282-13.536 20.679l-0.398 0.8c-9.519-2.739-20.452-4.314-31.753-4.314-22.286 0-43.141 6.125-60.974 16.784l0.543-0.301c-7.266 6.128-12.869 14.003-16.185 22.986l-0.123 0.379c-11.581-19.029-22.996-41.408-32.785-64.641l-1.289-3.447zM712.219 280.459c-0.995-0.016-2.169-0.026-3.345-0.026-15.074 0-29.789 1.538-43.997 4.466l1.402-0.241c-11.378-21.54-42.593-64.681-73.017-64.681l-31.276 2.13 25.008-52.146c4.259-9.553 8.579-18.254 12.535-27.138l86.282-187.045c14.177-28.72 31.154-24.339 37.725 2.677l23.305 95.53c3.157 9.353 5.636 20.353 6.982 31.701l0.076 0.792c38.426-22.288 83.776-44.033 130.845-62.336l6.853-2.345c6.085 0 14.603 10.405 14.603 16.672l-113.298 247.527c-2.491 4.537-5.147 10.164-7.497 15.947l-0.413 1.151c-1.841 6.734-5.385 12.485-10.143 16.959l-0.019 0.017c-10.55-23.538-33.774-39.638-60.758-39.638-0.652 0-1.302 0.009-1.949 0.028l0.095-0.002zM405.609 630.879c14.96-16.606 30.331-31.881 46.505-46.275l0.591-0.516c11.074-13.995-5.415-48.678-5.415-78.371 21.601 5.050 44.784 29.146 66.932 29.146 11.744 0 49.104-25.556 64.681-29.146 0 55.249-32.432 62.125 14.543 98.025 10.277 7.934 19.204 16.861 26.886 26.799l0.252 0.339c-81.11 18.863-65.654-8.275-91.758 43.749-5.251 8.855-10.17 19.167-14.165 29.929l-0.438 1.347h-4.198c-0.791-3.407-27.807-59.813-28.842-60.847-21.536-6.216-47.182-11.209-73.486-14.003l-2.026-0.174z" />
<glyph unicode="&#xe35b;" glyph-name="attachament" d="M313.446 487.517c6.126-6.126 6.126-12.802 12.802-25.605 0 6.126 6.126 12.802 12.802 19.234l44.839 38.468c0 6.126 0 6.126 6.126 12.802-0.337 3.055-0.529 6.598-0.529 10.185 0 28.984 12.535 55.041 32.479 73.044l0.087 0.077 192.586 185.664c6.126 6.126 6.126 12.802 12.802 19.234l44.839 38.468c19.234 25.605 57.641 25.605 89.677 25.605 24.658-9.554 45.89-22.557 64.321-38.681l-0.248 0.212c2.815-7.597 7.191-14.042 12.77-19.205l0.032-0.030c9.082-15.644 14.441-34.424 14.441-54.456s-5.36-38.812-14.724-54.984l0.282 0.528-6.126-6.126c-44.839-51.27-89.677-96.109-140.887-147.38h-6.126l-44.839-51.27c-7.175-7.769-15.649-14.21-25.1-19.002l-0.504-0.232c0-6.126 0-6.126-6.126-6.126-51.27-57.641-64.073-76.875-147.38-57.641l-57.641-57.641 19.234-12.802c16.952-6.918 36.582-11.502 57.108-12.776l0.533-0.026h44.839c33.712 4.168 64.102 15.546 90.53 32.55l-0.853-0.514 121.714 121.714c60.422 53.149 114.961 109.706 164.592 170.432l2.022 2.552c15.68 27.301 24.927 60.024 24.927 94.907 0 46.844-16.677 89.794-44.418 123.234l0.257-0.319c-18.432 19.997-39.856 36.872-63.637 50.003l-1.294 0.655c-24.973 11.135-54.115 17.619-84.771 17.619-24.699 0-48.415-4.209-70.47-11.949l1.491 0.456c-6.126-6.126-12.802-6.126-19.234-12.802-13.018-2.572-24.108-9.483-31.958-19.134l-0.079-0.1-269.093-275.648c-23.097-30.587-36.994-69.247-36.994-111.152 0-15.112 1.807-29.802 5.218-43.866l-0.26 1.268zM95.623 128.685c-0.015-0.852-0.023-1.858-0.023-2.865 0-29.351 7.119-57.040 19.723-81.434l-0.466 0.992c4.895-15.482 13.79-28.533 25.48-38.366l0.124-0.102c31.218-41.455 79.637-68.514 134.45-70.496l0.311-0.009h19.050c2.389-0.186 5.173-0.293 7.982-0.293 13.219 0 25.888 2.352 37.613 6.661l-0.756-0.243c15.061 3.801 27.874 8.182 40.209 13.465l-1.741-0.663c6.126 6.126 12.802 6.126 12.802 12.802 32.036 19.234 192.218 185.786 224.255 217.823 6.126 6.126 12.802 6.126 12.802 12.802l38.468 38.468c10.287 8.935 18.842 19.541 25.31 31.445l0.294 0.592c12.792 26.141 20.271 56.885 20.271 89.376 0 7.073-0.355 14.064-1.047 20.955l0.071-0.869c0 12.802 0 44.839-12.802 44.839 0 0-51.27-44.839-57.641-51.27-12.802-12.802 6.126-38.468-25.605-76.875l-224.255-224.255-44.839-38.468c-16.039-12.668-36.551-20.321-58.849-20.321-18.53 0-35.827 5.285-50.464 14.429l0.401-0.234c-38.601 18.155-64.845 56.721-64.845 101.416 0 14.184 2.643 27.75 7.463 40.234l-0.259-0.763c3.269 3.374 5.487 7.784 6.114 12.691l0.012 0.111 18.928 18.928c6.126 6.126 6.126 12.802 12.802 12.802 7.769 7.175 14.21 15.649 19.002 25.1l0.232 0.504 224.255 217.823c3.383 0 6.126 2.742 6.126 6.126v0c18.285 8.534 39.699 13.513 62.276 13.513 5.141 0 10.222-0.258 15.23-0.762l-0.631 0.051c12.802 0 12.802-6.126 32.036 6.126l44.839 44.839c-6.126 6.126-12.802 6.126-19.234 12.802-21.842 9.63-47.31 15.236-74.087 15.236-47.887 0-91.586-17.928-124.752-47.438l0.19 0.166c-6.126 0-6.126-6.126-12.802-6.126l-19.234-19.234c-6.126-6.126-6.126-6.126-6.126-12.802-23.51-18.262-44.427-37.14-63.877-57.435l-0.196-0.205-44.839-44.839c-6.126-6.126-6.126-12.802-12.802-19.234-28.968-22.642-54.233-47.907-76.153-75.917l-0.722-0.958c-6.866-0.487-12.315-5.937-12.8-12.758l-0.003-0.044-32.036-32.036c-15.355-27.779-24.735-60.757-25.599-95.847l-0.005-0.262z" />
<glyph unicode="&#xe36b;" glyph-name="addcustomer" d="M394.638 557.901c0.984-21.702 8.221-41.526 19.96-57.93l-0.227 0.32c16.622-22.151 8.889-15.704 18.907-36.12 4.917-10.464 10.718-19.48 17.534-27.631l-0.156 0.19c-8.637-6.352-18.467-12.043-28.883-16.646l-0.996-0.399c-31.878-15.869-66.081-29.631-95.588-45.707-20.066-10.888-35.446-28.247-43.541-49.229l-0.224-0.651c-11.734-22.841-18.602-49.823-18.602-78.414 0-3.476 0.105-6.937 0.307-10.36l-0.021 0.479c1.736-3.286 4.434-5.863 7.712-7.395l0.105-0.043c56.506-17.042 121.5-27.171 188.762-27.843l0.357-0.004c16.867-0.939 36.591-1.463 56.459-1.463 74.215 0 146.695 7.429 216.742 21.589l-6.976-1.178c31.205 7.067 36.285 9.729 36.285 29.962-1.954 27.345-8.889 52.639-19.9 75.593l0.538-1.246c-8.382 21.623-23.666 39.022-43.099 49.865l-0.483 0.249c-12.797 7.728-39.984 19.526-55.15 26.304l-55.44 27.006c-20.783 12.461-16.286 5.443-6.115 22.275 3.079 5.064 5.232 8.973 7.893 14.464 7.181 16.334 14.835 30.235 23.556 43.351l-0.651-1.043c21.283 33.247 9.645 87.9 3.823 129.827-1.658 32.928-20.485 61.089-47.638 75.89l-0.483 0.232c-11.939 6.203-25.879 10.43-40.656 11.81l-0.443 0.030c-4.434 0.399-9.581 0.626-14.783 0.626-11.854 0-23.43-1.184-34.614-3.426l1.114 0.189c-42.953-9.583-74.577-47.374-74.577-92.547 0-3.777 0.227-7.502 0.651-11.163l-0.043 0.441c0.124-54.11-11.385-30.499-11.385-60.295zM12.682 347.122c-0.063-1.288-0.091-2.808-0.091-4.338 0-14.403 2.879-28.137 8.081-40.661l-0.262 0.696c11.158-25.91 27.294-47.779 47.332-65.272l0.215-0.189c19.53-17.841 41.63-33.391 65.561-45.928l1.719-0.82c11.964-6.031 17.709-9.603 30.788-15.084 39.596-17.778 85.92-32.619 134.127-42.221l4.224-0.696 18.659-3.781c6.199-1.157 12.797-2.038 20.026-3.368 50.568-8.51 108.947-13.47 168.441-13.679l0.191-0.001c15.952 0 28.474 1.033 43.765 0.991 46.145 2.238 88.914 6.691 130.96 13.344l-6.745-0.879c14.96 1.996 58.973 11.014 75.214 15.373 11.055 3.038 24.313 6.282 34.946 9.855 37.509 11.21 69.753 24.523 100.308 40.598l-3.026-1.45c20.85 11.168 38.77 23.094 55.464 36.49l-0.693-0.536c36.928 25.711 62.468 65.598 68.731 111.607l0.099 0.842c0.441 3.888 0.693 8.4 0.693 12.965 0 28.422-9.645 54.58-25.826 75.414l0.206-0.273c-1.702 2.29-3.203 4.153-5.022 6.199l-16.622 18.989c-23.012 23.763-50.038 43.468-80.012 58.061l-1.69 0.735c-10.146 5.064-21.077 10.27-32.004 14.795-9.771 5.046-21.161 9.392-33.054 12.421l-1.143 0.245c9.629-7.712 20.404-15.286 31.656-22.191l1.384-0.786c22.978-15.637 42.894-33.245 60.372-53.059l0.3-0.348c8.523-9.981 16.082-21.242 22.277-33.307l0.452-0.985c9.915-18.819 15.739-41.126 15.739-64.8 0-15.278-2.421-30-6.913-43.788l0.275 0.994c-4.812-8.187-10.108-15.277-16.075-21.736l0.070 0.081c-12.059-13.268-25.321-25.069-39.729-35.358l-0.751-0.514c-46.851-28.978-101.391-51.195-159.587-63.566l-3.363-0.604c-20.993-5.19-41.801-8.306-64.449-11.922-14.754-2.542-54.985-7.397-68.82-7.563-22.647-0.33-44.963-3.12-73.272-3.12-1.439-0.011-3.131-0.018-4.834-0.018-50.37 0-99.878 3.733-148.247 10.948l5.462-0.667c-65.806 9.391-125.19 26.12-181.028 49.613l4.773-1.786c-8.306 4.153-16.832 7.274-24.649 12.005l-23.682 14.010c-13.695 8.777-25.604 17.912-36.68 27.927l0.231-0.212c-15.907 13.597-27.164 32.25-31.286 53.438l-0.102 0.593c-0.334 4.056-0.525 8.795-0.525 13.56 0 34.378 9.897 66.443 27.003 93.495l-0.428-0.723c21.327 30.617 48.564 55.595 80.251 73.712l1.198 0.634c9.062 4.77 16.879 10.048 24.061 16.046l-0.216-0.177c-25.668-8.497-47.446-17.899-68.225-28.936l2.35 1.143c-13.554-7.48-23.225-11.964-36.987-21.077-2.583-1.744-4.649-3.368-7.108-5.064-32.805-21.833-58.803-51.518-75.659-86.433l-0.567-1.282c-4.82-11.37-7.838-24.572-8.3-38.426l-0.008-0.189zM600.3 717.766c9.565-8.085 17.607-17.595 23.866-28.289l0.273-0.516c18.907-31.752 12.461-50.58 18.039-87.9 5.759-12.597 9.113-27.339 9.113-42.847 0-12.11-2.038-23.734-5.81-34.567l0.23 0.735c-1.492-3.905-4.153-9.015-5.989-13.344-10.78-17.988-21.679-39.404-31.2-61.574l-1.386-3.635c0-7.026 28.221-17.21 34.904-20.068 40.199-13.010 74.535-34.567 102.289-62.642l0.021-0.021c10.48-13.662 19.183-29.423 25.333-46.404l0.393-1.225c50.553 1.842 98.414 10.51 143.623 25.111l-3.732-1.038c9.981 5.779 8.889 10.642 7.687 23.682-3.919 35.632-17.744 67.458-38.626 93.351l0.273-0.346c-24.903 18.135-53.473 33.628-83.991 45.103l-2.495 0.82-32.834 15.993c-3.238 2.206-6.942 4.244-10.834 5.905l-0.427 0.157c7.124 10.955 13.974 23.64 19.81 36.872l0.689 1.744c18.659 52.278 38.061 132.196 4.566 182.849l-11.509 13.886c-4.239 4.101-8.931 7.796-13.976 10.972l-0.357 0.207c-16.212 7.847-35.27 12.44-55.389 12.44-17.302 0-33.814-3.389-48.908-9.559l0.862 0.315c-11.209-5.094-20.53-12.629-27.591-21.967l-0.131-0.184c-3.627-4.604-6.822-9.849-9.357-15.441l-0.189-0.483c-2.753-5.138-5.203-11.126-7.053-17.38l-0.179-0.693zM274.448 524.28l-27.507-14.258c-22.11-11.055-49.865-22.44-72.308-33.66-24.523-9.544-43.357-29.049-51.799-53.401l-0.189-0.612c-10.274-21.127-16.572-45.873-17.288-72.018l-0.008-0.241c0-19.485 83.739-27.969 105.467-30.995 12.457-2.003 27.031-3.307 41.849-3.608l0.324-0.008c9.771 25.828 24.494 47.81 43.158 65.727l0.063 0.063c6.35 4.941 13.505 9.813 20.954 14.196l0.946 0.517c22.11 13.302 52.154 23.893 75.090 34.862 31.752 15.332 29.094 7.769-2.417 66.205l-12.129 26.593c-4.776 10.36-7.572 22.464-7.572 35.237 0 0.357 0.003 0.704 0.010 1.066l-0.001-0.060c1.827 13.319 5.008 25.35 9.477 36.73l-0.368-1.072c8.513 40.934-4.153 66.164 29.425 108.048 9.057 11.261 18.948 12.923 4.442 36.739-1.534 2.542-2.501 4.773-4.153 7.108-18.313 22.506-46.022 36.781-77.057 36.781-2.669 0-5.316-0.105-7.939-0.315l0.351 0.021c-0.105 0.001-0.227 0.001-0.343 0.001-23.305 0-44.665-8.375-61.225-22.269l0.147 0.117c-17.304-15.321-28.221-37.541-28.431-62.305v-0.033l-1.828-36.905c-0.289-17.461-10.724-0.372-7.356-30.623-0.039-0.881-0.063-1.912-0.063-2.959 0-14.079 4.191-27.172 11.41-38.115l-0.158 0.265c12.461-20.32 22.605-44.922 34.736-62.011 2.625-3.286 1.87 0.041 2.333-4.732z" />
<glyph unicode="&#xe37b;" glyph-name="company" d="M227.28 48.034v546.187l-215.385-77.008v-469.274zM127.417 371.135v61.559l69.212 23.055v-61.559zM127.417 340.379l69.212 15.402v-61.559l-69.212-23.102zM127.417 240.364l69.212 23.055v-61.559l-69.212-23.055zM96.66 424.993v-69.212l-61.559-15.402v61.321zM34.953 301.875l61.559 23.055v-61.559l-61.559-23.055zM34.953 209.561l61.559 23.055v-69.212l-61.559-15.402zM196.525 478.708l-69.212-15.402v69.355l69.212 7.701zM96.51 517.213v-61.559l-61.559-23.055v61.607zM873.482 48.034v461.573l-176.928-53.858v-407.715zM796.471 378.836l46.157 15.402v-53.858l-46.062-23.293zM796.471 294.222l46.157 7.701v-46.157l-46.157-15.402zM796.471 217.214l46.157 15.402v-53.858l-46.157-23.055zM842.628 463.402v-53.858l-46.157-7.701v53.906zM765.62 286.474v-53.858l-53.858-15.402v53.906zM711.957 186.506l53.858 15.402v-53.858l-53.858-15.402zM711.957 348.033l53.858 7.701v-53.858l-53.858-7.701zM711.957 432.646l53.858 7.701v-46.253l-53.858-15.402zM1012.103 455.749l-115.512 53.858v-461.573h115.512zM819.621 517.26v238.487l-200.031 92.315v-800.028h53.858v430.77zM258.037 48.034v530.785l-23.055 15.402v-546.187zM588.838 48.034v800.028l-323.101-92.315v-707.523zM534.98 409.592v99.968l-84.614-30.756v-100.015zM450.367 340.379l84.614 15.402v-92.315l-84.614-23.055zM311.893 294.222l84.614 23.055v-100.015l-84.614-15.402zM311.893 432.694l84.614 23.055v-100.015l-84.614-15.402zM534.98 648.079v-100.015l-84.614-30.756v99.968zM396.506 594.221v-100.015l-84.614-15.402v92.315zM534.98 686.535l-84.614-23.055v92.267l84.614 30.756zM396.506 740.346v-92.315l-84.614-30.756v92.315z" />
<glyph unicode="&#xe38b;" glyph-name="phone" d="M574.129 50.66c0-34.094-28.034-62.173-62.129-62.173s-62.129 28.075-62.129 62.173c0 34.094 28.034 62.129 62.129 62.129s62.129-28.034 62.129-62.129zM735.533 174.7c0-12.984-11.564-24.81-24.81-24.81h-397.445c-13.241 0-24.81 11.822-24.81 24.81v546.339c0 13.241 11.564 24.81 24.81 24.81h397.445c13.241 0 24.81-11.564 24.81-24.81v-546.339zM586.426 833.302c0-7.182-5.332-12.771-12.296-12.771h-124.257c-6.964 0-12.296 5.589-12.296 12.771 0 6.964 5.332 12.513 12.296 12.513h124.257c6.964 0 12.296-5.545 12.296-12.513zM810.215 845.811c0 54.046-45.232 98.804-99.492 98.804h-397.445c-54.26 0-99.492-44.758-99.492-98.804v-795.151c0-54.26 45.232-99.275 99.492-99.275h397.445c54.26 0 99.492 45.015 99.492 99.275v795.151z" />
<glyph unicode="&#xe39b;" glyph-name="tel-phone" d="M827.908 264.669c0-16.014-7.337-47.601-13.415-62.315-18.612-40.778-96.272-70.282-138.921-70.282-41.293 0-79.073 16.586-117.253 30.803-135.196 49.415-282.009 196.212-331.407 331.407-14.217 38.18-30.803 75.977-30.803 117.31 0 42.576 29.504 120.252 70.225 138.864 14.772 6.095 46.301 13.473 62.373 13.473 3.096 0 6.822 0 9.919-1.127 11.046-3.669 56.621-93.845 66.613-111.215 6.822-11.618 20.255-25.778 20.255-39.994 0-27.134-80.773-67.34-80.773-91.321 0-12.345 11.046-27.861 17.37-38.924 45.517-81.5 101.812-137.737 183.294-183.294 11.046-6.267 26.562-17.313 38.924-17.313 23.963 0 64.187 80.773 91.264 80.773 14.217 0 28.433-13.473 40.052-20.312 17.313-9.919 107.506-55.493 111.215-66.556 1.070-3.154 1.070-6.822 1.070-9.976zM986.169 744.189c0 98.315-79.702 178-177.943 178h-592.435c-98.257 0-177.943-79.702-177.943-178v-592.378c0-98.315 79.702-178 177.943-178h592.435c98.257 0 177.943 79.702 177.943 178v592.378z" />
<glyph unicode="&#xe40b;" glyph-name="print" d="M243.227 64.349v153.457h537.356v-153.457h-537.356zM243.227 447.962v383.67h383.842v-96.008c0-31.863 25.815-57.678 57.506-57.678h96.008v-229.985h-537.356zM934.286 409.649c0-20.967-17.591-38.33-38.713-38.33s-38.656 17.362-38.656 38.33c0 20.967 17.534 38.33 38.656 38.33s38.713-17.362 38.713-38.33zM1010.585 409.649c0 62.885-51.801 114.629-115.030 114.629h-38.656v153.686c0 31.921-17.935 75.612-40.487 98.526l-90.972 90.972c-22.782 22.61-66.645 40.487-98.354 40.487h-402.978c-31.52 0-57.163-25.586-57.163-57.106v-326.565h-38.33c-62.885 0-115.201-51.744-115.201-114.629v-249.464c0-10.226 8.967-19.193 19.193-19.193h134.32v-95.836c0-31.52 25.643-57.106 57.163-57.106h575.629c31.52 0 57.163 25.586 57.163 57.106v95.836h134.492c10.226 0 19.193 8.967 19.193 19.193v249.464z" />
<glyph unicode="&#xe41b;" glyph-name="employeerating" d="M560.622 477.257c-14.629-14.629-29.257-29.257-29.257-43.886-43.886-58.514-102.4-117.029-160.914-29.257-14.629 14.629-43.886 43.886-43.886 73.143 0 0 0 0 0 0-14.629-14.629-14.629 0-14.629-14.629h-14.629c-14.629-14.629-43.886-29.257-73.143-43.886s-73.143-14.629-102.4-43.886c-43.886-43.886-87.771-292.571-58.514-336.457 14.629-29.257 175.543-58.514 234.057-73.143 43.886 0 248.686-14.629 292.571 0 14.629 0 29.257 0 58.514 14.629 14.629 0 14.629 0 29.257 0 0 0 14.629 0 14.629 0-14.629 29.257-29.257 73.143-29.257 102.4 0 87.771 58.514 160.914 146.286 160.914 0 14.629-14.629 29.257-14.629 29.257 0 14.629-14.629 73.143-29.257 87.771 0 0-14.629 0-14.629 14.629-73.143 43.886-146.286 58.514-190.171 87.771 0 0 0 14.629 0 14.629zM399.708 930.743v14.629c-14.629 0 0 0-29.257-14.629-43.886-14.629-58.514-43.886-87.771-73.143-14.629-29.257-14.629-43.886-14.629-87.771 0-14.629 0-29.257 0-43.886 14.629-43.886 14.629-29.257 0-29.257 0-29.257 0-29.257 0-58.514 14.629-14.629 14.629-14.629 14.629-29.257 14.629-14.629 29.257-73.143 29.257-73.143 29.257-43.886 73.143-102.4 146.286-87.771 58.514 14.629 102.4 73.143 131.657 131.657v29.257c14.629 29.257 14.629 0 29.257 58.514 0 43.886-14.629 29.257-14.629 29.257 0 14.629 14.629 29.257 14.629 43.886 14.629 160.914-117.029 160.914-146.286 190.171-14.629 0-14.629 14.629-14.629 29.257-14.629 0 0 0-14.629 0s-14.629 0-14.629-14.629c-14.629 0-14.629 0-14.629 0 0-14.629 0-14.629-14.629-14.629zM823.937 228.571c-73.143 0-146.286-58.514-146.286-146.286 0-73.143 73.143-146.286 146.286-146.286 87.771 0 146.286 73.143 146.286 146.286 0 87.771-58.514 146.286-146.286 146.286zM823.937 170.057l29.257-58.514h73.143l-58.514-43.886 14.629-73.143-58.514 43.886-58.514-43.886 29.257 73.143-58.514 43.886h73.143l14.629 58.514zM487.479 170.057h160.914v-43.886h-160.914v43.886z" />
<glyph unicode="&#xe42b;" glyph-name="link" d="M874.509 224.814c0-14.443-5.735-28.492-16.138-38.895l-85.517-84.802c-10.418-9.912-24.958-15.102-39.401-15.102-14.539 0-29.151 5.173-39.569 15.592l-119.688 120.403c-10.418 10.418-16.138 25.014-16.138 39.401 0 17.527 6.94 30.918 19.070 42.541 19.126-19.279 35.432-41.827 65.073-41.827 30.693 0 55.707 24.958 55.707 55.651 0.337 29.866-22.379 46.172-41.489 65.242 11.623 12.338 25.014 18.564 41.827 18.564 14.596 0 28.982-5.735 39.569-16.138l120.724-120.893c10.418-10.418 16.307-24.299 16.307-39.401l-0.337-0.337zM466.429 634.211c0-17.303-7.109-30.693-19.238-42.317-19.238 19.126-35.376 41.827-65.073 41.827-30.862 0-55.651-24.958-55.651-55.707 0-29.641 22.532-45.947 41.77-65.017-11.623-12.338-24.958-18.074-41.77-18.074-14.596 0-29.151 5.229-39.569 15.648l-121.118 120.893c-10.418 10.418-16.138 24.468-16.138 39.569 0 14.387 5.735 28.436 16.138 38.854l85.517 84.858c10.418 9.856 25.014 15.592 39.401 15.592 14.539 0 29.151-5.735 39.569-16.138l119.688-120.403c10.418-10.418 16.138-24.958 16.138-39.344l0.337-0.225zM986.092 224.814c0 44.742-16.869 86.569-48.767 118.467l-120.949 120.949c-31.239 31.408-74.231 48.767-118.467 48.767-45.795 0-88.826-18.564-120.781-51.193l-51.193 51.193c32.613 31.898 51.193 75.436 51.193 121.439 0 44.028-16.813 86.569-48.221 117.808l-119.744 120.403c-31.577 31.898-74.062 49.426-118.804 49.426-44.084 0-86.569-16.813-117.808-48.221l-85.348-84.689c-31.239-30.693-49.313-73.893-49.313-117.977 0-44.911 16.869-86.738 48.767-118.692l120.781-120.724c31.183-31.239 74.231-48.767 118.467-48.767 45.795 0 88.826 18.564 120.781 51.024l51.137-51.024c-32.404-31.898-51.137-75.436-51.137-121.439 0.49-44.252 17.303-86.569 48.711-117.977l119.744-120.403c31.408-31.898 73.725-49.257 118.467-49.257 43.746 0.169 86.232 16.965 117.471 48.373l85.517 84.858c31.239 30.693 49.257 73.725 49.257 117.808l0.225-0.169z" />
<glyph unicode="&#xe43b;" glyph-name="graph" d="M1009.014 137.050h-932.263v683.667h-61.765v-745.433h994.028v61.765zM946.909 742.968c0 8.678-6.791 15.523-15.645 15.523h-211.153c-13.635 0-20.874-16.5-10.756-26.686l58.764-58.709-225.25-225.413-113.114 113.291c-6.383 6.274-16.107 6.274-22.313 0l-284.136-284.136 93.272-93.218 202.013 202.013 113.114-113.114c6.206-6.383 15.93-6.383 22.313 0l307.305 307.305 58.764-58.709c10.294-10.172 26.795-2.933 26.795 10.702v211.153z" />
<glyph unicode="&#xe44b;" glyph-name="tax" d="M15.966 802.124v-520.551c1.942-15.34 13.703-27.447 28.718-29.885l0.201-0.022h169.494c0 67.952-13.264 136.55 55.836 136.55h483.57c69.050 0 55.836-68.595 55.836-136.55h169.494c15.473 1.927 27.526 14.324 28.907 29.789l0.012 0.118v520.551c-1.942 15.34-13.703 27.447-28.718 29.885l-0.201 0.022h-934.227c-15.204-2.465-26.972-14.567-28.896-29.741l-0.022-0.166zM251.312 446.782h-55.886v265.005h-97.715v47.857h251.253v-47.857h-97.667zM540.456 526.547h-114.656l-29.357-79.761h-59.169l120.341 312.87h50.702l120.341-312.87h-58.68zM482.633 684.679q-16.199-48.8-28.768-81.86l-10.268-28.314h79.066l-10.268 28.263q-12.558 33.101-28.768 81.91zM751.83 695.588c14.611-22.035 24.93-37.74 30.755-47.258h1.145c8.181 13.113 18.298 28.818 30.654 47.065l43.278 64.505h63.865l-105.535-153.839 110.123-159.024h-63.158l-47.306 69.791q-17.452 25.57-32.202 48.602h-0.943c-9.966-15.857-20.94-32.152-32.152-48.602l-47.306-69.791h-62.96l110.072 159.024-105.583 153.839h63.915zM247.373 341.399v-264.618c1.241-6.363 6.075-11.355 12.257-12.791l0.115-0.022h504.205c6.317 1.436 11.172 6.422 12.4 12.706l0.022 0.104v264.618c-1.241 6.369-6.098 11.349-12.311 12.743l-0.112 0.022h-504.205c-6.297-1.434-11.124-6.411-12.35-12.656l-0.022-0.104zM344.635 209.039c-0.133-2.176-0.214-4.712-0.214-7.275 0-16.255 3.14-31.79 8.834-46.010l-0.297 0.838c4.79-9.928 14.783-16.66 26.344-16.66s21.554 6.732 26.275 16.487l0.070 0.166c5.391 15.623 8.499 33.624 8.499 52.351s-3.108 36.725-8.847 53.504l0.349-1.169c-4.726 10.011-14.724 16.811-26.327 16.811s-21.601-6.796-26.243-16.631l-0.070-0.171c-5.43-13.383-8.573-28.916-8.573-45.174 0-2.485 0.070-4.962 0.214-7.419l-0.021 0.339zM302.013 209.039c-0.063 1.276-0.093 2.783-0.093 4.294 0 23.413 8.152 44.927 21.772 61.851l-0.15-0.19c13.635 15.591 33.569 25.386 55.785 25.386s42.15-9.795 55.711-25.303l0.070-0.083c13.511-18.189 21.628-41.086 21.628-65.888s-8.116-47.69-21.833-66.176l0.214 0.303c-13.66-15.527-33.581-25.28-55.785-25.28s-42.126 9.752-55.711 25.202l-0.070 0.078c-13.363 16.654-21.436 38.041-21.436 61.323 0 1.576 0.034 3.142 0.115 4.708l-0.011-0.214zM647.245 172.444c-0.099-1.252-0.157-2.71-0.157-4.182 0-8.571 1.894-16.696 5.287-23.983l-0.147 0.356c3.142-5.359 8.883-8.907 15.443-8.907 0.39 0 0.776 0.017 1.157 0.033l-0.054-0.004c0.358-0.022 0.79-0.041 1.222-0.041 6.462 0 12.119 3.478 15.179 8.683l0.044 0.078c3.311 8.29 5.231 17.906 5.231 27.96s-1.92 19.67-5.411 28.493l0.18-0.522c-3.561 5.398-9.593 8.907-16.446 8.907s-12.887-3.516-16.402-8.838l-0.045-0.070c-3.301-7.016-5.233-15.239-5.233-23.907 0-1.448 0.056-2.88 0.164-4.294l-0.015 0.189zM616.475 172.444c-0.022 0.694-0.049 1.509-0.049 2.324 0 14.406 5.549 27.514 14.636 37.297l-0.022-0.030c9.831 9.435 23.208 15.239 37.942 15.239s28.104-5.808 37.951-15.257l-0.022 0.022c9.291-9.726 14.999-22.935 14.999-37.475 0-0.723-0.019-1.441-0.040-2.154l0.004 0.105c0.022-0.598 0.033-1.293 0.033-1.99 0-14.47-5.715-27.592-15.004-37.256l0.022 0.022c-9.867-9.387-23.242-15.143-37.959-15.143s-28.102 5.773-37.99 15.173l0.022-0.022c-9.132 9.658-14.742 22.723-14.742 37.088 0 0.686 0.017 1.366 0.034 2.038l-0.004-0.098zM660.158 300.461l-103.043-182.455h-22.287l103.238 182.455zM504.617 245.635c-0.102-1.268-0.162-2.734-0.162-4.217 0-8.539 1.894-16.631 5.291-23.891l-0.146 0.35c3.19-5.285 8.902-8.763 15.422-8.763 0.406 0 0.832 0.019 1.233 0.040l-0.058-0.004c0.354-0.022 0.754-0.034 1.174-0.034 6.555 0 12.299 3.478 15.479 8.68l0.044 0.070c3.301 8.283 5.215 17.884 5.215 27.912s-1.914 19.639-5.398 28.445l0.179-0.521c-3.161 5.397-8.932 8.955-15.527 8.955-0.373 0-0.742-0.015-1.125-0.030l0.052 0.003c-0.285 0.022-0.618 0.022-0.954 0.022-6.641 0-12.417-3.655-15.447-9.055l-0.045-0.087c-3.43-7.037-5.433-15.322-5.433-24.070 0-1.421 0.055-2.841 0.162-4.242l-0.015 0.185zM473.806 245.635c-0.022 0.658-0.044 1.436-0.044 2.219 0 14.456 5.59 27.602 14.729 37.399l-0.022-0.027c9.831 9.435 23.208 15.239 37.942 15.239s28.104-5.808 37.951-15.257l-0.022 0.022c9.291-9.805 14.993-23.064 14.993-37.669 0-0.671-0.016-1.339-0.032-2.003l0.004 0.096c0.022-0.655 0.044-1.43 0.044-2.21 0-14.381-5.616-27.46-14.772-37.148l0.022 0.022c-9.834-9.444-23.215-15.264-37.959-15.264s-28.125 5.821-37.984 15.287l0.022-0.022c-9.243 9.685-14.943 22.837-14.943 37.321 0 0.672 0.016 1.341 0.033 2.005l-0.004-0.096z" />
<glyph unicode="&#xe45b;" glyph-name="creditlimit" d="M19.409 772.366v-605.052c0.164-39.351 30.079-71.668 68.413-75.611l0.325-0.025h488.169v75.635h-474.423v281.907h508.868c28.179 0 18.134 34.763 74.384 76.887 35.825 25.438 80.44 40.676 128.627 40.676 44.613 0 86.177-13.059 121.074-35.56l-0.878 0.528c0 124.828 26.554 316.3-68.785 316.3h-777.023c-38.68-3.976-68.603-36.319-68.734-75.681v-0.017zM84.533 790.238h793.275v-161.414h-793.275zM624.45 277.299c-1.625-21.828-2.55-47.291-2.55-72.975 0-49.46 3.43-98.117 10.076-145.743l-0.625 5.499c51.432-24.678 222.679-13.693 302.553-13.693 88.863 0 68.734 71.931 68.734 199.362 0 57.497-23.263 42.18-27.598 82.485-5.644 53.373 6.014 48.244-15.677 94.087-27.52 55.1-83.491 92.285-148.154 92.285-89.467 0-162.305-71.176-164.996-159.99l-0.008-0.247c0.024-1.184 0.025-2.586 0.025-3.991 0-14.491-1.127-28.728-3.316-42.604l0.199 1.536c-6.9-25.616-18.664-12.279-18.664-36.018zM813.727 194.595c24.636-0.758 44.331-20.914 44.331-45.668 0-25.228-20.455-45.681-45.681-45.681s-45.679 20.44-45.681 45.667v0.001c0.41 25.328 21.028 45.69 46.414 45.69 0.295 0 0.589-0.004 0.882-0.011l-0.043 0.001zM814.361 471.638c48.589-1.677 87.342-41.48 87.342-90.332 0-49.917-40.466-90.383-90.383-90.383s-90.383 40.466-90.383 90.383c0 0.001 0 0.001 0 0.002v0c0.875 50.081 41.68 90.336 91.886 90.336 0.534 0 1.075-0.006 1.612-0.018l-0.075 0.001zM356.302 215.506h220.008v54.985h-220.008zM150.029 215.506h151.277v54.985h-151.224z" />
<glyph unicode="&#xe46b;" glyph-name="fileupload" d="M19.024 420.356h248.797v-95.22h-153.579v-239.577h792.455v239.577h-147.437v95.22h245.722v-411.587h-985.964v411.587zM676.333 239.134v322.513h162.792l-322.513 325.584-325.584-325.584h162.792v-322.513h322.513z" />
<glyph unicode="&#xe47b;" glyph-name="search" d="M410.269 928.944c-206.844 0-384.138-177.295-384.138-384.138 0-216.693 177.295-393.988 384.138-393.988 78.797 0 147.746 19.699 206.844 59.098l265.941-236.392c19.699-9.85 29.549-9.85 49.248 9.85l59.098 68.948c9.85 9.85 9.85 29.549-9.85 39.399l-246.242 226.543c39.399 59.098 68.948 137.896 68.948 226.543 0 206.844-177.295 384.138-393.988 384.138zM410.269 830.447c157.595 0 285.641-128.046 285.641-285.641s-128.046-285.641-285.641-285.641c-157.595 0-285.641 128.046-285.641 285.641s128.046 285.641 285.641 285.641z" />
<glyph unicode="&#xe48b;" glyph-name="clear" d="M747.453 222.751c-32.476-38.971-74.696-64.952-116.916-81.191-113.667-45.466-246.819-25.981-341 64.952l84.437 84.437c3.249 3.249 0 12.99-6.495 12.99l-295.534 45.466c-6.495 0-9.744-3.249-9.744-9.744l45.466-295.534c0-6.495 9.744-9.744 12.99-6.495l84.437 84.437c139.647-139.647 350.744-162.382 516.372-71.447 48.715 25.981 94.181 64.952 133.152 113.667 64.952 81.191 94.181 178.618 94.181 279.294l-123.411 19.485c6.495-87.686-19.485-175.372-77.942-240.324zM818.9 774.845c-139.647 136.401-350.744 162.382-516.372 71.447-48.715-29.23-94.181-64.952-133.152-113.667-64.952-81.191-94.181-181.867-90.932-279.294l120.162-19.485c-6.495 84.437 19.485 172.123 81.191 240.324 32.476 35.725 71.447 61.705 113.667 81.191 113.667 45.466 246.819 22.735 341-64.952l-84.437-84.437c-3.249-3.249 0-12.99 6.495-12.99l298.78-45.466c3.249 0 6.495 3.249 6.495 6.495l-45.466 298.78c0 6.495-9.744 9.744-12.99 6.495l-84.437-84.437z" />
<glyph unicode="&#xe49b;" glyph-name="timepicker" d="M594.386 673.956c0 11.742-9.067 20.747-20.56 20.747h-40.706c-11.493 0-20.56-9.004-20.56-20.747v-226.536h-144.15c-11.556 0-20.56-9.004-20.56-20.498v-40.768c0-11.493 9.004-20.498 20.56-20.498h205.416c11.493 0 20.56 9.004 20.56 20.498v287.802zM861.629 447.398c0-192.159-156.848-349.069-349.069-349.069-193.154 0-350.189 156.91-350.189 349.069 0 193.154 157.034 350.189 350.189 350.189 192.221 0 349.069-157.034 349.069-350.189zM1005.592 447.398c0 273.051-220.976 494.236-493.032 494.236-272.989 0-494.174-221.163-494.174-494.236 0-272.056 221.163-493.032 494.174-493.032 272.056 0 493.032 220.976 493.032 493.032z" />
<glyph unicode="&#xe50b;" glyph-name="mainuser" d="M512 938.073c270.69 0 490.093-219.422 490.093-490.093 0-270.632-219.422-490.053-490.093-490.053s-490.093 219.422-490.093 490.053c0 270.69 219.422 490.093 490.093 490.093zM445.353 351.14c-24.205-6.086-96.898-48.469-121.104-66.647-108.972-60.543-108.972-18.178-108.972-145.309h593.369c0 127.132 6.086 84.766-108.972 145.309-24.205 18.178-96.898 60.543-121.104 66.647 0 66.589 12.074 60.543 18.178 72.634 12.074 12.132 24.205 30.31 30.251 54.515 6.086 12.132 6.086 24.205 6.086 36.337 12.074-6.086 18.119 30.251 18.119 36.337 0 6.046 6.086 48.411-12.074 42.383l-6.046 54.457c-30.31 145.367-211.956 145.367-236.162 0l-12.132-54.457c-12.074 6.046-12.074-36.337-12.074-42.383 6.046-24.264 12.074-36.337 24.205-36.337 0 0 0-36.337 0-36.337 6.046-24.205 18.178-42.383 30.251-54.515 12.132-12.074 18.178-6.046 18.178-72.634v0z" />
<glyph unicode="&#xe51b;" glyph-name="filter" d="M598.436 506.942l-16.841-353.683-168.421-185.262v538.949l-235.789 370.528c-16.841 16.841-16.841 50.527 16.841 50.527h623.158c33.686 0 50.527-16.841 33.686-50.527l-252.632-370.528z" />
<glyph unicode="&#xe52b;" glyph-name="language" d="M547.462 510.052v425.365c0 9.772-7.959 17.731-17.731 17.731h-425.365c-9.827 0-17.731-7.959-17.731-17.731v-425.365c0-9.827 7.904-17.731 17.731-17.731h425.365c9.772 0 17.731 7.904 17.731 17.731v0zM408.835 600.601v0c14.672 0 26.624-11.884 26.624-26.569s-11.938-26.624-26.624-26.624v0c-1.286 0-2.694-0.054-3.979-0.054-36.031 0-71.479 9.867-102.339 28.424-32.308-18.611-69.002-28.478-106.318-28.478-2.071 0-4.182 0.054-6.253 0.108v0c-14.672 0-26.569 11.938-26.569 26.624s11.884 26.569 26.569 26.569v0c1.191 0 2.477-0.054 3.668-0.054 22.17 0 44.192 4.236 64.766 12.452-17.785 21.033-31.889 45.072-41.498 70.91-1.191 3.045-1.76 6.307-1.76 9.556 0 14.672 11.884 26.624 26.569 26.624 11.004 0 20.885-6.767 24.81-17.054 7.85-21.859 19.951-42.067 35.462-59.378 21.71 26.312 35.299 58.458 39.022 92.364h-133.808c-14.672 0-26.624 11.884-26.624 26.569s11.938 26.624 26.624 26.624h83.268v64.508c0 14.672 11.938 26.624 26.624 26.624s26.569-11.938 26.569-26.624v-46.615h83.308c14.672 0 26.569-11.884 26.569-26.569s-11.884-26.624-26.569-26.624h-14.158c-3.979-45.166-21.033-88.384-49.105-124.035 18.611-7.647 38.602-11.572 58.769-11.572 1.394 0 2.788 0.054 4.128 0.054l-17.731-17.731zM919.636 403.679h-425.365c-9.772 0-17.731-7.904-17.731-17.731v-425.365c0-9.827 7.959-17.731 17.731-17.731h425.365c9.827 0 17.731 7.904 17.731 17.731v425.365c0 9.827-7.904 17.731-17.731 17.731v0zM823.239 15.683c-3.045-1.286-6.362-1.908-9.664-1.908-0.054 0-0.149 0-0.257 0-10.855 0-20.628 6.565-24.647 16.648l-28.532 71.939h-106.372l-28.681-71.939c-4.034-9.975-13.698-16.594-24.444-16.648-0.108 0-0.203 0-0.311 0-3.302 0-6.565 0.623-9.61 1.908-10.232 3.979-16.946 13.846-16.946 24.81 0 3.668 0.717 7.282 2.22 10.652l105.276 263.23c0 0 0 1.597 0 2.274 0.366 1.028 0.826 1.963 1.394 2.842 0.366 0.771 0.771 1.448 1.245 2.125 0.623 1.028 1.34 1.963 2.165 2.842l2.125 2.125c0.88 0.826 1.814 1.557 2.842 2.165l2.125 1.245 2.842 1.394 4.751 1.394c1.705 0.366 3.411 0.568 5.17 0.568 1.705 0 3.411-0.203 5.116-0.568l4.805-1.394 2.842-1.394c1.557-0.771 3.045-1.76 4.399-2.842l2.694-2.694c0.771-0.88 1.503-1.814 2.125-2.842 0.46-0.677 0.88-1.34 1.245-2.125 0.568-0.88 1.028-1.814 1.394-2.842v-2.274l105.276-263.23c1.705-3.56 2.585-7.499 2.585-11.424 0-10.287-5.888-19.585-15.146-24.038v0zM706.959 235.289l31.74-79.032h-63.466l31.74 79.032zM655.012 837.925c3.357 11.167 13.643 18.868 25.324 18.868 2.585 0 5.17-0.42 7.647-1.137 8.013-3.56 196.245-63.1 196.245-327.887 0 0 0 0 0-1.083 0-0.46 0.054-0.934 0.054-1.394 0-0.514-0.054-0.988-0.054-1.448v-2.274c0.054-0.42 0.054-0.826 0.054-1.245s0-0.826-0.054-1.245c0-0.934 0-1.814 0-2.477l-1.245-2.165-1.597-2.477v-0.88h-0.88c-0.717-0.988-1.557-1.908-2.477-2.639l-1.814-1.448c-0.934-0.677-1.963-1.245-2.991-1.76l-1.76-1.028-3.925-1.245h-1.245c-0.934-0.108-1.854-0.149-2.842-0.149-0.934 0-1.854 0.054-2.842 0.149v0c-2.639 0-5.265 0.42-7.756 1.191h-1.448c-2.477 0.934-4.805 2.165-6.93 3.776v0l-88.587 70.856c-6.307 5.062-9.975 12.709-9.975 20.722 0 14.726 11.938 26.624 26.624 26.624 6.050 0 11.938-2.071 16.648-5.833l41.661-33.337c-23.362 174.589-148.845 215.682-154.693 217.644-12.669 2.328-21.805 13.332-21.805 26.15 0 2.071 0.203 4.128 0.677 6.105v1.083zM368.988 59.158c-3.465-11.112-13.752-18.705-25.378-18.814-2.585 0-5.116 0.366-7.593 1.083-8.013 2.477-196.245 62.018-196.245 326.805 0 0 0 0 0 1.083 0 0.46-0.054 0.934-0.054 1.394s0.054 0.988 0.054 1.448v2.274c-0.054 0.42-0.054 0.826-0.054 1.245s0 0.826 0.054 1.245c0.054 0.42 0 1.814 0.934 2.477l1.245 2.125 1.557 2.477c0 0 0 0 0.934 0.934l2.125 2.125c0.514 0.568 1.083 1.028 1.76 1.394l2.328 1.597 2.125 1.083 2.477 1.245h20.208l2.125-1.245 2.477-1.597 88.641-70.91c6.199-5.062 9.867-12.709 9.867-20.776 0-5.996-2.071-11.884-5.833-16.648-4.182-5.739-10.598-9.515-17.731-10.435-6.050 0.054-11.884 2.071-16.648 5.833l-41.661 33.337c23.416-174.589 148.899-215.682 154.747-217.644 11.112-3.465 18.705-13.752 18.705-25.378 0-2.639-0.42-5.265-1.137-7.756v0z" />
<glyph unicode="&#xe53b;" glyph-name="watchlist" d="M512 28.431c8.802 0 17.476 3.301 23.965 9.959l340.417 327.68c4.923 4.923 125.198 114.717 125.198 245.77 0 160.109-97.932 255.729-261.286 255.729-95.451 0-185.231-75.421-228.294-118.018-43.063 42.597-132.844 118.018-228.294 118.018-163.354 0-261.286-95.619-261.286-255.729 0-131.053 120.275-240.847 124.676-244.614l340.939-328.836c6.489-6.658 15.163-9.959 23.965-9.959z" />
<glyph unicode="&#xe54b;" glyph-name="editcell" d="M59.29 880.878v-195.477c0-11.839 3.622-15.404 15.461-15.404h776.766c11.839 0 15.404 3.565 15.404 15.404v195.477c0 12.068-8.503 20.571-20.571 20.571h-766.431c-12.068 0-20.629-8.503-20.629-20.571zM506.833 124.684c0-153.82-25.166-128.596 128.653-128.596 16.949 0 235.173 226.784 241.788 236.661l-132.504 134.965c-29.761-20.343-91.819-89.227-120.894-118.244-20.972-20.972-38.15-38.207-59.122-59.179-12.297-12.297-57.92-49.36-57.92-65.623zM59.29 412.764c0-11.839 3.622-15.404 15.461-15.404h231.493c11.839 0 15.404 3.565 15.404 15.404v231.493h-262.359v-231.493zM59.29 356.177v-210.865c0-12.068 8.56-20.629 20.629-20.629h241.73v231.493c0 11.897-3.565 15.461-15.404 15.461h-231.493c-11.839 0-15.461-3.565-15.461-15.461zM347.388 628.813v-216.049c0-11.839 3.565-15.404 15.461-15.404h200.587c11.897 0 15.461 3.565 15.461 15.404v231.493h-216.049c-11.897 0-15.461-3.565-15.461-15.461zM604.62 628.813v-216.049c0-25.739 43.775-15.404 113.134-15.404 39.237 0 65.108 116.47 149.167 71.992v174.906h-246.898c-11.839 0-15.404-3.565-15.404-15.461zM347.388 356.177v-216.049c0-26.139 47.226-15.461 118.302-15.461 17.178 0 10.392 4.137 15.805 15.118 21.945 45.051 5.167 13.442 42.173 50.447 66.367 66.309 55.214 39.466 55.214 165.945 0 11.897-3.565 15.461-15.461 15.461h-200.587c-11.897 0-15.461-3.565-15.461-15.461zM762.806 388.301l136.281-133.706c15.29 9.705 60.913 53.211 65.623 70.733-15.175 22.574-42.516 45.108-63.030 65.623-18.151 18.151-46.425 56.473-70.733 62.973l-68.14-65.623zM604.62 284.185c21.43 5.739 32.754 25.052 47.569 39.884 16.263 16.263 32.697 29.246 44.994 47.569-109.455 0-92.563 20.285-92.563-87.453z" />
<glyph unicode="&#xe55b;" glyph-name="history" d="M530.198 662.114c0-10.432 0-208.663 0-219.094 0-20.863 20.863-20.863 41.734-20.863h229.526c10.432 0 10.432 0 10.432 0 20.863 20.863 20.863 41.734 0 52.166s-198.224 10.432-219.094 10.432c0 10.432 0 20.863 0 31.302v166.929c0 10.432 0 10.432 0 20.863s0 31.302-20.863 41.734c-10.432 10.432-41.734 0-41.734-20.863v-62.597zM8.545 516.049c0-10.432 104.331-146.065 114.763-146.065 0-10.432 10.432-10.432 20.863-10.432s10.432 0 20.863 10.432 104.331 135.626 104.331 135.626c0 20.863-62.597 10.432-83.461 10.432 0 0-10.432 0-10.432 10.432s10.432 31.302 10.432 31.302c83.461 281.692 406.886 365.152 625.981 187.792 20.863-10.432 41.734-31.302 52.166-52.166 20.863-31.302 31.302-52.166 52.166-73.029 0-10.432 0-10.432 0-10.432 41.734-83.461 52.166-187.792 20.863-271.26-20.863-41.734-31.302-83.461-62.597-114.763-135.626-187.792-406.886-219.094-573.815-73.029l-10.432 20.863c-20.863 10.432-31.302 20.863-52.166 0-10.432-10.432-10.432-31.302 0-41.734 20.863-20.863 62.597-52.166 83.461-73.029 10.432 0 20.863-10.432 41.734-20.863 0 0 10.432 0 20.863 0 0-10.432 10.432-10.432 20.863-10.432 365.152-146.065 709.441 239.958 584.247 584.247-31.302 83.461-83.461 146.065-156.497 198.224l-31.302 20.863c-73.029 52.166-146.065 73.029-229.526 73.029-62.597 0-73.029 0-135.626-20.863 0 0-10.432 0-20.863 0-41.734-20.863-41.734-20.863-83.461-41.734-62.597-31.302-114.763-93.9-156.497-146.065-20.863-41.734-41.734-83.461-52.166-125.195l-10.432-41.734c0-10.432 0-10.432-10.432-10.432h-73.029c-10.432 0-20.863 0-20.863 0z" />
<glyph unicode="&#xe56b;" glyph-name="share" d="M641.244 742.050c-21.46-5.041-61.156-26.446-79.724-37.231-73.608-42.754-162.988-81.928-240.246-122.754-76.018 50.908-168.194 54.559-232.519-13.622-114.434-121.363 4.725-333.276 174.365-278.938 77.906 24.944-4.188 49.889 211.983-58.154 35.524-17.754 132.947-72.273 166.156-80 0-56.542 17.754-96.087 44.642-127.63 87.135-102.203 293.8-62.989 293.8 121.474 0 89.063-79.613 159.985-147.699 159.985-200.66 0-32.3-103.815-287.188 38.898-29.132 16.253-135.578 71.846-161.968 78.002v43.085c33.746 17.81 304.365 159.985 319.97 159.985 9.49 0 62.823-36.97 104.613-36.97 157.575 0 225.123 184.834 127.906 287.891-67.769 71.846-189.338 66.75-251.087-4.725-27.149-31.336-42.975-70.234-42.975-129.297z" />
<glyph unicode="&#xe57b;" glyph-name="back" d="M21.512 450.886c0-38.395 26.358-56.062 55.695-93.431 7.974-10.102 15.482-18.075 23.706-27.886 28.118-33.382 236.151-286.874 249.814-297.885 54.302-43.6 140.418 24.073 81.762 96.083l-91.012 109.706c-24.848 31.563-108.604 127.297-122.092 147.424 39.013 0 713.082-3.328 734.852 2.11 62.41 15.482 64.636 101.656 4.471 120.698-23.222 7.373-278.475 3.387-314.934 3.387-141.444 0-282.945 0-424.389 0 3.503 5.147 9.192 12.695 13.721 17.842l91.496 109.222c5.747 6.773 10.393 12.27 15.598 18.752l91.012 109.764c11.786 14.747 20.436 21.829 20.436 48.38 0 55.269-60.049 79.943-99.295 50.49-13.179-9.851-55.211-64.287-69.183-79.943l-89.986-107.829c-44.742-55.211-104.868-122.692-145.856-175.309-4.296-5.496-8.225-8.708-11.978-13.779-2.786-3.812-1.761-2.477-4.103-7.373l-1.761-3.987c-4.896-10.469-7.974-13.605-7.974-26.434z" />
<glyph unicode="&#xe58b;" glyph-name="info" d="M512 944c274.707 0 496-221.293 496-496s-221.293-496-496-496c-274.707 0-496 221.293-496 496s221.293 496 496 496zM359.386 432.738c0-7.631 15.262-30.524 15.262-30.524 7.631 0 15.262 7.631 22.893 15.262 7.631 0 61.045 30.524 68.676 22.893s-45.786-213.662-53.414-236.555c-7.631-22.893-7.631-61.045 7.631-76.307 38.155-45.786 152.614 22.893 198.4 53.414 15.262 15.262 38.155 38.155 45.786 45.786 0 7.631-15.262 30.524-15.262 30.524-7.631 0-15.262-7.631-15.262-15.262-22.893-7.631-38.155-22.893-61.045-22.893-22.893-7.631-15.262 15.262-7.631 38.155 7.631 61.045 45.786 167.876 53.414 221.293 7.631 30.524 0 76.307-38.155 68.676-61.045 0-144.986-61.045-190.769-91.569-7.631-7.631-30.524-15.262-30.524-22.893zM580.676 783.755c-38.155-7.631-68.676-30.524-76.307-76.307-7.631-106.831 144.986-91.569 160.245 0 0 53.414-30.524 83.938-83.938 76.307z" />
<glyph unicode="&#xe59b;" glyph-name="videodownload" d="M20.875 725.511c0 23.578 23.578 49.877 52.466 49.877h661.201c20.166 0 37.677-16.090 44.686-29.472 8.377-15.918 6.479-42.27 6.479-66.432 0-49.054 0-98.042 0.292-147.375l217.125 216.475-0.358-601.428-217.059 216.475c0-49.054 0-98.095 0-147.083 0-26.472 2.297-48.868-7.076-67.149-7.66-15.095-27.003-28.769-44.102-28.769h-662.502c-25.994 0-51.165 25.463-51.165 49.877v555.034zM314.987 464.416h-71.158c1.354-2.058 2.589-3.598 4.182-5.602l13.329-16.568c23.525-28.769 47.634-59.542 70.973-88.775 3.306-4.129 51.577-65.198 53.82-66.737 1.713 1.115 7.249 8.483 8.961 10.607 32.008 40.796 65.675 81.407 97.803 122.27 6.014 7.66 11.736 14.802 17.856 22.343l17.75 22.463h-71.158v248.244h-142.37v-248.244zM137.357 180.274h497.617v177.617h-71.689v-106.472h-354.238v106.472h-71.689v-177.617z" />
<glyph unicode="&#xe60b;" glyph-name="giadownload" d="M365.511 688.781h145.345c-2.63-9.837-140.246-177.425-145.345-184.030-23.869-30.514-48.863-60.326-72.672-90.84-3.232-4.075-72.733-87.428-72.733-93.129v-268.024c0-50.369 46.715-90.84 109.069-90.84h556.445c36.457 0 58.098 6.946 81.244 30.093 22.966 22.966 30.093 44.426 30.093 81.184v508.787c0 33.767-10.921 41.556-27.824 58.519l-264.672 264.612c-17.325 17.325-25.074 28.969-59.603 28.969h-279.367v-245.299zM921.775 546.127h-258.248v256.22l258.248-256.22zM494.554 62.113l-11.864 19.854c-10.258-8.693-20.858-15.177-32.020-19.312-11.102-4.196-23.147-6.304-36.155-6.304-15.418 0-29.671 2.931-42.941 8.693-13.189 5.822-25.014 14.334-35.252 25.536-11.162 11.925-19.553 25.777-25.235 41.495-5.762 15.598-8.572 32.622-8.572 51.091 0 18.409 2.931 35.553 8.933 51.453 5.882 15.779 14.514 29.671 25.777 41.616 10.62 11.041 22.424 19.373 35.553 25.014 13.069 5.641 27.342 8.452 42.64 8.452 12.888 0 24.592-2.168 35.071-6.424 10.62-4.376 20.517-10.981 29.731-19.854l9.476 20.517h23.629v-93.31h-25.716c-4.316 22.063-12.467 39.147-24.351 51.453-11.804 12.226-26.078 18.349-42.7 18.349-19.975 0-35.734-8.693-47.558-26.198s-17.747-41.255-17.747-71.046c0-30.213 5.942-53.661 17.747-70.223 11.804-16.602 28.366-24.893 49.827-24.893 15.418 0 27.583 3.834 36.396 11.503 8.873 7.729 13.31 18.228 13.31 31.538v13.611c0 8.271-1.144 13.611-3.533 16s-9.656 3.533-21.641 3.533h-14.213v27.102h118.604v-27.102h-14.514c-7.729 0-12.647-1.265-14.936-3.955-2.228-2.69-3.292-8.813-3.292-18.409v-79.819h-24.472zM562.429 63.498v27.041h14.394c9.897 0 16.060 1.265 18.469 3.774 2.389 2.449 3.593 8.572 3.593 18.349v140.727c0 9.716-1.204 15.839-3.593 18.349-2.389 2.449-8.572 3.714-18.469 3.714h-14.394v27.102h120.933v-27.102h-14.273c-10.018 0-16.181-1.265-18.59-3.714-2.389-2.509-3.533-8.632-3.533-18.349v-140.727c0-9.777 1.144-15.9 3.533-18.349 2.389-2.509 8.572-3.774 18.59-3.774h14.273v-27.041h-120.933zM833.103 167.889l-29.089 82.63-26.379-82.63h55.468zM687.096 63.498v27.041h7.006c8.452 0 14.815 1.626 18.951 4.858 4.196 3.172 7.789 9.295 10.861 18.349l62.474 188.828h47.016l66.911-188.828c3.774-11.041 7.247-17.626 10.499-19.854 3.172-2.228 8.693-3.353 16.542-3.353h6.665v-27.041h-115.975v27.041h18.108c7.247 0 12.226 0.662 14.815 2.048 2.509 1.325 3.774 3.714 3.774 7.247 0 1.265-0.181 2.69-0.542 4.316-0.422 1.626-1.204 4.136-2.329 7.307l-9.656 28.246h-73.877l-9.656-30.153c-0.241-0.843-0.602-1.987-1.144-3.654-1.084-3.353-1.686-5.701-1.686-7.127 0-3.112 1.084-5.28 3.172-6.484 2.168-1.144 7.127-1.747 14.936-1.747h17.325v-27.041h-104.211zM122.42 643.331h-95.397c3.051-11.443 149.299-189.47 168.13-213.52 5.039-6.484 19.312-25.716 24.953-29.511l170.358 211.252c5.882 7.488 20.396 22.906 22.725 31.779h-95.397v290.75h-195.352v-290.75z" />
<glyph unicode="&#xe61b;" glyph-name="fullscreen" d="M627.060 246.647l107.868-100.677c0 0 0 0 0 0v-7.191c14.383-7.191 28.765-21.574 21.574-28.765l-50.338-50.338c0 0 0 0 0 0l-14.383-14.383c-7.191-7.191-7.191-7.191-14.383-14.383l-28.765-28.765c0 0 0 0 0 0l-14.383-21.574c7.191 0 309.223 0 345.177 0 0 35.957 0 337.986 0 345.177-7.191 7.191-14.383-7.191-21.574-14.383 0 0 0 0 0 0h-7.191c0-7.191 0-7.191-7.191-14.383l-28.765-28.765c-14.383-14.383-28.765-21.574-35.957-35.957-7.191-7.191-7.191 0-7.191-7.191s-21.574-21.574-21.574-21.574c-14.383-7.191-14.383 0-21.574 7.191l-43.148 50.338c0 0-7.191 0-7.191 7.191l-14.383 7.191c0 0 0 0 0 0l-28.765 35.957c-21.574 21.574-21.574 21.574-43.148 7.191l-21.574-28.765c-7.191-7.191-7.191-7.191-14.383-14.383 0 0 0 0-7.191 0l-21.574-28.765zM634.251 649.355c0-7.191 0 0 0-7.191 0 0 0 0 7.191-7.191l28.765-28.765c7.191-7.191 14.383-7.191 21.574-21.574 7.191-7.191 7.191-7.191 14.383-14.383 7.191 0 0 0 7.191 0l122.251 122.251c7.191 0 0 0 7.191 0l100.677-100.677c0 0 7.191 0 7.191 0l7.191-7.191c7.191-7.191 14.383-14.383 21.574-14.383v345.177h-345.177c0-7.191 7.191-14.383 14.383-21.574 0 0 0 0 0 0s0 0 0 0l86.294-86.294c21.574-28.765 35.957-21.574 7.191-43.148l-64.72-64.72c0 0 0 0 0 0l-21.574-28.765c0 0-7.191 0-7.191 0s0 0 0 0l-14.383-21.574zM181.205 203.501c-7.191 0-14.383 7.191-21.574 14.383l-50.338 50.338c0 0 0 0-7.191 7.191l-21.574 21.574c0 0-7.191 7.191-7.191 7.191s0 0 0 7.191c-7.191 0-7.191 0-7.191 0-7.191 7.191-14.383 14.383-21.574 14.383v-345.177c35.957 0 337.986 0 345.177 0 0 7.191-7.191 14.383-14.383 21.574 0 0 0 0 0 0v0c0 0 0 0 0 7.191l-57.529 57.529c-7.191 0-50.338 43.148-50.338 50.338 0 0 7.191 14.383 14.383 14.383l14.383 21.574c7.191 0 7.191 7.191 14.383 14.383l64.72 57.529c21.574 28.765 21.574 21.574 7.191 35.957l-50.338 57.529c-21.574 14.383-14.383 14.383-43.148-7.191 0 0 0 0 0 0 0-7.191 0-7.191 0-7.191l-86.294-86.294c-7.191-7.191-14.383-14.383-21.574-14.383zM44.571 570.252c7.191 0 0 0 7.191 0s21.574 21.574 28.765 28.765l14.383 14.383c0 0 0 0 0 0l14.383 14.383c7.191 7.191 7.191 7.191 7.191 7.191l28.765 28.765c7.191 7.191 7.191 0 7.191 7.191 0 0 21.574 21.574 28.765 21.574s14.383-7.191 14.383-7.191l35.957-43.148c0 0 0 0 0 0l7.191-7.191c0 0 0 0 0 0l28.765-21.574c0 0 0 0 0 0l28.765-28.765c0-7.191 0-7.191 0-7.191 14.383-7.191 14.383-14.383 28.765 0l50.338 50.338c0 0 7.191 7.191 7.191 7.191s7.191 7.191 7.191 7.191 0 14.383-14.383 28.765l-28.765 28.765c0 0 0 0 0 0-7.191 0-7.191 0-7.191 0l-57.529 57.529c0 0 0 7.191 0 7.191-28.765 21.574-14.383 21.574 7.191 43.148l28.765 28.765c0 0 0 0 0 0l57.529 57.529c0 0 0 0 0 0s0 0 0 0c7.191 7.191 14.383 14.383 14.383 21.574-7.191 0-309.223 0-345.177 0 0-35.957 0-337.986 0-345.177z" />
<glyph unicode="&#xe62b;" glyph-name="userlogin" d="M745.213 508.324c26.663 42.618 42.258 92.76 42.258 146.659 0 151.986-123.485 275.471-275.471 275.471s-275.471-123.485-275.471-275.471c0-53.898 15.582-104.041 42.258-146.659-75.887-22.055-180.247-96.663-180.247-342.075 0-111.166 81.999-200.703 183.47-200.703h459.966c101.484 0 183.47 89.537 183.47 200.703 0 245.425-104.347 320.033-180.247 342.075zM512 861.946c114.349 0 206.963-92.614 206.963-206.963s-92.614-207.016-206.963-207.016c-114.349 0-206.963 92.654-206.963 207.016s92.614 206.963 206.963 206.963zM741.99 34.054h-459.966c-62.861 0-114.962 58.813-114.962 132.195 0 170.139 57.534 275.777 163.892 281.105 48.411-42.152 111.579-67.895 181.059-67.895s132.661 25.744 181.059 67.895c106.358-5.327 163.892-110.966 163.892-281.105 0-73.383-52.1-132.195-114.962-132.195z" />
<glyph unicode="&#xe63b;" glyph-name="key" d="M506.588 682.229c0-60.392-48.879-109.443-108.928-109.443-16.623 0-32.445 4.080-47.162 10.866 6.787-14.775 10.638-30.711 10.638-47.334 0-60.392-48.822-109.271-109.042-109.271-60.106 0-108.928 48.879-108.928 109.271s48.822 109.443 108.928 109.443c16.623 0 32.388-4.080 47.162-10.866-6.787 14.775-10.695 30.711-10.695 47.334 0 60.392 48.822 109.271 109.099 109.271 60.049 0 108.928-48.879 108.928-109.271zM989.763 281.808c0 16.451-158.453 165.583-179.499 186.801-3.393 3.393-8.446 5.585-13.058 5.585-13.058 0-65.33-52.215-65.33-65.33 0-14.718 53.491-60.735 65.33-72.575l-54.464-54.464-201.576 201.576c44.284 59.877 74.366 132.623 74.366 207.79 0 124.234-85.69 209.237-208.894 209.237-186.286 0-372.4-186.286-372.4-373.087 0-123.531 85.003-209.237 208.837-209.237 74.995 0 147.644 30.024 207.332 74.308l380.903-381.075c10.18-10.18 24.439-15.765 38.699-15.765 31.684 0 68.037 36.296 68.037 68.037 0 14.26-5.642 28.519-15.822 38.699l-125.035 125.035 54.464 54.464c12.028-11.914 58.029-65.33 72.803-65.33 13.058 0 65.273 52.272 65.273 65.33z" />
<glyph unicode="&#xe64b;" glyph-name="view" d="M11.177 443.748c208.040-439.181 832.143-400.654 1001.647 0-269.676 431.476-724.278 431.476-1001.647 0zM519.706 644.075c115.58 0 215.745-100.17 215.745-215.745s-100.17-208.040-215.745-208.040c-115.58 0-208.040 92.464-208.040 208.040s92.464 215.745 208.040 215.745zM519.706 551.611c15.411 0 30.821-7.705 38.527-7.705-23.116-7.705-38.527-30.821-38.527-61.643s23.116-61.643 61.643-61.643c23.116 0 46.232 15.411 53.937 30.821 0-7.705 7.705-15.411 7.705-23.116 0-61.643-53.937-115.58-123.286-115.58-61.643 0-115.58 53.937-115.58 115.58 0 69.348 53.937 123.286 115.58 123.286z" />
<glyph unicode="&#xe65b;" glyph-name="erroricon" d="M5.443 93.215c0-36.778 3.342-60.184 40.126-83.592 23.408-13.376 56.844-16.716 90.278-16.716h755.654c56.842 0 127.056 13.376 127.056 80.244 0 53.5-20.058 80.244-50.152 130.404-60.184 96.962-120.37 213.99-180.554 314.298l-60.186 100.31c-10.034 20.060-16.716 33.434-26.75 53.5-6.684 10.034-10.034 13.376-16.716 23.408-23.408 43.468-80.244 150.462-110.336 180.554-56.842 53.5-117.026 23.408-153.804-43.468l-240.74-417.952c-30.092-46.81-173.87-284.206-173.87-320.982zM510.321 226.959c33.434 0 60.186-26.75 60.186-60.186s-26.75-60.184-60.186-60.184c-33.434 0-60.186 26.75-60.186 60.184s26.75 60.184 60.186 60.184zM486.921 260.393c-10.034 86.936-36.778 250.772-36.778 327.674 0 33.434 26.75 63.526 60.186 63.526s60.186-30.092 60.186-63.526c0-93.62-23.408-230.706-30.092-327.674h-53.5z" />
<glyph unicode="&#xe66b;" glyph-name="check" d="M409.265 125.783l607.072 607.072-112.078 102.736-569.713-569.713-214.806 233.493-112.078-112.078 326.884-326.884z" />
<glyph unicode="&#xe67b;" glyph-name="excelnew" d="M588.313-48.038c-99.208-7.631-198.416 22.895-297.623 45.788-83.944 22.895-190.784 38.157-274.729 61.051v778.398c91.577 22.895 190.784 38.157 282.36 61.051s190.784 53.423 289.991 45.788l7.631-129.734h412.094v-732.611h-412.094l-7.631-129.734zM718.047 364.056h167.89v76.313h-167.89v-76.313zM718.047 493.788h167.89v76.313h-167.89v-76.313zM718.047 615.89h167.89v76.313h-160.259l-7.631-76.313zM718.047 264.848l7.631-22.895h160.259v76.313h-167.89v-53.423zM275.427 493.788l-38.157 129.734-83.944-7.631c7.631-30.526 68.682-152.626 68.682-167.89-7.631-30.526-76.313-129.734-76.313-167.89l83.944-7.631 45.788 129.734c7.631-30.526 53.423-129.734 61.051-144.996l99.208-15.262c-15.262 45.788-99.208 175.521-99.208 206.047-7.631 22.895 83.944 167.89 99.208 206.047-114.47-15.262-83.944 15.262-160.259-160.259zM672.259 615.89h-68.682l-7.631-38.157 83.944-7.631v-83.944h-83.944v-38.157h83.944v-83.944h-83.944v-38.157h83.944v-91.577h-83.944l7.631-76.313h320.517l7.631 579.984h-328.148l-7.631-38.157 83.944-7.631-7.631-76.313zM99.906 768.517v-641.034l412.094-91.577v824.188l-412.094-91.577z" />
<glyph unicode="&#xe68b;" glyph-name="cerificate" d="M494.545 494.545c-40.727 0-23.273-64-40.727-81.455-11.636-23.273-64-23.273-64-58.182 0-17.455 23.273-52.364 23.273-64 0-23.273-23.273-46.545-23.273-69.818 0-34.909 40.727-34.909 64-52.364 17.455-23.273 0-69.818 29.091-87.273 17.455-5.818 46.545 5.818 75.636 5.818 23.273 0 40.727-46.545 69.818-46.545 17.455 0 23.273 11.636 34.909 23.273 5.818 5.818 17.455 23.273 34.909 23.273 23.273 0 52.364-11.636 69.818-5.818s17.455 29.091 23.273 58.182c0 29.091 5.818 29.091 34.909 40.727 17.455 5.818 40.727 17.455 40.727 40.727s-29.091 46.545-29.091 64c0 29.091 58.182 69.818 0 104.727-52.364 23.273-40.727 11.636-52.364 69.818-11.636 69.818-75.636 5.818-104.727 34.909-34.909 34.909-46.545 58.182-81.455 23.273-58.182-52.364-34.909-23.273-104.727-23.273zM756.363 52.364c-52.364 0-64 17.455-75.636-5.818l87.273-87.273c5.818-11.636 17.455-23.273 29.091-23.273h5.818c5.818 0 11.636 11.636 17.455 29.091 0 11.636 5.818 23.273 5.818 34.909 11.636 0 23.273 5.818 34.909 5.818 17.455 5.818 29.091 5.818 29.091 17.455s-11.636 23.273-17.455 29.091c-17.455 11.636-64 64-69.818 69.818 0-17.455-5.818-40.727-11.636-46.545-5.818-11.636-23.273-23.273-34.909-23.273zM354.909 23.273c0-11.636 11.636-11.636 23.273-17.455 46.545-5.818 40.727-5.818 40.727-23.273 5.818-34.909 5.818-46.545 29.091-46.545 11.636 0 46.545 40.727 58.182 52.364l58.182 58.182c-17.455 23.273-23.273 5.818-75.636 5.818-34.909 0-46.545 40.727-46.545 69.818-11.636-5.818-52.364-58.182-69.818-69.818-5.818-5.818-17.455-17.455-17.455-29.091zM256 768c0-17.455 17.455-29.091 23.273-29.091h395.636c23.273 0 34.909 52.364-11.636 52.364h-372.364c-17.455 0-34.909-11.636-34.909-23.273zM256 634.182c0-17.455 17.455-29.091 34.909-29.091h372.364c17.455 0 29.091 11.636 29.091 23.273s0 29.091-17.455 29.091h-395.636c-5.818 0-23.273-11.636-23.273-23.273zM133.818 896v-727.273c0-11.636 5.818-23.273 11.636-29.091 17.455-29.091 40.727-40.727 75.636-40.727h145.455c0 0 34.909 29.091 34.909 40.727-29.091 11.636-29.091 17.455-46.545 17.455h-133.818c-23.273 0-34.909 0-34.909 29.091v692.364c0 17.455 5.818 29.091 29.091 29.091h523.636c17.455 0 23.273-11.636 29.091-23.273v-157.091c0-69.818 0-139.636 0-209.455 5.818 0 11.636-5.818 17.455-5.818 17.455-11.636 23.273-23.273 29.091-40.727 0 0 0 0 0-5.818 5.818-5.818 5.818 0 5.818-5.818v424.727c0 23.273-5.818 34.909-17.455 52.364-5.818 11.636-29.091 23.273-46.545 23.273h-558.545c-29.091 0-64-34.909-64-64zM628.363 471.273c93.091 0 174.545-81.455 174.545-180.364 0-93.091-81.455-174.545-174.545-174.545-98.909 0-180.364 81.455-180.364 174.545 0 98.909 81.455 180.364 180.364 180.364zM471.273 290.909c0-81.455 69.818-151.273 157.091-151.273 81.455 0 151.273 69.818 151.273 151.273 0 87.273-69.818 151.273-151.273 151.273-87.273 0-157.091-64-157.091-151.273z" />
<glyph unicode="&#xe69b;" glyph-name="camera" d="M533.292 576c-106.027 0-191.957-85.973-191.957-192s85.931-192 191.957-192c105.984 0 191.957 85.973 191.957 192s-85.973 192-191.957 192zM458.966 512.725c21.931 12.757 47.147 20.608 74.368 20.608 76.416 0 138.923-57.941 147.584-132.139-73.813 56.832-161.067 91.904-221.952 111.531zM960.001 746.667h-206.251l-28.416 85.333h-426.667l-28.416-85.333h-163.584c-47.104 0-106.667-38.229-106.667-85.333v-512c0-47.104 59.563-85.333 106.667-85.333h853.333c47.104 0 64 38.229 64 85.333v512c0 47.104-16.896 85.333-64 85.333zM533.334 106.667c-153.173 0-277.333 124.16-277.333 277.333s124.16 277.333 277.333 277.333 277.333-124.16 277.333-277.333-124.16-277.333-277.333-277.333zM938.668 576h-85.333v85.333h85.333v-85.333z" />
<glyph unicode="&#xe70b;" glyph-name="inventroy" d="M287.234-38.941l-262.212 127.374v299.657l247.249 134.838v292.119l262.212 119.893 232.23-119.893v-307.138l14.962 15.019 217.285-134.838v-299.657l-217.285-127.374-262.212 127.374v299.657h-14.962v-299.657l-217.285-127.374zM646.838 860.031l-209.746-104.873 97.392-37.446 194.784 97.335-82.43 44.984zM399.646 777.601l209.746 89.911-74.909 44.927-209.804-104.873 74.949-29.965zM414.608 717.712v-52.465l-37.446 7.481v52.465l-82.43 37.446v-232.23l209.804-104.873v239.711l-89.911 52.465zM894.047 440.498l-209.746-112.354 97.392-29.965 179.782 89.911-67.427 52.408zM646.838 350.57l209.746 104.93-67.427 37.446-202.265-104.873 59.946-37.503zM661.8 298.162v-52.465l-37.446 15.019v52.408l-82.373 37.446v-247.192l209.746-89.911v232.23l-89.911 52.465zM399.646 440.498l-202.265-112.354 74.909-29.965 194.784 89.911-67.427 52.408zM152.396 350.57l209.746 104.93-74.909 37.446-209.746-104.873 74.909-37.503zM167.416 298.162v-52.465l-37.446 15.019v52.408l-82.43 37.446v-247.192l194.784-89.911v232.23l-74.909 52.465z" />
<glyph unicode="&#xe71b;" glyph-name="measure" d="M177.538 189.423l4.782 79.942 12.052 277.63 6.028 182.846c24.156-0.546 43.082-0.796 56.882-0.796 11.404 0 28.84 0.248 52.346 0.796 1.642-22.662 3.138-39.946 4.284-51.702 1.196-11.754 4.084-34.718 8.716-68.884 4.584-34.168 8.32-63.754 11.158-88.608 2.79-24.952 6.972-67.64 12.6-128.156 5.726 41.49 10.958 77.152 15.64 106.99s10.56 63.754 17.582 101.658c7.022 38.104 11.506 62.958 13.45 74.712 1.892 11.754 4.432 29.686 7.72 53.992 19.676-0.546 38.9-0.796 57.726-0.796 12.85 0 30.682 0.248 53.494 0.796-2.54-88.956-4.236-165.414-5.032-229.266-1.744-125.068-2.59-211.086-2.59-258.104 0-9.712 0.152-27.394 0.4-53.044-17.282 0.498-29.388 0.798-36.36 0.798-10.11 0-22.464-0.298-37.106-0.798 0.996 23.76 2.342 80.342 3.884 169.596 1.496 89.404 2.342 146.534 2.342 171.238 0 10.808-0.152 25.95-0.45 45.226l-25.6-161.228-36.81-224.834c-16.984 0.498-28.64 0.798-35.064 0.798-8.12 0-20.472-0.298-37.206-0.798l-24.156 217.81-14.144 116.002c-0.45 4.432-1.046 10.012-1.744 16.636-0.65 6.576-1.642 18.228-3.138 34.816l-4.882-109.678-6.376-224.982-0.598-50.606c-18.082 0.498-29.584 0.798-34.518 0.798-6.824 0-18.628-0.298-35.314-0.798zM90.326-22.809h484.93c-14.096 21.020-28.142 35.114-35.114 63.206l-379.536 0.048v843.25c442.742 0 372.512 35.114 372.512-196.79 56.182 7.022 119.438 21.116 168.65 0 21.020-13.998 28.092-21.020 28.092-56.236v-267.020c35.164 0 35.164-7.022 63.256-7.022v302.186c0 56.236 7.022 56.236-28.092 84.324-35.164 35.164-63.256 63.256-98.42 105.392-21.068 21.118-91.35 98.42-119.488 98.42h-456.788v-969.76zM701.77 40.399h56.182v77.302h77.302v56.182h-77.302v77.352h-56.182v-77.352h-77.352v-56.182h77.352v-77.302zM736.884 349.607c105.392 0 196.79-91.35 196.79-203.764 0-105.446-91.398-196.792-196.79-196.792-112.466 0-196.742 91.35-196.742 196.79 0 112.418 84.274 203.764 196.742 203.764v0z" />
<glyph unicode="&#xe72b;" glyph-name="inclusion" d="M90.326-22.809h484.93c-14.096 21.020-28.142 35.114-35.114 63.206l-379.536 0.048v843.25c442.742 0 372.512 35.114 372.512-196.79 56.182 7.022 119.438 21.116 168.65 0 21.020-13.998 28.092-21.020 28.092-56.236v-267.020c35.164 0 35.164-7.022 63.256-7.022v302.186c0 56.236 7.022 56.236-28.092 84.324-35.164 35.164-63.256 63.256-98.42 105.392-21.068 21.118-91.35 98.42-119.488 98.42h-456.788v-969.76zM208.52 129.753v68.984h32.724c22.564 0 36.61 3.186 42.038 9.514 5.478 6.376 8.12 21.918 8.12 46.72v358.37c0 24.756-2.64 40.344-8.12 46.718-5.428 6.326-19.476 9.512-42.038 9.512h-32.724v68.934h275.238v-68.934h-32.574c-22.662 0-36.708-3.186-42.188-9.512-5.428-6.376-8.12-21.966-8.12-46.718v-358.37c0-24.804 2.688-40.342 8.12-46.72 5.478-6.326 19.524-9.514 42.188-9.514h32.574v-68.982h-275.238zM701.77 40.399h56.182v77.302h77.302v56.182h-77.302v77.352h-56.182v-77.352h-77.352v-56.182h77.352v-77.302zM736.884 349.607c105.392 0 196.79-91.35 196.79-203.764 0-105.446-91.398-196.792-196.79-196.792-112.466 0-196.742 91.35-196.742 196.79 0 112.418 84.274 203.764 196.742 203.764v0z" />
<glyph unicode="&#xe73b;" glyph-name="viewdetilas" d="M17.592 687.531c0 17.386 14.9 26.943 24.69 36.657l92.098 92.098c23.136 23.136 101.811 109.931 132.096 109.931h477.43c31.314 0 59.229-23.253 73.664-42.251 21.873-28.77 18.358-50.138 18.358-97.557 0-76.149 0-152.299 0-228.448-28.829 6.74-69.176 17.037-102.277 17.037v235.287c0 8.003-5.634 13.637-13.637 13.637h-395.53v-146.588c0-25.040-32.985-58.024-58.024-58.024h-146.588v-531.938c0-15.308 14.784-13.987 30.499-13.812l303.665 0.175c10.122-37.938 90.369-99.966 92.039-102.277-49.381 0-427.234-5.634-456.645 3.632-36.774 11.577-71.836 52.78-71.836 81.609v630.817zM460.832 264.726c0 33.549 14.842 75.916 26.361 99.868 20.436 42.426 51.168 74.77 88.116 102.801 9.033 6.915 8.742 6.955 18.474 12.2 7.479 4.080 11.734 7.363 19.562 11.17 70.963 34.189 172.676 37.123 240.764 0.175 53.694-29.12 99.402-71.604 125.996-126.327 25.662-52.896 26.303-83.92 26.303-140.78 0-88.524-73.507-191.54-152.357-226.079-78.053-34.189-163.061-37.589-240.706 0.116-54.916 26.594-97.266 72.284-126.385 125.938-24.166 44.602-26.128 90.543-26.128 140.954zM188.073 448.845h282.997c10.413 0 5.634 2.020 10.296 6.799 12.025 12.258 25.779 30.616 44.195 44.427 6.857 5.128 15.657 10.354 20.494 16.978h-358v-68.204zM188.073 312.495h225.049c0.291 13.131 4.138 24.807 8.003 36.326 4.546 13.579 9.674 19.854 12.433 31.82h-245.484v-68.146zM188.073 176.086h221.649c0 23.253-6.857 46.156-6.857 68.204h-214.793v-68.204zM426.759 653.458h204.613v68.204h-204.613v-68.204zM496.401 241.59c0-13.987 18.532-38.968 26.885-51.342 3.69-5.419 7.421-9.441 11.461-14.394 5.459-6.74 18.591-21.233 24.69-25.895l13.346-11.461c20.436-16.006 38.677-27.158 62.727-37.472l18.707-7.13c19.854-7.887 40.93-10.18 62.163-13.23l24.399-1.379 45.417 4.255c47.536 9.033 83.92 24.574 122.073 54.567 9.848 7.712 24.399 20.785 31.878 30.168 4.895 6.1 11.734 12.957 17.328 20.843l10.471 15.308c23.078 38.444 22.671 32.344 0.349 69.991-6.391 10.646-13.87 19.737-21.466 29.12-2.351 2.933-3.399 3.905-5.809 6.624-27.449 30.907-64.63 57.792-103.715 71.953-28.148 10.18-53.519 16.123-84.153 16.978-4.953 0.175-6.566 1.030-12.374 1.030-5.459 0-7.072-0.757-11.461-0.972-14.161-0.757-16.862 0-33.957-3.283-14.161-2.701-28.887-5.419-40.522-10.063-3.050-1.205-5.634-2.020-9.208-3.225-25.273-8.509-58.647-29.353-79.257-46.738-17.502-14.685-41.028-41.261-52.78-60.842-2.992-5.070-17.211-28.031-17.211-33.374zM670.165 243.494c0-21.408 3.399-33.159 16.338-49.497 11.402-14.336 31.762-24.923 50.469-24.923 21.349 0 33.433 3.632 49.497 16.338l8.178 8.061c13.23 17.037 16.745 27.507 16.745 50.021 0 34.83-31.937 66.883-66.825 66.883-23.369 0-39.376-5.459-54.159-20.319-9.79-9.79-20.261-27.333-20.261-46.564z" />
<glyph unicode="&#xe74b;" glyph-name="gridconfig" d="M301.809 776.443c-13.112 8.755-38.073 30.331-52.529 41.459-10.174 7.743-19.883 15.933-30.895 22.646-14.805 9.046-25.526-5.817-37.626-17.899-7.295-7.295-13.833-13.891-21.186-21.186-1.867-1.867-3.385-3.171-5.020-5.136-2.199-2.606-2.49-3.444-5.078-5.992-3.793-3.793-6.829-6.829-10.622-10.622-25.427-25.369-22.53-25.369 5.136-60.039 9.65-11.984 35.642-43.559 43.599-55.408-1.576-5.875-11.128-20.68-14.747-26.712-14.514-24.24-28.19-61.011-35.194-89.084-4.689-18.929-3.833-15.311-23.501-17.899l-74.047-8.871c-13.269-1.46-23.269-4.008-23.269-19.086v-90.992c0-28.132 10.058-24.746 33.501-28.074 13.054-1.867 72.081-6.148 81.731-11.303 4.514-2.432 6.887-17.801 8.249-23.054 7.51-29.592 21.343-61.906 36.596-87.723 2.042-3.444 3.735-6.44 5.584-9.552 7.743-12.821 5.195-10.058-9.203-28.132-9.046-11.361-52.413-62.529-52.413-73.89 0-6.946 14.456-20 18.987-24.514 12.588-12.588 24.514-26.148 37.899-37.899 21.692-19.144 25.020-34.222 44.338-19.592 7.801 5.934 75.524 59.766 78.677 59.766 3.677 0 12.373-5.078 15.369-6.887l30.447-15.992c26.771-13.502 56.42-22.879 85.582-29.65 0-12.646 8.755-74.279 10.68-87.392 2.141-15.020 0-28.929 19.592-28.871l34.63-0.291c4.183 0.506 8.58 0.331 12.879 0.291h36.439c5.078 0.175 5.544 1.012 11.070 1.070 23.891 0.175 20.389 5.759 23.327 26.148 1.984 14.241 3.327 28.307 5.428 43.093 1.361 9.942 2.606 34.182 5.311 43.152 1.245 4.183 4.98 4.183 9.825 5.369 4.241 1.070 6.887 1.867 11.070 3.112 11.401 3.385 55.816 16.498 61.226 24.63-4.922 7.335-30.895 31.343-39.65 40.156-3.211 3.269-5.486 4.456-8.58 7.568-5.642 5.544-10.506 10.506-16.148 16.148l-17.004 14.339c-4.922 3.56-6.207 2.199-11.751 0.797-22.879-5.992-46.945-8.307-72.587-8.307-75.35 0-143.306 32.646-192.217 81.615l-24.007 27.509c-2.49 3.327-4.863 6.265-7.295 9.883-9.319 13.891-18.58 28.248-24.903 43.832-15.759 38.579-24.397 68.404-24.397 113.034 0 39.027 6.108 76.886 22.257 110.154 3.677 7.626 6.498 15.194 10.895 22.431l18.987 30.564c12.879 18.58 30.564 37.626 48.346 51.692 15.759 12.49 32.315 24.397 50.388 33.443 58.521 29.26 86.478 28.638 150.252 28.638 38.347 0 85.914-18.929 116.419-37.16 39.766-23.833 72.976-56.031 96.536-95.524l13.443-24.961c18.016-40.622 19.086-51.127 24.845-90.37 1.751-12.082 1.070-42.081 0.39-55.135-0.291-5.136-1.42-11.634-2.315-16.887-1.128-6.887-4.183-27.218-6.771-32.646l47.276-44.688c7.237-6.731 30.953-32.471 38.638-33.094 1.245 5.311 5.992 14.903 8.365 20.895 5.934 15.078 9.436 31.011 14.747 45.915 3.833 11.012 7.237 8.638 20.058 10.273 26.439 3.269 54.844 5.428 80.992 9.883 5.136 0.896 18.307 5.486 18.307 12.024v92.586c-0.331 9.61-0.954 17.12-1.926 20.68-1.693 6.148-4.98 7.568-11.128 9.046-9.494 2.373-23.891 3.833-34.455 5.020-11.634 1.303-23.618 3.054-35.31 4.066-11.576 1.012-23.775 4.008-35.409 4.008-0.331 14.903-16.148 56.031-21.518 69.474-6.381 16.050-13.949 31.459-22.763 45.915-11.925 19.552-7.626 16.556 8.93 38.19 5.701 7.452 11.46 14.805 17.178 22.257 6.323 8.307 32.373 37.218 32.373 46.479 0 7.958-9.144 14.299-13.949 19.435-17.626 19.086-35.875 38.405-55.019 56.147-2.49 2.257-3.618 2.606-6.108 5.020-15.194 14.805-20.116 8.697-51.127-16.050l-51.517-40.563c-4.008-2.938-5.934-0.448-9.709 1.867-9.65 5.875-20.214 12.431-30.72 16.713-15.136 6.265-25.078 11.693-43.035 18.638-11.693 4.514-23.21 8.132-35.7 10.797-1.128 0.233-11.245 2.432-12.199 2.938-4.183 2.141-2.763 6.108-3.502 11.634-0.506 3.95-1.187 10-1.693 14.456-1.751 15.486-6.498 68.462-11.245 81.731-1.303 3.677-2.763 6.946-6.771 8.423-2.49 0.896-9.825 1.46-19.435 1.809h-77.607c-4.241-0.233-4.514-0.896-9.203-1.012-22.53-0.564-18.696-6.108-23.618-43.152-2.042-15.427-5.584-53.599-9.144-68.637-0.954-4.124-1.809-4.357-5.486-5.584-26.323-9.144-35.467-9.046-66.653-22.373-10.739-4.572-52.139-23.21-57.84-31.011zM420.037 620.822c0-12.257 31.284-27.393 41.011-33.774 5.428-3.56 10.506-6.323 15.584-9.65 11.984-7.958 24.961-16.148 34.572-27.062 1.518-1.751 4.066-4.863 5.428-6.771 12.082-17.393 3.833-35.252-3.444-53.268-8.307-20.389-18.522-39.65-35.7-53.268-10.058-8.016-20.273-14.299-35.194-14.299-3.793 0-9.436 4.066-12.373 5.875l-57.218 36.77c-7.12 4.299-17.12 10.895-27.451 10.895-8.638 0-13.443-12.257-12.705-20.895 1.070-12.646 10.233-25.758 16.323-36.090l20.214-32.315c18.58-26.829 42.081-56.886 75.408-65.135 20.837-5.136 45.409-2.373 64.786-4.922 19.825-2.606 37.626-5.642 54.67-16.050 14.63-8.871 40.33-32.646 50.836-45.194l29.825-31.809c2.879-3.112 5.584-5.544 8.58-8.58 17.51-17.451 33.559-36.537 51.069-54.065 6.050-6.050 10.564-11.576 16.654-17.684 6.207-6.265 10.895-11.925 17.178-18.19l93.424-99.59c3.269-3.269 5.875-5.817 9.144-9.046 3.444-3.385 4.863-5.875 8.074-9.144l25.758-26.712c6.381-6.381 29.999-33.094 37.684-33.094v0c23.891 0 50.039 13.385 64.338 25.526 14.747 12.431 30.622 37.451 30.622 58.346v0c0 6.614-18.249 23.385-22.995 28.521l-185.446 200.524c-2.647 3.171-5.701 5.701-8.58 8.638l-67.217 73.267c-2.763 3.269-5.759 5.369-8.522 8.638l-8.638 9.552c-1.984 2.082-1.984 2.432-3.618 4.456l-12.49 13.775c-25.136 25.078-45.31 55.467-48.405 92.080-0.797 9.883-0.681 23.949-1.751 33.618-2.821 25.136 2.996 42.879-6.556 63.209-3.385 7.295-9.203 15.194-14.124 21.244-42.198 51.79-96.146 50.836-158.326 50.836-5.701 0-18.696-3.735-23.891-5.428-6.829-2.257-16.556-5.642-16.556-13.775z" />
<glyph unicode="&#xe75b;" glyph-name="Manual_Issue_Packet" d="M512.001 241.817c0 0 7.638 22.907 7.638 30.545l7.638 22.907c0 0 0 0 0 0l114.545 53.455c0 0 0 0 0-7.638 7.638 0 45.817-22.907 45.817-22.907l-15.273-45.817c0 0 0 0 0 0l-7.638-15.273c-7.638-7.638-7.638-15.273-15.273-22.907l-7.638-30.545c0-7.638-7.638-7.638-7.638-7.638s0 0 0 0l-45.817 15.273c0 7.638 0 7.638-7.638 7.638l-15.273 7.638c-7.638 0-15.273 7.638-22.907 7.638 0 0 0 0-7.638 0l-22.907 7.638zM786.908 784c-129.817 0-229.093-99.273-229.093-221.455 0-129.817 99.273-229.093 229.093-229.093 122.183 0 221.455 99.273 221.455 229.093 0 122.183-99.273 221.455-221.455 221.455zM695.274 470.907v183.273h53.455l38.183-129.817 30.545 129.817h53.455v-183.273h-30.545v145.093l-38.183-145.093h-38.183l-30.545 145.093v-145.093h-38.183zM634.184 302.907c0 7.638 0 30.545 0 30.545l-38.183-15.273 38.183-15.273zM641.818 302.907l38.183 15.273-38.183 15.273c0 0 0-15.273 0-22.907 0 0 0-7.638 0-7.638zM527.274 249.455l30.545 15.273-22.907 22.907c0 0-7.638-15.273-7.638-15.273v-22.907zM565.455 272.362c0 0 0 0 0 0l15.273 38.183-38.183-15.273c0 0 15.273-22.907 22.907-22.907zM573.094 272.362v0l53.455 22.907h7.638l-45.817 15.273-15.273-38.183zM641.818 226.545l30.545 68.727c0 0 0 0 0 0l7.638 15.273-38.183-15.273v-68.727zM618.908 211.273c-7.638 7.638-45.817 38.183-53.455 45.817-7.638 0-30.545-7.638-38.183-15.273l91.638-30.545zM634.184 211.273c0 0 0 15.273 0 22.907 0 0 0 7.638 0 15.273v38.183l-61.093-22.907c0-7.638 7.638-15.273 15.273-15.273 7.638-7.638 22.907-22.907 38.183-30.545 0 0 7.638-7.638 7.638-7.638zM221.818 287.638c0 0 0 30.545 0 38.183v30.545c0 7.638 0 7.638 7.638 7.638l129.817 99.273c0 0 7.638 0 7.638 0 7.638 0 68.727-22.907 68.727-22.907l-7.638-61.093c0 0 0 0 0 0l-7.638-22.907c0-15.273 0-30.545-7.638-38.183l-7.638-53.455c0 0 0 0 0 0s0 0 0 0l-68.727 7.638c0 0-7.638 0-7.638 0l-30.545 7.638c-7.638 0-22.907 0-30.545 0s-7.638 0-7.638 0l-38.183 7.638zM374.546 402.183c-7.638 7.638-15.273 45.817-15.273 45.817l-45.817-30.545 61.093-15.273zM382.184 409.817l38.183 30.545-45.817 15.273c0-7.638 0-30.545 7.638-38.183 0 0 0-7.638 0-7.638zM237.094 302.907l38.183 22.907-38.183 30.545c0 0 0-22.907 0-30.545v-22.907zM282.908 341.093c0 0 0 0 0 7.638l7.638 53.455-45.817-38.183c0 0 30.545-22.907 38.183-22.907zM290.546 341.093v0l68.727 53.455h7.638l-68.727 7.638-7.638-61.093zM397.455 302.907l22.907 106.907c0 0 0 0 0 0l7.638 15.273-45.817-30.545 15.273-91.638zM374.546 280c-7.638 0-76.362 38.183-91.638 45.817-7.638-7.638-30.545-30.545-38.183-30.545l129.817-15.273zM389.818 280c7.638 0 0 22.907 0 30.545s0 15.273-7.638 22.907l-7.638 53.455-76.362-53.455c0-7.638 15.273-15.273 22.907-15.273 15.273-7.638 38.183-22.907 61.093-30.545 0 0 7.638-7.638 7.638-7.638zM160.728 631.273h381.817c0-15.273-15.273-45.817-15.273-53.455h-313.093v-137.455h-145.093v-259.638h794.182v122.183c15.273 0 45.817 38.183 61.093 38.183v-229.093h-908.726v366.545l145.093 152.727z" />
</font>
</defs>
</svg>
