<svg width="34" height="29" xmlns="http://www.w3.org/2000/svg">
 <g>
  <title>Layer 1</title>
  <path fill="#000000" stroke="#000" opacity="NaN" d="m0.00001,0" id="svg_3"/>
  <path fill="#306856" id="svg_2" d="m2.684,1.1925c-0.968,0 -1.694,0.807 -1.694,1.694l0,22.906c0,0.887 0.726,1.613 1.694,1.613l12.663,0c-0.081,-0.081 -0.081,-0.161 -0.081,-0.242l0,-17.502c0,-0.645 0.565,-1.21 1.21,-1.21l7.42,0l0,-5.565c0,-0.887 -0.726,-1.694 -1.613,-1.694l-8.388,0c-0.242,-0.484 -0.726,-0.807 -1.21,-0.807c-0.565,0 -1.049,0.323 -1.21,0.807l-8.791,0zm14.76,8.388c-0.645,0 -1.21,0.565 -1.21,1.129l0,16.695c0,0.645 0.565,1.21 1.21,1.21l14.437,0c0.645,0 1.129,-0.565 1.129,-1.21l0,-16.695c0,-0.565 -0.484,-1.129 -1.129,-1.129l-14.437,0zm1.855,3.871l10.566,0l0,3.226l-10.566,0l0,-3.226zm0.08,4.033l2.662,0l0,1.855l-2.662,0l0,-1.855zm4.033,0l2.581,0l0,1.855l-2.581,0l0,-1.855zm3.952,0l2.662,0l0,1.855l-2.662,0l0,-1.855zm-7.985,2.662l2.662,0l0,1.936l-2.662,0l0,-1.936zm4.033,0l2.581,0l0,1.936l-2.581,0l0,-1.936zm3.952,0l2.662,0l0,1.936l-2.662,0l0,-1.936zm-7.985,2.661l2.662,0l0,1.936l-2.662,0l0,-1.936zm4.033,0l2.581,0l0,1.936l-2.581,0l0,-1.936zm3.952,0l2.662,0l0,1.936l-2.662,0l0,-1.936zm-19.76,-1.693l0,-2.662c-1.452,0 -2.662,1.21 -2.662,2.662c0,1.532 1.21,2.662 2.662,2.662s2.662,-1.129 2.662,-2.662l-2.662,0zm-0.081,-3.872c2.097,0 3.791,1.694 3.791,3.791s-1.694,3.791 -3.791,3.791c-2.097,0 -3.791,-1.694 -3.791,-3.791s1.694,-3.791 3.791,-3.791zm-5,-3.952l0.887,0l0,-3.549l1.129,0l0,3.549l2.258,0l0,-5.081l1.21,0l0,5.081l2.258,0l0,-3.549l1.129,0l0,3.549l1.129,0l0,1.452l-10.001,0l0,-1.452l0.001,0zm10.162,-11.937c0.242,0 0.484,0.242 0.484,0.565c0,0.403 -0.242,0.645 -0.484,0.645c-0.323,0 -0.565,-0.242 -0.565,-0.645c0,-0.323 0.242,-0.565 0.565,-0.565zm1.371,0.807l2.904,0l0,0.081c0,1.532 -1.21,2.662 -2.662,2.662l-3.307,0c-1.452,0 -2.662,-1.129 -2.662,-2.662l0,-0.081l2.984,0c0.081,0.726 0.645,1.371 1.371,1.371c0.645,0 1.29,-0.645 1.371,-1.371l0.001,0z"/>
 </g>

</svg>