<?xml version="1.0" encoding="UTF-8"?>
<!DOCTYPE svg PUBLIC "-//W3C//DTD SVG 1.1//EN" "http://www.w3.org/Graphics/SVG/1.1/DTD/svg11.dtd">
<!-- Creator: CorelDRAW X8 -->
<svg xmlns="http://www.w3.org/2000/svg" xml:space="preserve" width="130px" height="130px" version="1.1" style="shape-rendering:geometricPrecision; text-rendering:geometricPrecision; image-rendering:optimizeQuality; fill-rule:evenodd; clip-rule:evenodd"
viewBox="0 0 130 130"
 xmlns:xlink="http://www.w3.org/1999/xlink">
 <defs>
  <style type="text/css">
   <![CDATA[
    .fil0 {fill:#CC6633}
    .fil1 {fill:#FF3399}
   ]]>
  </style>
 </defs>
 <g id="Layer_x0020_1">
  <metadata id="CorelCorpID_0Corel-Layer"/>
  <g id="_2062232767424">
   <path class="fil0" d="M33 23c-2,1 -4,4 -5,5 -1,1 -2,2 -3,2 -1,1 -1,3 -2,3 -4,0 -10,-2 -14,-2 -2,0 -3,1 -4,3 -2,3 -4,9 -5,12 0,3 1,4 3,5l10 7c0,2 -1,4 -1,7 0,8 3,6 -4,10 -2,1 -3,2 -5,3 -4,3 -4,5 -1,12 1,2 3,7 4,8 3,2 6,1 10,0 2,0 6,-1 7,-1 1,1 6,6 7,7 1,1 2,2 3,3 0,4 -2,9 -2,13 -1,4 5,6 9,7 10,4 9,4 14,-5 1,-1 3,-3 3,-5l15 0c1,1 5,9 6,10 4,4 5,3 12,0 2,0 3,-1 5,-2 2,-1 4,-2 4,-4 0,-4 -3,-12 -3,-14 1,-1 2,-2 3,-2l5 -6c1,0 2,-2 3,-2 4,0 9,2 13,2 3,0 4,-1 5,-3 1,-3 4,-9 5,-12 1,-4 -5,-6 -8,-8 -1,-1 -4,-3 -5,-4l0 -15c3,-2 7,-4 10,-6 5,-3 3,-5 1,-11 -1,-2 -2,-4 -3,-5 -1,-3 -1,-4 -4,-4 -5,0 -10,2 -14,2l-5 -5c-1,-1 -4,-4 -5,-5 0,-5 4,-13 2,-17 -1,0 -2,-1 -3,-1 -2,-1 -9,-4 -11,-5 -5,-1 -7,4 -9,7 -1,2 -2,4 -3,5l-16 0 -6 -9c-1,-2 -2,-4 -6,-3 -2,1 -9,4 -11,5 -7,3 -2,9 -1,18zm29 0c-13,1 -23,7 -29,13 -6,7 -11,19 -10,32 1,22 21,41 45,39 9,-1 20,-5 26,-11 9,-10 14,-20 13,-34 -1,-22 -21,-41 -45,-39z"/>
   <path class="fil1" d="M75 70c-2,2 -4,11 -6,15 0,-1 -3,-8 -2,-9 0,-1 1,-2 1,-4 1,-2 -1,-2 -3,-3 -2,0 -3,1 -4,3 0,1 1,3 2,4 1,2 -1,4 -2,6 0,1 0,2 -1,3 -1,-3 -4,-14 -5,-15 -2,0 -4,2 -6,3 -5,2 -10,2 -10,7 -1,2 -1,9 0,10 0,1 3,3 4,4 7,5 13,7 22,7 6,0 10,-1 15,-4 3,-1 10,-5 11,-7 1,-2 1,-7 0,-9 0,-3 -1,-5 -3,-6 -3,-1 -5,-1 -7,-2 -2,-1 -5,-3 -6,-3z"/>
   <path class="fil1" d="M63 34c-8,1 -11,8 -10,18 0,9 4,15 14,14 8,-1 11,-9 11,-18 -1,-4 -2,-8 -4,-11 -2,-2 -6,-3 -11,-3z"/>
  </g>
 </g>
</svg>
