<svg xmlns="http://www.w3.org/2000/svg" width="19.61" height="20.214" viewBox="0 0 19.61 20.214">
  <path id="admins" d="M7.542,13.275A34.036,34.036,0,0,0,3.62,15.386C0,17.5,0,16.141,0,20.214H19.61c0-4.073,0-2.715-3.62-4.827a26.233,26.233,0,0,0-4.073-2.112,4.044,4.044,0,0,1,.6-2.564A2.351,2.351,0,0,0,13.425,9.2a4.245,4.245,0,0,0,.151-1.207c.453,0,.6-1.056.905-1.358,0-.151,0-1.659-.453-1.358L13.576,3.62c-.905-4.827-6.788-4.827-7.542,0L5.581,5.28c-.6-.3-.453,1.207-.453,1.358.3.754.453,1.358.905,1.358V9.2c.151.754.453,1.358.905,1.508C7.241,11.314,7.542,11.163,7.542,13.275Z" fill="#718fc8" fill-rule="evenodd"/>
</svg>
