<svg id="admin" xmlns="http://www.w3.org/2000/svg" width="16.028" height="17.499" viewBox="0 0 16.028 17.499">
  <path id="Path_19" data-name="Path 19" d="M51.7,3.614V4.692c-.317.127-.7.127-.7.824a2.468,2.468,0,0,0,.7,1.9c.38.254.38-.127.634.507a1.494,1.494,0,0,0,.444.951,4.1,4.1,0,0,0,2.916,2.282,2.437,2.437,0,0,0,1.522-.507,3.868,3.868,0,0,0,.951-.824,3.542,3.542,0,0,0,1.2-2.282c.127-.127.634.127.951-.7.761-2.156,0-2.029-.571-2.156A4.083,4.083,0,0,0,59.5,2.029,3.156,3.156,0,0,0,58.545.951,5.251,5.251,0,0,0,55.311,0c-.951,0-.38.7-1.2.7-1.078.127-1.775.38-2.156,1.331A6.882,6.882,0,0,0,51.7,3.614Z" transform="translate(-47.767)" fill="#fdd1a1" fill-rule="evenodd"/>
  <path id="Path_20" data-name="Path 20" d="M6.594,188.888c0,.951.7,1.2.7,1.331a8.487,8.487,0,0,1-.824,1.458c-.127.317-.127.444-.254.571a6.811,6.811,0,0,0-.444-.951l-.761-2.409c-.317-.7-.317-.571-1.395-.127-1.458.507-3.36.951-3.614,2.663v.7c0,.634,0,1.458,1.2,1.458H14.836c1.712,0,1.2-2.536.761-3.107a5.028,5.028,0,0,0-2.663-1.585c-2.029-.571-1.648-.824-2.029.38-.127.254-.254.7-.38.951,0,.254-.7,1.9-.7,2.029-.127-.127-1.078-1.9-1.078-1.9,0-.127,1.331-1.458.254-2.156a2.8,2.8,0,0,0-2.029,0A1.252,1.252,0,0,0,6.594,188.888Z" transform="translate(0 -176.081)" fill="#9dd3af" fill-rule="evenodd"/>
</svg>
