<svg clip-rule="evenodd" fill-rule="evenodd" height="141" image-rendering="optimizeQuality" shape-rendering="geometricPrecision" text-rendering="geometricPrecision" viewBox="0 0 106 116" width="130" xmlns="http://www.w3.org/2000/svg"><path d="m63 83 7 6c0 10-1 7 9 18 2 2 6 6 8 7 3 3 8 2 11-1 7-8-2-15-5-19-7-7-9-11-18-8l-7-8c3-6 10-11 9-27-1-15-12-28-23-33-27-10-53 8-54 34-1 21 15 38 35 40 13 1 19-4 28-9zm-26-63c19 0 34 15 34 33 0 19-15 34-34 34-17 0-33-15-33-34 0-18 16-33 33-33z" fill="#434953"/><path d="m67 20c3-3 2-4 3-7l12 34c4 12-1 9 20 9 2 0 2 0 4-1 1-4-1-4-5-4s-8 0-12 0c-4-15-10-31-16-47-2-7-5-3-6-2-1 2-2 7-3 9-1 4-2 9 3 9z" fill="#848688"/><path d="m53 51c-12 0-10-2-15 10l-1 3c-1-3-3-12-6-13 0 0-13-4-10 5h8c0 4 1 7 3 11 1 2 2 10 5 10 4 0 5-7 6-9 1-5 3-7 3-12 2 0 8 1 9 0 3-1 3-3 4-5 1-4 3-11 3-15-4-2-5 0-7 4-1 4-1 7-2 11z" fill="#848688"/><path d="m94 109c1-5-2-7-7-12-2-2-8-10-11-5-2 2 3 6 7 10 2 1 4 3 4 5 3 2 3 3 7 2z" fill="#9eb9d2"/><path d="m12 51c-4 2 0 7 3 5s0-8-3-5z" fill="#848688"/></svg>