<?xml version="1.0" encoding="UTF-8"?>
<!DOCTYPE svg PUBLIC "-//W3C//DTD SVG 1.1//EN" "http://www.w3.org/Graphics/SVG/1.1/DTD/svg11.dtd">
<!-- Creator: CorelDRAW X8 -->
<svg xmlns="http://www.w3.org/2000/svg" xml:space="preserve" width="130px" height="130px" version="1.1" style="shape-rendering:geometricPrecision; text-rendering:geometricPrecision; image-rendering:optimizeQuality; fill-rule:evenodd; clip-rule:evenodd"
viewBox="0 0 130 130"
 xmlns:xlink="http://www.w3.org/1999/xlink">
 <defs>
  <style type="text/css">
   <![CDATA[
    .fil1 {fill:#33CC33}
    .fil0 {fill:#6666CC}
   ]]>
  </style>
 </defs>
 <g id="Layer_x0020_1">
  <metadata id="CorelCorpID_0Corel-Layer"/>
  <g id="_3229940816560">
   <path class="fil0" d="M53 115c-4,-4 -4,-4 -6,-8 -10,0 -20,0 -29,0 -2,0 -4,0 -5,0 -2,0 -3,-1 -3,-3 0,-1 0,-2 2,-3 1,0 13,0 14,0 7,0 14,0 20,0 0,-5 2,-6 2,-7 -7,0 -14,0 -21,0 -2,0 -15,0 -16,-1 -2,-1 -2,-5 2,-5l27 0c3,0 7,0 10,0l3 -7c-3,-1 -6,0 -9,0 -2,0 -7,0 -8,-1 -1,-1 -2,-2 -1,-3 1,-2 1,-2 3,-2 3,0 6,0 9,0 0,-1 -1,-2 -1,-4 0,-1 1,-2 1,-3 -2,0 -4,0 -6,0 -1,0 -3,-1 -3,-2 -1,-2 0,-3 1,-4 1,0 27,0 29,0 1,-1 4,-4 5,-4 1,-1 2,-2 3,-2 3,-2 3,0 4,-2 0,-2 2,-5 3,-6 1,-3 2,-4 6,-5l0 -9c-1,-1 -14,-1 -16,-1 -6,0 -9,1 -12,-3 -4,-4 -3,-7 -3,-12 0,-5 0,-11 0,-16 -5,0 -10,0 -14,0l-34 0c-3,0 -4,0 -6,1 -3,2 -2,7 -2,12l0 82c0,3 0,12 0,14 2,4 6,4 10,4 11,0 23,0 34,0 2,0 5,0 7,0zm-36 -74c-5,1 -10,9 -6,15 2,2 4,4 7,5 2,0 3,0 5,1 1,1 2,2 2,4 0,6 -8,6 -10,1 0,-1 0,-3 -2,-4 -2,0 -3,1 -3,3 0,3 1,6 4,8 1,1 2,1 3,2 1,0 0,0 0,0 0,0 0,5 3,5 1,0 2,-1 2,-2 1,-1 1,-2 1,-3 3,-1 5,-3 6,-6 3,-6 0,-13 -7,-14 -2,-1 -3,0 -5,-1 -4,-3 0,-11 5,-9 3,2 3,5 3,6 0,1 1,1 2,1 3,1 5,-2 2,-7 0,-1 -1,-2 -2,-3 -2,-1 -2,-1 -4,-2 0,-1 0,-5 -3,-5 -1,0 -2,1 -2,1 -1,1 -1,3 -1,4zm-5 -18c-1,0 -3,2 -2,4 1,2 2,2 4,2 3,0 37,0 38,0 2,-1 3,-2 2,-4 -1,-2 -2,-2 -4,-2 -3,0 -37,0 -38,0zm0 -13c-1,1 -3,2 -2,4 1,2 2,2 5,2 2,0 36,0 37,0 2,-1 3,-2 2,-4 -1,-2 -2,-2 -4,-2 -3,0 -37,0 -38,0zm25 26c-2,1 -3,2 -2,4 1,2 3,2 4,2 3,0 36,0 37,0 2,-1 3,-2 2,-4 0,-2 -2,-2 -4,-2 -3,0 -36,0 -37,0zm3 13c-3,1 -4,6 1,6 2,0 31,0 32,0 3,-1 4,-6 0,-6 -3,0 -32,0 -33,0zm49 -21l-26 -26c0,4 0,9 0,13 0,4 -1,9 2,11 2,3 7,2 11,2 3,0 11,0 13,0z"/>
   <path class="fil1" d="M88 61c-1,0 -1,0 -2,1 -1,-1 -3,-2 -7,-2 -6,2 -9,10 -14,12 -5,2 -8,-3 -9,-3 -1,-1 -3,0 -3,0 -1,1 -1,2 -1,4 1,2 5,4 8,5l-4 10c-1,3 -3,7 -4,10 -2,7 4,15 13,15 6,0 10,-4 11,-10 1,-2 1,-4 0,-6 -1,-3 -3,-7 -4,-10 -1,-2 -4,-9 -4,-10 1,-1 2,-1 3,-2 3,-2 7,-10 11,-9 1,0 3,1 3,2 0,0 0,47 0,50 -2,1 -4,2 -5,4 -1,1 -2,3 -2,6l23 0c0,-4 -3,-8 -7,-10 0,-7 0,-13 0,-20l0 -28c0,-1 0,-1 1,-2 4,-4 6,-2 9,2 2,2 2,3 5,5 0,1 2,2 3,2 0,1 -3,8 -4,10 -1,3 -3,7 -4,10 -3,8 4,16 11,16 4,0 7,-1 10,-4 1,-1 2,-3 3,-5 0,-2 0,-4 0,-6 -1,-3 -8,-19 -8,-20 3,-1 11,-5 7,-9 -2,-2 -4,1 -5,2 -2,1 -5,2 -7,1 -3,-1 -4,-2 -5,-4 -1,-1 -1,-1 -2,-2 -1,-1 -1,-1 -1,-1 -2,-2 -4,-4 -7,-5 -3,0 -5,1 -7,2 -1,-1 -1,-1 -2,-1 1,-1 5,-2 3,-7 -1,-2 -2,-3 -3,-5 0,0 0,-1 -1,-1 -1,0 -2,1 -2,1 0,1 -1,1 -1,2 -2,3 -4,6 -1,9 1,0 1,0 2,1zm22 36l11 0c0,-1 -2,-6 -2,-7 -1,-1 -3,-7 -3,-7l-6 14zm-51 0l11 0 -6 -14 -5 14z"/>
  </g>
 </g>
</svg>
