<?xml version="1.0" encoding="UTF-8"?>
<!DOCTYPE svg PUBLIC "-//W3C//DTD SVG 1.1//EN" "http://www.w3.org/Graphics/SVG/1.1/DTD/svg11.dtd">
<!-- Creator: CorelDRAW 2021.5 -->
<svg xmlns="http://www.w3.org/2000/svg" xml:space="preserve" width="130mm" height="130mm" version="1.1" style="shape-rendering:geometricPrecision; text-rendering:geometricPrecision; image-rendering:optimizeQuality; fill-rule:evenodd; clip-rule:evenodd"
viewBox="0 0 13000 13000"
 xmlns:xlink="http://www.w3.org/1999/xlink"
 xmlns:xodm="http://www.corel.com/coreldraw/odm/2003">
 <defs>
  <style type="text/css">
   <![CDATA[
    .fil1 {fill:#898778}
    .fil0 {fill:#F08143}
   ]]>
  </style>
 </defs>
 <g id="Layer_x0020_1">
  <metadata id="CorelCorpID_0Corel-Layer"/>
  <g id="_1666743711264">
   <path class="fil0" d="M3925.52 5428.06c1730.74,59.34 1540.39,-199.87 3059.93,345.79 433.22,155.57 1132.26,21.07 1634.14,73.75 526.59,55.35 770.5,317.77 1011.47,696.09 98.71,-75.3 234.1,-265.21 315.03,-375.9 462.8,-632.68 841.68,-551.18 1497.63,-608.09 977.99,-3035.31 -2358.87,-6086.67 -5435.2,-4556.78 -1659.11,825.05 -2416.1,2411.69 -2083,4425.14zm2512.79 -3184.44c-1062.96,300.42 -625.18,1806.65 399.59,1563.8 371.89,-88.14 708.8,-517.41 577.39,-1005.27 -95.39,-354.16 -509.97,-690.58 -976.98,-558.53zm2162.11 1869.77c-947.05,212.13 -736.7,1800.27 344.39,1580.69 1051.62,-213.52 718.95,-1818.75 -344.39,-1580.69zm-55.56 -1727.4c-205.93,98.57 -1052.13,1406.8 -1199.33,1618.3 -122.69,176.32 -831.2,1109.72 -840.06,1279.31 -11.86,227.93 200.62,357.57 393.59,252.75 22.69,-12.33 2001.73,-2705.65 2015.27,-2892.97 16.1,-223.3 -188.99,-343.77 -369.47,-257.39z"/>
   <path class="fil1" d="M4627.88 10408.04c403.69,-191.46 94.88,-141.17 834.99,-140.76l3026.16 0.41c751.66,2.08 914.17,-266.24 1392.96,-567.44 430.26,-270.65 807.22,-538.14 1210.97,-805.52 634.46,-420.27 556.41,-332.64 899.41,-1076.12 653.11,-1415.69 848.35,-1709.9 -259.25,-1705.81 -273.19,0.99 -729.91,-34.75 -956.64,54.38 -192.03,75.51 -406.39,329.94 -518.66,488.05 -444.19,625.71 -272.93,319.07 -528.71,466.98l-1.97 482.15c563.98,49.72 473.86,15.33 948.35,-619.34 123.83,-165.62 194.31,-328.23 441.14,-342.73 242.21,-14.24 548.38,2.17 798.16,2.17 -47.8,244.39 -300.84,717.74 -405.87,957.99 -236.77,541.6 -161.58,491.57 -611.98,787.08 -556.78,365.32 -1098.8,726.7 -1658.69,1104.34 -467.91,315.6 -460.14,245.94 -1100.66,245.84 -405.81,-0.05 -3267.08,-33.3 -3453.83,20.15 -177.32,50.7 -268.89,212.85 -448.64,266.03l-2165.08 -2289.83c74.27,-147.28 941.68,-860.47 1088.34,-989.68 310.63,-273.65 239.11,-237.14 769.73,-233.87 1475.67,9.06 1539.47,-134.24 2797.88,310.42 511.36,180.69 1327.55,44.22 1716.38,89.12 149.25,17.2 92.7,-4.35 186.59,77.43 58.78,175.72 60.18,611.83 -6.83,790.45 -135.38,181.57 -2298.17,39.2 -2812.38,78.66 -395.51,30.35 -384.01,433.73 -110.57,515.3 173.08,51.63 1652.42,15.07 1956.05,15.07 626.8,0 1271.21,121.39 1485.87,-481.58 57.48,-161.63 247.34,-1254.58 -402.71,-1476.13 -477.65,-162.77 -1355.31,71.57 -1858.64,-114.45 -700.96,-259.05 -759.17,-340.31 -1636.1,-339.74 -390.75,0.21 -1657.91,-44.95 -1935.5,41.9 -468.99,146.72 -1355.46,1165.76 -1618.86,1319.05 -167.22,97.32 -428.75,-143.5 -802.3,118.55 -199.13,139.67 -446.78,317.26 -411.67,530.62 17.24,104.62 303.84,501.78 382.66,627.16l2340.23 3579.16c281.52,414.67 453.51,214.2 1062.65,-441.75 706.6,-760.88 484.58,-714.63 367.02,-1343.71z"/>
  </g>
 </g>
</svg>
