<?xml version="1.0" encoding="UTF-8"?>
<!DOCTYPE svg PUBLIC "-//W3C//DTD SVG 1.1//EN" "http://www.w3.org/Graphics/SVG/1.1/DTD/svg11.dtd">
<!-- Creator: CorelDRAW X8 -->
<svg xmlns="http://www.w3.org/2000/svg" xml:space="preserve" width="130mm" height="131.192mm" version="1.1" style="shape-rendering:geometricPrecision; text-rendering:geometricPrecision; image-rendering:optimizeQuality; fill-rule:evenodd; clip-rule:evenodd"
viewBox="0 0 13000 13119"
 xmlns:xlink="http://www.w3.org/1999/xlink">
 <defs>
  <style type="text/css">
   <![CDATA[
    .fil0 {fill:black}
    .fil2 {fill:#57C2B8}
    .fil1 {fill:#C6EDE8}
    .fil3 {fill:#FDEC6A}
    .fil5 {fill:#FEFEFE}
    .fil4 {fill:#FFB80C}
   ]]>
  </style>
 </defs>
 <g id="Layer_x0020_1">
  <metadata id="CorelCorpID_0Corel-Layer"/>
  <g id="_2062231437872">
   <path class="fil0" d="M2922 3257c-33,27 -85,17 -148,62 -57,42 -235,298 -286,366 -188,258 -1250,1673 -1282,1749 -62,151 38,246 104,316l817 925c229,266 625,689 816,926l1528 1731c58,65 38,73 19,156l-465 2157c-209,83 -348,98 -509,325 -152,216 -145,409 -79,685 -307,23 -1721,-24 -1840,17 -108,38 -192,172 -130,315 53,123 168,133 336,132l9363 0c174,0 290,7 356,-112 74,-133 2,-279 -99,-326 -110,-52 -1602,-23 -1859,-23 87,-376 39,-669 -279,-884 -195,-131 -293,-50 -331,-201l-439 -2060c-34,-152 -47,-117 98,-279 257,-285 568,-660 818,-924 68,-72 136,-161 205,-235 316,-337 722,-843 1016,-1151 280,-293 736,-838 1023,-1158 64,-72 169,-152 126,-308 -27,-96 -1228,-1681 -1471,-2016 -33,-46 -54,-82 -97,-116 -48,-39 -69,-36 -111,-50l-45 -19 944 -1069c345,-442 181,-1103 -337,-1343 -391,-182 -793,-15 -1008,195 -51,49 -108,121 -155,179l-780 902c-115,127 -200,235 -317,364 -181,200 -462,584 -655,693 -282,157 -899,97 -1269,97 -223,0 -445,0 -667,0 -250,0 -389,15 -593,-92 -146,-78 -247,-206 -343,-323 -106,-127 -210,-240 -315,-367l-310 -356c-276,-295 -654,-763 -942,-1089 -491,-555 -1543,-248 -1534,619 4,394 244,590 485,870l641 720z"/>
   <polygon class="fil1" points="6493,10619 8342,5757 4662,5755 "/>
   <path class="fil0" d="M6375 7c-738,71 -1341,713 -1271,1539 61,723 703,1360 1527,1281 735,-71 1331,-722 1262,-1540 -61,-720 -705,-1359 -1518,-1280z"/>
   <path class="fil2" d="M4638 5293l3717 4c-4,-63 -465,-1515 -495,-1564l-2730 0 -492 1560z"/>
   <path class="fil2" d="M5830 10166l-1664 -4410 -2232 -1c49,80 172,213 239,283l732 829c76,95 164,179 241,274l1706 1930c1,1 929,1066 978,1095z"/>
   <path class="fil2" d="M7165 10164l493 -537c175,-219 516,-582 730,-831l1216 -1374c216,-264 551,-623 789,-893l670 -773 -2232 -1 -1666 4409z"/>
   <path class="fil1" d="M1884 5297l2265 0c24,-38 488,-1497 493,-1561 -77,-5 -1555,-15 -1605,1 -41,13 -1145,1521 -1153,1560z"/>
   <path class="fil1" d="M8842 5297l2274 0c-9,-43 -1126,-1555 -1147,-1562l-1613 -1 486 1563z"/>
   <path class="fil3" d="M6320 480c-453,91 -860,544 -743,1123 94,459 526,860 1097,754 461,-86 851,-548 749,-1115 -81,-458 -529,-878 -1103,-762z"/>
   <path class="fil4" d="M4894 9820c-32,68 -87,374 -106,467 -33,161 -68,319 -101,474 -68,316 -136,633 -204,947 -41,189 -39,301 -222,355 -176,52 -311,59 -382,194 -88,167 16,331 134,380 101,41 417,23 547,23 210,0 350,29 463,-108 76,-92 358,-1151 407,-1319 44,-153 86,-299 129,-446 57,-197 65,-151 -51,-280 -101,-112 -558,-651 -614,-687z"/>
   <path class="fil4" d="M8106 9820c-69,44 -208,227 -274,299 -100,109 -170,198 -272,304 -211,216 -170,204 -122,364l390 1337c152,522 118,536 611,536 138,0 436,19 544,-26 126,-52 222,-208 136,-376 -75,-147 -208,-143 -381,-194 -175,-51 -184,-168 -224,-354l-303 -1420c-21,-99 -72,-398 -105,-470z"/>
   <path class="fil5" d="M5498 12655l2006 3c-77,-275 -156,-547 -237,-820l-218 -749c-23,-48 -7,-22 -37,-46l-224 260c-288,330 -368,264 -683,-121 -47,-58 -80,-75 -118,-139 -24,20 -13,4 -32,36 -2,5 -12,31 -16,44 -11,39 -17,66 -28,103 -110,366 -347,1142 -413,1429z"/>
   <path class="fil4" d="M3540 3275l1097 2c-20,-51 -174,-220 -220,-270 -231,-254 -429,-510 -675,-780 -219,-240 -456,-547 -673,-781 -78,-83 -121,-167 -279,-207 -383,-99 -751,359 -382,746 269,280 652,765 909,1030 46,48 69,86 113,130 48,48 76,82 110,130z"/>
   <path class="fil4" d="M8362 3275l1097 2c34,-50 62,-84 110,-132 186,-187 599,-705 795,-903 78,-79 149,-175 227,-257 361,-380 13,-844 -376,-739 -202,54 -378,304 -508,461l-564 648c-36,40 -70,83 -111,131l-449 521c-46,50 -201,219 -221,268z"/>
   <path class="fil0" d="M178 2644c-181,45 -238,265 -106,389 61,57 779,338 912,392 110,45 375,181 498,150 166,-42 223,-275 93,-393 -51,-47 -357,-161 -451,-199 -161,-66 -820,-370 -946,-339z"/>
   <path class="fil0" d="M12710 2646l-920 372c-147,60 -357,108 -416,235 -82,177 67,372 274,321l916 -374c143,-59 359,-113 414,-238 84,-188 -86,-362 -268,-316z"/>
   <path class="fil0" d="M1231 6892c-104,44 -597,439 -728,535 -99,72 -299,196 -328,306 -50,190 128,348 307,279 67,-27 764,-570 902,-674 69,-53 123,-68 150,-168 52,-187 -121,-355 -303,-278z"/>
   <path class="fil0" d="M2566 8349c-104,47 -239,215 -319,307 -89,103 -573,598 -597,679 -58,202 136,361 317,283 59,-25 261,-252 310,-311 79,-93 564,-578 592,-681 52,-183 -128,-355 -303,-277z"/>
   <path class="fil0" d="M11605 6889c-164,61 -209,263 -68,391l724 548c93,71 256,245 419,187 156,-56 205,-272 75,-392l-905 -686c-73,-55 -140,-87 -245,-48z"/>
   <path class="fil0" d="M10284 8341c-179,57 -210,246 -92,390 50,60 104,104 154,164l457 498c89,87 184,285 387,237 196,-46 205,-261 90,-396l-303 -334c-162,-159 -299,-336 -458,-496 -51,-52 -132,-96 -235,-63z"/>
  </g>
 </g>
</svg>
