<?xml version="1.0" encoding="UTF-8"?>
<!DOCTYPE svg PUBLIC "-//W3C//DTD SVG 1.1//EN" "http://www.w3.org/Graphics/SVG/1.1/DTD/svg11.dtd">
<!-- Creator: CorelDRAW X8 -->
<svg xmlns="http://www.w3.org/2000/svg" xml:space="preserve" width="130px" height="130px" version="1.1" style="shape-rendering:geometricPrecision; text-rendering:geometricPrecision; image-rendering:optimizeQuality; fill-rule:evenodd; clip-rule:evenodd"
viewBox="0 0 130 130"
 xmlns:xlink="http://www.w3.org/1999/xlink">
 <defs>
  <style type="text/css">
   <![CDATA[
    .fil0 {fill:#99CC99}
    .fil1 {fill:red}
   ]]>
  </style>
 </defs>
 <g id="Layer_x0020_1">
  <metadata id="CorelCorpID_0Corel-Layer"/>
  <g id="_1800422326336">
   <path class="fil0" d="M42 9c-1,0 -3,2 -5,2 -2,2 -8,4 -9,7 -1,4 5,15 -9,29 -8,7 -13,5 -14,10 0,1 -1,14 0,15 1,3 7,2 13,10 5,5 10,13 9,23 -1,8 -2,6 4,10 2,1 8,5 10,6 2,0 4,-2 5,-3 6,-4 12,-5 19,-5 4,0 9,1 12,3 2,1 5,3 6,4 1,0 1,0 1,1 3,2 6,-1 9,-2 1,-1 3,-2 5,-3 1,-1 3,-2 4,-4 0,-2 -1,-5 -1,-7 1,-9 5,-17 10,-22 3,-3 5,-5 10,-6 5,-2 4,-2 4,-11 1,-10 1,-9 -4,-11 -8,-4 -12,-9 -15,-16 -2,-4 -4,-9 -3,-13 0,-8 2,-7 -4,-11 -10,-6 -10,-7 -15,-3 -8,6 -22,7 -32,2 -4,-2 -7,-6 -10,-5zm20 21c-10,1 -17,5 -24,12 -5,5 -9,15 -8,26 1,18 17,34 38,32 18,-1 34,-17 32,-38 -1,-20 -19,-34 -38,-32z"/>
   <path class="fil1" d="M47 51l-6 16 3 2c2,-1 2,-4 5,-4 2,-1 5,1 5,3 2,0 4,1 4,4 2,0 4,1 4,4 2,0 3,1 3,2 1,2 1,2 0,4 1,1 4,3 5,0 1,-1 0,-1 0,-2l-4 -4c-1,0 -2,-1 -1,-1 0,-1 1,0 2,1l4 4c1,1 4,1 4,0 1,0 1,-1 1,-2 -1,0 -4,-3 -4,-4l-2 -1c0,-1 0,-2 1,-1 1,1 1,1 1,1l4 4c1,1 1,1 2,1 2,0 3,-3 2,-4l-5 -5c-1,-1 0,-1 1,-1 0,1 0,1 0,1 1,1 5,4 5,5 2,0 3,-2 3,-3 0,-1 -2,-3 -3,-3 0,-1 0,-1 -1,-2l-11 -10c-1,0 -5,3 -8,3 -8,3 -10,-4 -8,-7 0,0 11,-5 11,-5 -2,-2 -5,0 -8,1 -4,2 -4,3 -9,3zm22 3c1,0 6,5 7,6 0,1 1,1 1,1l6 6c1,1 1,1 2,0 1,0 2,0 3,0l-4 -16c-4,0 -5,-2 -8,-4 -4,-3 -7,-1 -10,1l-11 5c-2,1 -2,4 1,5 4,1 10,-3 13,-4zm-31 -7c0,1 0,0 0,1 -1,2 -4,9 -4,12 -2,4 -3,5 -1,5 8,3 7,3 8,-1 0,-1 1,-2 1,-3l3 -9c1,-3 1,-2 -4,-4 0,0 -2,-1 -3,-1zm54 1c-7,2 -7,1 -6,5l3 12c1,2 1,2 2,2 8,-2 7,0 6,-8l-3 -9c0,-2 0,-2 -2,-2zm-43 26c0,3 3,4 5,3 -1,2 -1,2 0,3 1,1 3,1 4,0 -1,2 0,4 1,4 2,1 3,-1 4,-2 1,-1 2,-2 1,-4 -2,-2 -3,-1 -4,0 0,-2 1,-3 0,-4 -2,-1 -2,-1 -4,0 1,-3 0,-5 -3,-4 0,-2 -1,-3 -2,-4 -2,0 -3,1 -4,2 0,1 -2,2 -1,4 0,1 2,2 3,2z"/>
  </g>
 </g>
</svg>
