<svg xmlns="http://www.w3.org/2000/svg" width="20.533" height="15.152" viewBox="0 0 20.533 15.152">
  <path id="candidates" d="M25.826,191.762l-.742-.275c-.124-.137-.247-.137-.371-.275-.495-.137-.247,0-.495-.275a2.124,2.124,0,0,1,1.608.824Zm1.732-1.237a4.6,4.6,0,0,1,1.979.962c-.495,0-.618-.137-1.113-.412a.687.687,0,0,1-.495-.137c-.371-.275-.247-.275-.371-.412Zm1.979.962c.495.55.371.275.371,1.236h2.35c0-2.748-1.237-1.236-2.721-3.023.124-1.1.495-.962.495-1.786,0-.275-.124-1.511-.124-2.336-.618-.137-3.092-1.649-2.721,2.336,0,1.1,0,.412.247.962.495,1.374-.247.824.124,1.649a1.482,1.482,0,0,1-1.484-.687,1.916,1.916,0,0,1-.124-.824l.247-.962c.495-.824.495-.137.247-1.923a14.7,14.7,0,0,1,0-2.336c-3.958-2.885-4.453,2.061-3.834,3.984,1.113,3.023.495.687.371,2.61-2.1-.275-1.484-1.237-2.226-1.511,0-.687.124-.55.124-.687l.124-.412c.371-1.511,0-.412.618-1.237.495-.962,0-1.786,0-2.885,0-2.2.371-2.748-.99-3.435l-.371-.275c-1.361-.687-4.329-.55-4.082,3.572v1.374c-.124,1.649.124,1.374.495,2.061l.618,1.923c-.742.275-.124,0-.742.687-.247.412-.247.412-.742.55-.618.275-1.237.687-1.979.962-2.1.962-2.1.55-2.1,3.71H26.2a11.827,11.827,0,0,0-.371-3.023c.742.55.618.824.618,2.061h3.34l-.247-2.336Zm-5.319-.55a1.224,1.224,0,0,1-.742-.137,1.74,1.74,0,0,1-.495-.412,1.224,1.224,0,0,1,.742.137A1.74,1.74,0,0,1,24.218,190.937Z" transform="translate(-11.725 -179.632)" fill="#bb2a2a"/>
</svg>
