<svg xmlns="http://www.w3.org/2000/svg" width="130" height="119" shape-rendering="geometricPrecision" text-rendering="geometricPrecision" image-rendering="optimizeQuality" fill-rule="evenodd" clip-rule="evenodd"><defs><style>.fil1{fill:#033}</style></defs><g id="Layer_x0020_1"><g id="_621447528"><path d="M0 5v3c4 6 2 6 16 5 3 22 8 50 12 72 1 6 2 9 8 10h67c6 0 11 0 13-5s-2-9-7-9H41l-1-7h70c15 0 13-2 15-20 1-5 4-28 5-31v-4c-5-7-7-5-21-5H36c-1 0-5 0-6-1-3-8 1-13-11-13C3 0 4-1 0 5zm38 55l17 1V47H36l2 13zm24-19h20l1-14H62v14zm0 20h21V47H62v14zM34 40h22l-1-13H32l2 13zm56 21h21l2-14H90v14zm0-20h23l2-14H90v14z" fill="#396"/><path class="fil1" d="M42 110c0 5 4 9 9 9s10-4 10-9-5-9-10-9-9 4-9 9zM100 101c-6 0-10 4-10 9s4 9 10 9c5 0 9-4 9-9s-4-9-9-9z"/></g></g></svg>