<?xml version="1.0" encoding="UTF-8"?>
<!DOCTYPE svg PUBLIC "-//W3C//DTD SVG 1.1//EN" "http://www.w3.org/Graphics/SVG/1.1/DTD/svg11.dtd">
<!-- Creator: CorelDRAW 2021.5 -->
<svg xmlns="http://www.w3.org/2000/svg" xml:space="preserve" width="130mm" height="130mm" version="1.1" style="shape-rendering:geometricPrecision; text-rendering:geometricPrecision; image-rendering:optimizeQuality; fill-rule:evenodd; clip-rule:evenodd"
viewBox="0 0 13000 13000"
 xmlns:xlink="http://www.w3.org/1999/xlink"
 xmlns:xodm="http://www.corel.com/coreldraw/odm/2003">
 <defs>
  <style type="text/css">
   <![CDATA[
    .fil0 {fill:#EF7F1A}
    .fil1 {fill:#AE4A84}
    .fil2 {fill:#61A375}
   ]]>
  </style>
 </defs>
 <g id="Layer_x0020_1">
  <metadata id="CorelCorpID_0Corel-Layer"/>
  <g id="_2569286447600">
   <path class="fil0" d="M75.12 2599.58c-14.56,1771.76 -0.89,3606.1 0.65,5398.89l13.41 2350.3c2.74,186.8 10.48,284.19 123.85,344.17 110.01,58.2 622.99,49.6 777.47,50.95 3317.51,29.07 6683.34,7.81 10003.98,7.81 69.59,0 90.22,-54.49 134.87,-106.62 42.5,-49.62 95.5,-79.44 95.5,-165.87l-3.09 -3668.24c-144.07,147.55 -278.38,311.02 -425.03,463.67 -129.56,134.85 -94.11,103.33 -96.22,369.44l-24.65 2461.03c-134.5,33.35 -7993.97,9.77 -8913.97,9.77 -157.89,0 -472.32,19.98 -610.69,-8.53 -28.16,-361.64 -14.02,-3636.28 -15.04,-4290.18l-3.99 -2766.68c786.47,-31.9 1621.84,-1.95 2413.56,-1.95l6042.62 0.03c222.75,0.79 152.86,41.67 386.19,-252.48 81.31,-102.48 231.71,-252.93 281.74,-365.27 -396.6,-29.41 -873.28,-2.78 -1278.66,-2.78l-8404.96 0c-379.78,-0.01 -276.01,-30.76 -497.54,172.54z"/>
   <path class="fil1" d="M11823.29 2585.06c-12.29,37.36 -242.3,241.94 -288.56,286.29 -89.88,86.16 -184.7,211.24 -267.45,305.13 -93.26,105.82 -166.12,190.38 -266.67,305.82l-520.36 645.78c-127.27,166.76 -395,497.73 -488.61,682.57 -117.95,232.89 -37.66,405.38 -95.09,523.33 -72.3,148.48 -1305.6,1936.74 -1600.58,2507.26l-127.33 318.76c-20.87,62.88 -14.13,75.29 -58.84,106.82 -304,0 -437.9,80.04 -696.15,111.53 -42.81,-139.07 -127.94,-264.83 -287.7,-281.44 -193.99,-20.16 -269.26,96.99 -418.57,134.78 -7.03,-100.71 4.74,-253.63 -28.17,-343.06 -105.05,-285.46 -360.91,-54.21 -605.49,115.46 -326.29,226.38 -465.66,396.22 -712.98,664.64 -74.38,80.73 -274.28,316.32 -106.21,462.43 147.01,127.8 319.73,-221.32 545.99,-437.04 118.97,-113.42 427.94,-440.65 568.73,-450.62 -14.95,233.41 -332.21,619.91 -268.29,798.32 162,452.2 661.36,-591.05 998.65,-576.9 88.93,199.18 54.95,376.77 330.52,294.12 176.32,-52.89 334.02,-105.59 520.43,-125.16 90.25,-9.48 194.96,-2.5 279.57,-29.93 140.13,-45.44 61.64,-125.42 135.93,-214.83 7.14,-8.59 266.97,-189.72 383.72,-300.99 392.84,-374.46 663.43,-672.94 1007.94,-1011.85 314.93,-309.83 533.45,-550.53 824.35,-871.46 288.15,-317.89 86.22,225.11 775.05,-573.94 55.89,-64.84 101.89,-130.09 158.31,-189.49 240.27,-252.97 999.24,-1285.21 1190.65,-1565.1 359.7,-525.97 280.9,-1136.51 -245.8,-1374.98 -103.68,-46.95 -170.74,-30.68 -269.49,-58.44 -193.36,-54.33 -451.81,-320.61 -734.42,-128.77 -124.36,84.42 -684.01,789.36 -788.3,931.51l-453.43 574.11c-42.76,55.38 -99.1,128.25 -141.37,190.47 -36.4,53.59 -307.16,372.65 -95.68,425.76 87.42,21.95 158.32,-94.1 197.32,-139.95l1234.27 -1514.37c90.75,-113.94 206.87,-292.08 414.11,-196.57z"/>
   <path class="fil2" d="M3113.32 6674.17c0,238.43 13.39,864.02 -26.25,1090.09 -232.89,-36.18 -322.17,-470.86 -374.17,-608.46 -137.96,-365.01 -489.77,-166.59 -479.5,112.53 11.26,305.9 148.14,560.88 277.1,700.67 206.77,224.11 308,218.18 602.82,340.32 0,247.54 -40.72,598.63 212.74,565.87 132.87,-182.66 49.07,-310.19 80.47,-521.46 14.87,-100.02 176.22,-68.81 373.06,-177.17 697.47,-383.95 689.35,-1555.81 38.38,-1912.41 -120.73,-66.14 -279.32,-104.46 -397.63,-165.72 -3.53,-309.65 -29.04,-722.89 4.34,-1021.36 187.33,34.19 295.79,394.16 341.74,501.26 99.63,232.27 418.35,186.61 440.23,-116.59 25.34,-351.34 -248.35,-669.33 -495.95,-789.31 -93.52,-45.32 -212.98,-65.42 -302.81,-111.14 -3.52,-169.68 30.82,-482.04 -165.18,-446 -210.61,38.73 -63.17,384.92 -171.73,460.59 -77.73,54.18 -455.52,33.87 -677.59,518.46 -136.87,298.67 -107.32,800.45 43.36,1057.89 141.8,242.28 357.4,361.86 594.69,447.4 51.37,18.52 81.88,15.83 81.88,74.54zm291.72 596.82l14.6 513.14c88.47,25.63 405.85,-146.17 407.95,-512.99 1.69,-294.27 -199.37,-461.26 -407.64,-521.46l-14.91 521.31zm-292.31 -1282.89c2.72,-265.16 17.14,-665.59 -16.46,-916.29 -81.83,16.1 -170.22,87.19 -225.6,147.48 -104.45,113.69 -188.4,634.8 242.06,768.81zm2455.19 -1319.94c-129.74,12.35 -296.2,31.51 -331.26,275.9 -29.96,208.72 82.2,353.22 237.31,371.98 336.02,40.6 750.5,30.64 1093.05,33.92 306,2.93 2327.46,46.09 2473.5,-76.23 138.69,-116.14 152.08,-314.19 74.78,-475.11 -40.57,-84.46 -88.5,-98.73 -188.31,-113.7 -340.83,-51.12 -1785.85,-31.17 -2231.41,-31.19 -357.71,-0.02 -780.06,-18.61 -1127.66,14.43zm886.6 2200.94c260.5,0.62 768.42,26.45 1000.01,-22.88 368.73,-78.54 226.84,-660.54 -3.63,-660.54l-1976.69 0c-233.66,0 -372.69,560.29 -31.25,655.04 197.81,54.91 774.55,27.83 1011.56,28.38z"/>
  </g>
 </g>
</svg>
