<?xml version="1.0" encoding="UTF-8"?>
<!DOCTYPE svg PUBLIC "-//W3C//DTD SVG 1.1//EN" "http://www.w3.org/Graphics/SVG/1.1/DTD/svg11.dtd">
<!-- Creator: CorelDRAW 2021.5 -->
<svg xmlns="http://www.w3.org/2000/svg" xml:space="preserve" width="130mm" height="130mm" version="1.1" style="shape-rendering:geometricPrecision; text-rendering:geometricPrecision; image-rendering:optimizeQuality; fill-rule:evenodd; clip-rule:evenodd"
viewBox="0 0 13000 13000"
 xmlns:xlink="http://www.w3.org/1999/xlink"
 xmlns:xodm="http://www.corel.com/coreldraw/odm/2003">
 <defs>
  <style type="text/css">
   <![CDATA[
    .fil2 {fill:#98A27F}
    .fil1 {fill:#4D897C}
    .fil0 {fill:#008DD2}
   ]]>
  </style>
 </defs>
 <g id="Layer_x0020_1">
  <metadata id="CorelCorpID_0Corel-Layer"/>
  <g id="_2961408436992">
   <path class="fil0" d="M6372.89 289.45c-237.14,67.09 -1027.44,589.89 -1284.28,745.91l-4416.37 2690.25c-194,182.43 -223.63,508.39 -21.94,706.83 267.41,263.17 1448.3,142.13 1905.76,142.13l8176.21 0c521.58,0 1529.3,173.32 1715.87,-288.34 206.64,-511.48 -390.68,-727.82 -924.54,-1052.46 -839.56,-510.5 -1685.12,-1014.84 -2533.01,-1533.89 -439.82,-269.23 -836.68,-505.3 -1279.74,-775.09 -212.19,-129.18 -413.61,-254.32 -637.96,-389.11 -186.1,-111.79 -428.89,-322.93 -700,-246.23zm-166.9 1630.17c-1312.19,403.96 -717.4,2334.8 582.04,1971.37 468.9,-131.14 882.94,-649.89 700.37,-1290.54 -132.62,-465.15 -664.51,-871.05 -1282.41,-680.83z"/>
   <path class="fil1" d="M1465.18 11270.54c-361.41,33.52 -663.96,-67.5 -852.9,186.11 -125.24,168.06 -153.65,690.96 -77.16,925.56 153.15,469.75 1038.1,330.15 1764.09,330.15l9417.98 0.41c364.64,1.72 646.96,-23.87 741.92,-322.53 72.4,-227.72 54.7,-752.78 -60.02,-914.63 -183.83,-259.22 -535.18,-196.42 -866.5,-200.97l-2.78 -939.86 -10054.57 -15.68 -10.06 951.44z"/>
   <path class="fil2" d="M10084.1 6036.82l9.46 3799.08 1431.55 1.56 6.27 -3800.64c207.86,-101.43 346.94,-102.54 435.42,-307.87 75.08,-174.22 43.95,-466.97 40.5,-667.49l-2389.92 -8.59c-26.75,971.16 102.09,785.7 466.72,983.95zm-2866.4 42.77l1.01 3758.23 1422.46 1.57 13.14 -3802.57c396.9,-225.95 495.74,-27.06 478.45,-968.93l-2389.06 -15.38c-6.32,218.58 -41.97,508.99 44.79,691.41 130.56,274.44 352.66,192.43 429.21,335.67zm-2873.64 -50.62l1.42 3809.36 1422.15 0.86 12 -3802.37c210.46,-117.81 312.81,-62.24 424.03,-290.88 95.61,-196.47 57.8,-473.75 50.16,-691.96l-2384.82 -0.75c-26.03,718.6 -24.76,791.96 475.06,975.74zm-2880.31 7.85l6.18 3801.65 1424.57 0.77 10.38 -3802.42c187.92,-99.86 334.35,-91.88 429.09,-291.23 86.87,-182.68 52.5,-473.75 45.52,-691.1l-2389.93 0.24c-3.23,200.13 -24.32,515.26 41.26,666.44 104.55,241.02 218.42,191.12 432.93,315.65z"/>
  </g>
 </g>
</svg>
