<svg clip-rule="evenodd" fill-rule="evenodd" height="180" image-rendering="optimizeQuality" shape-rendering="geometricPrecision" text-rendering="geometricPrecision" viewBox="0 0 180 180" width="180" xmlns="http://www.w3.org/2000/svg"><path d="m57 29c-3 0-20-8-22-10l-16 16c3 8 21 29 2 37-4 3-17 6-21 7v22c6 1 14 4 19 6 7 2 3 0 7 4 9 14-2 21-7 36l16 14c5-3 9-6 15-9 7-2 8-2 15 0 8 3 7 6 10 14 5 17 3 14 22 14 11 0 3-21 18-28 10-5 14-1 30 9l16-16c-5-15-31-34 19-45v-21c-6-1-11-4-17-6-8-2-8-1-12-11-3-7-1-7 3-14 2-5 4-11 7-15l-16-14c-5 2-30 21-38 0-3-7-5-13-7-19h-21c-1 6-4 12-6 19-2 6-8 10-16 10zm33 32c15 0 29 14 29 29s-14 29-29 29-29-14-29-29 14-29 29-29z" fill="#84716b"/></svg>