<?xml version="1.0" encoding="UTF-8"?>
<!DOCTYPE svg PUBLIC "-//W3C//DTD SVG 1.1//EN" "http://www.w3.org/Graphics/SVG/1.1/DTD/svg11.dtd">
<!-- Creator: CorelDRAW X8 -->
<svg xmlns="http://www.w3.org/2000/svg" xml:space="preserve" width="130mm" height="113.754mm" version="1.1" style="shape-rendering:geometricPrecision; text-rendering:geometricPrecision; image-rendering:optimizeQuality; fill-rule:evenodd; clip-rule:evenodd"
viewBox="0 0 13000 11375"
 xmlns:xlink="http://www.w3.org/1999/xlink">
 <defs>
  <style type="text/css">
   <![CDATA[
    .fil1 {fill:#A75F4A}
    .fil0 {fill:#E57F03}
   ]]>
  </style>
 </defs>
 <g id="Layer_x0020_1">
  <metadata id="CorelCorpID_0Corel-Layer"/>
  <g id="_2062228336224">
   <path class="fil0" d="M4063 3911c0,470 10,697 161,1158 196,596 602,1354 1097,1747 76,60 74,92 164,116 -98,133 -1822,742 -1982,811 -810,356 -1066,784 -1066,1728l0 1904 8126 0 0 -1904c0,-1462 -731,-1639 -2073,-2117 -131,-47 -900,-321 -975,-422 252,-67 813,-860 949,-1134 502,-1014 750,-2152 31,-3146 -432,-599 -1123,-1027 -1893,-1027 -596,0 -1040,101 -1513,443 -263,189 -263,205 -449,414 -49,55 -81,96 -125,155 -231,316 -452,838 -452,1274z"/>
   <path class="fil1" d="M7084 889c283,0 822,240 1062,386 305,185 569,388 787,659 260,321 380,448 560,888 495,1214 196,2490 -437,3543 -61,102 -117,189 -169,288 150,35 865,335 998,397l451 236c145,87 278,193 398,312 433,433 517,903 602,1481 18,124 4,216 15,340 9,114 24,180 24,331l1625 0 0 -1904c0,-1751 -1098,-1662 -2565,-2310 -127,-57 -413,-135 -482,-229 91,-24 80,-48 149,-105 59,-49 78,-58 137,-117 95,-94 168,-180 251,-282 447,-547 885,-1505 885,-2238 0,-604 -99,-1062 -442,-1538l-263 -321c-49,-50 -92,-70 -152,-128 -440,-420 -1048,-578 -1682,-578 -610,0 -1203,306 -1620,692 -58,53 -111,115 -132,197z"/>
   <path class="fil1" d="M1625 2285c0,813 125,1182 474,1888 153,308 409,658 650,900 57,58 69,66 135,118 76,60 73,92 163,116 -53,73 -114,82 -211,119l-765 302c-342,138 -680,248 -1005,391 -810,355 -1066,783 -1066,1727l0 1904 1625 0c0,-1830 537,-2328 1970,-2905l518 -192c-51,-97 -102,-167 -163,-269 -63,-104 -92,-174 -150,-281 -35,-66 -40,-66 -71,-132 -585,-1276 -720,-2628 152,-3816 261,-356 580,-643 958,-871 214,-130 764,-395 1077,-395 -22,-84 -73,-110 -131,-174l-76 -76c-388,-355 -944,-639 -1520,-639 -606,0 -1048,88 -1537,442l-574 570c-231,316 -453,838 -453,1273z"/>
  </g>
 </g>
</svg>
