<svg xmlns="http://www.w3.org/2000/svg" width="21.219" height="22.14" viewBox="0 0 21.219 22.14">
  <g id="Layer_x0020_1" transform="translate(-1712.282 -5869.484)">
    <g id="_2143211106048" transform="translate(1712.282 5869.484)">
      <path id="Path_39" data-name="Path 39" d="M1698,12916.2c0,3.12,2.156,3.559,5.273,3.558q4.478,0,8.96,0a5.2,5.2,0,0,1-.923-2.5c0-2.49,2.291-4.819,4.876-4.219-.134-1.606-3.384-3.031-4.744-3.031a19.2,19.2,0,0,1-3.163,4.877l-.131-2.108c0-.576.632-.3.658-1.45a3.425,3.425,0,0,1-2.635,0c.016.69.235,1.037.79,1.186l-.263,2.373a18.749,18.749,0,0,1-2.9-4.877C1700.752,12910,1698,12912.986,1698,12916.2Z" transform="translate(-1698 -12898.668)" fill="#008dd2" fill-rule="evenodd"/>
      <path id="Path_40" data-name="Path 40" d="M4964,5114.876c0,6.9,5.725,9.715,8.574,4.752,2.277-3.96,1.343-9.628-3.963-9.628A4.977,4.977,0,0,0,4964,5114.876Z" transform="translate(-4959.255 -5110)" fill="#008dd2" fill-rule="evenodd"/>
      <path id="Path_41" data-name="Path 41" d="M11222,15271.295v.791a3.724,3.724,0,0,0,3.3,3.295h.79a3.724,3.724,0,0,0,3.3-3.295v-.791a3.724,3.724,0,0,0-3.3-3.295h-.79A3.724,3.724,0,0,0,11222,15271.295Zm4.478.872,1.552,1.452-.632.165-1.283-1.2a1.687,1.687,0,1,1,.611-1.3A1.706,1.706,0,0,1,11226.478,15272.167Z" transform="translate(-11208.163 -15253.241)" fill="#7688a1" fill-rule="evenodd"/>
    </g>
  </g>
</svg>
