<svg xmlns="http://www.w3.org/2000/svg" width="22.353" height="16.044" viewBox="0 0 22.353 16.044">
  <g id="Layer_x0020_1" transform="translate(-274.392 -6626.206)">
    <path id="Path_38" data-name="Path 38" d="M276.832,6626.231a2.243,2.243,0,0,0-2.418,2.386c-.041.768-.013,1.631-.017,2.414l0,7.316c.006,1.368-.168,2.831,1.257,3.576a4.121,4.121,0,0,0,2.033.313c3.944.027,7.934.007,11.882.008.792,0,1.586,0,2.376,0,.757-.006,1.608.033,2.349-.016a2.478,2.478,0,0,0,2.416-2.383c.058-.733.018-1.652.019-2.411v-7.316c0-1.781.135-2.962-1.242-3.605a4.936,4.936,0,0,0-2.058-.29c-4.743,0-9.521-.021-14.258,0C278.417,6626.218,277.574,6626.186,276.832,6626.231Zm.021,12.313,6.232,0a15.4,15.4,0,0,0,.013-1.721,2.043,2.043,0,0,0-.407-1.315,1.594,1.594,0,0,0-1.085-.608,21.556,21.556,0,0,0-3.255-.008,1.513,1.513,0,0,0-1.09.6,2.444,2.444,0,0,0-.362,1.358A14.4,14.4,0,0,0,276.853,6638.545Zm2.872-8.677a1.853,1.853,0,0,0-1.608,2.158,1.9,1.9,0,0,0,3.753-.585A1.86,1.86,0,0,0,279.725,6629.868Zm6.471,6.318a.7.7,0,0,0-.362,1.292,9.167,9.167,0,0,0,2.145.1c.47,0,4.127.026,4.464-.017a.692.692,0,0,0,.32-1.283,8.719,8.719,0,0,0-2.129-.113C289.833,6636.164,286.739,6636.127,286.2,6636.187Zm.005-2.317c-.361.049-.57.153-.657.459a.693.693,0,0,0,.266.822,8.44,8.44,0,0,0,2.14.109c.426,0,4.133.022,4.459-.016a.691.691,0,0,0,.35-1.286,8.9,8.9,0,0,0-2.125-.111C290.272,6633.844,286.5,6633.83,286.2,6633.869Zm1.933-2.4a.607.607,0,0,0-.391,1.014c.293.357.885.265,1.437.265s3,.043,3.341-.036a.64.64,0,0,0,.423-1.032c-.282-.327-.959-.25-1.47-.255S288.437,6631.38,288.134,6631.465Z" transform="translate(0 0)" fill="#cc6f3c" fill-rule="evenodd"/>
  </g>
</svg>
