<svg xmlns="http://www.w3.org/2000/svg" width="18.951" height="13.095" viewBox="0 0 18.951 13.095">
  <path id="dashboard" d="M30.144,199.833a10.268,10.268,0,0,0-7.12,9.963v1.094H26.27a29.657,29.657,0,0,0,3.281-.113c0-.038-.872-1.245-1.92-2.679A24.755,24.755,0,0,1,25.607,205a1.742,1.742,0,0,1,1.955-2.038c.454.076,1.012.566,2.862,2.529,1.885,2.038,2.408,2.491,2.967,2.642a2.821,2.821,0,0,1,1.85,2.076l.1.679h6.631V209.8c-.035-5.661-4.328-10.3-9.528-10.265a9.216,9.216,0,0,0-2.3.3h0Zm-2.513,5.208a.859.859,0,0,0-.314.528,17.566,17.566,0,0,0,1.815,2.755c1.955,2.642,1.885,2.529,1.885,3.057a1.781,1.781,0,0,0,.419.793,1.294,1.294,0,0,0,1.047.453,1.659,1.659,0,0,0,.663-3.132A24.169,24.169,0,0,1,30.388,207a26.941,26.941,0,0,0-2.3-2.189,1.516,1.516,0,0,0-.454.226h0Zm5.619-2.981v1.283h-1.5v-2.529h1.5v1.245Z" transform="translate(-23.024 -199.531)" fill="#3465af"/>
</svg>
