<svg xmlns="http://www.w3.org/2000/svg" width="18.376" height="21.169" viewBox="0 0 18.376 21.169">
  <g id="employee" transform="translate(0.111 -0.236)">
    <path id="Path_12" data-name="Path 12" d="M27,5.423a5.32,5.32,0,0,0,4.8,5.08h.847a5.22,5.22,0,0,0,3.245-9.03,5.4,5.4,0,0,0-7.2.282A5.3,5.3,0,0,0,27,5.423Z" transform="translate(-23.286)" fill="#ffcc29" fill-rule="evenodd"/>
    <path id="Path_13" data-name="Path 13" d="M-.1,89.386c0,2.117-.141,2.54.423,2.963a5.973,5.973,0,0,1,.988.705A14.126,14.126,0,0,0,7.1,95.03c0-1.552-1.27-7.9-1.27-9.03H3.714C2.021,86-.1,87.552-.1,89.386Z" transform="translate(0 -73.663)" fill="#a53692" fill-rule="evenodd"/>
    <path id="Path_14" data-name="Path 14" d="M85.433,91.61c0-1.834.282-3.528-1.411-4.656-1.552-1.129-2.258-.988-4.515-.988,0,.988-.141,1.552-.141,2.258a6.642,6.642,0,0,0-.564,2.258l-.564,3.386c0,.706-.282.706,0,.988.423.423,3.386-.706,4.092-.988C82.893,93.726,85.433,92.6,85.433,91.61Z" transform="translate(-67.185 -73.629)" fill="#a53692" fill-rule="evenodd"/>
    <path id="Path_15" data-name="Path 15" d="M53,98.834c1.129,1.552,1.411-.847.423,4.939-.141.988-.423.706,1.834.706H56.1c-.141-1.552-.564-3.1-.847-4.656.423-.282,1.129-.988,1.411-1.129a3.073,3.073,0,0,0-1.129-.706A3.3,3.3,0,0,0,54.552,97c-.423.282-.423.564-.847.988C53.423,98.129,53,98.411,53,98.834Z" transform="translate(-45.617 -83.111)" fill="#585570" fill-rule="evenodd"/>
  </g>
</svg>
