<svg id="details" xmlns="http://www.w3.org/2000/svg" width="20.614" height="20.614" viewBox="0 0 20.614 20.614">
  <path id="Path_16" data-name="Path 16" d="M0,10.428A10.283,10.283,0,1,0,10.428,0,10.267,10.267,0,0,0,0,10.428Zm2.954,0c0,6.257,7.821,9.559,12.513,5.04,4.519-4.692,1.217-12.513-5.04-12.513A7.418,7.418,0,0,0,2.954,10.428Z" fill="#0098da" fill-rule="evenodd"/>
  <g id="Group_67" data-name="Group 67" transform="translate(7.647 4.641)">
    <path id="Path_17" data-name="Path 17" d="M44,51.259c.174.174.7.521.869.7l.348-.348a5.9,5.9,0,0,1,1.043-1.043c-.348,1.564-1.217,3.476-1.217,5.04,0,.7.869,1.217,2.086.521l2.259-1.912c-.174-.174-.7-.7-.869-.7l-1.564,1.39.7-2.607c0-.348.7-2.433.7-2.607,0-.521-.348-.7-.869-.7C46.259,49,44.348,50.738,44,51.259Z" transform="translate(-44 -45.125)" fill="#4d897c" fill-rule="evenodd"/>
    <path id="Path_18" data-name="Path 18" d="M56,27.971c0,1.912,2.433,1.564,2.433-.174a1.075,1.075,0,0,0-1.912-.7A.956.956,0,0,0,56,27.971Z" transform="translate(-53.914 -26.702)" fill="#4d897c" fill-rule="evenodd"/>
  </g>
</svg>
