<svg xmlns="http://www.w3.org/2000/svg" width="22.654" height="25.172" viewBox="0 0 22.654 25.172">
  <g id="employeecritearea" transform="translate(-0.112)">
    <path id="Path_45" data-name="Path 45" d="M12.773,12.3c-.192,0-.384.576-.576.961-.961,1.537-2.69,2.69-4.228.769-.192-.384-.961-1.345-1.153-1.729l-.384.192A9.024,9.024,0,0,1,4.7,13.644,4.315,4.315,0,0,0,2.012,14.8C.667,15.758-.294,22.1.283,23.06s4.8,1.537,5.957,1.729c4.228.961,6.341-.192,9.608-.192.769,0-.384-1.345-.384-2.69a3.981,3.981,0,0,1,3.459-4.035V17.1c-.192-.384-.576-1.537-.769-1.922a1.477,1.477,0,0,1-.576-.384c-1.729-1.345-3.651-1.345-4.612-2.306ZM8.93.576V.384c-.576,0-.384,0-.961.576A3.747,3.747,0,0,0,6.24,2.69a2.936,2.936,0,0,0-.769,1.922c0,.384.384.961.384,1.153.192.961,0,.769-.384.769,0,.769,0,.961.384,1.345,0,.769.192.384.192.961a9.864,9.864,0,0,0,.769,1.922c.769.961,1.729,2.5,3.267,2.114a5.615,5.615,0,0,0,3.459-3.459l.192-.576c.192-.769.192,0,.384-1.345.192-1.153,0-.769,0-.961a1.44,1.44,0,0,1,.192-.961c.384-4.035-2.882-4.035-3.459-4.612C10.467.576,10.467.192,10.083,0c-.192,0,0,0-.192.192C9.7.192,9.7,0,9.506.192L9.314.384C9.122.961,9.314.961,8.93.576ZM10.852,19.6h4.42v1.345h-4.42Z" transform="translate(0)" fill="#6b809b" fill-rule="evenodd"/>
    <path id="Path_46" data-name="Path 46" d="M89.726,98.267A3.409,3.409,0,0,0,86.267,95a3.267,3.267,0,0,0,0,6.534A3.409,3.409,0,0,0,89.726,98.267Zm-3.843-1.537c-.384,0,0,.192-.384,0h-.192l-.576.576.192.192v.192l-.192.192h-.192v.769h.192l.192.192v.192l-.192.192.576.576c.192,0,.192-.192.384,0h.192v.384h.961V99.8c.192,0,0-.192.384,0h.192L88,99.228l-.192-.192v-.192c0-.192,0,0,.192,0v-.192h.192v-.769H88L87.8,97.69V97.5L88,97.306l-.576-.576h-.192c-.192.192-.192,0-.384,0v-.384h-.961Zm.384.576a.961.961,0,1,1,0,1.922.985.985,0,0,1,0-1.922Z" transform="translate(-66.96 -76.744)" fill="#bdbfc1" fill-rule="evenodd"/>
  </g>
</svg>
