<svg xmlns="http://www.w3.org/2000/svg" width="130" height="184" shape-rendering="geometricPrecision" text-rendering="geometricPrecision" image-rendering="optimizeQuality" fill-rule="evenodd" clip-rule="evenodd"><path d="M70 109v39h-9c-1 0-1 0-1-1v-30-15c0-6-1-5-10-5s-10-1-10 5v46H30c-1-3 0-15 0-18 0-9 0-8-11-8-12 0-10-2-10 17 0 2 1 7 0 9 0 0-6-1-5 3 1 2 5 2 8 2h106c3 0 7 0 8-2 0-1 0-2-1-3s-3 0-4 0V83c0-13 1-11-10-11-13 0-10-1-10 11 0 5 0 63-1 65H90c0-3 1-37 0-39 0-2-3-2-6-2h-8c-2 0-6 0-6 2zm-25 38h10v-45H45v45zm61 1h10V77h-10v71zm-82 0v-20H14v20h10zm51 0h10v-36H75v36z" fill="#e31e24"/><path d="M104 43s-1 1-2 1l-5 6c-1 2-5 7-8 10l-3 4c-5 5-2 2-7 3-3 0-4 1-5 2-2 0-16-5-16-5l-1-1v-1c-1-4-5-6-9-5-2 0-4 2-5 3-2 3 0 6-1 7l-4 4c-2 1-4 3-5 4l-10 8c-1-1-3-2-5-1-2 0-4 1-4 2-6 7 2 16 9 12 5-3 4-7 4-10 1 0 9-7 10-8 2-2 5-4 8-7h2c3 1 7 0 9-2 1 0 16 5 17 5 0 2 0 3 1 4 4 7 14 4 14-4 0-1-1-3-1-4 0 0 16-18 17-20l4-4c3 1 7 0 9-3 5-8-5-16-11-10-4 3-3 6-2 10zm6-7l-2 2c-1 2 2 4 4 3s1-6-2-5zM80 72c-4 1-2 6 1 5s2-6-1-5zM49 62c-3 1-2 6 2 4 3-1 1-5-2-4zM19 87c-2 1-2 2-2 3s2 2 3 2c3-1 2-6-1-5z" fill="#00a0e3"/></svg>