<?xml version="1.0" encoding="UTF-8"?>
<!DOCTYPE svg PUBLIC "-//W3C//DTD SVG 1.1//EN" "http://www.w3.org/Graphics/SVG/1.1/DTD/svg11.dtd">
<!-- Creator: CorelDRAW 2021.5 -->
<svg xmlns="http://www.w3.org/2000/svg" xml:space="preserve" width="130mm" height="184.095mm" version="1.1" style="shape-rendering:geometricPrecision; text-rendering:geometricPrecision; image-rendering:optimizeQuality; fill-rule:evenodd; clip-rule:evenodd"
viewBox="0 0 12172.89 17238.2"
 xmlns:xlink="http://www.w3.org/1999/xlink"
 xmlns:xodm="http://www.corel.com/coreldraw/odm/2003">
 <defs>
  <style type="text/css">
   <![CDATA[
    .fil0 {fill:#E5097F}
   ]]>
  </style>
 </defs>
 <g id="Layer_x0020_1">
  <metadata id="CorelCorpID_0Corel-Layer"/>
  <path class="fil0" d="M11291.62 11203.58l-10447.5 -4.64c-95.99,629.54 -126.5,5087 48.39,5521.88 273.98,681.15 1369.28,491.7 2270.13,490.63l5674.4 -0.04c914.68,0.57 2121.46,198.72 2401.55,-491.55 159.67,-393.44 130.52,-4893.34 53.02,-5516.27zm-10670.26 -11084.94c-980.85,390.71 -510.09,3222.18 -497.45,3254.46 370.69,945.94 2359.63,596.74 3434.64,596.74 1043.11,0 7485.09,102.92 7935.7,-76.05 709.23,-281.62 815.99,-2323.54 534.48,-3211.03 -307.98,-971.07 -2364.52,-621.5 -3455.63,-621.5 -972.03,0 -7621.7,-74.07 -7951.75,57.38zm-502.7 10652.55c584.04,215.32 11203.25,246.04 11889.48,2.43 194.82,-983.97 -553.13,-776.33 -1455.64,-775.53l-9633.15 -0.73c-722.23,5.25 -919.85,127 -800.69,773.83zm3402.64 -1075.95l5093.18 0.72c-103.35,-1112.85 -611.46,-1715.31 -1230.67,-2222.95 -548.9,55.81 -695.69,330.97 -1318.81,331 -848.75,0.07 -1209.84,-914.62 -2141.14,539.71 -251.56,392.83 -364.42,842.23 -402.57,1351.53zm2178.63 -5055.84c-1882.16,515.42 -1192.15,3407.9 805.7,2853.61 1655.5,-459.27 1144.81,-3387.74 -805.7,-2853.61z"/>
 </g>
</svg>
