<?xml version="1.0" encoding="UTF-8"?>
<!DOCTYPE svg PUBLIC "-//W3C//DTD SVG 1.1//EN" "http://www.w3.org/Graphics/SVG/1.1/DTD/svg11.dtd">
<!-- Creator: CorelDRAW 2021.5 -->
<svg xmlns="http://www.w3.org/2000/svg" xml:space="preserve" width="130mm" height="130mm" version="1.1" style="shape-rendering:geometricPrecision; text-rendering:geometricPrecision; image-rendering:optimizeQuality; fill-rule:evenodd; clip-rule:evenodd"
viewBox="0 0 13000 13000"
 xmlns:xlink="http://www.w3.org/1999/xlink"
 xmlns:xodm="http://www.corel.com/coreldraw/odm/2003">
 <defs>
  <style type="text/css">
   <![CDATA[
    .fil0 {fill:#F5B2B6}
    .fil1 {fill:#56698F}
   ]]>
  </style>
 </defs>
 <g id="Layer_x0020_1">
  <metadata id="CorelCorpID_0Corel-Layer"/>
  <g id="_2051988097392">
   <path class="fil0" d="M7667.43 6790.62l-17.95 3642.32 4575.34 -18.16c288.63,-24.08 342.56,-185.06 459.4,-381.45l0 -3219.32c-109.29,-190.54 -122.59,-313.2 -346.24,-400.42 -246.13,-95.99 -3152.08,-44.59 -3627.53,-44.66 -466.65,-0.06 -972.79,-67.7 -1043.02,421.69zm1796.58 983.44l395.41 2.37 23.5 462.88 551.55 7.29 4.93 -471 417.54 1.13c-49.11,-105.2 -66.9,-129.45 -157.63,-210.45l-520.96 -555.1c-114.5,74.92 -644.18,635.07 -714.34,762.88zm-1391.75 2280.51c151.78,84.89 3933.08,84.12 4215.82,5.56 116.68,-362.45 52.3,-1680.16 52.3,-2189.58 0,-1290.38 227.07,-1191.3 -1109.73,-1154.92l-4.85 2665.9c-207.46,-62.92 -960.29,-457.49 -1078.6,-443.21 -172.66,20.84 -803.53,408.67 -1061.87,489.08l-0.44 -2714.7c-1393.13,6.15 -1112.22,-390.48 -1112.22,2283.73l-0.39 861.47c13.79,154.94 20.85,136.9 99.98,196.67z"/>
   <path class="fil1" d="M3812.68 4962.86c74.08,-165.03 1431.15,-2483.66 1539.47,-2676.04l-3091.55 -6.03c38.05,100.64 135.44,238.98 189.75,337.1 306.22,553.23 652.79,1124.54 964.32,1674.42l290.65 502.37c15.38,27.32 33.13,59.26 46.64,83.28 22.09,39.26 33.71,61.36 60.72,84.9zm4651.49 6.97l3081.88 -1.66c-13.43,-56.19 -139.46,-253.34 -180.45,-325.4l-1357.96 -2350.28c-35.37,23.1 -72.87,108.09 -103.45,159.94 -31.75,53.87 -65.3,109 -96.11,163.88 -212.92,379.35 -1337.35,2294.19 -1343.91,2353.52zm-482.91 -11.28c42.06,-37.32 156.71,-259.92 193.72,-323.47 67.17,-115.41 130.01,-226.54 195.27,-337.84 130.83,-223.08 259.58,-446.92 385.04,-667.8l579.74 -1006.01c47.4,-80.34 168.43,-268.06 193.17,-342.5l-3090.54 0.15c38.09,96.12 133.3,239.88 186.3,332.58 66.62,116.5 128.04,227.75 194.43,338.81l771.12 1334.5c65.22,114.24 128.51,218.25 195.2,337.72 51.41,92.09 134.58,255.83 196.55,333.86zm-3629.49 9.25l3080.87 0.3c0.24,-51.74 -340.59,-610.36 -373.93,-669.25 -76.83,-135.68 -1121.46,-1965.18 -1165.69,-2011.22l-387.29 664.24c-128.37,223.03 -258.53,446.55 -389.84,675.61 -44.22,77.15 -752.86,1292.26 -764.12,1340.32zm-4040.79 1.41l3082.06 -1.16c-2.43,-55.68 -732.66,-1288.7 -760.37,-1335.92l-722.37 -1253.23c-20.75,-35.49 -30.61,-65.12 -60.09,-86.06 -65.22,82.61 -139.28,236.9 -193.41,329.59 -160.16,274.28 -1333.12,2286.29 -1345.82,2346.78zm5106.9 5751.74c-99.57,-330.19 -330.46,-967.62 -454.41,-1320.31 -157.41,-447.95 -305.87,-890.41 -460.36,-1333.88l-687.9 -1990.48c-38.97,-111.27 -74.51,-216.51 -113.44,-328.63 -19.58,-56.41 -38.16,-111.79 -55.96,-164.76l-68 -169.64 -3266.3 -1.08c20.89,44.46 121.53,131.58 160.96,174.27l2069.63 2154.36c53.81,58.02 101.19,114.83 157.14,167.97 72.33,68.65 107.97,103.37 161.83,162.87 53,58.53 101.36,113.56 155.87,169.12l957.29 992.28c193.29,208.27 434.59,436.52 637.77,661.94l162.87 161.88c85.57,86.53 588.32,639.04 643.01,664.09zm471.47 3.06l121.96 -323.01c270.37,-738.21 550.55,-1579.66 808.93,-2324.07 154.68,-445.61 312.86,-886.1 462.84,-1330.81 76.47,-226.75 155.92,-441.9 231.71,-665.39l229.15 -664.46 -3699.24 -4.36 1844.65 5312.1z"/>
  </g>
 </g>
</svg>
