<?xml version="1.0" encoding="UTF-8"?>
<!DOCTYPE svg PUBLIC "-//W3C//DTD SVG 1.1//EN" "http://www.w3.org/Graphics/SVG/1.1/DTD/svg11.dtd">
<!-- Creator: CorelDRAW X8 -->
<svg xmlns="http://www.w3.org/2000/svg" xml:space="preserve" width="180mm" height="254.571mm" version="1.1" style="shape-rendering:geometricPrecision; text-rendering:geometricPrecision; image-rendering:optimizeQuality; fill-rule:evenodd; clip-rule:evenodd"
viewBox="0 0 18000 25457"
 xmlns:xlink="http://www.w3.org/1999/xlink">
 <defs>
  <style type="text/css">
   <![CDATA[
    .fil1 {fill:#86755D}
    .fil0 {fill:#BBC274}
   ]]>
  </style>
 </defs>
 <g id="Layer_x0020_1">
  <metadata id="CorelCorpID_0Corel-Layer"/>
  <g id="_2520841300784">
   <path class="fil0" d="M720 23162l16587 2c166,-4733 7,-10365 7,-15282 0,-494 26,-1052 6,-1536 -20,-493 -352,-646 -611,-906l-3098 -3070c-586,-127 -12236,-61 -12931,-42 -138,4756 -6,10645 -6,15611 0,1162 -146,4288 46,5223zm12417 -16721l1597 3 -1564 -1612 -33 1609zm-10319 14633l12401 1 8 -12530 -4171 -9 -3 -4089 -8281 -32c-22,850 -102,16016 46,16659z"/>
   <path class="fil1" d="M3924 20228l2588 24 7 -4086 1287 -19 12 4089 2589 15 6 -11184c0,-590 -733,-1104 -1048,-1436 -1205,-1272 -593,-1080 -3065,-1079 -500,0 -1419,1241 -2038,1845 -516,504 -343,704 -341,1620l3 10211zm2780 -11317l3 2376 972 15 5 -2391c-1,-925 -980,-843 -980,0z"/>
   <polygon class="fil1" points="12273,12719 11608,12725 11601,14064 12270,14073 12277,14740 13620,14745 13625,14074 14295,14068 14296,12727 13625,12719 13619,12052 12283,12048 "/>
  </g>
 </g>
</svg>
