<svg clip-rule="evenodd" fill-rule="evenodd" height="130" image-rendering="optimizeQuality" shape-rendering="geometricPrecision" text-rendering="geometricPrecision" viewBox="0 0 130 130" width="130" xmlns="http://www.w3.org/2000/svg"><path d="m35 130-35-17v-40l33-18v-39l35-16 31 16v41l2-2 29 18v40l-29 17-35-17v-40h-2v40zm48-120-28 14 13 5 26-13zm-33 11 28-12-10-6-28 14zm2 8v7l-5-1v-7l-11-5v31l28 14v-32zm64 37-28 15 13 4 24-12zm-33 12 28-14-9-5-27 14zm2 7v7l-5-2v-7l-11-5v33l28 12v-31zm-35-19-27 15 10 4 26-12zm-33 12 28-14-10-5-28 14zm2 7v7l-5-2v-7l-11-5v33l26 12v-31z" fill="#00afef"/></svg>