<svg xmlns="http://www.w3.org/2000/svg" width="130" height="105" shape-rendering="geometricPrecision" text-rendering="geometricPrecision" image-rendering="optimizeQuality" fill-rule="evenodd" clip-rule="evenodd"><path d="M63 62s2 1 3 2l15 8V52h17c-4-3-9-6-9-6 0 1-25 15-26 16zm-3-27v23c1 0 26-15 26-15l1-24c-1 1-25 15-27 16zM1 89l26 16V81C26 81 8 70 7 70l-7-4 1 23zm55-31V35c-1-1-25-15-27-16 0 5 1 11 1 16v8c1 0 24 15 26 15zM31 81v24c1 0 20-12 23-14 1 0 2-1 3-2V66S40 76 38 77c-3 2-5 3-7 4zm30 8c7 4 13 8 20 12V77c-3-1-5-3-6-4l-11-5c0-1-2-2-3-2v23zM31 15c2 2 11 7 13 8l14 8c1 0 2-1 3-2 8-4 16-10 24-14-1 0-1 0-2-1-1 0-1 0-2-1L71 8c-1-1-13-8-13-8-1 0-12 7-14 8l-13 7zM2 62c8 5 17 10 25 14 2 2 1 2 5 0 2-2 23-14 23-14-1-1-2-2-3-2-4-2-23-13-24-14 0 0-17 10-20 12-1 1-6 3-6 4z" fill="#c69"/><path d="M84 93c0 3 2 5 5 5h36c3 0 5-2 5-5V80h-5v13H89V80h-5v13zm10-26h10v21h5V67h10c0-1-1-2-2-3l-2-2c0-1-1-1-1-1l-7-9h-1l-2 3v1l-5 5-1 1-3 4-1 1z" fill="#606"/></svg>