<?xml version="1.0" encoding="UTF-8"?>
<!DOCTYPE svg PUBLIC "-//W3C//DTD SVG 1.1//EN" "http://www.w3.org/Graphics/SVG/1.1/DTD/svg11.dtd">
<!-- Creator: CorelDRAW X8 -->
<svg xmlns="http://www.w3.org/2000/svg" xml:space="preserve" width="180mm" height="254.571mm" version="1.1" style="shape-rendering:geometricPrecision; text-rendering:geometricPrecision; image-rendering:optimizeQuality; fill-rule:evenodd; clip-rule:evenodd"
viewBox="0 0 18000 25457"
 xmlns:xlink="http://www.w3.org/1999/xlink">
 <defs>
  <style type="text/css">
   <![CDATA[
    .fil0 {fill:#008DD2}
   ]]>
  </style>
 </defs>
 <g id="Layer_x0020_1">
  <metadata id="CorelCorpID_0Corel-Layer"/>
  <g id="_2520841301936">
   <g id="icomoon-ignore">
   </g>
   <path class="fil0" d="M14942 22856c-255,-585 -662,-1069 -1171,-1425 1934,-1374 3079,-3588 3079,-5980 0,-1959 -662,-3766 -1832,-5115 -1069,-1170 -2469,-1933 -4021,-2162l1985 -3817c127,-280 26,-611 -254,-738l-128 -77 408 -737c50,-128 76,-280 25,-408 -25,-152 -127,-254 -254,-330l-1425 -764c-76,-25 -153,-51 -254,-51l0 0c-51,0 -102,0 -153,26 -127,25 -254,127 -331,254l-407 789 -153 -102c-127,-50 -280,-76 -432,-25 -128,51 -229,127 -306,254l-4326 8372c-127,254 -25,585 229,713l255 127 -356 661c-128,280 -26,586 254,738l1120 585c279,128 585,26 737,-229l331 -661 356 178c255,127 586,51 713,-204l891 -1526c2290,76 4122,1934 4122,4249 0,2341 -1908,4224 -4249,4224 -1909,0 -3563,-1247 -4072,-3028l2341 0c306,0 535,-229 535,-534l0 -662c0,-305 -229,-534 -535,-534l-5954 0c-306,0 -560,229 -560,534l0 662c0,305 254,534 560,534l534 0c331,1985 1425,3741 3079,4860 -483,356 -865,865 -1068,1451l-204 534c-51,153 -26,331 76,484 102,152 255,229 433,229l10127 0c179,0 357,-102 458,-229 102,-153 102,-357 51,-509l-254 -611 0 0zm-5192 102c-534,0 -992,-458 -992,-993 0,-534 458,-992 992,-992 535,0 993,458 993,992 0,535 -458,993 -993,993z"/>
  </g>
 </g>
</svg>
