<?xml version="1.0" encoding="UTF-8"?>
<!DOCTYPE svg PUBLIC "-//W3C//DTD SVG 1.1//EN" "http://www.w3.org/Graphics/SVG/1.1/DTD/svg11.dtd">
<!-- Creator: CorelDRAW X8 -->
<svg xmlns="http://www.w3.org/2000/svg" xml:space="preserve" width="130px" height="130px" version="1.1" style="shape-rendering:geometricPrecision; text-rendering:geometricPrecision; image-rendering:optimizeQuality; fill-rule:evenodd; clip-rule:evenodd"
viewBox="0 0 130 130"
 xmlns:xlink="http://www.w3.org/1999/xlink">
 <defs>
  <style type="text/css">
   <![CDATA[
    .fil1 {fill:#996633}
    .fil0 {fill:#FF9933}
   ]]>
  </style>
 </defs>
 <g id="Layer_x0020_1">
  <metadata id="CorelCorpID_0Corel-Layer"/>
  <g id="_2062306094480">
   <path class="fil0" d="M47 84l25 14c1,1 2,2 3,2 1,-2 2,-4 3,-5 -2,-1 -5,-2 -7,-4 -2,-1 -5,-2 -7,-4 -5,-3 -9,-5 -14,-8 0,2 -2,4 -3,5zm52 -68c-1,-1 -1,-1 -3,-2 0,2 -2,6 -3,7l-29 50c1,0 1,1 3,1 -1,1 -1,2 -2,4 -1,1 -1,2 -2,3l8 4c0,-2 3,-4 3,-6 2,0 1,1 4,1 1,-2 2,-4 3,-6l10 -17c7,3 13,14 13,22 0,11 -2,16 -9,24 -5,5 -13,8 -22,8l-22 0 0 11 67 0 0 -11 -15 0c2,-3 5,-4 9,-12 7,-15 4,-34 -8,-47 -2,-2 -5,-4 -7,-5l13 -23c-1,-1 -1,0 -2,-2 1,-2 2,-3 3,-5 -1,-1 -3,-2 -4,-3 -2,0 -4,-2 -5,-2 -1,2 -2,4 -3,6z"/>
   <path class="fil1" d="M30 25c-1,0 -6,-2 -7,-3l-5 5c1,3 7,10 0,12 -1,1 -5,2 -6,3l0 7c2,0 4,1 6,2 2,0 1,0 2,1 3,4 -1,7 -2,11l5 5c2,-1 3,-2 5,-3 2,-1 2,-1 5,0 2,1 2,2 3,5 1,5 1,4 7,4 3,0 1,-7 6,-9 3,-2 4,0 9,3l6 -5c-2,-5 -10,-11 6,-15l0 -6c-2,-1 -4,-2 -6,-2 -2,-1 -2,-1 -4,-4 -1,-2 0,-2 1,-4 1,-2 2,-4 3,-5l-6 -5c-1,1 -9,7 -12,0 -1,-2 -1,-4 -2,-6l-7 0c0,2 -1,4 -2,6 0,2 -2,3 -5,3l0 0zm11 11c4,0 9,4 9,9 0,5 -5,9 -9,9 -5,0 -10,-4 -10,-9 0,-5 5,-9 10,-9z"/>
  </g>
 </g>
</svg>
