<svg clip-rule="evenodd" fill-rule="evenodd" height="125" image-rendering="optimizeQuality" shape-rendering="geometricPrecision" text-rendering="geometricPrecision" viewBox="0 0 130 125" width="130" xmlns="http://www.w3.org/2000/svg"><path d="m107 4-7 6-3-4-16 15c-5 5-10 9-15 14l28 29 9-8c11 12 12 30-5 37-3-2-4-4-10-5-5-1-8 1-13 2l-38-37-4 4 38 38c-3 9-3 13 1 20h-36l1-10 3-2c6-1 5 0 10-4l-11-11c-4-5-8-9-12-12-13 13 1 23 2 27 1 2 0 10 0 12-4 1-13 0-16 2-5 3 0 8 6 8h73c11 0 6-4 7-9 1-6 4-4 3-15 8-3 16-12 18-22 2-15-5-22-10-29l7-8c4-4 5-4 7-7l-3-4 6-7c-4-6-2-5 3-9l-13-14-4 5c-2 1-4-1-6-2z" fill="#3f98d3"/><path d="m1 1c3 7 8 12 8 23s-6 17-9 24c22-12 26-13 48 0-9-20-16-21 0-48-7 3-13 8-23 9-12 1-16-5-24-8zm13 33c10-2 10-1 20 0-1-9-2-11 0-20-8 1-12 2-20 0 1 9 1 11 0 20z" fill="#f08d16"/><path d="m52 52 3 8h5l-3 7 7 5 5-3c2 4-3 4 8 7 6-13 3-4 10-11-4-2-15-18-24-23-7 7 1 6-11 10z" fill="#3f98d3"/></svg>