<?xml version="1.0" encoding="UTF-8"?>
<!DOCTYPE svg PUBLIC "-//W3C//DTD SVG 1.1//EN" "http://www.w3.org/Graphics/SVG/1.1/DTD/svg11.dtd">
<!-- Creator: CorelDRAW X8 -->
<svg xmlns="http://www.w3.org/2000/svg" xml:space="preserve" width="130px" height="130px" version="1.1" style="shape-rendering:geometricPrecision; text-rendering:geometricPrecision; image-rendering:optimizeQuality; fill-rule:evenodd; clip-rule:evenodd"
viewBox="0 0 130 130"
 xmlns:xlink="http://www.w3.org/1999/xlink">
 <defs>
  <style type="text/css">
   <![CDATA[
    .fil1 {fill:#336699}
    .fil0 {fill:#9966CC}
   ]]>
  </style>
 </defs>
 <g id="Layer_x0020_1">
  <metadata id="CorelCorpID_0Corel-Layer"/>
  <g id="_2393852656256">
   <path class="fil0" d="M101 8l-7 6 -3 -4 -16 14c-4,5 -9,9 -14,14l27 28 9 -8c10,12 11,29 -5,36 -3,-2 -4,-4 -10,-5 -5,-1 -8,1 -12,2l-37 -36 -4 4 37 37c-3,9 -3,13 1,19l-35 0 1 -9 3 -2c6,-1 5,0 9,-4l-10 -11c-4,-5 -8,-8 -12,-11 -12,12 1,22 2,26 1,2 0,9 0,11 -4,1 -13,0 -15,2 -5,3 0,8 5,8l71 0c11,0 6,-4 7,-9 1,-5 4,-4 3,-14 8,-3 15,-12 17,-21 2,-15 -5,-22 -9,-29l6 -7c4,-4 5,-4 7,-7l-3 -4 6 -7c-4,-6 -2,-5 3,-9l-13 -13 -4 5c-1,1 -3,-1 -5,-2l0 0z"/>
   <path class="fil0" d="M47 54l3 8 5 0 -3 7 7 5 5 -3c2,4 -3,4 8,7 5,-13 2,-4 9,-11 -4,-2 -14,-18 -23,-22 -7,6 1,5 -11,9l0 0z"/>
   <path class="fil1" d="M22 12l-3 0c-1,0 -2,1 -3,1 -2,1 -3,3 -4,5 0,1 0,1 0,2 0,1 0,2 0,2 -1,1 -3,3 -3,4 -2,2 -2,4 -2,6 0,2 1,5 2,7 2,2 4,4 7,4 2,1 8,1 11,1 1,0 2,-1 2,-2 -1,-1 -2,-1 -4,-1 -1,0 -7,0 -8,0 -5,-1 -9,-7 -6,-13 0,0 0,-1 0,-1 2,-2 2,-2 3,-3 2,-1 -1,-3 2,-7 1,-1 3,-2 5,-2 1,1 2,1 3,0 0,-1 0,-1 1,-2 3,-4 9,-6 14,-4 1,0 1,0 2,1 3,2 5,4 6,8 0,3 0,2 2,3 7,2 10,10 5,16 -1,1 -3,3 -5,3 -2,1 -6,1 -8,1 -1,0 -3,-1 -3,0 -1,1 0,3 1,3l7 0c4,0 7,-2 9,-4 1,-1 1,-1 2,-2 0,0 0,0 0,-1 1,-1 2,-4 2,-6l0 0c0,-3 0,-3 -1,-6 0,-1 -1,-3 -2,-4 -1,0 -1,-1 -2,-1 -1,-1 -3,-2 -5,-2 0,-1 0,-2 0,-3 -1,-3 -2,-4 -4,-6 -3,-3 -7,-4 -11,-4 -3,0 -6,1 -8,2 0,0 0,1 0,1 -1,0 -2,1 -2,2 -1,0 -2,2 -2,2zm2 20c0,1 1,1 2,1 0,0 2,-2 3,-2l3 -3 0 20c0,2 -1,5 1,5 2,0 2,-3 2,-5l0 -20 4 4c1,1 1,1 2,1 1,0 1,0 1,-1 0,-1 -1,-2 -2,-3l-5 -5c-1,-1 -1,-1 -2,-1 -1,0 -2,1 -3,2l-4 4c-1,1 -2,2 -2,3z"/>
  </g>
 </g>
</svg>
