<?xml version="1.0" encoding="UTF-8"?>
<!DOCTYPE svg PUBLIC "-//W3C//DTD SVG 1.0//EN" "http://www.w3.org/TR/2001/REC-SVG-20010904/DTD/svg10.dtd">
<!-- Creator: CorelDRAW -->
<svg xmlns="http://www.w3.org/2000/svg" xml:space="preserve" width="1080px" height="1080px" version="1.0" shape-rendering="geometricPrecision" text-rendering="geometricPrecision" image-rendering="optimizeQuality" fill-rule="evenodd" clip-rule="evenodd"
viewBox="0 0 1080 1080"
 xmlns:xlink="http://www.w3.org/1999/xlink"
 xmlns:xodm="http://www.corel.com/coreldraw/odm/2003">
 <g id="Layer_x0020_1">
  <metadata id="CorelCorpID_0Corel-Layer"/>
  <g id="_2127711204224">
   <path fill="#008DD2" d="M33.13 715.16c0,-21.5 0.33,-36.17 1.16,-49 0.84,-12.84 2.17,-23.84 3.5,-33.34 1.34,-9.5 2.67,-17.5 5.17,-26.5 2.5,-9 6.17,-19 10.67,-28.5 4.5,-9.5 9.83,-18.5 16,-26.66 6.16,-8.17 13.16,-15.5 22.5,-23.5 9.33,-8 21,-16.67 26.83,-21 5.83,-4.34 5.83,-4.34 0.17,-12.17 -5.67,-7.83 -17,-23.5 -25.34,-39.33 -8.33,-15.84 -13.66,-31.84 -15.33,-49.5 -1.67,-17.67 0.33,-37 4.83,-53.84 4.5,-16.83 11.5,-31.16 20,-43 8.5,-11.83 18.5,-21.16 31.84,-28.66 13.33,-7.5 30,-13.17 48.16,-14 18.17,-0.84 37.84,3.16 54.5,11.33 16.67,8.17 30.34,20.5 40,32.83 9.67,12.34 15.34,24.67 19.17,38 3.83,13.34 5.83,27.67 5.67,43 -0.17,15.34 -2.5,31.67 -7,46.67 -4.5,15 -11.17,28.67 -17.84,39 -6.66,10.33 -13.33,17.33 -16.66,20.83 -3.34,3.5 -3.34,3.5 3.16,8.17 6.5,4.67 19.5,14 30.17,24.17 10.67,10.16 19,21.16 24.33,30 5.34,8.83 7.67,15.5 11,19 3.34,3.5 7.67,3.83 10,0.33 2.34,-3.5 2.67,-10.83 6.34,-23.33 3.66,-12.5 10.66,-30.17 19.83,-45.5 9.17,-15.34 20.5,-28.34 30.83,-37.34 10.34,-9 19.67,-14 24.67,-16.66 5,-2.67 5.67,-3 5,-5.67 -0.67,-2.67 -2.67,-7.67 -8.33,-15.33 -5.67,-7.67 -15,-18 -21.84,-31 -6.83,-13 -11.16,-28.67 -12.83,-45.17 -1.67,-16.5 -0.67,-33.83 1.17,-47.17 1.83,-13.33 4.5,-22.66 10.16,-33.5 5.67,-10.83 14.34,-23.16 23.84,-33 9.5,-9.83 19.83,-17.16 31.83,-22.66 12,-5.5 25.67,-9.17 36.84,-10.67 11.16,-1.5 19.83,-0.83 29.16,0.83 9.33,1.67 19.33,4.34 27.67,8.17 8.33,3.83 15,8.83 22.5,15.33 7.5,6.5 15.83,14.5 23,25.84 7.16,11.33 13.16,26 17,41.16 3.83,15.17 5.5,30.84 4.5,46.67 -1,15.83 -4.67,31.83 -10.84,45.33 -6.16,13.5 -14.83,24.5 -20.33,33.67 -5.5,9.17 -7.83,16.5 -9,20.17 -1.17,3.66 -1.17,3.66 3.83,6.5 5,2.83 15,8.5 26.84,21.83 11.83,13.33 25.5,34.33 32.33,45.33 6.83,11 6.83,12 8.5,3.67 1.67,-8.33 5,-26 11.33,-41.33 6.34,-15.34 15.67,-28.34 28.67,-42.67 13,-14.33 29.67,-30 37.67,-38 8,-8 7.33,-8.33 2,-15.5 -5.34,-7.17 -15.33,-21.17 -23,-36.17 -7.67,-15 -13,-31 -15.67,-47.66 -2.67,-16.67 -2.67,-34 0.67,-49.84 3.33,-15.83 10,-30.16 18.16,-42.5 8.17,-12.33 17.84,-22.66 29.17,-30.83 11.34,-8.17 24.33,-14.17 37.83,-17.83 13.51,-3.67 27.51,-5 41.51,-3.84 14,1.17 28,4.84 39.5,10.84 11.5,6 20.5,14.33 28,23.33 7.5,9 13.5,18.67 18.16,29.17 4.67,10.5 8,21.83 10.33,32.83 2.34,11 3.67,21.67 4.17,31.67 0.5,10 0.17,19.33 -1.67,28.66 -1.83,9.34 -5.16,18.67 -9,27.17 -3.83,8.5 -8.16,16.17 -13.99,25.17 -5.84,9 -13.17,19.33 -17.01,24.5 -3.83,5.16 -4.16,5.16 0.17,7.83 4.34,2.67 13.34,8 20.5,13.67 7.17,5.66 12.5,11.66 16.17,18.16 3.66,6.5 5.67,13.5 4.83,18.17 -0.83,4.67 -4.5,7 -39,28.83 -34.5,21.84 -99.83,63.17 -171.33,108.67 -71.5,45.5 -149.17,95.17 -189.34,121 -40.16,25.83 -42.83,27.83 -45.33,28.83 -2.5,1 -4.83,1 -7.17,0.67 -2.33,-0.33 -4.66,-1 -33.83,-15.33 -29.17,-14.34 -85.17,-42.34 -116,-57.5 -30.83,-15.17 -36.5,-17.5 -41.83,-18.5 -5.34,-1 -10.34,-0.67 -16,1.5 -5.67,2.16 -12,6.16 -48.34,30.33 -36.33,24.17 -102.66,68.5 -135.83,90.67 -33.17,22.16 -33.17,22.16 -33.17,22.16 0,0 0,0 -0.16,-14.16 -0.17,-14.17 -0.5,-42.5 -0.5,-64z"/>
   <path fill="#008DD2" d="M37.79 850.49c37.67,-25.5 114,-73.83 154.84,-99.5 40.83,-25.67 46.16,-28.67 52.5,-30.67 6.33,-2 13.66,-3 21.66,-2.16 8,0.83 16.67,3.5 26,7.5 9.34,4 19.34,9.33 45,22.66 25.67,13.34 67,34.67 87.67,45 20.67,10.34 20.67,9.67 20.67,9.67 0,0 0,0.67 1.83,1.83 1.83,1.17 5.5,2.84 11.33,2.5 5.84,-0.33 13.84,-2.66 36.67,-16.16 22.83,-13.5 60.5,-38.17 142.67,-92.17 82.16,-54 208.83,-137.33 272.16,-179 63.34,-41.67 63.34,-41.67 64,-42.33 0.67,-0.67 2.01,-2 -1.5,-14 -3.5,-12 -11.83,-34.67 -15.99,-46.5 -4.17,-11.84 -4.17,-12.84 16.99,-8.34 21.17,4.5 63.51,14.5 84.51,19.5 21,5 20.66,5 14.49,30 -6.16,25 -18.16,75 -24.16,100.34 -6,25.33 -6,26 -11.84,15.33 -5.83,-10.67 -17.49,-32.67 -23.33,-43.67 -5.83,-11 -5.83,-11 -91.5,45.84 -85.66,56.83 -257,170.5 -342.67,227.33 -85.66,56.83 -85.66,56.83 -88.16,58 -2.5,1.17 -7.5,3.5 -12.17,5.67 -4.67,2.16 -9,4.16 -14.33,4.33 -5.34,0.17 -11.67,-1.5 -42.34,-16.33 -30.66,-14.84 -85.66,-42.84 -113.16,-56.84 -27.5,-14 -27.5,-14 -30,-14.83 -2.5,-0.83 -7.5,-2.5 -11.84,-3.67 -4.33,-1.16 -8,-1.83 -14,-0.16 -6,1.66 -14.33,5.66 -51.83,28.5 -37.5,22.83 -104.17,64.5 -139.33,86.16 -35.17,21.67 -38.84,23.34 -40.67,24.5 -1.83,1.17 -1.83,1.84 -4.83,-4.5 -3,-6.33 -9,-19.66 -12.5,-27.66 -3.5,-8 -4.5,-10.67 33.16,-36.17z"/>
  </g>
 </g>
</svg>
