<?xml version="1.0" encoding="UTF-8"?>
<!DOCTYPE svg PUBLIC "-//W3C//DTD SVG 1.1//EN" "http://www.w3.org/Graphics/SVG/1.1/DTD/svg11.dtd">
<!-- Creator: CorelDRAW X8 -->
<svg xmlns="http://www.w3.org/2000/svg" xml:space="preserve" width="130px" height="130px" version="1.1" style="shape-rendering:geometricPrecision; text-rendering:geometricPrecision; image-rendering:optimizeQuality; fill-rule:evenodd; clip-rule:evenodd"
viewBox="0 0 130 130"
 xmlns:xlink="http://www.w3.org/1999/xlink">
 <defs>
  <style type="text/css">
   <![CDATA[
    .fil0 {fill:#6666CC}
    .fil2 {fill:#99CCCC}
    .fil1 {fill:#F7F7F7}
   ]]>
  </style>
 </defs>
 <g id="Layer_x0020_1">
  <metadata id="CorelCorpID_0Corel-Layer"/>
  <g id="_2393756634560">
   <path class="fil0" d="M31 12c5,0 7,-1 11,2 5,4 6,12 0,16 -3,3 -5,2 -9,3l0 7c4,1 6,0 9,3 7,5 4,16 -4,18 -2,0 -3,0 -5,0l0 8c4,0 6,-1 9,2 5,4 5,12 0,16 -3,3 -5,2 -9,3l0 7c4,1 6,0 9,3 5,4 5,12 -1,16 -3,3 -6,2 -10,2 0,3 0,6 3,7 1,0 25,0 28,0l47 0c8,0 6,-1 6,-13l0 -85c0,-6 1,-12 0,-19 0,-4 -4,-3 -6,-3l-66 0c-2,0 -8,0 -9,0 -3,1 -3,4 -3,7zm30 73c-2,0 -3,2 -1,4 0,1 3,0 4,0 3,0 33,1 34,0 2,0 3,-2 2,-3 -1,-1 -4,-1 -5,-1 -4,0 -33,0 -34,0zm0 22c-2,0 -3,2 -1,4 1,1 3,0 4,0 3,0 33,1 34,0 2,0 3,-2 2,-3 -1,-1 -4,-1 -5,-1 -4,0 -33,0 -34,0zm1 -7l36 0c3,0 3,-4 0,-4l-37 0c-3,0 -3,4 1,4z"/>
   <path class="fil1" d="M76 25c-2,1 -2,1 -3,2 -7,4 -8,15 -1,20 2,1 4,3 6,4 2,1 4,2 5,3 3,6 -7,9 -7,2l-9 0c-1,5 3,9 7,11 2,2 2,0 2,7l9 0 0 -6c1,-1 3,-1 5,-4 1,-2 2,-4 2,-6 1,-6 -2,-10 -5,-12 -1,-2 -3,-2 -5,-4 -2,-1 -5,-1 -5,-3 -2,-4 3,-7 6,-5 1,1 1,2 1,3l9 0c0,-6 -4,-10 -8,-12l0 -5 -9 0 0 5z"/>
   <path class="fil2" d="M19 45c-6,1 -6,9 -1,11 2,0 7,0 9,0 3,0 7,0 10,0 5,-1 6,-9 1,-10 -2,-1 -7,-1 -10,-1 -2,0 -7,0 -9,0z"/>
   <path class="fil2" d="M19 74c-6,1 -6,9 -1,10 1,1 17,1 19,1 5,-1 6,-9 1,-11 -2,0 -17,0 -19,0z"/>
   <path class="fil2" d="M19 17c-6,1 -6,9 -1,11 2,0 17,0 19,0 5,-1 6,-9 0,-11 -1,0 -16,0 -18,0z"/>
   <path class="fil2" d="M19 102c-3,1 -4,3 -5,6 0,2 2,5 5,5 1,0 17,0 18,0 6,-1 6,-9 0,-11 -1,0 -17,0 -18,0z"/>
  </g>
 </g>
</svg>
