<?xml version="1.0" encoding="UTF-8"?>
<!DOCTYPE svg PUBLIC "-//W3C//DTD SVG 1.1//EN" "http://www.w3.org/Graphics/SVG/1.1/DTD/svg11.dtd">
<!-- Creator: CorelDRAW X8 -->
<svg xmlns="http://www.w3.org/2000/svg" xml:space="preserve" width="130px" height="90px" version="1.1" style="shape-rendering:geometricPrecision; text-rendering:geometricPrecision; image-rendering:optimizeQuality; fill-rule:evenodd; clip-rule:evenodd"
viewBox="0 0 130 90"
 xmlns:xlink="http://www.w3.org/1999/xlink">
 <defs>
  <style type="text/css">
   <![CDATA[
    .fil1 {fill:#56698F}
    .fil0 {fill:#EF7F1A}
   ]]>
  </style>
 </defs>
 <g id="Layer_x0020_1">
  <metadata id="CorelCorpID_0Corel-Layer"/>
  <g id="_2062231425424">
   <g id="_2388021468304">
    <path class="fil0" d="M5 0c-5,2 -4,8 -4,13l0 41c0,3 -1,7 1,8 1,0 59,0 66,0 5,0 4,-2 4,-13l0 -33c0,-17 1,-16 -18,-16 -7,0 -47,0 -49,0zm29 9l-10 15 -5 -15 15 0zm-17 1l6 14 -13 0 7 -14zm-7 16l13 0 12 32 -25 -32zm25 30l-10 -30 10 0 0 30zm0 -31l-10 -1 10 -13 0 0 0 11 0 3zm26 -1l-13 0 5 -14 8 14zm-9 -15l-5 15 -10 -15 15 0zm-16 13l0 -11 0 0 10 13 -10 1 0 -3zm0 4l10 0 -11 30 1 -30zm-1 32l12 -32 14 0 -26 32z"/>
    <path class="fil1" d="M38 73c-7,1 -5,13 2,11 7,-1 5,-12 -2,-11zm59 0c-7,2 -5,12 3,11 2,0 5,-3 4,-7 0,-2 -3,-5 -7,-4zm-73 3c1,-6 4,-7 5,-9l-23 0c-3,0 -6,-1 -6,2 -1,9 1,7 9,7 5,0 10,0 15,0zm61 -52l0 11c0,2 0,3 3,3l21 0c6,0 1,-6 -2,-9l-4 -7c-1,-1 -1,-1 -3,-1l-12 0c-2,0 -3,1 -3,3zm-49 44c-5,1 -10,6 -8,13 4,15 26,9 22,-5 -1,-5 -7,-10 -14,-8zm60 0c-15,3 -9,25 5,22 14,-4 10,-26 -5,-22zm-19 -1l-28 0c1,2 2,3 3,4 1,2 1,4 2,5l30 0c1,-2 1,-5 4,-9 9,-7 23,-4 25,9 3,0 6,0 9,0 2,0 6,1 8,-1 0,-1 0,-5 0,-7 -1,-2 -4,-1 -6,-1 0,-6 0,-13 0,-20 0,-9 -1,-9 -5,-15 -2,-4 -5,-8 -8,-12 -2,-4 -5,-7 -11,-8 -3,-1 -16,-1 -19,-1 -4,1 -4,3 -4,6 0,8 0,48 0,50z"/>
   </g>
  </g>
 </g>
</svg>
