<?xml version="1.0" encoding="UTF-8"?>
<!DOCTYPE svg PUBLIC "-//W3C//DTD SVG 1.1//EN" "http://www.w3.org/Graphics/SVG/1.1/DTD/svg11.dtd">
<!-- Creator: CorelDRAW X8 -->
<svg xmlns="http://www.w3.org/2000/svg" xml:space="preserve" width="130px" height="130px" version="1.1" style="shape-rendering:geometricPrecision; text-rendering:geometricPrecision; image-rendering:optimizeQuality; fill-rule:evenodd; clip-rule:evenodd"
viewBox="0 0 130 130"
 xmlns:xlink="http://www.w3.org/1999/xlink">
 <defs>
  <style type="text/css">
   <![CDATA[
    .fil0 {fill:#092F87}
    .fil1 {fill:#FDFDFD}
   ]]>
  </style>
 </defs>
 <g id="Layer_x0020_1">
  <metadata id="CorelCorpID_0Corel-Layer"/>
  <g id="_1226644258320">
   <path class="fil0" d="M23 21c-5,5 -10,11 -13,18 -5,11 -6,19 -5,31 0,5 2,11 3,16 2,6 7,15 13,20 8,8 14,13 23,16 14,5 28,5 42,0 6,-2 14,-7 20,-13 8,-8 13,-14 16,-23 5,-14 5,-28 0,-42 -2,-6 -7,-14 -13,-20 -8,-8 -14,-13 -23,-16 -14,-5 -28,-5 -42,0 -6,2 -15,7 -21,13z"/>
   <path class="fil1" d="M37 37l-7 -7c-1,1 -6,29 -6,30l22 -5c2,0 7,-1 8,-1l-7 -7c3,-4 6,-5 10,-7 2,0 3,-1 5,-1 7,-1 16,1 23,7 7,7 9,13 9,20 0,14 -10,25 -23,27 -2,1 -3,1 -5,1 -3,0 -2,0 -5,-1 -5,0 -11,-3 -15,-7l-9 9c5,5 9,8 16,10 15,6 31,2 43,-10 9,-9 12,-20 12,-29 0,-8 -3,-20 -12,-28 -5,-5 -10,-9 -16,-11 -6,-2 -9,-2 -14,-2l-4 0c-9,0 -19,5 -25,12z"/>
   <path class="fil1" d="M51 67c0,1 1,6 1,7l11 -2c6,-2 4,-1 10,-8 2,-2 6,-5 8,-7l-5 -5c-2,2 -11,12 -13,12 -1,1 -10,2 -12,3z"/>
  </g>
 </g>
</svg>
