<?xml version="1.0" encoding="UTF-8"?>
<!DOCTYPE svg PUBLIC "-//W3C//DTD SVG 1.1//EN" "http://www.w3.org/Graphics/SVG/1.1/DTD/svg11.dtd">
<!-- Creator: CorelDRAW X8 -->
<svg xmlns="http://www.w3.org/2000/svg" xml:space="preserve" width="130px" height="119px" version="1.1" style="shape-rendering:geometricPrecision; text-rendering:geometricPrecision; image-rendering:optimizeQuality; fill-rule:evenodd; clip-rule:evenodd"
viewBox="0 0 130 119"
 xmlns:xlink="http://www.w3.org/1999/xlink">
 <defs>
  <style type="text/css">
   <![CDATA[
    .fil0 {fill:#CC3366}
    .fil1 {fill:#FF6666}
   ]]>
  </style>
 </defs>
 <g id="Layer_x0020_1">
  <metadata id="CorelCorpID_0Corel-Layer"/>
  <g id="_2062385214672">
   <path class="fil0" d="M54 7l0 9c-2,0 -8,2 -10,3 -1,1 -2,1 -3,2 -4,-3 -6,-10 -12,-10 -2,0 -3,1 -5,3l-8 8c-2,2 -2,3 -2,6 0,2 2,4 3,6 2,1 4,4 5,4 0,1 -1,2 -1,3 -2,4 -4,9 -4,10 -4,0 -8,-1 -11,0 -3,0 -6,2 -6,5l0 15c0,2 3,5 5,5 2,1 9,0 11,0 1,5 3,9 5,13 -1,1 -3,3 -4,4 -1,1 -3,2 -4,4 -1,1 -2,3 -1,5 0,2 2,4 3,5 3,3 5,5 8,8 1,1 3,2 6,1 2,0 3,-2 4,-3 2,-2 3,-3 4,-4 2,-1 1,-1 1,-3l1 -11c0,-5 1,-2 -2,-6 -9,-11 -12,-26 -5,-39 6,-13 19,-22 33,-22 3,0 6,1 8,1 2,1 5,1 7,2 19,9 27,32 18,51 -2,4 -3,5 -5,7l-3 4c-1,0 -1,0 -1,0l0 16c0,1 2,2 2,3 3,3 6,6 9,7l2 0c1,0 2,-1 4,-3l7 -7c3,-3 3,-3 3,-6 0,-5 -6,-8 -8,-11 1,-2 2,-4 3,-6 0,-1 2,-5 2,-6 3,0 8,0 11,0 3,-1 6,-3 6,-6l0 -14c0,-3 -3,-6 -5,-6 -2,0 -8,0 -11,0 -1,-3 -2,-7 -3,-10l-2 -3c3,-4 9,-6 10,-10 0,-5 -4,-8 -8,-12 -2,-2 -5,-5 -8,-5 -5,0 -7,6 -11,8 -4,-2 -8,-4 -12,-5 0,-3 0,-9 0,-12 -1,-3 -3,-5 -7,-5l-13 0c-4,0 -6,3 -6,7z"/>
   <path class="fil1" d="M41 64c0,9 7,16 11,23 3,4 3,6 4,10 0,2 0,11 0,13 0,2 0,2 0,4 0,2 0,3 0,5l7 0 0 -23c0,-4 7,-4 7,0l0 23 7 0c0,-2 0,-3 0,-5l0 -20c0,-2 2,-6 3,-8 3,-6 9,-12 9,-22 0,-6 -2,-12 -6,-16 -4,-4 -3,-1 -3,1 -2,23 -25,18 -25,4 0,-9 2,-7 3,-12 -4,1 -10,6 -12,9 -1,2 -3,3 -4,6 0,2 -1,5 -1,8z"/>
  </g>
 </g>
</svg>
