<?xml version="1.0" encoding="UTF-8"?>
<!DOCTYPE svg PUBLIC "-//W3C//DTD SVG 1.1//EN" "http://www.w3.org/Graphics/SVG/1.1/DTD/svg11.dtd">
<!-- Creator: CorelDRAW X8 -->
<svg xmlns="http://www.w3.org/2000/svg" xml:space="preserve" width="130px" height="130px" version="1.1" style="shape-rendering:geometricPrecision; text-rendering:geometricPrecision; image-rendering:optimizeQuality; fill-rule:evenodd; clip-rule:evenodd"
viewBox="0 0 130 130"
 xmlns:xlink="http://www.w3.org/1999/xlink">
 <defs>
  <style type="text/css">
   <![CDATA[
    .fil0 {fill:#924884}
    .fil1 {fill:#A75F4A}
    .fil2 {fill:#FEFEFE}
   ]]>
  </style>
 </defs>
 <g id="Layer_x0020_1">
  <metadata id="CorelCorpID_0Corel-Layer"/>
  <g id="_1800511423360">
   <g id="Layer_x0020_1_0">
    <path class="fil0" d="M70 67l0 50c0,1 1,2 2,2l54 0c2,0 2,-1 2,-2l0 -51c0,-2 -4,-1 -6,-1 0,2 0,5 -2,6 -2,2 -7,2 -7,-4 0,-2 0,-2 -1,-2l-26 0c0,3 0,7 -5,7 -4,0 -4,-4 -4,-7 -4,0 -7,-1 -7,2l0 0zm44 12l7 0 0 10 -7 0 0 -10 0 0zm-13 14l0 8 9 0c1,-2 1,-8 0,-9 -2,-1 -5,-1 -8,-1 0,0 -1,1 -1,2l0 0zm-25 0l0 8 9 0c1,-3 1,-6 1,-8 0,-2 -5,-2 -9,-2 0,0 -1,1 -1,2l0 0zm12 0l0 8 10 0c1,-3 1,-6 1,-8 0,-2 -5,-2 -10,-2 0,0 -1,1 -1,2l0 0zm0 11c0,10 -2,9 9,9l1 0c1,-2 1,-8 0,-10l-9 0 -1 1zm25 0c0,10 -2,9 8,9l1 0c1,-2 1,-8 0,-10l-8 0 -1 1zm-12 0c0,10 -2,9 8,9l1 0c1,-2 1,-8 0,-10l-8 0 -1 1zm-13 -24l0 9 9 0c2,0 2,-6 2,-9 0,-2 -5,-2 -9,-2 -1,0 -2,1 -2,2l0 0zm13 0l0 9 8 0c2,0 1,-6 1,-9 0,-2 -5,-2 -7,-2 -1,0 -2,1 -2,2l0 0zm-25 0l0 9 9 0c1,0 1,-6 1,-9 0,-2 -5,-2 -8,-2 -1,0 -2,1 -2,2l0 0zm37 13c0,9 -2,8 8,8l1 0c1,-3 0,-6 0,-8 0,-2 -4,-2 -8,-2 0,0 -1,1 -1,2l0 0zm-37 10l0 8c0,2 5,2 8,2 2,0 2,-5 2,-8 0,-1 -1,-1 -1,-2l-9 0z"/>
    <path class="fil1" d="M28 44c0,6 1,9 5,13 3,3 1,0 3,4 6,16 25,19 34,0 1,-3 -1,-1 2,-4 0,-1 1,-1 1,-2 3,-3 5,-10 3,-14 0,-1 -1,-1 -1,-2 -1,-1 0,-6 0,-7 -1,-2 -1,-4 -2,-6 -1,-4 -2,-3 -2,-5 -1,-4 -3,-6 -7,-8 -12,-5 -27,-2 -31,9 -2,1 -2,3 -2,4 -2,4 -1,11 -1,13 -1,1 -2,1 -2,5l0 0z"/>
    <path class="fil1" d="M2 103c0,3 -1,2 4,4 2,1 4,1 6,2 5,1 12,2 18,2 3,1 6,1 8,1l7 0c1,0 2,1 3,1l11 -1 8 0 0 -25 0 -16c-1,0 -1,0 -2,1 -7,6 -18,7 -26,-1 -1,-1 -3,-3 -3,-4 -1,0 -6,2 -7,2 -7,3 -16,6 -20,12 -1,1 -1,1 -1,2 -1,1 -2,4 -3,6 -2,4 -3,9 -3,14l0 0z"/>
    <path class="fil2" d="M114 64c0,2 -1,7 3,7 4,0 3,-5 3,-8 0,-3 -6,-4 -6,1l0 0zm-36 0c0,2 0,7 3,7 4,0 3,-5 3,-7 0,-5 -6,-5 -6,0l0 0z"/>
   </g>
  </g>
 </g>
</svg>
