<?xml version="1.0" encoding="UTF-8"?>
<!DOCTYPE svg PUBLIC "-//W3C//DTD SVG 1.1//EN" "http://www.w3.org/Graphics/SVG/1.1/DTD/svg11.dtd">
<!-- Creator: CorelDRAW X8 -->
<svg xmlns="http://www.w3.org/2000/svg" xml:space="preserve" width="130px" height="129px" version="1.1" style="shape-rendering:geometricPrecision; text-rendering:geometricPrecision; image-rendering:optimizeQuality; fill-rule:evenodd; clip-rule:evenodd"
viewBox="0 0 130 129"
 xmlns:xlink="http://www.w3.org/1999/xlink">
 <defs>
  <style type="text/css">
   <![CDATA[
    .fil1 {fill:#6666FF}
    .fil0 {fill:#6699FF}
   ]]>
  </style>
 </defs>
 <g id="Layer_x0020_1">
  <metadata id="CorelCorpID_0Corel-Layer"/>
  <g id="_2062384017120">
   <path id="slotconfig_0" class="fil0" d="M89 64c11,0 21,10 22,20 1,12 -9,21 -20,23 -10,1 -20,-8 -22,-17 -3,1 -8,1 -14,1 -1,2 -3,2 -4,4 0,0 -2,1 -2,1 0,0 2,5 3,7l2 5c0,0 1,0 1,0 0,0 0,0 1,0 3,-1 6,0 8,0 2,2 4,3 5,5 0,2 0,5 0,7 0,2 0,3 0,4 2,2 9,4 12,5 0,0 0,-1 0,-2 2,-1 2,-2 2,-3 5,-4 12,-4 15,2 0,0 1,2 1,3 1,0 3,-1 4,-1 1,0 2,-1 3,-1 2,-1 5,-2 6,-4 0,-1 0,-1 0,-5 0,-4 1,-8 5,-10 3,-1 6,-1 10,0l0 -3c0,-2 3,-7 3,-9 -3,-1 -5,-6 -5,-9 0,-4 1,-7 2,-11 2,-1 2,-1 3,-1l-1 -3c0,-1 -1,-2 -1,-3 -1,-3 -1,-3 -1,-5 0,0 0,-1 0,-1 -1,0 -1,0 -2,1 -9,2 -14,-3 -14,-10 0,-2 0,-2 1,-5 0,0 0,0 0,0 -1,-2 -4,-3 -6,-3 -2,0 -6,-2 -7,-2 0,0 0,2 -1,2 0,0 0,1 -2,3 -1,0 -3,0 -5,0 0,2 0,3 0,3 0,5 0,9 -2,12l0 0 0 0 0 0 0 0 0 0z"/>
   <path class="fil1" d="M86 43c0,-24 -20,-43 -43,-43 -24,0 -43,19 -43,43 0,23 19,43 43,43 23,0 43,-20 43,-43zm-17 21l-10 0c0,-3 0,-9 -1,-18 0,-9 0,-15 0,-17l0 0c0,2 -1,4 -2,8 -1,3 -3,9 -6,15 -2,7 -4,12 -4,12l-6 0c0,0 -2,-5 -4,-12 -3,-6 -5,-12 -5,-15 -1,-2 -2,-5 -2,-8l-1 0c0,3 0,9 0,18 -1,9 -1,15 -1,17l-9 0c0,0 1,-6 3,-19 1,-12 2,-20 2,-23l13 0c0,3 1,8 4,16 3,8 3,14 3,17l1 0c0,-3 2,-9 5,-17 3,-8 4,-13 4,-16l13 0c0,5 0,12 1,24 1,12 2,18 2,18l0 0z"/>
  </g>
 </g>
</svg>
