<?xml version="1.0" encoding="UTF-8"?>
<!DOCTYPE svg PUBLIC "-//W3C//DTD SVG 1.1//EN" "http://www.w3.org/Graphics/SVG/1.1/DTD/svg11.dtd">
<!-- Creator: CorelDRAW X8 -->
<svg xmlns="http://www.w3.org/2000/svg" xml:space="preserve" width="130px" height="118px" version="1.1" style="shape-rendering:geometricPrecision; text-rendering:geometricPrecision; image-rendering:optimizeQuality; fill-rule:evenodd; clip-rule:evenodd"
viewBox="0 0 130 118"
 xmlns:xlink="http://www.w3.org/1999/xlink">
 <defs>
  <style type="text/css">
   <![CDATA[
    .fil1 {fill:#006633}
    .fil2 {fill:#33CC99}
    .fil0 {fill:#669999}
   ]]>
  </style>
 </defs>
 <g id="Layer_x0020_1">
  <metadata id="CorelCorpID_0Corel-Layer"/>
  <g id="_2062306122032">
   <path class="fil0" d="M0 8l0 101c1,2 0,3 3,6 4,4 10,3 15,3l63 0c5,0 10,-1 12,-6 1,-4 1,-13 1,-18 0,-5 0,-12 0,-18 -1,1 -1,1 -2,2 0,0 -1,0 -1,1l-5 5c-1,1 -2,2 -2,3 -1,5 0,16 0,21 -3,1 -33,0 -37,0 -5,0 -36,1 -37,0l0 -98c1,0 34,0 37,0 4,0 34,0 37,0l0 16 6 -6c1,-1 1,-2 2,-3 1,0 2,-1 2,-2 0,-5 0,-8 -3,-11 -3,-4 -7,-4 -13,-4l-61 0c-5,0 -10,-1 -14,3 -2,2 -2,3 -3,5 0,0 0,0 0,0 0,0 0,0 0,0z"/>
   <path class="fil1" d="M23 23c-6,1 -6,8 -2,10 2,0 29,0 33,0 3,0 16,0 17,0 5,-1 6,-8 1,-9 -2,-1 -28,-1 -33,-1 -2,0 -15,0 -16,0z"/>
   <path class="fil1" d="M68 44c-4,0 -10,0 -15,0 -9,0 -20,0 -30,0 -5,0 -6,5 -3,8 1,2 3,2 6,2l30 0c5,0 3,1 9,-6l3 -4z"/>
   <path class="fil2" d="M130 23l0 -2 0 0c0,0 0,0 0,-1l-1 0c0,-1 -1,-2 -2,-3 -1,-1 -2,-2 -3,-3 -2,-2 -4,-3 -6,-5 -3,-3 -6,-2 -9,0 -2,2 -4,5 -6,7 1,0 2,1 3,2l16 15 6 -7c1,-1 1,-2 2,-3zm-33 0l19 17c0,0 4,-5 4,-5l-4 -5c-2,-1 -3,-3 -5,-4 -2,-1 -8,-7 -9,-8 -1,1 -2,2 -3,2 0,1 -2,2 -2,3zm-42 47c0,0 18,16 19,17 1,-1 5,-6 6,-7l29 -32c1,-1 5,-5 5,-6 -1,-2 -10,-9 -12,-11 -1,-1 -6,-6 -7,-6l-37 42c-1,1 -2,2 -3,3zm16 19c0,-1 -9,-9 -11,-10 -2,-2 -6,-6 -7,-6l-6 19c0,2 -2,5 0,6 2,1 5,0 7,-1l17 -8z"/>
   <path class="fil1" d="M45 74c0,-2 5,-8 5,-10l-25 0c-9,0 -7,7 -5,9 2,1 5,1 8,1 5,0 11,0 17,0z"/>
   <path class="fil1" d="M39 95c0,-3 2,-8 2,-10 -2,0 -18,0 -19,0 -2,0 -3,2 -4,3 0,3 1,4 2,5 1,2 3,2 5,2 5,0 9,0 14,0z"/>
  </g>
 </g>
</svg>
