<?xml version="1.0" encoding="UTF-8"?>
<!DOCTYPE svg PUBLIC "-//W3C//DTD SVG 1.1//EN" "http://www.w3.org/Graphics/SVG/1.1/DTD/svg11.dtd">
<!-- Creator: CorelDRAW 2021.5 -->
<svg xmlns="http://www.w3.org/2000/svg" xml:space="preserve" width="130mm" height="130mm" version="1.1" style="shape-rendering:geometricPrecision; text-rendering:geometricPrecision; image-rendering:optimizeQuality; fill-rule:evenodd; clip-rule:evenodd"
viewBox="0 0 13000 13000"
 xmlns:xlink="http://www.w3.org/1999/xlink"
 xmlns:xodm="http://www.corel.com/coreldraw/odm/2003">
 <defs>
  <style type="text/css">
   <![CDATA[
    .fil2 {fill:#E5097F}
    .fil1 {fill:#E31E24}
    .fil0 {fill:#4D897C}
   ]]>
  </style>
 </defs>
 <g id="Layer_x0020_1">
  <metadata id="CorelCorpID_0Corel-Layer"/>
  <g id="_2434453938032">
   <path class="fil0" d="M209.28 12790.72l8489.22 0c1362.48,0 1991.31,-943.26 2620.14,-1467.28 524.02,-628.83 1467.28,-1257.66 1467.28,-2620.14l0 -8489.22 -12576.6 0 0 12576.6 -0.04 0.04zm9432.45 -1781.68l0 314.44 1676.87 -1676.87 -314.44 0 -1362.47 0 0 1362.47 0.04 -0.04zm-8384.41 733.64l6602.73 0c524.02,0 733.64,-104.81 733.64,-733.64l0 -2410.51 2410.51 0c628.83,0 733.64,-209.62 733.64,-733.64l0 -6602.73 -10480.48 0 0 10480.48 -0.04 0.04z"/>
   <path class="fil1" d="M1868.61 3385.53c0,296.83 241.49,341.75 537.71,537.71l1610.37 979.12c210.73,132.98 476.79,290.13 653.54,11.28 123.29,-194.51 -8.92,-383.02 -117.73,-617.85 -24.48,-52.82 -45.67,-88.49 -71.01,-141.25 -19.29,-40.19 -57.01,-122.63 -65.84,-160.55l2943.25 -0.02c135.95,-0.32 259.2,0.75 368.16,127.1 79.85,92.6 112.93,208.96 112.93,382.33l0 1995.18c0,235.73 -60.23,377.18 -216.39,462.82 -142.56,78.18 -424.09,46.59 -632.62,46.59l-2730.99 0c-257.58,-0.03 -401.85,13.72 -541.28,137.92 -337.12,300.28 -264.11,1149.74 371.48,1149.74l3325.3 0c384.26,0 797.57,-137.71 1071.24,-372.07l114.02 -98.24c279.99,-258.13 512.76,-742.64 512.76,-1142.81l0 -2363.08c0,-482.27 -245.28,-898.16 -583.46,-1199.47 -558.66,-497.75 -1106.78,-413.66 -1779.62,-413.66 -801.85,0 -1603.69,0 -2405.53,0 25.92,-54.04 49,-122.36 72.77,-181.93 131.84,-330.42 319.33,-587.74 115.26,-798.51 -222.21,-229.5 -429.91,-49 -584.29,60.63 -102.04,72.46 -209.17,139.89 -311.21,212.35 -102.94,73.11 -201.01,141.75 -308.69,214.86l-1233.78 860.46c-85.18,60.44 -226.35,140.57 -226.35,311.35z"/>
   <rect class="fil2" x="1630.9" y="8774.91" width="6599.62" height="1079.18"/>
   <rect class="fil2" x="1630.9" y="10294.91" width="6599.62" height="1079.18"/>
  </g>
 </g>
</svg>
