<?xml version="1.0" encoding="UTF-8"?>
<!DOCTYPE svg PUBLIC "-//W3C//DTD SVG 1.1//EN" "http://www.w3.org/Graphics/SVG/1.1/DTD/svg11.dtd">
<!-- Creator: CorelDRAW 2021.5 -->
<svg xmlns="http://www.w3.org/2000/svg" xml:space="preserve" width="130mm" height="130mm" version="1.1" style="shape-rendering:geometricPrecision; text-rendering:geometricPrecision; image-rendering:optimizeQuality; fill-rule:evenodd; clip-rule:evenodd"
viewBox="0 0 13000 13000"
 xmlns:xlink="http://www.w3.org/1999/xlink"
 xmlns:xodm="http://www.corel.com/coreldraw/odm/2003">
 <defs>
  <style type="text/css">
   <![CDATA[
    .fil1 {fill:#A979B3}
    .fil0 {fill:#A82682}
   ]]>
  </style>
 </defs>
 <g id="Layer_x0020_1">
  <metadata id="CorelCorpID_0Corel-Layer"/>
  <g id="_2488534412176">
   <path class="fil0" d="M5509.8 1593.23c-73.05,35.05 -209.55,59.95 -305.17,89.54 -101.66,31.47 -188.45,72.34 -283.73,110.97 -485.9,197.05 -1072.11,619.2 -1381.3,1036.29 -397.88,536.75 -615.03,939.21 -782.87,1610.05 -31.78,127.02 -44.77,185.87 -69.7,324.99 -146.25,816.22 -88.2,2685.76 -88.2,3538.18 0,131.55 -0.87,263.39 0.2,394.91 1.63,201.38 31.38,209.27 -79.12,315.59 -143.53,138.13 -266.74,264.23 -408.29,405.78 -141.71,141.71 -265.34,265.34 -407.04,407.05 -473.08,473.06 -388.55,208.13 -388.55,1066.94l10361.07 0c0,-888.38 142.65,-535.76 -783.25,-1461.65 -136.84,-136.83 -255.81,-260.98 -395.12,-394.3 -116.47,-111.46 -107.79,-75.77 -105.2,-289.51 6.2,-512.7 22.22,-3187.33 -30.59,-3595.77 -107.93,-834.6 -224.58,-1172.61 -568.8,-1824.11 -392.21,-742.33 -1184.79,-1373.25 -1986.95,-1639.43 -86.73,-28.77 -246.17,-58.24 -323.86,-95.52 0,-555.45 3.25,-942.47 -453.42,-1248.74 -135.2,-90.67 -292.08,-143.36 -451.6,-157.4l-173.33 0c-151.73,13.41 -299.6,62.32 -427.07,147.41 -468.27,312.59 -468.11,677.94 -468.11,1258.73z"/>
   <path class="fil1" d="M6397.89 12817.71c389.71,0 659.17,-54.17 957.12,-325.67l51.88 -46.8c218.26,-210.19 397.15,-533.34 397.15,-935l-2614.94 0c0,396.68 168.75,698.79 372.47,910.33l24.68 24.67c0.46,0.45 31.67,28.43 38.94,35.05 196.48,179.12 485.31,337.42 772.7,337.42z"/>
  </g>
 </g>
</svg>
