<svg width="32" height="32" xmlns="http://www.w3.org/2000/svg" version="1.1">
 <title>order</title>

 <g>
  <title>Layer 1</title>
  <path fill="#20cde8" id="svg_1" d="m9.019,7.669l0,1.121c-1.122,0 -1.795,0.225 -2.693,0.675c-0.673,0.448 -1.123,0.896 -1.572,1.795c-0.448,0.673 -0.673,1.346 -0.898,2.47c-0.223,1.121 -2.468,13.02 -2.468,13.916c0,2.245 1.795,3.593 4.039,3.593l21.1,0c1.122,0 2.245,-0.225 2.918,-0.898c1.346,-1.123 1.346,-2.695 0.898,-4.266l-0.673,-4.039c-0.45,-2.021 -0.898,-3.816 -1.123,-5.613c-0.448,-1.571 -0.673,-4.264 -1.346,-5.386c-0.898,-1.348 -2.47,-2.245 -4.489,-2.245c0,-2.245 0,-3.143 -1.346,-5.164l-0.673,-0.896c-0.225,-0.225 -0.225,-0.225 -0.45,-0.45c-2.02,-1.571 -4.938,-2.02 -7.407,-0.898c-2.02,1.123 -3.816,3.368 -3.816,6.286l0,0l-0.001,-0.001zm6.959,-4.937c2.693,0 4.714,2.02 4.714,4.713c0,0.45 0,0.898 0,1.348l-9.429,0c0,-0.45 0,-0.898 0,-1.348c0,-2.693 2.021,-4.713 4.714,-4.713l0,0l0.001,0zm-6.433,7.896c1.536,0 2.78,1.244 2.78,2.78c0,1.534 -1.244,2.78 -2.78,2.78c-1.534,0 -2.778,-1.246 -2.778,-2.78c0,-1.536 1.244,-2.78 2.778,-2.78zm12.908,0c1.534,0 2.778,1.244 2.778,2.78c0,1.534 -1.244,2.78 -2.778,2.78c-1.536,0 -2.78,-1.246 -2.78,-2.78c0,-1.536 1.244,-2.78 2.78,-2.78z"/>
 </g>
</svg>