<?xml version="1.0" encoding="UTF-8"?>
<!DOCTYPE svg PUBLIC "-//W3C//DTD SVG 1.1//EN" "http://www.w3.org/Graphics/SVG/1.1/DTD/svg11.dtd">
<!-- Creator: CorelDRAW X8 -->
<svg xmlns="http://www.w3.org/2000/svg" xml:space="preserve" width="130px" height="137px" version="1.1" style="shape-rendering:geometricPrecision; text-rendering:geometricPrecision; image-rendering:optimizeQuality; fill-rule:evenodd; clip-rule:evenodd"
viewBox="0 0 130 137"
 xmlns:xlink="http://www.w3.org/1999/xlink">
 <defs>
  <style type="text/css">
   <![CDATA[
    .fil2 {fill:#336666}
    .fil0 {fill:#999933}
    .fil1 {fill:#999966}
   ]]>
  </style>
 </defs>
 <g id="Layer_x0020_1">
  <metadata id="CorelCorpID_0Corel-Layer"/>
  <g id="_2062306148912">
   <path class="fil0" d="M61 53l0 11 -46 0c-3,0 -4,3 -4,6 0,3 0,10 1,12 2,3 7,3 7,-2l0 -8 42 0 0 9c0,4 8,4 8,0l0 -9 42 0c0,8 -2,12 4,12 3,0 4,-3 4,-5 0,-3 0,-11 -1,-13 0,-1 -1,-2 -3,-2l-46 0 0 -11c0,-5 -8,-5 -8,0z"/>
   <path class="fil1" d="M50 125c0,5 -1,12 3,12l24 0c4,0 3,-7 3,-12 0,-4 -1,-7 -5,-9 -6,-3 -8,1 -10,1 -2,0 -4,-4 -10,-1 -4,2 -5,5 -5,9zm15 -33c-1,0 -3,1 -4,1 -1,1 -2,2 -3,3 -7,6 -2,17 7,17 6,0 10,-4 10,-10 1,-4 -2,-8 -6,-10 -1,0 -3,-1 -4,-1z"/>
   <path class="fil1" d="M0 124c0,3 0,10 1,12 0,1 1,1 2,1l25 0c1,0 2,-1 2,-2l0 -12c0,-1 -1,-3 -1,-4 -2,-2 -6,-5 -9,-4 -2,1 -4,2 -5,2 -1,0 -3,-2 -4,-2 -3,-1 -11,2 -11,9zm5 -21c0,1 0,3 1,4 1,2 1,2 2,3l3 2c1,1 2,1 4,1 6,0 11,-5 11,-9 0,-4 -1,-6 -4,-9 -6,-6 -17,-1 -17,8z"/>
   <path class="fil1" d="M100 123l0 12c0,1 1,2 2,2l25 0c1,0 3,-1 3,-3 0,-8 1,-15 -5,-18 -6,-3 -7,1 -10,1 -1,0 -3,-1 -4,-2 -3,-1 -8,1 -9,4 -1,1 -2,3 -2,4zm4 -21c0,2 0,4 1,6 6,9 20,6 20,-5 0,-9 -11,-14 -17,-8 -2,2 -4,4 -4,7z"/>
   <path class="fil2" d="M65 21c3,0 5,-1 7,-3 0,0 0,0 0,0 7,-7 1,-18 -6,-18l0 0c-3,0 -6,0 -9,3 -3,4 -3,10 0,13l0 1c2,2 5,4 8,4zm-15 12c0,4 -1,12 3,12l24 0c4,0 3,-8 3,-12 0,-4 -1,-7 -5,-9 -1,-1 -4,-2 -5,-1 -1,0 -4,2 -5,2 -2,0 -4,-4 -10,-1 -2,1 -3,2 -4,3 -1,2 -1,4 -1,6z"/>
  </g>
 </g>
</svg>
