<svg clip-rule="evenodd" fill-rule="evenodd" height="125" image-rendering="optimizeQuality" shape-rendering="geometricPrecision" text-rendering="geometricPrecision" viewBox="0 0 131 125" width="130" xmlns="http://www.w3.org/2000/svg"><path d="m46 4c-4 0-3-3-10 3-7 4-11 13-11 20 0 5 0 7 1 12 1 2-1 6 2 11 1 1 1 1 3 2s2 0 2 2c3 3 5 7 8 10 1 1 1 1 1 3 0 3-10 5-12 6-5 1-21 6-24 9-5 5-6 7-6 14 0 2 1 8 1 12 1 1 2 1 5 3 4 2 9 3 14 5 6 2 18 4 25 5 12 1 20 1 32-2 0-2 0-1 0-1-3 0-1-6 1-6h1c0-7-5-17-5-24 0-3 3-4 5-4h25c-1-1-2-2-3-3-5-3-15-6-20-7-3-1-15-4-15-7 0-4 1-1 4-5 1-2 3-5 5-7 0-3 0-2 2-3 4-1 5-7 5-11 0-1-1 0 0-1 0-1 0-1 0-2 1-5 2-8 1-13 0-2-2-7-3-10-5-8-14-15-24-15-3 0-5 0-8 1-2 0-1 1-2 3zm-18 35c-1-1-1-2 0-3 12-3 18-9 21-17 9 7 19 10 31 10 1 2 0 5-1 10 0 8-2 12-6 11-5 12-12 17-20 17-9-2-15-8-19-17-4 0-6-4-6-11zm25 47c-7-11-10-17-10-17 1 0 1-2 1-3 6 4 12 5 19 1 0 1 0 2 1 3-7 11-11 16-11 16z" fill="#5e5971"/><path d="m78 89c0 1 3 15 3 19 1 2 2 3 4 3h24c3 0 3-2 4-4l3-15c0-2 1-5-1-5h-35c-2 0-2 1-2 2z" fill="#769897"/><path d="m115 114h-28-5s-1 0-1 1c0 1 1 2 1 2h5 1 28c1 0 7-25 7-27h6c1 0 2 0 2-1 0-1-1-1-1-1v-1h-1s-1 0-2 0c-2 0-4 0-6 0z" fill="#7688a1"/><g fill="#5e5971"><circle cx="87" cy="122" r="3"/><circle cx="107" cy="122" r="3"/></g></svg>