<?xml version="1.0" encoding="UTF-8"?>
<!DOCTYPE svg PUBLIC "-//W3C//DTD SVG 1.1//EN" "http://www.w3.org/Graphics/SVG/1.1/DTD/svg11.dtd">
<!-- Creator: CorelDRAW X8 -->
<svg xmlns="http://www.w3.org/2000/svg" xml:space="preserve" width="130px" height="130px" version="1.1" style="shape-rendering:geometricPrecision; text-rendering:geometricPrecision; image-rendering:optimizeQuality; fill-rule:evenodd; clip-rule:evenodd"
viewBox="0 0 130 130"
 xmlns:xlink="http://www.w3.org/1999/xlink">
 <defs>
  <style type="text/css">
   <![CDATA[
    .fil0 {fill:#00A0E3}
    .fil1 {fill:#05549C}
    .fil3 {fill:#57A7B3}
    .fil2 {fill:#61A375}
   ]]>
  </style>
 </defs>
 <g id="Layer_x0020_1">
  <metadata id="CorelCorpID_0Corel-Layer"/>
  <g id="_2062398378032">
   <path class="fil0" d="M12 20l0 88c0,6 4,11 9,12 3,0 54,0 60,0 0,-1 -6,-3 -11,-7 -1,-1 -2,-1 -3,-1l-41 0c-2,0 -6,1 -6,-4l0 -87c0,-1 1,-3 2,-3l42 0 0 14c0,2 2,5 4,7 0,1 4,3 7,3l13 0 0 16 4 0c3,0 3,0 3,-1l0 -21c0,-4 0,-7 -1,-10 -5,-8 -14,-16 -23,-16l-46 0c-8,0 -13,4 -13,10z"/>
   <path class="fil1" d="M67 89c0,5 1,9 1,11 3,7 8,11 13,14 6,2 12,2 17,1 2,0 3,-1 5,-1 12,-7 18,-21 13,-34 -1,-2 -1,-4 -2,-5l-3 -3c-4,-5 -11,-9 -17,-9 -9,0 -13,2 -19,7 -5,4 -8,12 -8,19l0 0zm25 18l0 -4c-2,0 -4,-1 -4,-1 -1,-1 -2,-2 -3,-2 -1,-2 -1,-4 -1,-6l3 0c1,2 1,3 1,4 1,2 2,2 4,2l0 -11c-2,0 -3,-1 -4,-2 -1,0 -2,0 -3,-2 0,-1 -1,-2 -1,-4 0,-2 1,-4 3,-6 1,-1 2,-1 5,-1l0 -2 2 0 0 2c2,0 3,0 5,1l2 5 -3 1c0,-1 -1,-2 -2,-3 0,-1 -1,-1 -2,-1l0 10c1,0 3,0 3,0 1,1 2,1 3,2 1,1 1,2 1,3 0,1 1,2 1,2 0,3 -1,5 -2,6 -2,2 -4,3 -6,3l0 4 -2 0zm0 -30c-1,0 -3,0 -4,1 0,1 0,2 0,3 0,1 0,2 0,3 1,1 2,2 4,2l0 -9zm2 23c1,0 2,0 3,-1 1,-1 2,-3 2,-5 0,0 -1,-1 -1,-2 -1,-1 -3,-2 -4,-2l0 10z"/>
   <path class="fil2" d="M28 32l0 23c0,1 2,3 4,3l17 0c3,0 4,-1 4,-4l0 -23c0,-1 -1,-3 -3,-3l-18 0c-2,0 -4,2 -4,4z"/>
   <g>
    <path class="fil3" d="M28 72c0,2 1,3 3,3l33 0c1,0 2,-2 3,-3 1,-1 1,-3 2,-4 -2,0 -37,0 -39,0 -1,0 -2,2 -2,4z"/>
    <path class="fil3" d="M28 100c0,3 1,4 4,4l31 0c2,0 0,-2 -2,-7 -1,0 -30,0 -32,0 -1,1 -1,2 -1,3l0 0z"/>
    <path class="fil3" d="M28 87c0,0 1,2 3,2l30 0c0,-4 1,-7 0,-7l-29 0c-3,0 -4,2 -4,5z"/>
   </g>
  </g>
 </g>
</svg>
