<?xml version="1.0" encoding="UTF-8"?>
<!DOCTYPE svg PUBLIC "-//W3C//DTD SVG 1.1//EN" "http://www.w3.org/Graphics/SVG/1.1/DTD/svg11.dtd">
<!-- Creator: CorelDRAW X8 -->
<svg xmlns="http://www.w3.org/2000/svg" xml:space="preserve" width="130px" height="130px" version="1.1" style="shape-rendering:geometricPrecision; text-rendering:geometricPrecision; image-rendering:optimizeQuality; fill-rule:evenodd; clip-rule:evenodd"
viewBox="0 0 130 130"
 xmlns:xlink="http://www.w3.org/1999/xlink">
 <defs>
  <style type="text/css">
   <![CDATA[
    .fil0 {fill:#CC6633}
    .fil1 {fill:#FF9933}
   ]]>
  </style>
 </defs>
 <g id="Layer_x0020_1">
  <metadata id="CorelCorpID_0Corel-Layer"/>
  <g id="_624399400">
   <path id="pricngconfig" class="fil0" d="M36 0c21,0 38,16 38,36 0,20 -17,36 -38,36 -19,0 -36,-16 -36,-36 0,-20 17,-36 36,-36zm-11 52l0 -33 11 0c3,0 5,0 6,0 1,2 2,2 4,3 1,0 2,1 2,2 1,2 1,3 1,5 0,3 0,5 -2,7 -3,2 -5,3 -9,3l-9 0 0 13 -4 0 0 0z"/>
   <path id="pricngconfig_0" class="fil0" d="M29 35l9 0c2,0 4,-1 5,-2 1,-1 1,-2 1,-4 0,-2 0,-3 0,-4 -1,0 -2,-1 -3,-1 0,-1 -2,-1 -3,-1l-9 0 0 12 0 0z"/>
   <path id="pricngconfig_1" class="fil1" d="M78 50c13,0 23,12 26,24 1,15 -10,27 -23,29 -15,1 -26,-9 -29,-23 -5,3 -12,4 -20,4 -1,3 -2,4 -5,5 0,0 -1,0 -2,1 0,0 2,6 4,8l2 6c1,1 1,1 1,2 1,0 1,-1 3,-1 4,-1 7,0 11,1 1,1 2,2 3,5 2,3 2,6 2,10 -1,1 -1,1 -1,2 4,4 10,6 16,7 0,0 0,-1 0,-2 1,-1 2,-4 4,-5 6,-4 14,-2 18,4 1,0 2,2 2,3 1,0 4,-1 5,-1 1,0 2,-1 3,-1 3,-1 6,-4 8,-5 0,-2 -1,-1 -1,-7 0,-4 3,-9 7,-11 4,-1 8,-1 11,1l2 -5c2,-2 5,-9 5,-12 -5,-1 -9,-6 -9,-11 0,-6 2,-10 6,-12 2,-1 2,-1 3,-2l-1 -5c0,-1 -1,-2 -1,-3 -1,-2 -3,-5 -4,-6 0,-1 0,-1 -1,-2 0,0 -1,1 -2,1 -9,2 -16,-5 -16,-13 0,-1 0,-2 0,-3 0,-1 1,-2 1,-3 -2,-1 -5,-3 -7,-4 -2,-1 -7,-3 -9,-3 0,1 0,2 -1,2 0,2 -1,4 -3,5 -2,1 -4,2 -5,3 0,0 0,1 0,2 0,5 -1,11 -3,15l0 0z"/>
  </g>
 </g>
</svg>
