<?xml version="1.0" encoding="UTF-8"?>
<!DOCTYPE svg PUBLIC "-//W3C//DTD SVG 1.1//EN" "http://www.w3.org/Graphics/SVG/1.1/DTD/svg11.dtd">
<!-- Creator: CorelDRAW X8 -->
<svg xmlns="http://www.w3.org/2000/svg" xml:space="preserve" width="130px" height="130px" version="1.1" style="shape-rendering:geometricPrecision; text-rendering:geometricPrecision; image-rendering:optimizeQuality; fill-rule:evenodd; clip-rule:evenodd"
viewBox="0 0 130 130"
 xmlns:xlink="http://www.w3.org/1999/xlink">
 <defs>
  <style type="text/css">
   <![CDATA[
    .fil0 {fill:#999933}
   ]]>
  </style>
 </defs>
 <g id="Layer_x0020_1">
  <metadata id="CorelCorpID_0Corel-Layer"/>
  <g id="_1800422326656">
   <path class="fil0" d="M48 29c-2,1 -6,2 -8,3 -3,2 -5,3 -7,5 -5,4 -7,6 -11,11 -24,33 1,78 43,79 48,0 72,-58 33,-90 -7,-5 -12,-6 -15,-8 2,-4 5,-9 7,-13 2,-3 7,-10 7,-13l-64 0c1,3 6,10 7,13 2,3 6,10 8,13zm14 17c-9,0 -19,6 -18,15 0,14 16,13 18,16l0 19c-6,0 -10,-2 -13,-5 -2,-2 -2,-2 -5,-2 -8,8 10,14 18,15 0,4 -1,5 3,7 4,-1 3,-4 3,-7 10,-2 20,-8 20,-17 0,-16 -18,-14 -20,-18l0 -16c9,1 15,11 17,4 3,-7 -10,-11 -17,-11 0,-4 0,-4 -1,-6 -5,-1 -5,1 -5,6z"/>
   <path class="fil0" d="M68 96c5,0 11,-3 11,-9 0,-6 -6,-8 -11,-9l0 18z"/>
   <path class="fil0" d="M62 68l0 -15c-5,0 -9,3 -9,7 -1,6 4,7 9,8z"/>
  </g>
 </g>
</svg>
