<?xml version="1.0" encoding="UTF-8"?>
<!DOCTYPE svg PUBLIC "-//W3C//DTD SVG 1.1//EN" "http://www.w3.org/Graphics/SVG/1.1/DTD/svg11.dtd">
<!-- Creator: CorelDRAW X8 -->
<svg xmlns="http://www.w3.org/2000/svg" xml:space="preserve" width="130px" height="130px" version="1.1" style="shape-rendering:geometricPrecision; text-rendering:geometricPrecision; image-rendering:optimizeQuality; fill-rule:evenodd; clip-rule:evenodd"
viewBox="0 0 130 130"
 xmlns:xlink="http://www.w3.org/1999/xlink">
 <defs>
  <style type="text/css">
   <![CDATA[
    .fil0 {fill:#663300}
    .fil1 {fill:#CC3366}
   ]]>
  </style>
 </defs>
 <g id="Layer_x0020_1">
  <metadata id="CorelCorpID_0Corel-Layer"/>
  <g id="_1658824927328">
   <path class="fil0" d="M27 64c0,25 25,47 54,35 8,-3 15,-11 19,-19 11,-28 -9,-54 -35,-54 -21,0 -38,17 -38,38zm37 -25c-3,1 -6,1 -10,3 -3,4 -3,8 -3,9 0,3 1,7 4,9 3,2 5,3 9,4l0 17c-5,0 -8,-3 -11,-6l-3 5c5,5 8,6 14,6l0 8 3 0 0 -8c4,0 7,-1 10,-4 2,-3 3,-6 3,-9 0,-3 -1,-6 -3,-8 -2,-3 -4,-4 -10,-6l0 -15c3,1 5,1 9,5l3 -5c-1,-1 -5,-4 -12,-5l0 -5 -3 0 0 5zm0 19c-4,-1 -8,-4 -8,-8 0,-4 4,-6 8,-6l0 14zm3 8c1,0 4,1 5,2 2,1 3,4 3,6 0,4 -4,7 -8,7l0 -15z"/>
   <path class="fil1" d="M93 29c0,8 14,-9 16,-10 0,21 2,47 -4,63 -3,7 -9,14 -15,18 -7,5 -15,7 -25,8l0 4c19,0 37,-11 44,-28 4,-11 4,-15 4,-30 0,-12 0,-23 0,-35 2,1 16,18 16,10 0,-2 -7,-8 -9,-9 -11,-11 -7,-11 -18,0 -2,1 -9,7 -9,9z"/>
   <path class="fil1" d="M17 111c-2,-1 -16,-18 -16,-10 0,2 16,18 18,18 2,0 8,-7 9,-9 1,0 14,-11 7,-11 -3,0 -11,10 -14,12 0,-34 -6,-65 19,-82 7,-5 16,-8 25,-8l0 -5c-12,0 -20,3 -29,10 -18,13 -19,29 -19,50 0,11 0,23 0,35z"/>
  </g>
 </g>
</svg>
