<?xml version="1.0" encoding="UTF-8"?>
<!DOCTYPE svg PUBLIC "-//W3C//DTD SVG 1.1//EN" "http://www.w3.org/Graphics/SVG/1.1/DTD/svg11.dtd">
<!-- Creator: CorelDRAW 2021.5 -->
<svg xmlns="http://www.w3.org/2000/svg" xml:space="preserve" width="130mm" height="130mm" version="1.1" style="shape-rendering:geometricPrecision; text-rendering:geometricPrecision; image-rendering:optimizeQuality; fill-rule:evenodd; clip-rule:evenodd"
viewBox="0 0 12994.8 12994.8"
 xmlns:xlink="http://www.w3.org/1999/xlink"
 xmlns:xodm="http://www.corel.com/coreldraw/odm/2003">
 <defs>
  <style type="text/css">
   <![CDATA[
    .fil0 {fill:#86776F}
    .fil1 {fill:#5E5971;fill-rule:nonzero}
   ]]>
  </style>
 </defs>
 <g id="Layer_x0020_1">
  <metadata id="CorelCorpID_0Corel-Layer"/>
  <g id="_1795531905632">
   <path class="fil0" d="M5911.26 3048.38c2134.86,-366.33 3736.9,1167.42 4021.27,2900.16 342.69,2088.16 -1158.32,3725.82 -2855.94,4009.03 -2180.67,363.81 -3801.75,-1153.43 -4074.34,-2911.65 -330.91,-2134.59 1151.14,-3695.88 2909.01,-3997.53zm-5911.26 3495.03l0 508.3c179.49,406.62 115.66,1058.57 412.87,1371.82 331.31,349.2 983.47,69.74 1488.75,12.93 186.22,485.36 471.59,766.69 649.51,1150.82 -645.24,1122.94 -1242.79,1133.09 64.64,2061.58 1327.17,942.5 1160.01,497.76 2019.49,-541.72l1234.51 365.28c10.4,4.41 29.2,13.19 43.29,20.76 235.8,1123.72 13.57,1157.07 655.88,1501.62l208.64 0c383.42,-181.72 1223.93,-113.43 1569.79,-372.94 455.69,-341.9 157.51,-952.44 87.29,-1550.53 468.02,-168.65 788.27,-444.01 1149.45,-656.1 184.04,142.91 868.97,648.6 1078.48,693.87 547.14,118.23 768.25,-421.33 985.15,-731.43 942.07,-1346.8 535.69,-1156.15 -536.08,-2026.01 227.94,-463.15 276.09,-1175 387.15,-1261.58 262.35,-88.39 614.83,-104.43 910.69,-165.91 417.59,-86.78 407.6,-175.43 585.3,-484.56l0 -309.27c-197.81,-408.87 -77.17,-1168.38 -385.74,-1528.98 -332.34,-388.38 -989.76,-116.1 -1524.66,-43.69 -132.92,-357.88 -450.94,-880.37 -662.41,-1130.32 139.84,-262.67 632.56,-827.45 696.77,-1090.92 128.58,-527.63 -451.39,-784.81 -740.3,-990.04 -1596.25,-1134 -1264.75,-108.43 -2055.26,508.75l-1254.37 -318.51c-148.2,-967.24 -83.79,-1180.38 -625.33,-1536.62l-342.31 0c-15.48,7.65 -35.42,15.78 -47.69,20.33l-389.62 95.87c-1511.01,255.12 -1350.86,263.96 -1117.27,1789.24 -202.86,111.61 -365.31,174.09 -592.22,315.48 -180.55,112.52 -385.55,259.47 -546.87,353.02 -557.58,-400.99 -1288.73,-1064.81 -1730.16,-435.1 -402.18,573.72 -1017.87,1216.98 -789.48,1703.51 123.25,262.55 670.94,534.51 961.51,778.02 -26.9,211.73 -124.83,417.45 -177.3,631.92 -219.01,895.23 2.71,600.02 -1088.48,818.48 -375.61,75.21 -435.43,205.42 -583.61,472.63z"/>
   <path class="fil1" d="M6368.1 4022.58l-1034.59 1481.39 -570.2 -1475.5 1604.79 -5.88zm-1716.52 99.93l558.44 1446.11 -1363.82 -5.88 805.37 -1440.23zm-775.94 1575.44l1387.32 5.87 1234.45 3268.39 -2621.77 -3274.27zm2621.78 3150.82l-1087.5 -3139.07 1016.95 5.87 70.54 3133.2zm-70.54 -3274.28l-975.8 -5.88 975.8 -1393.19 5.88 -5.88 -5.88 1146.28 0 258.68zm2721.72 -11.75l-1369.7 5.88 564.33 -1446.11 805.37 1440.23zm-917.03 -1534.28l-570.2 1475.49 -1034.58 -1481.38 1604.77 5.88zm-1669.48 1287.39l0 -1146.28 5.88 5.88 975.8 1393.21 -975.8 5.87 -5.88 -258.68zm5.88 399.73l1016.94 -5.87 -1087.49 3139.07 70.54 -3133.2zm-70.54 3256.64l1234.45 -3268.39 1387.32 -5.88 -2621.77 3274.28z"/>
  </g>
 </g>
</svg>
