<svg xmlns="http://www.w3.org/2000/svg" width="130" height="184" shape-rendering="geometricPrecision" text-rendering="geometricPrecision" image-rendering="optimizeQuality" fill-rule="evenodd" clip-rule="evenodd"><path d="M66 148c0 8 11 6 20 6 8 0 8-11 0-11-9 0-20-2-20 5zm-2-13h30c10 0 9-11 3-11H62c-7 0-8 11 2 11zm-12-25c0 3 2 6 5 6h49c7 0 7-12-2-12H59c-4 0-7 2-7 6zm5-19c0 3 2 6 5 6h34c7 0 7-12 0-12H62c-3 0-5 3-5 6zM42 44v32c-7 0-14 1-17 8-2 4-2 7-2 11H4v59h56c-2-4-1-8 0-12-8 0-13-9-11-17 1-2 1-2 2-3-11-6-7-22 0-23-1-2-5-10 1-16 1-1 1-1 1-3V56c0-5-4-10-7-12-3-1-4-2-4 0z" fill="#e5097f"/><path d="M91 81c0-1 1-2 1-2l11-27c0-1 1-3 1-4H79c0 1 0 1 1 2l2 6c2 6 4 11 6 17l2 6c1 0 1 1 1 2zm-4-2c-1-1-1-1-1-2L75 48H57l2 2 5 6c1 0 2 1 2 2l7 6c0 1 0 1 1 1 0 1 1 2 1 2l1 1 3 3c1 1 1 2 2 2l6 6zm9 0s1-1 2-1c0-1 1-2 2-2l3-4c3-3 5-6 8-8 2-2 5-6 7-8l6-6c0-1 1-1 1-2h-17c-1 2-5 14-6 16l-5 13c-1 1-1 2-1 2zm9-35h21l-4-4c-1-1-6-8-6-8-1 0-3 2-3 3 0 0-1 0-1 1l-7 8zm-24 0h19c-1-1-6-7-7-9l-1-1-2-2v1l-7 8c-1 1-2 2-2 3zm-24 0h19s-8-10-9-12c-1 0-2 3-3 3 0 1 0 1-1 2l-5 6-1 1zm46-3s2-2 2-3l1-1 2-2 3-4 1-1H93l5 5 2 3c1 1 2 3 3 3zm-25 0c1 0 1-1 1-1l2-2 6-7 1-1H70c1 2 3 3 4 5s3 4 4 6z" fill="#009846"/></svg>