<?xml version="1.0" encoding="UTF-8"?>
<!DOCTYPE svg PUBLIC "-//W3C//DTD SVG 1.1//EN" "http://www.w3.org/Graphics/SVG/1.1/DTD/svg11.dtd">
<!-- Creator: CorelDRAW 2021.5 -->
<svg xmlns="http://www.w3.org/2000/svg" xml:space="preserve" width="130mm" height="134.679mm" version="1.1" style="shape-rendering:geometricPrecision; text-rendering:geometricPrecision; image-rendering:optimizeQuality; fill-rule:evenodd; clip-rule:evenodd"
viewBox="0 0 12994.66 13462.37"
 xmlns:xlink="http://www.w3.org/1999/xlink"
 xmlns:xodm="http://www.corel.com/coreldraw/odm/2003">
 <defs>
  <style type="text/css">
   <![CDATA[
    .fil0 {fill:#E31E24}
   ]]>
  </style>
 </defs>
 <g id="Layer_x0020_1">
  <metadata id="CorelCorpID_0Corel-Layer"/>
  <path class="fil0" d="M2287.39 3712.37l1121.19 1032.5 -945.66 1477.74c74.38,111.08 155.36,170.94 240.16,262.63l2064.6 2216.89c50.23,49.98 70.27,86.78 121.52,137.47 197.03,194.8 433.06,477.23 609.29,655.36 45.55,46.01 86.38,81.85 130,129 28.7,31.02 28.21,37.41 53.83,68.09l681.16 720.6 361.81 -384.78c178.77,-176.71 310.77,-342.88 487.77,-517.86l365.52 -396.3c89.8,-89.26 154.35,-169.85 243.8,-258.98 10.47,-10.43 19.51,-19.64 27.65,-28.16 40.81,37.89 81.9,75.84 123.59,113.57l1391.99 1308.67c170,183.36 309.86,231.34 490.39,451.45l-296.1 285.6c-891.33,671.24 -1959.85,1060.04 -3113.31,1047.02 -1561.84,-17.56 -2507.14,-643.17 -3383.39,-1362.18 -822.61,-675.01 -1473.96,-2041.08 -1642.55,-3161.17 -218.06,-1448.57 219.46,-2861.71 866.73,-3797.16zm6675.19 3922.68l1301.45 -1412.44 -956.97 -1496.11c-32.71,-50.99 -53.41,-88.4 -88.23,-140.33 -33.44,-49.85 -53.83,-81.38 -83.01,-130.3 -37.77,-63.27 -230.39,-396.86 -288.78,-396.86l-3739.75 0 -1673.66 -1550.61c710.02,-725.87 2267.77,-1131.26 3368.84,-1063.59 915.83,56.26 1778.38,362.1 2503.53,858.19 1973.72,1350.14 2858.03,3897.91 1977.37,6344.23 -103.67,287.94 -264.37,536.52 -351.21,782.47l-954.81 -865.38c-237.73,-240.6 -620.65,-578.6 -1014.76,-929.26zm-3334.62 -7559.73c-1630.13,250.81 -2273.64,705.89 -3353.46,1556.23 -183.35,144.44 -232.54,233.85 -418.63,392.81 -507.4,433.39 -1268.51,1746.17 -1536.14,2623.72 -1494.83,4901.18 2484.73,9432.74 7093.55,8744.82 3256.21,-486 6023.59,-3582.14 5522.42,-7564.05 -198.48,-1576.89 -868.1,-2822.03 -1882.59,-3866.99 -1294.26,-1333.15 -3157.9,-2235.34 -5425.15,-1886.55z"/>
 </g>
</svg>
