<?xml version="1.0" encoding="UTF-8"?>
<!DOCTYPE svg PUBLIC "-//W3C//DTD SVG 1.1//EN" "http://www.w3.org/Graphics/SVG/1.1/DTD/svg11.dtd">
<!-- Creator: CorelDRAW X8 -->
<svg xmlns="http://www.w3.org/2000/svg" xml:space="preserve" width="130px" height="168px" version="1.1" style="shape-rendering:geometricPrecision; text-rendering:geometricPrecision; image-rendering:optimizeQuality; fill-rule:evenodd; clip-rule:evenodd"
viewBox="0 0 130 168"
 xmlns:xlink="http://www.w3.org/1999/xlink">
 <defs>
  <style type="text/css">
   <![CDATA[
    .fil1 {fill:#CCCC33}
    .fil0 {fill:#669933}
   ]]>
  </style>
 </defs>
 <g id="Layer_x0020_1">
  <metadata id="CorelCorpID_0Corel-Layer"/>
  <g id="_593488912">
   <g>
    <path class="fil0" d="M50 68c0,0 1,-1 1,-2l12 -33c0,-2 2,-6 2,-7l-30 0c0,1 0,2 1,3l11 31c0,1 3,8 3,8z"/>
    <path class="fil0" d="M47 67c0,-1 0,-2 0,-2 -2,-4 -3,-9 -5,-12l-5 -14c0,-2 -1,-5 -2,-7l-2 -5c0,-1 0,-1 -1,-1 -7,0 -13,0 -19,0 0,1 0,1 1,1l20 24c1,1 1,1 1,2 1,0 0,0 1,0l2 3c0,0 0,0 1,0l5 7c1,1 1,1 1,1 1,1 2,2 2,3z"/>
    <path class="fil0" d="M53 67c0,-1 1,-2 2,-3 1,-1 4,-5 5,-6 1,-1 1,-1 1,-1 1,-1 1,-1 1,-2l4 -4c2,-2 5,-6 8,-9l11 -13c0,-1 1,-1 1,-2 1,0 1,0 1,-1 -6,0 -12,0 -19,0 -1,0 -1,0 -1,1l-14 40z"/>
    <path class="fil0" d="M36 24l28 0c-1,-1 -2,-2 -2,-2l-12 -12 -11 11c-1,1 -3,2 -3,3z"/>
    <path class="fil0" d="M67 24c1,-3 3,-5 4,-7l4 -5c0,-1 0,-1 1,-2l-24 0 10 9c1,1 3,4 5,5z"/>
    <path class="fil0" d="M34 24c1,-2 3,-4 4,-5l10 -9 -24 0 5 7c0,0 4,6 5,7z"/>
    <path class="fil0" d="M13 24l18 0c0,-1 -1,-3 -2,-3l-2 -4c-1,-1 -1,-2 -2,-3l-3 -3 -8 11c-1,1 -1,2 -1,2z"/>
    <path class="fil0" d="M68 24l19 0 -9 -13 -3 3c-1,1 -1,2 -2,3 -1,2 -4,7 -5,7z"/>
   </g>
   <path class="fil1" d="M65 65c0,7 1,10 4,16 0,0 2,3 2,3 0,1 -8,7 -9,8 -1,-1 -26,-26 -27,-27 -1,-1 -2,-2 -3,-4 -1,0 -1,0 -1,-1 0,-1 0,-3 0,-4 0,-1 0,-2 0,-2 0,-1 0,-2 0,-3 -1,0 -1,0 -2,-1 -3,-2 -8,-5 -12,-7 0,0 -4,-2 -4,-3l-9 9 0 0c0,2 5,9 5,9 1,2 2,3 3,5 0,1 3,4 3,4 3,0 6,0 9,0 1,0 1,1 2,2 2,2 28,28 29,29 0,0 -1,0 -1,1l-2 1c0,0 0,0 0,0l-5 5c0,0 -1,0 -1,1l-15 12c-3,3 -6,5 -9,8 -1,0 -1,0 -1,1 -1,0 -1,0 -1,0l-6 5c-1,1 -5,4 -6,5 -2,3 -2,8 0,11 0,1 1,1 1,2 1,1 2,1 2,2 1,0 1,1 1,1l1 1c4,3 10,2 13,-1l2 -3c1,0 1,0 1,0l1 -2c1,0 1,0 1,-1 3,-2 5,-5 7,-7l5 -6c0,0 1,0 1,0l3 -4c0,-1 1,-1 1,-1 1,-1 2,-3 3,-4l7 -7c0,-1 2,-2 2,-3 2,-1 5,-4 6,-6l8 8c0,1 -2,2 -2,3l-2 1c0,1 0,2 0,3 0,2 2,4 3,5l3 3c1,1 1,1 1,2l11 10c0,1 1,2 2,2l8 9c2,1 3,3 6,3 2,0 4,-2 5,-3l9 -9c1,-2 4,-3 4,-6 0,-3 -2,-4 -4,-5 0,-1 -1,-2 -2,-2l-2 -2c-3,-3 -5,-6 -8,-9l-15 -15c-1,-1 -2,-1 -4,-1 -2,0 -5,4 -6,5l-9 -9c1,0 1,0 1,-1l2 -2c1,-1 5,-5 6,-6l3 2c8,3 17,3 24,0 3,-2 5,-3 7,-5 3,-2 5,-5 7,-8 1,-1 2,-3 2,-5 1,-1 1,-2 1,-3 1,-2 1,-4 1,-7l0 -1c0,-3 0,-6 -1,-9 0,0 0,-1 -1,-1 0,0 0,-1 0,-1 -1,0 -4,4 -5,5 0,0 -1,0 -1,1l-14 13 -16 -16c1,-1 6,-7 8,-8 0,0 0,-1 0,-1 2,-2 7,-7 8,-8 1,0 3,-2 3,-3 -3,-2 -8,-2 -12,-2 -8,0 -15,3 -21,9 0,0 0,0 -1,0 -2,3 -4,5 -5,8 -1,3 -3,8 -3,12z"/>
  </g>
 </g>
</svg>
