<svg clip-rule="evenodd" fill-rule="evenodd" height="134" image-rendering="optimizeQuality" shape-rendering="geometricPrecision" text-rendering="geometricPrecision" viewBox="0 0 130 134" width="130" xmlns="http://www.w3.org/2000/svg"><path d="m0 0v112c0 12 10 22 22 22h74 12c12 0 22-10 22-22v-43h-27v-69zm21 75h60c2 0 4 2 4 4 0 3-2 4-4 4h-60c-2 0-4-1-4-4 0-2 2-4 4-4zm0 16h28c2 0 4 2 4 4s-2 4-4 4h-28c-2 0-4-2-4-4s2-4 4-4zm44 19h18c3 0 5 2 5 4s-2 4-5 4h-18c-3 0-5-2-5-4s2-4 5-4zm-45-1h28c2 0 4 2 4 5 0 2-2 4-4 4h-28c-2 0-4-2-4-4 0-3 2-5 4-5zm44-18h19c2 0 4 2 4 5 0 2-2 4-4 4h-19c-2 0-4-2-4-4 0-3 2-5 4-5zm-11-29h-36v-44h36zm8-4c0-2 2-4 4-4h18c3 0 5 2 5 4 0 3-2 4-5 4h-18c-2 0-4-1-4-4zm4-13c-3 0-5-2-5-4 0-3 2-5 5-5h18c2 0 4 2 4 5 0 2-2 4-4 4zm-1-18c-2 0-4-2-4-4 0-3 2-4 4-4h18c3 0 4 1 4 4 0 2-1 4-4 4zm39 94v-43h18v38c0 5-4 9-9 9h-1c-3 0-6-2-8-4z" fill="#f06277"/><path d="m26 27v27h18v-27z" fill="#a53692"/></svg>