<?xml version="1.0" encoding="UTF-8"?>
<!DOCTYPE svg PUBLIC "-//W3C//DTD SVG 1.1//EN" "http://www.w3.org/Graphics/SVG/1.1/DTD/svg11.dtd">
<!-- Creator: CorelDRAW X8 -->
<svg xmlns="http://www.w3.org/2000/svg" xml:space="preserve" width="130mm" height="130mm" version="1.1" style="shape-rendering:geometricPrecision; text-rendering:geometricPrecision; image-rendering:optimizeQuality; fill-rule:evenodd; clip-rule:evenodd"
viewBox="0 0 13000 13000"
 xmlns:xlink="http://www.w3.org/1999/xlink">
 <defs>
  <style type="text/css">
   <![CDATA[
    .fil1 {fill:#003399}
    .fil0 {fill:#33CC99}
   ]]>
  </style>
 </defs>
 <g id="Layer_x0020_1">
  <metadata id="CorelCorpID_0Corel-Layer"/>
  <g id="_1568165651584">
   <path class="fil0" d="M6016 7951l0 4037c0,121 25,183 62,277 83,215 332,424 615,424l5367 0c297,0 629,-332 629,-629l0 -5391c0,-206 -111,-339 -223,-453 -124,-125 -280,-200 -478,-200l-4037 0c-310,0 -438,208 -599,369l-967 967c-161,161 -369,289 -369,599zm1705 -232c-99,426 -42,2557 -42,3154 0,99 69,168 168,168l3028 0c98,0 168,-69 168,-168l0 -3028c0,-98 -70,-168 -168,-168 -445,0 -2922,-48 -3154,42z"/>
   <path class="fil1" d="M311 5291c0,1008 78,1681 515,2555 153,304 290,534 487,795l508 604c150,161 585,507 793,657 125,90 254,157 391,238 691,413 1720,663 2552,663l0 -991c-1202,0 -2231,-463 -3064,-1287l-241 -267c-42,-50 -73,-97 -114,-152l-309 -465c-329,-546 -551,-1344 -551,-2084 0,-3439 3976,-5642 6953,-3326 664,516 1215,1371 1436,2214 122,464 145,623 145,1112l991 0c0,-364 -55,-805 -131,-1150 -118,-538 -348,-1125 -637,-1587l-402 -565c-106,-135 -203,-221 -310,-343 -366,-418 -994,-844 -1477,-1086 -610,-305 -1350,-483 -2095,-515l-492 0c-533,23 -1056,123 -1522,307 -537,211 -574,245 -1032,516l-1010 851c-790,797 -1384,2193 -1384,3306zm1426 49c0,605 -21,617 135,1242 107,429 341,885 604,1234 185,245 441,528 687,715 648,492 1353,802 2177,821 119,3 111,23 217,25l0 -991c-480,0 -858,-90 -1225,-274 -160,-81 -289,-148 -426,-251l-542 -498c-160,-188 -292,-409 -402,-637 -427,-881 -303,-2025 260,-2803 116,-160 186,-242 322,-379 134,-133 213,-199 365,-312 125,-91 296,-197 440,-261 1024,-458 2132,-321 3001,382l269 263c250,299 274,282 493,716 184,367 274,745 274,1225l991 0 -96 -823c-63,-259 -128,-467 -221,-697 -152,-371 -369,-694 -632,-989 -438,-492 -870,-810 -1482,-1055 -942,-377 -2130,-349 -3033,107 -299,151 -561,287 -828,526 -45,40 -64,69 -111,106 -359,288 -661,757 -866,1165 -105,210 -186,411 -245,650 -58,234 -126,510 -126,793zm1427 72c0,634 86,1040 445,1537 69,96 201,255 280,324 357,311 650,502 1131,611 156,35 378,30 537,67l0 -992c-1259,0 -1890,-1496 -1022,-2400 532,-554 1449,-561 1984,-36 255,251 440,581 440,1034l992 0c-84,-359 36,-352 -204,-957 -148,-375 -463,-745 -784,-981 -700,-513 -1649,-608 -2437,-230 -424,204 -791,520 -1032,927 -47,80 -57,107 -97,193 -131,282 -233,573 -233,903z"/>
  </g>
 </g>
</svg>
