<?xml version="1.0" encoding="UTF-8"?>
<!DOCTYPE svg PUBLIC "-//W3C//DTD SVG 1.1//EN" "http://www.w3.org/Graphics/SVG/1.1/DTD/svg11.dtd">
<!-- Creator: CorelDRAW 2021.5 -->
<svg xmlns="http://www.w3.org/2000/svg" xml:space="preserve" width="130mm" height="130mm" version="1.1" style="shape-rendering:geometricPrecision; text-rendering:geometricPrecision; image-rendering:optimizeQuality; fill-rule:evenodd; clip-rule:evenodd"
viewBox="0 0 13000 13000"
 xmlns:xlink="http://www.w3.org/1999/xlink"
 xmlns:xodm="http://www.corel.com/coreldraw/odm/2003">
 <defs>
  <style type="text/css">
   <![CDATA[
    .fil1 {fill:#EF7F1A}
    .fil0 {fill:#7E71B1}
   ]]>
  </style>
 </defs>
 <g id="Layer_x0020_1">
  <metadata id="CorelCorpID_0Corel-Layer"/>
  <g id="_2263034281632">
   <path class="fil0" d="M10596.48 5721.88c-30.19,34.58 -31.75,31.33 -72.68,55.54l-228.79 136.95c-104.17,65.77 -211.5,126.2 -315.84,187.26 -209.44,122.54 -414.75,244.73 -622.28,368.76l-1085.38 637.63c-86.57,50.49 -79.12,59.53 -174,9.52 -633.93,-334.27 -1325.31,-670.91 -1970.91,-1002.51 -255.79,-131.4 -740.89,-383.89 -1004.62,-489.41 -169.6,-67.86 -252.88,-4.09 -393.54,58.63 -227.02,101.2 -449.13,203.96 -671.4,319.72 -434.91,226.51 -892.16,420.97 -1326.9,655.25 -431.44,232.51 -889.8,442.12 -1320.97,661.08l-815.1 419.97c-77.06,42.39 -88.41,51.17 -130.62,128.52 -73.73,135.19 -67.72,251.59 12.69,374.42 48.45,74.03 173.88,182.63 309.93,179.91 68.59,-1.36 294.39,-115.11 360.28,-145.24 619.79,-283.49 1384.2,-671.75 1995.67,-978.09l1647.27 -823.01c202.95,-100.66 143.02,-116.7 346.91,-11.94l1324.57 673.16c321.49,158.42 1391.51,726.4 1644.89,824.69 138.22,53.61 277.12,-44.55 372.12,-99.5l1873.77 -1099.68c198.34,-117.24 428.61,-267.8 631.69,-364.18 71.26,81.8 144.6,216.55 207.14,323.97 267.46,459.55 351.23,270.89 725.61,-377.25l578.66 -1022.5c103.84,-187.13 132.06,-195.13 0.24,-358.46 -431.69,-16.1 -1538.96,-27.61 -1996.25,-4.58 -148.21,7.47 -223.45,55.93 -177.87,221.8 43.65,158.86 239.88,425.59 275.71,539.57zm-315.67 1738.2c0,1434.51 -12.62,3073.55 5.64,4543.75 1.96,157.42 -27.04,534.99 112.64,567.13 45.04,10.38 1774.78,20.42 1966.9,-1.6 243.06,-27.87 207.29,-118.9 212.25,-367.32 23.54,-1178.41 14,-2537.99 11.4,-3720.39 -0.7,-285.43 17.75,-810.45 -32.62,-1067.67 -30.67,-156.67 -134.98,-120.76 -426.4,-124.93l-1677.23 -4.44c-75.64,0 -172.58,98.81 -172.58,175.47zm-3285.75 1540.97c-21.17,484.35 -6.18,1004.87 -8.45,1493.27 -2.31,498.09 -3.21,996.16 -4.01,1494.26 -0.37,232.13 -39.37,408.06 55.79,503.08 29.05,29 67.71,80.75 108.42,91.38 58.38,15.25 1599.62,-8.81 1858.11,-9.27 139.1,-0.26 224.33,22.36 260.29,-114.99 56.18,-214.49 24.61,-1173.62 24.93,-1461.29l0.78 -1860.7c0.82,-77.28 12.49,-189.76 -160.19,-214.98 -135.8,-19.85 -1840.13,-33.34 -2011.78,6.07 -61.98,14.23 -85.42,48.76 -123.89,73.17zm-3289 1600c0.55,508.69 -7.05,1184.8 9.96,1662.25 14.12,396.85 95.63,308.42 470.67,311.35l1616.23 11.83c78.59,0 81.31,-21 127,-59.33 34.2,-28.7 72.94,-49.39 72.94,-111.65l0 -4299.78c0,-86.14 -116.24,-171.9 -199.94,-171.9l-1921.17 0c-70.65,0 -76.19,24.48 -111.51,60.62 -38.67,39.56 -61.11,40.84 -65.34,111.33l0.93 1067.27c0,472.67 -0.24,945.35 0.23,1418.01zm-2958.16 -1147.3c-318.79,10.85 -319.64,27.13 -333.55,354.7 -14.43,339.81 -27.37,2542.19 23.55,2665.75 58.04,140.87 406.36,106.4 577.33,106.77 457.58,0.99 914.76,-5.77 1372.27,-7.23 116.51,-0.37 216.28,26.3 273.35,-51.99 78.75,-108.06 53.69,-824.41 53.86,-975.35 0.51,-452.47 0.56,-904.55 -2.71,-1357.03 -5.56,-767.98 115.37,-743.12 -614.2,-746.08 -448.51,-1.82 -902.85,-4.73 -1349.9,10.46z"/>
   <path class="fil1" d="M6319.61 889.9c-746.02,67.18 -1334.6,550.15 -1386.27,1294.26 -66.48,957.44 678.11,1064.25 1384.98,1300.46l1.14 1306.98c-361.02,-80.73 -490.9,-573.76 -599.87,-785.63 -74.09,-144.07 -196.58,-295.03 -431.67,-248.53 -585.8,115.84 -471.48,1161.56 484.25,1583.03 195.6,86.25 331.94,99.55 548.25,152.63 0.42,149.42 -49.79,453.54 170.68,465.79 80.25,4.46 161.81,-68.47 176.35,-133.99 16.42,-73.99 7.81,-244.76 8.21,-328.55 402.14,-90.77 577.24,-104.64 932.45,-393.65 253.58,-206.32 427.62,-534.23 444.33,-890.23 32.81,-698.72 -270.45,-940.09 -861.36,-1143.54 -109.03,-37.55 -429.55,-123.64 -499.81,-167.84 -3.39,-229.34 -27.23,-946.01 -9.24,-1175.07 13.03,-166.17 65.19,-134.58 230.79,3.93 304.01,254.26 289.97,1015.28 804.75,889.6 154.29,-37.68 295.19,-201.7 319.64,-362.46 59.45,-390.75 -155.76,-725.11 -404.36,-957.46 -295.77,-276.46 -600.88,-322.87 -955.29,-415.25 -7.79,-143.32 51,-461.15 -174.39,-467.64 -78.76,-2.27 -162.19,72.68 -175.57,140.64 -16.16,82.17 -5.72,241.1 -7.99,332.52zm355.82 3413.95c-0.22,111.07 -18,436.45 37,478.57 95.49,34.76 304.67,-134.26 347.12,-182.41 79.7,-90.37 156.7,-234.58 164.88,-402.42 8.99,-184.5 -79.72,-323.55 -173.44,-394.9 -73.86,-56.22 -260.61,-172.08 -375.53,-187.72l-0.03 688.88zm-366.77 -1539.86l1.47 -1194.71c-493.16,43.64 -736.21,722.13 -376.41,1002.71 77.81,60.69 256.45,171.38 374.94,192z"/>
  </g>
 </g>
</svg>
