<?xml version="1.0" encoding="UTF-8"?>
<!DOCTYPE svg PUBLIC "-//W3C//DTD SVG 1.1//EN" "http://www.w3.org/Graphics/SVG/1.1/DTD/svg11.dtd">
<!-- Creator: CorelDRAW X8 -->
<svg xmlns="http://www.w3.org/2000/svg" xml:space="preserve" width="130px" height="130px" version="1.1" style="shape-rendering:geometricPrecision; text-rendering:geometricPrecision; image-rendering:optimizeQuality; fill-rule:evenodd; clip-rule:evenodd"
viewBox="0 0 130 130"
 xmlns:xlink="http://www.w3.org/1999/xlink">
 <defs>
  <style type="text/css">
   <![CDATA[
    .fil0 {fill:#00A0F0}
    .fil2 {fill:#323232}
    .fil1 {fill:#FEFEFE}
   ]]>
  </style>
 </defs>
 <g id="Layer_x0020_1">
  <metadata id="CorelCorpID_0Corel-Layer"/>
  <g id="_2979443346320">
   <path class="fil0" d="M62 43c-13,2 -21,13 -19,25 2,12 12,21 25,19 11,-2 21,-12 19,-25 -2,-13 -13,-21 -25,-19zm2 19l0 -7c-4,1 -4,6 0,7zm2 13c2,0 4,-2 4,-4 0,-2 -2,-3 -4,-4l0 8z"/>
   <path class="fil1" d="M64 51c-10,2 -9,11 -5,13 1,2 3,2 5,3l0 8c-2,-1 -3,-2 -4,-4 -1,-5 -8,-1 -2,5 1,2 3,2 6,3 0,1 -1,3 1,3 2,0 1,-2 1,-3 10,-1 10,-10 6,-14 -2,-2 -4,-2 -6,-3l0 -7c2,1 2,2 3,4 2,3 8,0 2,-6 -1,-1 -3,-1 -5,-2 0,-1 1,-3 -1,-3 -2,0 -1,2 -1,3z"/>
   <path class="fil0" d="M17 30c-5,1 -8,5 -7,10 0,4 5,8 10,7 4,-1 8,-5 7,-10 -1,-5 -5,-8 -10,-7zm0 53c-12,2 -8,20 3,17 4,-1 8,-5 7,-10 -1,-4 -5,-8 -10,-7zm46 27c-4,1 -8,5 -7,11 1,4 5,8 11,7 4,-1 8,-5 7,-11 -1,-4 -5,-8 -11,-7zm47 -27c-12,3 -8,20 4,17 4,-1 7,-5 6,-10 0,-4 -5,-8 -10,-7zm0 -53c-4,1 -8,5 -7,10 1,4 5,8 11,7 4,-1 8,-5 6,-10 0,-5 -5,-8 -10,-7zm-47 -28c-11,3 -8,20 4,18 11,-3 8,-20 -4,-18z"/>
   <path class="fil2" d="M27 30c1,0 2,1 2,3 1,0 24,-14 26,-15 -1,-1 -1,-2 -2,-3 -1,0 -26,14 -26,15zm48 82c1,1 1,2 2,3 2,-1 4,-2 6,-3 3,-1 5,-3 7,-4 2,-1 12,-7 13,-8 -1,-1 -1,-1 -2,-3 -2,1 -5,3 -7,4 -2,1 -4,2 -6,4l-13 7zm-48 -12l26 16c1,-2 1,-3 2,-4 -1,0 -22,-13 -26,-15 0,0 0,0 0,1l-2 2zm48 -82c1,1 5,3 7,4 2,1 4,2 6,4 4,2 8,5 13,7 0,-1 0,-1 1,-2 0,0 1,-1 1,-1l-26 -16c-1,2 -1,3 -2,4zm36 33c0,3 -1,26 0,28l4 0 0 -28 -4 0zm-96 28l4 0 0 -28 -4 -1 0 29zm48 28l4 0 0 -16 -4 0 0 16zm-35 -61c2,1 12,7 14,8 0,-2 1,-2 2,-4 -3,-1 -11,-6 -14,-8 0,0 -2,4 -2,4zm35 -7l4 0 0 -16 -4 0 0 16zm23 11c1,1 2,2 2,4 1,0 13,-7 14,-8 -1,-1 -2,-2 -2,-4l-14 8zm-58 34c1,1 2,2 2,4l14 -8c-1,-1 -2,-3 -2,-4 -1,1 -2,1 -4,2l-10 6zm58 -4l14 8c0,-1 2,-4 2,-4 -1,-1 -11,-7 -13,-8l-3 4z"/>
   <path class="fil0" d="M66 75c2,0 4,-2 4,-4 0,-2 -2,-3 -4,-4l0 8z"/>
   <path class="fil0" d="M64 62l0 -7c-4,1 -4,6 0,7z"/>
  </g>
 </g>
</svg>
