<svg xmlns="http://www.w3.org/2000/svg" width="130" height="132" shape-rendering="geometricPrecision" text-rendering="geometricPrecision" image-rendering="optimizeQuality" fill-rule="evenodd" clip-rule="evenodd"><path d="M8 0h89c4 0 8 4 8 8v55c-4-3-8-4-12-4V14H13h-1v89h50c3 6 8 11 14 14H8c-4 0-8-3-8-8V8c0-4 4-8 8-8zm19 32h51v10H27V32zm0 22h51v7c-2 1-4 2-5 3H27V54zm0 21h36c-2 3-3 7-4 10H27V75z" fill="#366"/><path d="M68 90c0 11 5 20 14 25 6 3 12 3 19 2 1-1 2-1 4-2l8 9c5 4 5 8 11 8 3 0 6-3 6-6 0-4 0-4-3-6-3-4-10-9-12-13 8-12 6-27-5-36-9-9-25-8-34 1-5 5-8 11-8 18zm26-17c10 0 17 8 17 18s-7 18-17 18-18-8-18-18 8-18 18-18z" fill="#3c6"/></svg>