<?xml version="1.0" encoding="UTF-8"?>
<!DOCTYPE svg PUBLIC "-//W3C//DTD SVG 1.1//EN" "http://www.w3.org/Graphics/SVG/1.1/DTD/svg11.dtd">
<!-- Creator: CorelDRAW X8 -->
<svg xmlns="http://www.w3.org/2000/svg" xml:space="preserve" width="130px" height="153px" version="1.1" style="shape-rendering:geometricPrecision; text-rendering:geometricPrecision; image-rendering:optimizeQuality; fill-rule:evenodd; clip-rule:evenodd"
viewBox="0 0 130 153"
 xmlns:xlink="http://www.w3.org/1999/xlink">
 <defs>
  <style type="text/css">
   <![CDATA[
    .fil0 {fill:#003399}
    .fil1 {fill:#663300}
    .fil2 {fill:white}
   ]]>
  </style>
 </defs>
 <g id="Layer_x0020_1">
  <metadata id="CorelCorpID_0Corel-Layer"/>
  <path class="fil0" d="M35 6l3 15c-1,0 -2,1 -3,2 -1,0 -2,1 -3,2 -4,-2 -9,-6 -12,-7 -3,2 -12,12 -13,17 1,1 9,9 10,9l-2 8 -14 1c-1,7 -2,15 0,22l14 1 2 8c-2,3 -9,8 -10,9 2,5 9,15 13,18 9,-5 8,-7 22,-13 2,0 4,-1 5,-3 4,-8 -1,-9 -3,-11 -1,-2 -2,-5 -2,-6 -2,-6 -4,-8 -4,-15 1,-26 35,-36 50,-13 5,8 5,18 1,27 -2,4 -2,6 -5,9 -2,1 -1,0 -2,2 -1,4 -1,3 1,7 1,2 2,2 5,3 4,2 8,3 12,6 3,1 7,6 11,7 3,-3 11,-13 12,-18 -1,-2 -9,-7 -10,-9l2 -8 14 -1c1,-7 1,-14 0,-21l-14 -2 -2 -8c1,0 7,-7 10,-8 0,-4 -10,-17 -12,-18 -4,1 -10,6 -13,7 0,0 -5,-4 -6,-5l3 -13c-3,-2 -16,-7 -20,-7l-6 13 -8 0c-2,-4 -3,-10 -6,-13 -3,0 -7,2 -10,3 -7,2 -6,2 -10,3z"/>
  <path class="fil1" d="M46 70c-2,1 -4,2 -2,7 1,1 1,2 1,4 2,4 3,1 4,4 1,0 1,1 1,2 2,4 2,4 0,8 -1,2 -1,3 -2,3 -6,5 -19,6 -26,18 -3,5 -2,11 -2,18 0,4 0,7 2,9 8,7 31,11 43,10 13,0 26,-2 36,-7 5,-2 9,-4 10,-11 0,-13 0,-22 -14,-30 -2,-1 -5,-2 -7,-3 -2,-1 -6,-2 -8,-3 -1,-1 -3,-7 -3,-8 -1,-2 1,-3 1,-6 1,-1 1,-1 2,-1 3,-2 2,-3 4,-7 0,-1 1,-3 1,-4 -1,-2 -2,-2 -3,-3 1,-9 1,-14 -4,-19 -5,-5 -8,-9 -15,-9 -7,0 -13,4 -16,8 -4,6 -3,12 -3,20z"/>
  <path class="fil2" d="M68 103l4 3c-1,1 0,0 -1,1 0,0 0,1 -1,1 0,1 -1,1 -1,2 -1,0 -6,0 -6,0 -2,0 -3,-2 -4,-3 1,-2 2,-2 3,-4 -1,-1 -4,-2 -5,-4 -2,-1 -4,-3 -5,-4 -3,3 -1,6 0,10l9 30 1 -23c2,-1 4,-1 6,-1l2 24c1,-3 8,-29 9,-36 1,-2 0,-2 0,-4 -2,0 -2,1 -3,2l-8 6z"/>
 </g>
</svg>
