<?xml version="1.0" encoding="UTF-8"?>
<!DOCTYPE svg PUBLIC "-//W3C//DTD SVG 1.1//EN" "http://www.w3.org/Graphics/SVG/1.1/DTD/svg11.dtd">
<!-- Creator: CorelDRAW X8 -->
<svg xmlns="http://www.w3.org/2000/svg" xml:space="preserve" width="130px" height="130px" version="1.1" style="shape-rendering:geometricPrecision; text-rendering:geometricPrecision; image-rendering:optimizeQuality; fill-rule:evenodd; clip-rule:evenodd"
viewBox="0 0 130 130"
 xmlns:xlink="http://www.w3.org/1999/xlink">
 <defs>
  <style type="text/css">
   <![CDATA[
    .fil0 {fill:#CC3300}
    .fil1 {fill:#CC6633}
   ]]>
  </style>
 </defs>
 <g id="Layer_x0020_1">
  <metadata id="CorelCorpID_0Corel-Layer"/>
  <g id="_2362206864592">
   <path class="fil0" d="M85 52l0 26c0,2 0,1 7,1 10,0 14,-5 14,-15 0,-9 -6,-13 -14,-13 -6,0 -7,-1 -7,1zm5 22c7,0 10,-2 10,-9l0 -1c0,-6 -3,-8 -10,-8l0 18zm-60 -10c4,0 8,0 8,-4 1,-5 -4,-4 -8,-4l0 8zm43 15l5 0c0,-3 0,-25 0,-28 -7,0 -6,-1 -6,6l0 19c0,2 0,3 1,3zm-23 -28c0,0 0,0 0,0 0,0 0,0 0,1l0 26c0,2 -1,1 5,1 1,-2 1,-9 1,-11l9 0 0 -5 -9 0 0 -7c3,0 9,1 11,0 0,-5 1,-5 -2,-5l-15 0zm-26 28c1,0 3,0 4,0 4,0 0,-4 2,-11l3 0c2,3 4,9 6,11 8,1 6,0 4,-4 -1,-2 -3,-5 -4,-7 1,-1 2,-1 3,-2 3,-4 2,-10 0,-12 -3,-4 -12,-3 -18,-3 0,2 0,26 0,28z"/>
   <path class="fil1" d="M64 123c13,0 22,-3 32,-10 2,-2 6,-5 6,-8 0,-1 -2,-3 -4,-1 -2,1 -4,4 -12,8 -15,8 -37,7 -50,-5l-3 -3c-2,-2 -5,-1 -5,1 0,3 2,3 3,4 3,4 7,7 12,9 6,3 13,5 21,5zm2 -18c-7,0 -12,-1 -18,-4 -6,-4 -6,-7 -9,-6 -2,0 -3,1 -2,3 0,2 8,7 11,9 10,5 24,5 34,0 2,-1 4,-2 6,-4 2,-1 5,-4 5,-5 1,-2 0,-3 -2,-3 -2,-1 -2,2 -9,6 -4,2 -10,4 -16,4zm-19 -19c-8,4 18,22 37,5 1,-1 2,-4 0,-5 -4,-2 -5,5 -16,7 -6,1 -11,-1 -16,-5 -2,-1 -3,-3 -5,-2zm13 -54c-4,1 -7,2 -10,4 -1,1 -3,3 -4,4 -2,2 1,6 4,3 8,-8 23,-8 29,-1 2,2 4,3 5,1 2,-2 0,-4 -1,-5 -5,-4 -14,-8 -23,-6zm1 -12c-8,1 -17,4 -22,9 -1,1 -2,2 -2,3 -1,2 2,5 5,2 6,-6 18,-10 27,-9 8,1 13,4 18,8 1,1 2,2 3,2 2,1 3,0 3,-2 1,-2 -1,-2 -1,-3 -2,-2 -4,-3 -6,-5 -7,-4 -16,-6 -25,-5zm0 -13c-12,2 -24,7 -32,15 -2,2 -1,4 1,5 2,0 4,-2 8,-5 15,-11 35,-12 51,-3 5,4 9,8 10,8 2,0 5,-2 1,-6 -10,-9 -23,-15 -39,-14z"/>
  </g>
 </g>
</svg>
