<?xml version="1.0" encoding="UTF-8"?>
<!DOCTYPE svg PUBLIC "-//W3C//DTD SVG 1.1//EN" "http://www.w3.org/Graphics/SVG/1.1/DTD/svg11.dtd">
<!-- Creator: CorelDRAW X8 -->
<svg xmlns="http://www.w3.org/2000/svg" xml:space="preserve" width="130mm" height="130mm" version="1.1" style="shape-rendering:geometricPrecision; text-rendering:geometricPrecision; image-rendering:optimizeQuality; fill-rule:evenodd; clip-rule:evenodd"
viewBox="0 0 13000 13000"
 xmlns:xlink="http://www.w3.org/1999/xlink">
 <defs>
  <style type="text/css">
   <![CDATA[
    .fil0 {fill:#846573}
    .fil1 {fill:#B2AD81}
   ]]>
  </style>
 </defs>
 <g id="Layer_x0020_1">
  <metadata id="CorelCorpID_0Corel-Layer"/>
  <g id="_2520837443168">
   <path class="fil0" d="M276 11756l1806 0 4 -3980 -1808 -2 -2 3982zm773 -1246c-474,203 -165,843 265,681 416,-157 211,-884 -265,-681zm3781 -1560c-132,-172 -141,-297 45,-431 884,72 1771,260 2647,339 443,39 803,-307 703,-771 -107,-496 -622,-489 -968,-535 -887,-115 -1758,-224 -2639,-335 -526,-65 -740,125 -1147,315l-1028 475 -7 3325c112,-31 870,-502 1039,-602 124,-74 128,-114 297,-94l3964 512c761,97 737,124 1274,-244l1948 -1318c328,-228 647,-439 979,-665 311,-212 720,-391 781,-843 75,-560 -513,-1270 -1346,-700 -167,114 -315,212 -484,327 -329,224 -650,439 -980,665l-1446 984c-162,105 -526,-4 -736,-32 -779,-105 -2178,-310 -2896,-372z"/>
   <path class="fil1" d="M6355 5925l135 555c90,-150 114,-407 167,-591 -147,-32 -184,-3 -302,36zm-178 402l-828 -3287 -1692 -1c58,128 210,293 309,427l2107 2754c11,16 35,47 42,55l62 52zm635 12c98,-74 234,-281 322,-395 261,-336 2173,-2811 2207,-2902l-1700 -3 -829 3300zm-457 -414c118,-39 155,-68 302,-36l721 -2849 -1756 -1 733 2886zm-900 -3302l26 -22c104,-114 777,-1351 779,-1356l-1594 -1c20,87 688,1237 789,1379zm-1827 152l1591 0c-42,-123 -689,-1231 -791,-1388 -59,54 -756,1264 -800,1388zm4151 1l1593 -1c-59,-168 -442,-784 -584,-1032l-212 -348c-71,72 -361,601 -405,679 -115,204 -309,486 -392,702zm-251 -153c5,-4 11,-16 13,-11l402 -674c104,-176 327,-524 392,-694l-1596 0c36,126 303,547 383,686 126,216 259,488 406,693zm-1824 153l1591 -1 -819 -1352c-16,19 -10,8 -33,43l-146 258c-69,118 -131,223 -202,347 -61,107 -127,219 -191,333 -65,115 -165,263 -200,372z"/>
  </g>
 </g>
</svg>
