<?xml version="1.0" encoding="UTF-8"?>
<!DOCTYPE svg PUBLIC "-//W3C//DTD SVG 1.1//EN" "http://www.w3.org/Graphics/SVG/1.1/DTD/svg11.dtd">
<!-- Creator: CorelDRAW X8 -->
<svg xmlns="http://www.w3.org/2000/svg" xml:space="preserve" width="130px" height="168px" version="1.1" style="shape-rendering:geometricPrecision; text-rendering:geometricPrecision; image-rendering:optimizeQuality; fill-rule:evenodd; clip-rule:evenodd"
viewBox="0 0 130 168"
 xmlns:xlink="http://www.w3.org/1999/xlink">
 <defs>
  <style type="text/css">
   <![CDATA[
    .fil0 {fill:#6699FF}
   ]]>
  </style>
 </defs>
 <g id="Layer_x0020_1">
  <metadata id="CorelCorpID_0Corel-Layer"/>
  <path class="fil0" d="M63 141l0 -82 -29 0 14 41c2,6 6,16 8,21 0,1 6,19 7,20zm-62 -85l59 0c-1,-1 -7,-6 -9,-7l-24 -20c-1,0 -1,-1 -3,-1 0,1 0,1 -1,2l-16 19c-1,1 -2,2 -3,3 -1,1 -2,3 -3,4zm69 0l59 0 -3 -4c-1,-1 -2,-2 -3,-3l-16 -19c-1,-1 -1,-1 -1,-2 -2,0 -8,6 -9,7 -3,2 -6,4 -9,7 -2,1 -17,13 -18,14zm-5 -1c3,-2 22,-17 26,-21 2,-1 8,-6 9,-7l-70 0c1,1 7,6 8,7 4,3 24,19 27,21zm6 80c1,0 6,-8 7,-9l8 -10c10,-13 20,-26 30,-40 4,-4 10,-13 13,-17l-29 0c0,1 -1,2 -1,3 -5,11 -9,24 -14,35l-14 38zm-12 0l-14 -38c-3,-6 -5,-12 -8,-19l-5 -14c0,-1 -1,-1 -1,-2 0,-1 -1,-2 -1,-3l-29 0c3,6 14,18 18,24l29 38c1,2 10,14 11,14zm8 6c0,0 1,-4 2,-5 0,-1 1,-3 1,-5 4,-9 8,-21 11,-31l15 -41 -29 0 0 82z"/>
 </g>
</svg>
