<?xml version="1.0" encoding="UTF-8"?>
<!DOCTYPE svg PUBLIC "-//W3C//DTD SVG 1.1//EN" "http://www.w3.org/Graphics/SVG/1.1/DTD/svg11.dtd">
<!-- Creator: CorelDRAW X8 -->
<svg xmlns="http://www.w3.org/2000/svg" xml:space="preserve" width="130mm" height="130mm" version="1.1" style="shape-rendering:geometricPrecision; text-rendering:geometricPrecision; image-rendering:optimizeQuality; fill-rule:evenodd; clip-rule:evenodd"
viewBox="0 0 13000 13000"
 xmlns:xlink="http://www.w3.org/1999/xlink">
 <defs>
  <style type="text/css">
   <![CDATA[
    .fil1 {fill:#CD7372}
    .fil0 {fill:#E51A4B}
   ]]>
  </style>
 </defs>
 <g id="Layer_x0020_1">
  <metadata id="CorelCorpID_0Corel-Layer"/>
  <g id="_2520837472480">
   <g id="_2520841293584">
    <g id="_2520961665392">
     <path class="fil0" d="M250 1963l0 7328c0,343 99,666 498,666l8905 0c153,0 386,-200 386,-333l0 -7661c0,-441 -624,-428 -1105,-428l-8075 0c-329,0 -609,287 -609,428zm4711 6164l172 640c114,-173 144,-470 212,-682 -187,-38 -234,-4 -384,42zm-227 463l-1054 -3793 -2153 -2c74,149 268,339 394,494l2680 3177c15,19 45,55 55,64l78 60zm808 14c124,-86 298,-324 410,-456 331,-387 2764,-3244 2808,-3348l-2163 -3 -1055 3807zm-581 -477c150,-46 197,-80 384,-42l917 -3288 -2235 0 934 3330zm-1146 -3811l33 -25c132,-133 990,-1559 991,-1564l-2027 -2c25,100 874,1428 1003,1591zm-2324 176l2024 0c-53,-143 -876,-1420 -1006,-1602 -75,62 -963,1458 -1018,1602zm5281 0l2027 0c-74,-194 -562,-905 -743,-1191l-270 -401c-89,82 -458,693 -515,783 -147,235 -393,560 -499,809zm-319 -176c6,-4 15,-18 17,-13l511 -777c132,-203 416,-605 499,-801l-2031 0c46,146 385,631 488,792 159,248 329,562 516,799zm-2321 176l2025 0 -1042 -1561c-20,23 -12,10 -42,50l-186 298c-87,136 -167,257 -257,400 -79,124 -162,254 -244,384 -83,134 -210,304 -254,429z"/>
     <path class="fil1" d="M10592 3771c0,182 183,142 410,171 211,27 342,63 531,67 0,424 -831,4026 -933,4860 -34,284 -3,514 -52,764 -96,488 -431,715 -1000,757 -1178,88 -4351,43 -5648,43 12,7 29,5 34,18 24,60 809,150 912,168 1470,252 3627,533 5154,752 347,49 731,164 1003,35 289,-139 292,-447 360,-739 269,-1161 448,-2386 709,-3530 89,-394 678,-3203 678,-3604 0,-337 -547,-389 -917,-448 -360,-58 -898,-170 -1241,-170l0 856z"/>
    </g>
   </g>
  </g>
 </g>
</svg>
