<?xml version="1.0" encoding="UTF-8"?>
<!DOCTYPE svg PUBLIC "-//W3C//DTD SVG 1.1//EN" "http://www.w3.org/Graphics/SVG/1.1/DTD/svg11.dtd">
<!-- Creator: CorelDRAW X8 -->
<svg xmlns="http://www.w3.org/2000/svg" xml:space="preserve" width="130px" height="130px" version="1.1" style="shape-rendering:geometricPrecision; text-rendering:geometricPrecision; image-rendering:optimizeQuality; fill-rule:evenodd; clip-rule:evenodd"
viewBox="0 0 130 130"
 xmlns:xlink="http://www.w3.org/1999/xlink">
 <defs>
  <style type="text/css">
   <![CDATA[
    .fil1 {fill:#00A0F0}
    .fil0 {fill:#323232}
   ]]>
  </style>
 </defs>
 <g id="Layer_x0020_1">
  <metadata id="CorelCorpID_0Corel-Layer"/>
  <g id="_2494360758816">
   <path class="fil0" d="M124 41l0 -3c0,-1 0,-2 0,-3 -1,-5 -4,-10 -7,-13 -2,-2 -4,-3 -7,-4 -5,-3 -7,-2 -9,-3l-3 0 -1 0c-4,1 -8,3 -12,5 -7,6 -11,16 -8,25 1,5 2,7 5,10 1,1 3,3 3,3 3,2 6,4 9,5 7,1 15,0 21,-5 2,-1 3,-2 4,-4 1,-2 2,-4 3,-6 2,-3 2,-6 2,-7zm-23 -21l0 3c2,0 3,0 4,0 1,1 2,2 3,2 0,1 1,2 1,3 0,0 1,1 1,2 0,0 -1,1 -1,1 -1,1 -1,1 -2,1 -1,0 -2,-1 -3,-2 0,-2 -1,-3 -3,-3l0 8c2,0 3,1 4,1 1,0 2,1 3,2 1,0 1,1 2,2 0,1 0,2 0,4 0,1 0,3 -1,4 0,1 -1,2 -3,3 -1,1 -3,1 -5,2l0 5c0,0 0,1 0,1 0,1 0,1 -1,1 0,0 -1,0 -1,-1 0,0 0,0 0,-1l0 -5c-2,-1 -3,-1 -4,-1 -1,-1 -2,-2 -3,-3 -1,0 -2,-1 -2,-2 0,-1 0,-2 0,-3 0,0 0,-1 0,-1 1,-1 1,-1 2,-1 1,0 1,0 2,0 0,0 0,1 1,1 0,1 0,2 0,3 1,0 1,1 2,1 0,1 1,1 2,2l0 -10c-2,0 -3,-1 -5,-1 -1,-1 -2,-2 -3,-3 0,-1 -1,-2 -1,-4 0,-3 1,-4 2,-6 2,-1 4,-2 7,-2l0 -3c0,-1 0,-1 1,-1 1,0 1,0 1,1zm-2 14l0 -8c-1,1 -2,1 -3,2 0,0 -1,1 -1,2 0,1 1,2 1,3 1,0 2,1 3,1zm2 6l0 9c2,-1 3,-1 3,-2 1,-1 2,-2 2,-3 0,-1 -1,-2 -2,-2 0,-1 -1,-2 -3,-2z"/>
   <path class="fil1" d="M6 89l0 3c0,1 0,4 1,5 0,2 1,3 1,4 1,2 3,5 5,7 0,0 0,0 1,0 1,1 1,1 2,2 6,5 11,4 12,5l3 0c3,-1 5,-1 7,-2 11,-4 18,-16 15,-28 -1,-4 -2,-7 -5,-10 -1,-2 -4,-4 -6,-5 -10,-6 -24,-3 -31,6 -2,3 -4,6 -4,9 -1,1 -1,4 -1,4zm20 -9c0,1 -1,1 -2,1 -1,1 -1,1 -1,1 -1,-1 -3,-2 -4,-2 0,0 -1,2 -1,2 0,1 0,1 -1,1l-1 2c-1,2 0,2 2,3 2,2 1,1 1,3 0,2 1,1 -2,3l-1 0c-1,1 0,2 0,3l2 2c0,0 0,0 0,1 1,2 1,1 5,0 1,-1 0,-1 1,0 1,0 1,1 2,1l0 4c0,0 1,0 1,0l6 0c1,0 1,-1 1,-3 0,0 0,-1 0,-1 1,0 2,-1 2,-1 1,-1 1,-1 1,0 1,0 3,1 4,1 0,0 1,-1 1,-1 0,-1 2,-5 2,-5 0,0 0,0 0,0l-3 -3c0,0 0,0 0,-2 0,-1 -1,0 1,-2 1,0 1,0 1,-1 2,-1 1,-1 0,-4 -1,0 -1,-1 -1,-1 -1,-2 -1,-2 -5,0 0,0 0,0 0,0 -1,-1 -1,-1 -2,-1 -1,-1 -1,0 -1,-2 0,0 0,0 0,0 0,-1 0,-3 -1,-3 0,0 0,0 0,0l-6 0c0,0 -1,0 -1,0 0,1 0,1 0,2 0,1 0,2 0,2z"/>
   <path class="fil0" d="M6 39l0 1c1,1 0,1 2,2l8 4c4,2 7,4 11,6 3,2 7,4 10,6 4,3 4,-2 4,-3 0,-3 0,-6 0,-9l33 0c0,-2 -1,-2 -1,-7 0,-3 0,-3 1,-7l-33 0c-1,-2 0,-5 0,-8 0,-1 0,-3 -1,-4 -1,-1 -2,0 -3,0 -6,4 -14,8 -21,12 -2,1 -3,2 -5,3l-4 3c-1,0 -1,0 -1,1z"/>
   <path class="fil1" d="M83 84l-27 0c0,2 1,3 1,7 0,2 -1,4 -1,7l27 0 0 8c0,2 0,6 4,4l26 -16c1,0 2,-1 3,-1 1,-1 2,-1 2,-2 0,-2 -1,-2 -2,-3 -1,0 -2,-1 -3,-1l-16 -9c-3,-2 -7,-4 -10,-6 -4,-3 -4,1 -4,3 0,3 0,6 0,9z"/>
  </g>
 </g>
</svg>
