<svg clip-rule="evenodd" fill-rule="evenodd" height="142" image-rendering="optimizeQuality" shape-rendering="geometricPrecision" text-rendering="geometricPrecision" viewBox="0 0 130 142" width="130" xmlns="http://www.w3.org/2000/svg"><path d="m31 29c0 4 1 6 1 9-3 1-6 2-6 6 0 5 2 13 5 16 4 2 4-1 6 5 0 2 2 5 3 7 4 8 16 19 24 19 6 0 7-1 13-5 3-2 4-3 7-6 8-8 9-18 10-18 1-2 6 1 8-6 6-17-1-16-4-18 0-5 3-13-3-21-2-4-5-7-8-9-7-6-16-8-26-8-7 0-3 5-9 5-9 1-15 4-18 12-1 2-3 9-3 12z" fill="#008dd2"/><path d="m53 104c0 7 6 10 6 11 0 2-5 10-6 12s-2 3-3 4c0-2-2-6-3-8l-7-19c-2-6-1-4-10-1-13 4-28 7-29 21-1 2-1 5-1 6 0 6 0 12 10 12h110c14 0 10-20 6-26-4-7-13-9-21-12-16-5-13-7-16 3-1 3-2 5-3 8-1 2-6 15-6 16-1-1-9-15-9-16 0 0 11-11 2-17-5-2-11-2-16 0-2 1-4 4-4 6z" fill="#5b5a50"/></svg>