<?xml version="1.0" encoding="UTF-8"?>
<!DOCTYPE svg PUBLIC "-//W3C//DTD SVG 1.1//EN" "http://www.w3.org/Graphics/SVG/1.1/DTD/svg11.dtd">
<!-- Creator: CorelDRAW 2021.5 -->
<svg xmlns="http://www.w3.org/2000/svg" xml:space="preserve" width="130mm" height="121.595mm" version="1.1" style="shape-rendering:geometricPrecision; text-rendering:geometricPrecision; image-rendering:optimizeQuality; fill-rule:evenodd; clip-rule:evenodd"
viewBox="0 0 12994.99 12154.78"
 xmlns:xlink="http://www.w3.org/1999/xlink"
 xmlns:xodm="http://www.corel.com/coreldraw/odm/2003">
 <defs>
  <style type="text/css">
   <![CDATA[
    .fil0 {fill:#AE4A84}
   ]]>
  </style>
 </defs>
 <g id="Layer_x0020_1">
  <metadata id="CorelCorpID_0Corel-Layer"/>
  <path class="fil0" d="M-0 638.44l0 10193.07c230.86,340.54 176.27,622.95 1063.61,619.31l4728.44 -1.48c-85.45,-172.45 -430.5,-502.97 -638.88,-745.5l-4390.19 -1.68c-65.71,-1616.03 -6.56,-3358.86 -6.56,-4988.87 0,-881.1 -114.28,-4383.84 36.05,-4970.06l9746.68 24.54c129.69,328.86 39.63,5907.47 39.63,6793.95 37.91,151.68 471.15,214.03 743.67,282.9l-0.21 -6388.3c0.7,-1213.56 -9.94,-1094.97 -655.11,-1456.33l-10008.77 0c-497.15,287.86 -372.19,121.42 -658.38,638.44zm6897.45 9618.24c136.88,-286.34 741.43,-786.05 1118.07,-1007.72 1050.91,-618.45 2215.14,-571.34 3251.05,42.44 345.46,204.7 995.21,696.41 1124.51,958.96 -162.38,304.48 -742.81,772.39 -1106.41,977.9 -1623.03,917.29 -3262.81,285.47 -4387.22,-971.57zm2442.5 1898.1l585.27 0c204.65,-78.77 681.6,-124.35 986.96,-233.4 302.41,-108 562.77,-245.94 821.89,-410.73 508.88,-323.6 894.92,-750.44 1260.93,-1226.15l0 -124.32c-326.86,-400.37 -964.7,-970.01 -1417.13,-1236.41 -3141.16,-1849.61 -5270.79,1157.15 -5256.71,1326.58 150.34,345.71 899.62,1016.96 1233.14,1240.12 974.7,652.18 1324.14,481.15 1785.65,664.31zm-5703.81 -6012.3l5507.74 5.61c76.97,-204.22 46.46,-568.59 42.9,-828.61l-5554.68 -4.18 4.04 827.18zm-10.07 -2443.94l5560.71 2.54 -5.46 -822.35 -5531.96 -10.7 -23.29 830.51zm1.09 4895.02l2590.28 1.75c287.45,0 640.21,-270.23 866.13,-393.38 153.34,-83.58 252.78,-131.66 411.88,-204.06l473.26 -216.9 -4340.53 -8.89 -1.01 821.48zm5605.36 1592.02c-102.13,-116.69 -252.84,-242.32 -175.46,-452.88 52.18,-141.93 234.31,-278.6 427.06,-227.9 342.45,90.08 454.34,716.48 -251.6,680.77zm113.56 -795.1c-1110.59,368.45 -544.23,2040.88 567.57,1700.88 1140.69,-348.85 621.66,-2095.43 -567.57,-1700.88zm-6906.86 -4094.62c-552.61,212.29 -236.62,1102.86 369.6,876.02 532.27,-199.17 286.72,-1128.13 -369.6,-876.02zm-29.12 2478.56c-119.92,64.05 -168.03,78.24 -227.08,236.89 -36.85,98.98 -37.89,234.46 -2.31,336.12 80.26,229.32 344.28,390.92 654.75,266.22 541.67,-217.56 194.38,-1170.17 -425.36,-839.23zm73.5 -4926.5c-235.66,95.47 -408.82,246.31 -299.11,610.24 66.34,220.03 323.95,381.32 636.63,263.61 498.94,-187.82 243.05,-1109.11 -337.53,-873.85z"/>
 </g>
</svg>
