<?xml version="1.0" encoding="UTF-8"?>
<!DOCTYPE svg PUBLIC "-//W3C//DTD SVG 1.1//EN" "http://www.w3.org/Graphics/SVG/1.1/DTD/svg11.dtd">
<!-- Creator: CorelDRAW X8 -->
<svg xmlns="http://www.w3.org/2000/svg" xml:space="preserve" width="130px" height="130px" version="1.1" style="shape-rendering:geometricPrecision; text-rendering:geometricPrecision; image-rendering:optimizeQuality; fill-rule:evenodd; clip-rule:evenodd"
viewBox="0 0 130 130"
 xmlns:xlink="http://www.w3.org/1999/xlink">
 <defs>
  <style type="text/css">
   <![CDATA[
    .fil0 {fill:#009933}
    .fil1 {fill:#669933}
   ]]>
  </style>
 </defs>
 <g id="Layer_x0020_1">
  <metadata id="CorelCorpID_0Corel-Layer"/>
  <g id="_2121733884160">
   <path class="fil0" d="M16 104c5,5 16,1 20,5 4,4 8,14 12,16 5,-1 14,-8 17,-8 4,0 15,9 18,8 2,-1 8,-12 10,-15 5,-5 17,-2 21,-6 2,-5 0,-18 3,-23 3,-5 11,-13 10,-16 0,-3 -8,-13 -10,-16 -3,-4 -2,-18 -3,-24 -3,-1 -10,-2 -14,-2 -10,-1 -10,-11 -16,-17 -5,-5 -15,9 -21,6 -3,-1 -8,-4 -11,-5 -7,-4 -6,0 -15,13 -3,3 -7,3 -12,3 -15,2 -7,3 -11,23 0,3 -7,12 -10,15 -4,5 0,8 6,15 3,5 4,5 5,12 0,4 0,13 1,16zm24 -75c-4,1 -12,0 -16,1 -3,6 1,17 -2,22 -2,2 -10,10 -10,13 0,3 8,10 10,13 3,4 -1,14 2,21 9,3 14,-3 19,5 0,1 1,2 2,4 1,2 3,7 5,8 5,0 11,-8 15,-8 4,0 9,8 15,8 10,-13 4,-16 16,-16 4,0 7,1 10,-2 2,-5 -1,-15 1,-20 6,-10 16,-9 7,-20 -2,-2 -3,-3 -6,-5 -4,-5 1,-16 -2,-22 -4,-3 -12,-1 -17,-2 -3,-4 -6,-13 -9,-16 -3,1 -9,5 -12,7 -5,3 -7,0 -11,-3 -6,-4 -7,-6 -10,1 -2,4 -4,7 -7,11z"/>
   <path class="fil1" d="M43 34c-3,0 -12,-1 -14,1 -3,4 1,14 -2,18 -2,4 -8,7 -9,12 2,3 7,7 9,10 3,4 0,14 1,19l15 0c2,3 6,12 9,14 4,0 10,-7 13,-7 2,0 9,7 13,7 2,-1 7,-11 9,-14 3,0 6,0 9,0 4,0 6,1 6,-4 0,-7 -1,-12 2,-16 2,-2 7,-7 8,-10 -2,-5 -10,-8 -10,-15 0,-21 2,-13 -15,-15 -3,-4 -6,-12 -9,-14 -4,1 -10,7 -13,7 -2,1 -9,-6 -13,-7 -2,2 -7,11 -9,14zm23 40c0,9 -1,17 9,17 10,0 9,-8 9,-17 0,-7 -2,-11 -8,-11 -8,0 -10,3 -10,11zm-12 17c4,1 4,-1 7,-11l13 -36c1,-3 2,-5 -2,-5 -2,1 -8,20 -10,25 -2,5 -9,23 -8,27zm-4 -52c-7,2 -5,9 -5,17 0,9 4,12 12,10 6,-2 5,-11 5,-18 0,-7 -4,-11 -12,-9z"/>
   <path class="fil1" d="M54 62c1,-2 0,-6 0,-9 0,-1 0,-3 0,-5 0,0 1,-2 0,-3 0,-3 0,0 0,-2 -2,1 -2,1 -2,4 0,2 0,4 0,6 0,2 -1,8 2,9z"/>
   <path class="fil1" d="M74 72l0 13c0,2 0,1 1,2 2,-1 1,0 1,-3l0 -16c-2,0 -1,0 -2,1 0,1 0,3 0,3z"/>
  </g>
 </g>
</svg>
