<?xml version="1.0" encoding="UTF-8"?>
<!DOCTYPE svg PUBLIC "-//W3C//DTD SVG 1.1//EN" "http://www.w3.org/Graphics/SVG/1.1/DTD/svg11.dtd">
<!-- Creator: CorelDRAW 2021.5 -->
<svg xmlns="http://www.w3.org/2000/svg" xml:space="preserve" width="130mm" height="130mm" version="1.1" style="shape-rendering:geometricPrecision; text-rendering:geometricPrecision; image-rendering:optimizeQuality; fill-rule:evenodd; clip-rule:evenodd"
viewBox="0 0 13000 13000"
 xmlns:xlink="http://www.w3.org/1999/xlink"
 xmlns:xodm="http://www.corel.com/coreldraw/odm/2003">
 <defs>
  <style type="text/css">
   <![CDATA[
    .fil1 {fill:#E31E24}
    .fil0 {fill:#5CA595}
   ]]>
  </style>
 </defs>
 <g id="Layer_x0020_1">
  <metadata id="CorelCorpID_0Corel-Layer"/>
  <g id="_2511052178912">
   <path class="fil0" d="M5971.05 9048.18c0,512.04 79.63,924.25 288.67,1372.89l282.36 489.91c52.85,77.56 107.77,147.44 168.74,217.4l234.58 245.18c18.51,17.71 28.53,28.85 46.55,47.05 285.47,288.54 705.7,507.2 1085.3,646.47 197.88,72.61 411.21,114.32 626.61,145.67 116.62,16.99 246.42,15.12 358.17,28.3l351.28 -19.74c653.72,-74.44 1146.5,-277.5 1647.75,-669.08 33.07,-25.84 71.81,-53.87 102.56,-84.65l465.87 -505.35c339.01,-472.75 601.7,-1114.05 601.7,-1715.14 0,-6.95 0,-13.84 0,-20.7l0 -119.38c-0.56,-288.79 -8.66,-497.47 -98.55,-814.47 -107.38,-378.7 -260.94,-722.82 -491.52,-1029.64 -469.43,-624.62 -1048.26,-1021.94 -1820.25,-1210.36 -594.64,-145.15 -1304.4,-93.1 -1867.5,133.67 -49.6,19.98 -88.73,39.61 -138.57,60.36 -327.72,136.43 -684.18,395.83 -916.43,628.12 -563.52,563.57 -927.32,1352.42 -927.32,2173.49zm2819.98 342.9l1119.74 1119.75c76.31,87.97 245.32,97.95 339.88,20.37 86.59,-71.04 144.87,-194.97 79.61,-330.98 -29.38,-61.23 -899.94,-920.75 -1045.45,-1060.77 -55.57,-53.46 -37.53,-68.45 -37.43,-196.59 0.12,-169.32 9.41,-1323.62 -4.31,-1388.13 -55.77,-262.23 -488.05,-252.23 -521.18,31.87l-1.07 1403.08c0,170.9 -26.38,317.62 70.21,401.4z"/>
   <path class="fil1" d="M764.01 2191.28l0 6014.4c0,504.14 387.32,1092.21 843.99,1285.65 87.38,37.03 156.97,69.11 255.79,95.24 84.28,22.29 210.21,47.38 315.79,46.94 947.58,-3.98 1896,-0.27 2843.67,-0.27 -27.28,-56.85 -70.21,-423.82 -70.21,-526.55l-2667.87 0c-584.38,0 -994.59,-479.36 -994.59,-971.2l0 -5862.3c0,-505.78 414.38,-982.9 947.79,-982.9l4879.4 0c332.84,0 609.64,210.79 746.7,411.71 201.64,295.63 189.38,504.19 189.38,980.73 0,780.08 0,1560.15 0,2340.24 56.85,-27.27 423.83,-70.21 526.56,-70.21l0 -2714.67c0,-548.75 -335.38,-1068.33 -818.88,-1322.43 -132.38,-69.58 -372.33,-151.92 -573.56,-151.92l-5054.91 0c-259.7,0 -567.1,140.98 -760.67,280.73 -340.57,245.87 -608.38,719.92 -608.38,1146.81zm2082.82 1415.84c0,179.46 96.78,292.53 280.82,292.53l3100.82 0c368.08,0 368.08,-538.25 0,-538.25l-3100.82 0c-148.67,0 -280.82,101.05 -280.82,245.72zm0 1544.56l0 70.21c0,121.12 112.9,234.03 234.02,234.03l3206.12 0c151.48,0 321.35,-271.25 143.97,-448.19 -39.74,-39.66 -104.94,-78.38 -179.07,-78.38l-3159.32 0c-121.45,0 -245.72,118.92 -245.72,222.33zm0 1579.66c0,87.45 6.24,164.37 79.61,224.63 36.88,30.28 102.51,67.9 166.11,67.9l2305.14 0c35.89,0 78.63,-93.61 97.27,-125.06 30.42,-51.36 54.62,-84.86 86.13,-136.18l90.64 -131.68c34.47,-47.66 70.25,-88.61 100.4,-133.63 -152.59,0 -2665.71,-17.53 -2752.01,9.46 -87.94,27.51 -173.29,113.29 -173.29,224.56z"/>
  </g>
 </g>
</svg>
