<svg xmlns="http://www.w3.org/2000/svg" width="130" height="171" shape-rendering="geometricPrecision" text-rendering="geometricPrecision" image-rendering="optimizeQuality" fill-rule="evenodd" clip-rule="evenodd"><path d="M32 39c-6 1-24-1-27 1-4 2-5 5-5 10v114c1 3 3 6 7 7h114c4 0 7-2 8-6 1-2 1-11 1-14v-28-72c0-5 0-8-4-10-4-3-21-2-27-2 1-1 3-3 4-3 11-10 13-27 0-34-8-4-17-1-23 3-7 3-10 9-14 15-2-2-5-9-14-15C31-9 9 11 25 32c2 2 7 6 7 7zm40-4c18 1 41-18 31-26C91-1 73 19 72 35zm-12 0c2-8-8-24-18-28-8-3-20-1-13 13 5 10 19 16 31 15zm5 48c-1-3-5-9-8-11-15-13-38-1-38 17 0 15 27 37 36 46 1 0 1 1 2 1l5 5c1 1 0 1 3 3 4-3 40-38 43-44 11-22-16-43-34-29-4 2-9 8-9 12z" fill="#f99"/></svg>