<svg width="41" height="42" viewBox="0 0 41 42" fill="none" xmlns="http://www.w3.org/2000/svg">
<path d="M28.4017 1H12.6929C6.23508 1 1 6.20398 1 12.6234V29.3766C1 35.796 6.23508 41 12.6929 41H28.4017C34.8595 41 40.0946 35.796 40.0946 29.3766V12.6234C40.0946 6.20398 34.8595 1 28.4017 1Z" stroke="#6D6D6D" stroke-width="0.5" stroke-miterlimit="22.9256"/>
<path d="M9.69386 1.39169L11.6881 5.33115L9.19531 20.6278L11.3471 36.1222L9.40274 40.5255" stroke="#6D6D6D" stroke-width="0.5" stroke-miterlimit="22.9256"/>
<path d="M4.875 4.01892L11.6909 5.33118L19.4381 1H21.662L29.857 5.61874L32.0827 1.59648" stroke="#6D6D6D" stroke-width="0.5" stroke-miterlimit="22.9256"/>
<path d="M1.60938 8.98306L5.86221 10.5321L9.23457 20.4071L5.86221 31.3343L5.09302 38.1734" stroke="#6D6D6D" stroke-width="0.5" stroke-miterlimit="22.9256"/>
<path d="M4.87532 4.01889L5.86264 10.5321L1.14062 21L5.86264 31.3343L1.49228 32.6465" stroke="#6D6D6D" stroke-width="0.5" stroke-miterlimit="22.9256"/>
<path d="M5.85938 31.3343L10.7123 31.548L19.201 34.0968H22.4648L30.6072 31.5863L35.2865 31.4251L39.5268 32.8985" stroke="#6D6D6D" stroke-width="0.5" stroke-miterlimit="22.9256"/>
<path d="M5.08594 38.1734L11.3428 36.1222L19.016 34.0425" stroke="#6D6D6D" stroke-width="0.5" stroke-miterlimit="22.9256"/>
<path d="M11.3438 36.1222L20.5118 40.8789L29.8855 36.3652L32.2412 40.3474" stroke="#6D6D6D" stroke-width="0.5" stroke-miterlimit="22.9256"/>
<path d="M11.6875 5.33121L20.7238 7.98689L29.8535 5.61877L30.4082 10.3897L32.5609 20.8994L30.6067 31.5863L29.8882 36.3653" stroke="#6D6D6D" stroke-width="0.5" stroke-miterlimit="22.9256"/>
<path d="M22.4609 34.0968L29.8849 36.3652L36.4685 37.3472L35.2827 31.4251L32.5575 20.8994L35.5782 10.5785L36.1026 4.21301L29.8502 5.61786" stroke="#6D6D6D" stroke-width="0.5" stroke-miterlimit="22.9256"/>
<path d="M5.85938 10.5321L10.8689 10.3568L20.7243 7.98685L30.4087 10.3897L35.5821 10.5784L39.4031 8.74091" stroke="#6D6D6D" stroke-width="0.5" stroke-miterlimit="22.9256"/>
<path d="M35.5846 10.5785L40.0974 20.5673L35.2891 31.4251" stroke="#6D6D6D" stroke-width="0.5" stroke-miterlimit="22.9256"/>
</svg>
