<svg width="30" height="42" viewBox="0 0 30 42" fill="none" xmlns="http://www.w3.org/2000/svg">
<path fill-rule="evenodd" clip-rule="evenodd" d="M1.04711 5.72354L5.70695 1L24.4597 1.01571L29.2138 5.73925L29.1518 36.2599L24.444 41H5.70695L1 36.2599L1.04711 5.72354Z" stroke="#6D6D6D" stroke-width="0.5" stroke-miterlimit="22.9256"/>
<path fill-rule="evenodd" clip-rule="evenodd" d="M3.0229 6.96381L6.90769 2.76569L23.194 2.77878L27.2533 6.96905L27.1041 34.983L23.1791 39.2344H6.9749L2.96094 34.983L3.0229 6.96381Z" stroke="#6D6D6D" stroke-width="0.5" stroke-miterlimit="22.9256"/>
<path fill-rule="evenodd" clip-rule="evenodd" d="M5.04454 8.08965L8.27998 4.67966L21.8449 4.691L25.2252 8.09489L25.1013 33.8893L21.8318 37.3203H8.33671L4.99219 33.8893L5.04454 8.08965Z" stroke="#6D6D6D" stroke-width="0.5" stroke-miterlimit="22.9256"/>
<path fill-rule="evenodd" clip-rule="evenodd" d="M6.72245 9.29414L9.41852 6.20184L20.7159 6.21232L23.5324 9.29851L23.4286 32.6867L20.7063 35.7973H9.46478L6.67969 32.6867L6.72245 9.29414Z" stroke="#6D6D6D" stroke-width="0.5" stroke-miterlimit="22.9256"/>
<path d="M5.59375 1.11343L9.41745 6.20268" stroke="#6D6D6D" stroke-width="0.5" stroke-miterlimit="22.9256"/>
<path d="M20.7188 6.21234L24.4613 1.01575" stroke="#6D6D6D" stroke-width="0.5" stroke-miterlimit="22.9256"/>
<path d="M23.5312 9.2985L29.2114 5.73926" stroke="#6D6D6D" stroke-width="0.5" stroke-miterlimit="22.9256"/>
<path d="M23.4297 32.6866L29.1517 36.2599" stroke="#6D6D6D" stroke-width="0.5" stroke-miterlimit="22.9256"/>
<path d="M5.71094 41L9.47005 35.7973" stroke="#6D6D6D" stroke-width="0.5" stroke-miterlimit="22.9256"/>
<path d="M20.5 35.5L24.5 41" stroke="#6D6D6D" stroke-width="0.5" stroke-miterlimit="22.9256"/>
<path d="M1 36.2599L6.68098 32.6866" stroke="#6D6D6D" stroke-width="0.5" stroke-miterlimit="22.9256"/>
<path d="M1.04688 5.72351L6.72351 9.2941" stroke="#6D6D6D" stroke-width="0.5" stroke-miterlimit="22.9256"/>
</svg>
