<svg width="43" height="42" viewBox="0 0 43 42" fill="none" xmlns="http://www.w3.org/2000/svg">
<path fill-rule="evenodd" clip-rule="evenodd" d="M21.9541 6.04223C37.2298 -10.1192 59.4853 15.5433 21.8786 41C-16.3167 15.2667 6.66534 -9.95994 21.9541 6.04223Z" stroke="#6D6D6D" stroke-width="0.5" stroke-miterlimit="22.9256" stroke-linecap="round" stroke-linejoin="round"/>
<path d="M42.457 10.919L38.7454 11.8867L41.1912 19.6582L33.5911 23.9882L27.9143 27.7967L23.8804 34.2959L21.8826 41L19.474 33.9969L10.8084 31.9823L10.1369 23.9882L8.7547 16.7048L4.94531 11.775L9.98693 9.31051L21.9581 6.04227L33.7774 9.45953L34.7488 17.7507L27.9143 27.7967L21.9394 32.7638L19.474 33.9969L17.3616 37.742" stroke="#6D6D6D" stroke-width="0.5" stroke-miterlimit="22.9256" stroke-linecap="round" stroke-linejoin="round"/>
<path d="M26.4138 37.6553L23.7975 34.5604L21.9347 32.7637L15.1747 27.4241L8.75 16.7047L9.98222 9.31043L11.6261 5.0158L10.3809 1.10211" stroke="#6D6D6D" stroke-width="0.5" stroke-miterlimit="22.9256" stroke-linecap="round" stroke-linejoin="round"/>
<path d="M16.4468 2.08197L11.5431 5.23099L4.04352 4.31357L4.94043 11.7749L1.05469 11.4387" stroke="#6D6D6D" stroke-width="0.5" stroke-miterlimit="22.9256" stroke-linecap="round" stroke-linejoin="round"/>
<path d="M4.94265 11.775L2.49219 19.9553L10.1491 24.1736L6.02214 26.3316" stroke="#6D6D6D" stroke-width="0.5" stroke-miterlimit="22.9256" stroke-linecap="round" stroke-linejoin="round"/>
<path d="M10.1484 24.1736L15.1761 27.4241L19.5303 34.1701" stroke="#6D6D6D" stroke-width="0.5" stroke-miterlimit="22.9256" stroke-linecap="round" stroke-linejoin="round"/>
<path d="M23.7969 34.5604L31.8916 32.9547L33.5858 23.9882L37.6746 25.8547" stroke="#6D6D6D" stroke-width="0.5" stroke-miterlimit="22.9256" stroke-linecap="round" stroke-linejoin="round"/>
<path d="M33.5861 23.9882L34.7439 17.7507L38.7405 11.8867L39.289 3.96432L31.7373 5.53837L21.9531 6.04225" stroke="#6D6D6D" stroke-width="0.5" stroke-miterlimit="22.9256" stroke-linecap="round" stroke-linejoin="round"/>
<path d="M27.3906 2.06516L31.7355 5.5383L33.7706 9.45944L38.7387 11.8866" stroke="#6D6D6D" stroke-width="0.5" stroke-miterlimit="22.9256" stroke-linecap="round" stroke-linejoin="round"/>
<path d="M33.3265 1.0621L31.7422 5.53835" stroke="#6D6D6D" stroke-width="0.5" stroke-miterlimit="22.9256" stroke-linecap="round" stroke-linejoin="round"/>
<path d="M11.5469 5.23096L21.957 6.0422" stroke="#6D6D6D" stroke-width="0.5" stroke-miterlimit="22.9256" stroke-linecap="round" stroke-linejoin="round"/>
</svg>
