<svg width="23" height="42" viewBox="0 0 23 42" fill="none" xmlns="http://www.w3.org/2000/svg">
<path fill-rule="evenodd" clip-rule="evenodd" d="M11.9025 1C25.6704 11.1472 25.9753 29.2902 11.9103 41C-1.75274 30.4786 -3.492 11.5578 11.9025 1Z" stroke="#6D6D6D" stroke-width="0.5" stroke-miterlimit="22.9256" stroke-linecap="round" stroke-linejoin="round"/>
<path fill-rule="evenodd" clip-rule="evenodd" d="M11.8044 9.66434C19.6087 15.4157 19.7802 25.6981 11.8088 32.3356C4.06431 26.3729 3.07944 15.6479 11.8044 9.66434Z" stroke="#6D6D6D" stroke-width="0.5" stroke-miterlimit="22.9256" stroke-linecap="round" stroke-linejoin="round"/>
<path fill-rule="evenodd" clip-rule="evenodd" d="M11.9043 1L9.33697 6.7644L7.87226 13.5102L4.21702 16.5808L1.00781 20.8735L4.24472 24.9541L3.63493 31.1299L9.30838 34.6301L11.9121 41L14.1754 34.4881L15.654 27.9233L19.3803 24.4171L22.3426 20.9013L19.4374 17.401L19.6393 9.78562L13.8645 6.73582L11.9043 1Z" stroke="#6D6D6D" stroke-width="0.5" stroke-miterlimit="22.9256" stroke-linecap="round" stroke-linejoin="round"/>
<path fill-rule="evenodd" clip-rule="evenodd" d="M11.804 9.66435L13.8638 6.73581L15.4948 13.4851L19.4367 17.401L17.7096 20.1745L19.3795 24.4171L19.6775 31.4409L14.0075 34.9679L11.8083 32.3356L9.30766 34.6301L7.85593 28.0446L4.244 24.9541L5.6342 20.1494L4.2163 16.5808L3.88281 9.50324L9.33625 6.76439L11.804 9.66435Z" stroke="#6D6D6D" stroke-width="0.5" stroke-miterlimit="22.9256" stroke-linecap="round" stroke-linejoin="round"/>
<path d="M1.55469 15.4417L4.21386 16.5807" stroke="#6D6D6D" stroke-width="0.5" stroke-miterlimit="22.9256" stroke-linecap="round" stroke-linejoin="round"/>
<path d="M4.22383 25.1247L1.75781 26.1919" stroke="#6D6D6D" stroke-width="0.5" stroke-miterlimit="22.9256" stroke-linecap="round" stroke-linejoin="round"/>
<path d="M19.375 24.4171L21.615 26.2846" stroke="#6D6D6D" stroke-width="0.5" stroke-miterlimit="22.9256" stroke-linecap="round" stroke-linejoin="round"/>
</svg>
