<svg width="48" height="49" viewBox="0 0 48 49" fill="none" xmlns="http://www.w3.org/2000/svg">
<path fill-rule="evenodd" clip-rule="evenodd" d="M3.12426 20.4042C12.7603 23.2835 26.9158 36.6893 14.6481 44.7761C0.383007 49.4629 -1.21712 29.3601 3.12426 20.4042Z" stroke="#6D6D6D" stroke-width="0.5" stroke-miterlimit="22.9256" stroke-linecap="round" stroke-linejoin="round"/>
<path fill-rule="evenodd" clip-rule="evenodd" d="M6.53697 27.7528C11.7719 29.3167 19.4613 36.599 12.7966 40.9922C5.04743 43.5387 4.17838 32.6178 6.53697 27.7528Z" stroke="#6D6D6D" stroke-width="0.5" stroke-miterlimit="22.9256" stroke-linecap="round" stroke-linejoin="round"/>
<path d="M1.51562 25.4044L3.55325 25.8067L6.53035 27.7533L6.84938 24.3808L7.91129 22.5017" stroke="#6D6D6D" stroke-width="0.5" stroke-miterlimit="22.9256" stroke-linecap="round" stroke-linejoin="round"/>
<path d="M3.12371 20.4042L3.5622 25.8065L1.00781 30.1782L3.5925 36.0923L6.50796 38.722L6.36412 41.7256L7.92799 45.0384L11.097 43.5645L14.6466 44.7751L15.5803 41.5895L14.9755 38.6741L17.4789 36.6453L18.62 33.4215L14.767 31.1422L11.3485 30.3837L6.85833 24.3806L12.0746 25.324L14.767 31.1422L15.0586 35.0863L17.4789 36.6453L18.895 39.9551L15.5803 41.5895L12.7989 40.9935L11.097 43.5645L11.1968 45.4592" stroke="#6D6D6D" stroke-width="0.5" stroke-miterlimit="22.9256" stroke-linecap="round" stroke-linejoin="round"/>
<path d="M11.0954 43.5643L9.06077 41.1049L6.36255 41.7254L3.09375 40.6489L3.59092 36.0922L5.43377 32.1912L3.56063 25.8064" stroke="#6D6D6D" stroke-width="0.5" stroke-miterlimit="22.9256" stroke-linecap="round" stroke-linejoin="round"/>
<path d="M3.60527 36.0923L1.41406 35.5609" stroke="#6D6D6D" stroke-width="0.5" stroke-miterlimit="22.9256" stroke-linecap="round" stroke-linejoin="round"/>
<path d="M3.13281 20.4042L6.86744 24.3806" stroke="#6D6D6D" stroke-width="0.5" stroke-miterlimit="22.9256" stroke-linecap="round" stroke-linejoin="round"/>
<path d="M15.5781 41.5892L16.9346 42.9104" stroke="#6D6D6D" stroke-width="0.5" stroke-miterlimit="22.9256" stroke-linecap="round" stroke-linejoin="round"/>
<path d="M17.4844 36.6453L19.4094 36.7119" stroke="#6D6D6D" stroke-width="0.5" stroke-miterlimit="22.9256" stroke-linecap="round" stroke-linejoin="round"/>
<path d="M26.8668 44.5998C30.9267 46.8643 37.1298 43.4794 40.7217 37.0394C44.3137 30.5994 43.9344 23.5431 39.8745 21.2786C35.8146 19.0142 29.6116 22.3991 26.0196 28.8391C22.4276 35.2791 22.8069 42.3354 26.8668 44.5998Z" stroke="#6D6D6D" stroke-width="0.5" stroke-miterlimit="22.9256" stroke-linecap="round" stroke-linejoin="round"/>
<path d="M28.9402 24.8212L30.1097 26.6953L29.1996 30.7754L27.7326 35.8537L29.5735 39.9935L34.0156 39.468L37.7933 35.2411L39.1645 29.9435L37.2766 26.3783L32.9254 26.7374L29.1996 30.7754L26.3555 33.7202L23.5938 38.5842L26.6403 40.1599L26.8665 44.6001L30.8888 42.5293L33.6466 44.2537L36.6698 39.3104L40.512 37.4079L40.4151 32.4989L43.1819 27.9745L40.1813 25.8693L39.9375 21.3136L35.9515 23.5646L32.895 21.7286L30.1097 26.6953L26.2567 28.4246L26.3555 33.7202L24.0773 33.6566" stroke="#6D6D6D" stroke-width="0.5" stroke-miterlimit="22.9256" stroke-linecap="round" stroke-linejoin="round"/>
<path d="M36.5383 20.5962L35.9511 23.5645L32.9251 26.7374L30.1094 26.6953" stroke="#6D6D6D" stroke-width="0.5" stroke-miterlimit="22.9256" stroke-linecap="round" stroke-linejoin="round"/>
<path d="M42.3028 23.956L40.1781 25.8693L37.2734 26.3782" stroke="#6D6D6D" stroke-width="0.5" stroke-miterlimit="22.9256" stroke-linecap="round" stroke-linejoin="round"/>
<path d="M35.9531 23.5644L37.1255 26.3908" stroke="#6D6D6D" stroke-width="0.5" stroke-miterlimit="22.9256" stroke-linecap="round" stroke-linejoin="round"/>
<path d="M40.1809 25.869L39.1641 29.9432L40.4147 32.4985L42.6393 32.3194" stroke="#6D6D6D" stroke-width="0.5" stroke-miterlimit="22.9256" stroke-linecap="round" stroke-linejoin="round"/>
<path d="M40.4172 32.4984L37.7953 35.2406L36.6719 39.3099L37.5468 41.326" stroke="#6D6D6D" stroke-width="0.5" stroke-miterlimit="22.9256" stroke-linecap="round" stroke-linejoin="round"/>
<path d="M26.3594 33.7197L27.7364 35.8532L26.6442 40.1593L29.5773 39.993L30.8926 42.5287L34.0195 39.4674L36.6736 39.3099" stroke="#6D6D6D" stroke-width="0.5" stroke-miterlimit="22.9256" stroke-linecap="round" stroke-linejoin="round"/>
<path d="M30.8876 42.5291L30.4766 45.2557" stroke="#6D6D6D" stroke-width="0.5" stroke-miterlimit="22.9256" stroke-linecap="round" stroke-linejoin="round"/>
<path d="M26.6409 40.1595L24.6484 42.3331" stroke="#6D6D6D" stroke-width="0.5" stroke-miterlimit="22.9256" stroke-linecap="round" stroke-linejoin="round"/>
<path d="M20.0268 24.0536C26.3929 24.0536 31.5536 18.8929 31.5536 12.5268C31.5536 6.16072 26.3929 1 20.0268 1C13.6607 1 8.5 6.16072 8.5 12.5268C8.5 18.8929 13.6607 24.0536 20.0268 24.0536Z" stroke="#6D6D6D" stroke-width="0.5" stroke-miterlimit="22.9256" stroke-linecap="round" stroke-linejoin="round"/>
<path d="M15.5971 1.87613L16.5816 4.17503L15.2701 7.66007L13.3853 12.25L11.8282 15.8975L11.8125 20.6255L16.6227 20.5296L19.9022 19.0528L23.3442 20.693L24.3689 23.2023" stroke="#6D6D6D" stroke-width="0.5" stroke-miterlimit="22.9256" stroke-linecap="round" stroke-linejoin="round"/>
<path fill-rule="evenodd" clip-rule="evenodd" d="M11.9489 4.30399L16.5946 4.17481L19.8937 1L23.2965 4.25702L24.7303 7.74108L26.6974 12.2704L24.9357 17.0854L19.9152 19.0526L15.1813 17.2498L11.8411 15.8973L8.5 12.5268L11.8196 9.21594L11.9489 4.30399Z" stroke="#6D6D6D" stroke-width="0.5" stroke-miterlimit="22.9256" stroke-linecap="round" stroke-linejoin="round"/>
<path d="M9.39062 8.05536L11.8109 9.21606L13.3337 12.3811L15.3537 17.3185L16.627 20.5295L20.019 24.0547L23.3484 20.6929L24.927 17.0856L28.1028 15.734L31.5459 12.4437L28.2164 9.15441L24.7215 7.74121L20.019 5.7731L11.8109 9.21606" stroke="#6D6D6D" stroke-width="0.5" stroke-miterlimit="22.9256" stroke-linecap="round" stroke-linejoin="round"/>
<path d="M15.5469 23.1542L16.6273 20.5294" stroke="#6D6D6D" stroke-width="0.5" stroke-miterlimit="22.9256" stroke-linecap="round" stroke-linejoin="round"/>
<path d="M11.8433 15.8974L9.34375 16.8575" stroke="#6D6D6D" stroke-width="0.5" stroke-miterlimit="22.9256" stroke-linecap="round" stroke-linejoin="round"/>
<path d="M23.3641 20.6928L28.1293 20.7339L28.1185 15.7339L26.7043 12.2704L28.2321 9.15431L28.1078 4.29913L23.3299 4.32164L20.0347 5.773L16.6016 4.17484" stroke="#6D6D6D" stroke-width="0.5" stroke-miterlimit="22.9256" stroke-linecap="round" stroke-linejoin="round"/>
<path d="M24.3313 1.83105L23.3203 4.32177" stroke="#6D6D6D" stroke-width="0.5" stroke-miterlimit="22.9256" stroke-linecap="round" stroke-linejoin="round"/>
<path d="M30.6341 8.03842L28.2109 9.15411" stroke="#6D6D6D" stroke-width="0.5" stroke-miterlimit="22.9256" stroke-linecap="round" stroke-linejoin="round"/>
<path d="M28.1094 15.7342L30.6794 16.936" stroke="#6D6D6D" stroke-width="0.5" stroke-miterlimit="22.9256" stroke-linecap="round" stroke-linejoin="round"/>
</svg>
