<svg width="27" height="42" viewBox="0 0 27 42" fill="none" xmlns="http://www.w3.org/2000/svg">
<path d="M13.6087 41C20.5723 41 26.2175 32.0457 26.2175 21C26.2175 9.9543 20.5723 1 13.6087 1C6.64512 1 1 9.9543 1 21C1 32.0457 6.64512 41 13.6087 41Z" stroke="#6D6D6D" stroke-width="0.5" stroke-miterlimit="22.9256" stroke-linecap="round" stroke-linejoin="round"/>
<path d="M1.88823 13.6114L4.78694 15.2114L6.57236 21.2118L8.35777 28.9264L13.787 32.9989L19.2162 29.0696L21.0737 20.783L19.0018 12.854L13.9303 9.56779L8.50103 13.2107L6.57236 21.2118L5.00043 27.1409L4.93629 35.5172L10.0721 35.3564L13.6087 41L17.3588 35.3564L22.2256 35.5998L22.5736 26.9265L26.2103 21.6344L22.5024 15.2826L22.8214 7.34654L17.3588 6.78157L13.7159 1L10.1441 6.85274L4.80625 6.68052L4.78694 15.2114L1.00781 20.2857L5.00043 27.1409L1.97348 28.7199" stroke="#6D6D6D" stroke-width="0.5" stroke-miterlimit="22.9256" stroke-linecap="round" stroke-linejoin="round"/>
<path d="M8.7483 2.54202L10.1462 6.85272L8.50315 13.2107L4.78906 15.2114" stroke="#6D6D6D" stroke-width="0.5" stroke-miterlimit="22.9256" stroke-linecap="round" stroke-linejoin="round"/>
<path d="M18.743 2.7283L17.3582 6.78155L13.9297 9.56777" stroke="#6D6D6D" stroke-width="0.5" stroke-miterlimit="22.9256" stroke-linecap="round" stroke-linejoin="round"/>
<path d="M10.1484 6.85275L13.7448 9.69521" stroke="#6D6D6D" stroke-width="0.5" stroke-miterlimit="22.9256" stroke-linecap="round" stroke-linejoin="round"/>
<path d="M17.3594 6.78156L19.0024 12.854L22.503 15.2826L25.2813 13.426" stroke="#6D6D6D" stroke-width="0.5" stroke-miterlimit="22.9256" stroke-linecap="round" stroke-linejoin="round"/>
<path d="M22.499 15.2826L21.0703 20.783L22.5702 26.9265L25.1851 28.9264" stroke="#6D6D6D" stroke-width="0.5" stroke-miterlimit="22.9256" stroke-linecap="round" stroke-linejoin="round"/>
<path d="M5 27.141L8.35735 28.9264L10.0716 35.3564L13.7866 32.999L17.3583 35.3564L19.2158 29.0696L22.5731 26.9266" stroke="#6D6D6D" stroke-width="0.5" stroke-miterlimit="22.9256" stroke-linecap="round" stroke-linejoin="round"/>
<path d="M17.3594 35.3564L18.8118 39.2233" stroke="#6D6D6D" stroke-width="0.5" stroke-miterlimit="22.9256" stroke-linecap="round" stroke-linejoin="round"/>
<path d="M10.0757 35.3564L9.05469 39.653" stroke="#6D6D6D" stroke-width="0.5" stroke-miterlimit="22.9256" stroke-linecap="round" stroke-linejoin="round"/>
</svg>
