<svg width="27" height="42" viewBox="0 0 27 42" fill="none" xmlns="http://www.w3.org/2000/svg">
<path fill-rule="evenodd" clip-rule="evenodd" d="M13.7193 1C24.8884 10.8943 35.5669 37.7804 14.0024 41C-8.12389 38.3976 2.28033 10.3404 13.7193 1Z" stroke="#6D6D6D" stroke-width="0.5" stroke-miterlimit="22.9256" stroke-linecap="round" stroke-linejoin="round"/>
<path fill-rule="evenodd" clip-rule="evenodd" d="M13.7222 13.0245C19.7903 18.4007 25.5911 33.0065 13.876 34.7552C1.8559 33.3415 7.50814 18.1 13.7222 13.0245Z" stroke="#6D6D6D" stroke-width="0.5" stroke-miterlimit="22.9256" stroke-linecap="round" stroke-linejoin="round"/>
<path d="M8.44531 6.73047L10.936 8.54509L13.7265 13.0245L16.2638 8.68664L18.8671 6.82102" stroke="#6D6D6D" stroke-width="0.5" stroke-miterlimit="22.9256" stroke-linecap="round" stroke-linejoin="round"/>
<path d="M13.7167 1L10.9315 8.54511L4.76229 12.8337L4.54688 22.408L6.82742 27.7692L4.75877 31.7211L4.79217 37.1571L9.97933 37.1545L13.9998 40.9991L17.2466 37.2951L18.255 32.9942L22.89 31.8275L26.441 28.2009L22.679 22.7263L18.5522 19.5691L16.2593 8.68666L22.6905 13.2136L22.679 22.7263L20.6077 28.2176L22.89 31.8275L22.7283 37.1668L17.2466 37.2951L13.8758 34.7552L9.97933 37.1545L8.92869 39.7656" stroke="#6D6D6D" stroke-width="0.5" stroke-miterlimit="22.9256" stroke-linecap="round" stroke-linejoin="round"/>
<path d="M9.97956 37.1545L8.77678 32.5722L4.759 31.7212L1.03125 28.2308L4.54711 22.408L9.46519 18.3093L10.9317 8.54514" stroke="#6D6D6D" stroke-width="0.5" stroke-miterlimit="22.9256" stroke-linecap="round" stroke-linejoin="round"/>
<path d="M4.554 22.408L1.9375 20.3243" stroke="#6D6D6D" stroke-width="0.5" stroke-miterlimit="22.9256" stroke-linecap="round" stroke-linejoin="round"/>
<path d="M13.7188 1L16.2613 8.68666" stroke="#6D6D6D" stroke-width="0.5" stroke-miterlimit="22.9256" stroke-linecap="round" stroke-linejoin="round"/>
<path d="M17.25 37.2951L18.2514 39.9212" stroke="#6D6D6D" stroke-width="0.5" stroke-miterlimit="22.9256" stroke-linecap="round" stroke-linejoin="round"/>
<path d="M22.8906 31.8275L25.4411 33.119" stroke="#6D6D6D" stroke-width="0.5" stroke-miterlimit="22.9256" stroke-linecap="round" stroke-linejoin="round"/>
</svg>
