<svg width="42" height="42" viewBox="0 0 42 42" fill="none" xmlns="http://www.w3.org/2000/svg">
<path d="M41.427 1H1V41H41.427V1Z" stroke="#6D6D6D" stroke-width="0.5" stroke-miterlimit="22.9256"/>
<path d="M33.9323 8.41849H8.5V33.5825H33.9323V8.41849Z" stroke="#6D6D6D" stroke-width="0.5" stroke-miterlimit="22.9256"/>
<path d="M37.6153 4.3894H4.82031V37.6106H37.6153V4.3894Z" stroke="#6D6D6D" stroke-width="0.5" stroke-miterlimit="22.9256"/>
<path d="M6.61354 4.39032C7.49548 5.49228 8.12581 6.83282 8.49437 8.41845C7.1139 7.89114 5.89403 7.13825 4.8125 6.18854" stroke="#6D6D6D" stroke-width="0.5" stroke-miterlimit="22.9256"/>
<path fill-rule="evenodd" clip-rule="evenodd" d="M8.49827 8.4185C7.58013 4.45999 5.02813 2.03699 1 1.00095ZM1 1.00095C2.74252 4.54262 5.15341 7.13922 8.49827 8.4185Z" stroke="#6D6D6D" stroke-width="0.5" stroke-miterlimit="22.9256"/>
<path fill-rule="evenodd" clip-rule="evenodd" d="M33.9297 8.4185C34.8478 4.45999 37.3999 2.03699 41.4281 1.00095ZM41.4281 1.00095C39.6855 4.54262 37.2745 7.13922 33.9297 8.4185Z" stroke="#6D6D6D" stroke-width="0.5" stroke-miterlimit="22.9256"/>
<path fill-rule="evenodd" clip-rule="evenodd" d="M8.49827 33.5825C7.58013 37.541 5.02813 39.964 1 41ZM1 41C2.74252 37.4584 5.15341 34.8618 8.49827 33.5825Z" stroke="#6D6D6D" stroke-width="0.5" stroke-miterlimit="22.9256"/>
<path fill-rule="evenodd" clip-rule="evenodd" d="M33.9297 33.5825C34.8478 37.541 37.3999 39.964 41.4281 41ZM41.4281 41C39.6855 37.4584 37.2745 34.8618 33.9297 33.5825Z" stroke="#6D6D6D" stroke-width="0.5" stroke-miterlimit="22.9256"/>
<path d="M6.61719 4.3894L21.0419 8.41846L35.8111 4.3894" stroke="#6D6D6D" stroke-width="0.5" stroke-miterlimit="22.9256"/>
<path d="M37.6116 6.18765L33.9297 21.0005L37.6116 35.8124" stroke="#6D6D6D" stroke-width="0.5" stroke-miterlimit="22.9256"/>
<path d="M6.61719 37.6115L21.4838 33.5825L35.7415 37.5224" stroke="#6D6D6D" stroke-width="0.5" stroke-miterlimit="22.9256"/>
<path d="M4.82031 6.18765L8.50118 20.6561L4.82031 35.8124" stroke="#6D6D6D" stroke-width="0.5" stroke-miterlimit="22.9256"/>
</svg>
