<svg width="31" height="42" viewBox="0 0 31 42" fill="none" xmlns="http://www.w3.org/2000/svg">
<path fill-rule="evenodd" clip-rule="evenodd" d="M1.17904 6.3902L6.17497 1H24.7783L30.0255 6.3902V35.5392L24.7783 41H6.33639L1 35.6654L1.17904 6.3902Z" stroke="#6D6D6D" stroke-width="0.5" stroke-miterlimit="22.9256"/>
<path fill-rule="evenodd" clip-rule="evenodd" d="M2.82281 8.06611L7.24542 3.29599H23.7141L28.3572 8.06699V33.8713L23.7141 38.7049H7.38832L2.66406 33.9816L2.82281 8.06611Z" stroke="#6D6D6D" stroke-width="0.5" stroke-miterlimit="22.9256"/>
<path d="M6.17225 1L7.24393 3.29597L5.4375 20.0505L7.01373 35.0912L7.38683 38.7049L6.33367 41" stroke="#6D6D6D" stroke-width="0.5" stroke-miterlimit="22.9256"/>
<path d="M1.17904 6.39023L2.9008 7.98497L5.44022 20.0505L2.6653 33.9816L1 35.6654" stroke="#6D6D6D" stroke-width="0.5" stroke-miterlimit="22.9256"/>
<path d="M24.7793 41L23.7164 38.7049L15.486 35.8974L7.39062 38.7049" stroke="#6D6D6D" stroke-width="0.5" stroke-miterlimit="22.9256"/>
<path d="M2.66406 33.9815L6.99049 34.8592L15.4837 35.8973L28.3572 33.8713L30.0243 35.5392" stroke="#6D6D6D" stroke-width="0.5" stroke-miterlimit="22.9256"/>
<path d="M24.7816 1L23.7188 3.29597L24.0469 6.85415L25.4802 20.3195L23.732 34.5999L23.7188 38.7049" stroke="#6D6D6D" stroke-width="0.5" stroke-miterlimit="22.9256"/>
<path d="M30.0232 6.39019L28.3561 8.06696L15.3398 5.35114L6.85357 6.92295L2.89844 7.98493" stroke="#6D6D6D" stroke-width="0.5" stroke-miterlimit="22.9256"/>
<path d="M7.24219 3.29599L15.3376 5.35116L23.7109 3.29599" stroke="#6D6D6D" stroke-width="0.5" stroke-miterlimit="22.9256"/>
<path d="M28.3582 33.8713L25.4766 20.3195L28.3582 8.06696" stroke="#6D6D6D" stroke-width="0.5" stroke-miterlimit="22.9256"/>
</svg>
