<svg width="42" height="42" viewBox="0 0 42 42" fill="none" xmlns="http://www.w3.org/2000/svg">
<path d="M21 41C32.0457 41 41 32.0457 41 21C41 9.95431 32.0457 1 21 1C9.95429 1 1 9.95431 1 21C1 32.0457 9.95429 41 21 41Z" stroke="#6D6D6D" stroke-width="0.5" stroke-miterlimit="22.9256" stroke-linecap="round" stroke-linejoin="round"/>
<path d="M13.3317 2.5209L15.0416 6.51036L12.7657 12.5541L9.49492 20.5194L6.79286 26.8483L6.76562 35.0517L15.1134 34.8836L20.8018 32.3233L26.7755 35.168L28.5536 39.5236" stroke="#6D6D6D" stroke-width="0.5" stroke-miterlimit="22.9256" stroke-linecap="round" stroke-linejoin="round"/>
<path fill-rule="evenodd" clip-rule="evenodd" d="M6.98279 6.73404L15.0444 6.51054L20.7692 1.00107L26.6712 6.65227L29.1606 12.6969L32.574 20.555L29.5159 28.9109L20.8046 32.3235L12.5913 29.1953L6.79567 26.8485L1 21.0002L6.76027 15.2563L6.98279 6.73404Z" stroke="#6D6D6D" stroke-width="0.5" stroke-miterlimit="22.9256" stroke-linecap="round" stroke-linejoin="round"/>
<path d="M2.5625 13.2427L6.76279 15.2561L9.4039 20.7464L12.9091 29.3141L15.1187 34.8836L21.0025 40.9999L26.7809 35.1679L29.5184 28.9107L35.0297 26.563L41.0025 20.8564L35.225 15.1498L29.1632 12.6967L21.0025 9.28232L6.76279 15.2561" stroke="#6D6D6D" stroke-width="0.5" stroke-miterlimit="22.9256" stroke-linecap="round" stroke-linejoin="round"/>
<path d="M13.2422 39.4382L15.1184 34.8836" stroke="#6D6D6D" stroke-width="0.5" stroke-miterlimit="22.9256" stroke-linecap="round" stroke-linejoin="round"/>
<path d="M6.79653 26.8484L2.46094 28.5147" stroke="#6D6D6D" stroke-width="0.5" stroke-miterlimit="22.9256" stroke-linecap="round" stroke-linejoin="round"/>
<path d="M26.773 35.168L35.0399 35.2398L35.0217 26.5631L32.5687 20.5548L35.2171 15.1498L35.0027 6.72392L26.7121 6.76389L20.9946 9.2824L15.0391 6.51041" stroke="#6D6D6D" stroke-width="0.5" stroke-miterlimit="22.9256" stroke-linecap="round" stroke-linejoin="round"/>
<path d="M28.475 2.44278L26.7188 6.76386" stroke="#6D6D6D" stroke-width="0.5" stroke-miterlimit="22.9256" stroke-linecap="round" stroke-linejoin="round"/>
<path d="M39.4323 13.2127L35.2266 15.1497" stroke="#6D6D6D" stroke-width="0.5" stroke-miterlimit="22.9256" stroke-linecap="round" stroke-linejoin="round"/>
<path d="M35.0312 26.5632L39.4896 28.6502" stroke="#6D6D6D" stroke-width="0.5" stroke-miterlimit="22.9256" stroke-linecap="round" stroke-linejoin="round"/>
</svg>
