<svg width="42" height="42" viewBox="0 0 42 42" fill="none" xmlns="http://www.w3.org/2000/svg">
<path fill-rule="evenodd" clip-rule="evenodd" d="M1.14295 4.88541L4.99169 1H37.187L41.3226 4.92116V36.3601L36.9349 41H5.02835L1 36.6828L1.14295 4.88541Z" stroke="#6D6D6D" stroke-width="0.5" stroke-miterlimit="22.9256"/>
<path fill-rule="evenodd" clip-rule="evenodd" d="M5.07661 7.88091L7.90087 4.41696H34.317L37.3717 7.90725L37.4074 33.5463L34.0696 37.5493L7.94975 37.5418L4.96094 33.7786L5.07661 7.88091Z" stroke="#6D6D6D" stroke-width="0.5" stroke-miterlimit="22.9256"/>
<path fill-rule="evenodd" clip-rule="evenodd" d="M7.3722 9.62419L9.91699 6.79245H32.2953L35.0424 9.57715V31.9112L32.1109 35.1748L9.91699 35.2077L7.27344 32.1417L7.3722 9.62419Z" stroke="#6D6D6D" stroke-width="0.5" stroke-miterlimit="22.9256"/>
<path fill-rule="evenodd" clip-rule="evenodd" d="M9.5837 11.39L11.8077 9.07376H30.4182L32.8096 11.4116V30.1594L30.2724 32.9263H11.8284L9.5 30.3523L9.5837 11.39Z" stroke="#6D6D6D" stroke-width="0.5" stroke-miterlimit="22.9256"/>
<path d="M5 1L11.8225 9.07376" stroke="#6D6D6D" stroke-width="0.5" stroke-miterlimit="22.9256"/>
<path d="M1.14062 4.88531L9.58787 11.3899" stroke="#6D6D6D" stroke-width="0.5" stroke-miterlimit="22.9256"/>
<path d="M30.4297 9.07376L37.192 1" stroke="#6D6D6D" stroke-width="0.5" stroke-miterlimit="22.9256"/>
<path d="M41.319 4.92123L32.8125 11.4117" stroke="#6D6D6D" stroke-width="0.5" stroke-miterlimit="22.9256"/>
<path d="M32.8125 30.1595L41.319 36.3602" stroke="#6D6D6D" stroke-width="0.5" stroke-miterlimit="22.9256"/>
<path d="M30.2812 32.9262L36.9373 41" stroke="#6D6D6D" stroke-width="0.5" stroke-miterlimit="22.9256"/>
<path d="M5.03125 41L11.8378 32.9262" stroke="#6D6D6D" stroke-width="0.5" stroke-miterlimit="22.9256"/>
<path d="M1 36.6829L9.50651 30.3524" stroke="#6D6D6D" stroke-width="0.5" stroke-miterlimit="22.9256"/>
</svg>
