<svg width="44" height="42" viewBox="0 0 44 42" fill="none" xmlns="http://www.w3.org/2000/svg">
<path fill-rule="evenodd" clip-rule="evenodd" d="M22.4221 1C33.083 14.7215 40.3657 27.2135 43.2239 38.0973C28.4606 42.1143 14.4364 41.8181 1 38.0973C5.50078 24.2235 12.9553 12.036 22.4221 1Z" stroke="#6D6D6D" stroke-width="0.5" stroke-miterlimit="22.9256"/>
<path fill-rule="evenodd" clip-rule="evenodd" d="M22.296 10.7881C28.6334 18.9446 32.9615 26.3704 34.6617 32.8398C25.8858 35.2271 17.5501 35.0516 9.5625 32.8398C12.2377 24.5922 16.6698 17.3484 22.296 10.7881Z" stroke="#6D6D6D" stroke-width="0.5" stroke-miterlimit="22.9256"/>
<path d="M18.0938 6.31046L22.2936 10.788L26.5781 6.52867" stroke="#6D6D6D" stroke-width="0.5" stroke-miterlimit="22.9256"/>
<path d="M22.4212 1L19.8509 8.18156L15.8265 19.5259L6.38661 32.6893L1 38.0973" stroke="#6D6D6D" stroke-width="0.5" stroke-miterlimit="22.9256"/>
<path d="M8.40631 39.7845L8.42853 35.7034L9.56512 32.8406L6.3894 32.6893L3.11719 32.2352" stroke="#6D6D6D" stroke-width="0.5" stroke-miterlimit="22.9256"/>
<path d="M34.6641 32.8406L43.2264 38.0973" stroke="#6D6D6D" stroke-width="0.5" stroke-miterlimit="22.9256"/>
<path d="M8.42969 35.7034L22.4252 40.9545L36.0064 35.9699L43.2269 38.0973" stroke="#6D6D6D" stroke-width="0.5" stroke-miterlimit="22.9256"/>
<path d="M36.3661 39.6666L36.0059 35.9699L34.6641 32.8406" stroke="#6D6D6D" stroke-width="0.5" stroke-miterlimit="22.9256"/>
<path d="M1 38.0973L8.42574 35.7034L17.1812 34.3041" stroke="#6D6D6D" stroke-width="0.5" stroke-miterlimit="22.9256"/>
<path d="M27.0312 34.2957L36.0012 35.9699" stroke="#6D6D6D" stroke-width="0.5" stroke-miterlimit="22.9256"/>
<path d="M22.6172 1.25256L24.7882 8.30969L28.4569 19.5055L38.2617 32.7329L43.1005 38.0221" stroke="#6D6D6D" stroke-width="0.5" stroke-miterlimit="22.9256"/>
<path d="M34.6606 32.8406L38.2626 32.7329L34.8166 18.9984L24.7891 8.30966" stroke="#6D6D6D" stroke-width="0.5" stroke-miterlimit="22.9256"/>
<path d="M19.8549 8.18158L10.2349 17.8378L6.39062 32.6893" stroke="#6D6D6D" stroke-width="0.5" stroke-miterlimit="22.9256"/>
</svg>
