<svg width="208" height="50" viewBox="0 0 208 50" fill="none" xmlns="http://www.w3.org/2000/svg">
<path d="M194.804 -7.62939e-06H187.675H165.152H158.023L155.655 2.02996L155.147 2.48911L152.682 4.61575H159.425H193.403H200.145L194.804 -7.62939e-06Z" fill="#242628"/>
<path d="M176.825 -7.62939e-06H164.331H165.152H158.023L155.655 2.02996L155.147 2.48911L152.682 4.61575H159.425H170.058H176.825V-7.62939e-06Z" fill="#242628"/>
<path d="M176.003 -7.62939e-06H188.497H187.675H194.804L197.173 2.02996L197.68 2.48911L200.145 4.61575H193.403H182.769H176.003V-7.62939e-06Z" fill="#242628"/>
<path d="M194.273 26.0512L190.889 28.9754L186.539 32.7453L183.156 35.6694L178.589 39.6327C177.332 40.7202 175.495 40.7202 174.239 39.6327L168.56 34.7028L165.176 31.7786L161.914 28.9512L158.531 26.0271L154.181 22.2571L150.798 19.333L146.109 15.2731C144.587 13.9439 144.587 11.5756 146.109 10.2707L149.758 7.10488L152.634 4.61575L155.099 2.48912L155.631 2.02996L157.975 0H165.128C164.21 0.57999 163.34 1.23248 162.494 1.95747L162.397 2.02996L161.866 2.48912L159.401 4.61575L156.549 7.10488L150.967 11.9381C150.459 12.3731 150.459 13.1706 150.967 13.6056L154.205 16.4089L157.588 19.333L161.962 23.1029L165.346 26.0271L168.608 28.8545L171.991 31.7786L175.737 35.0169C176.148 35.3794 176.776 35.3794 177.187 35.0169L179.821 32.7211L183.204 29.797L187.579 26.0271L183.108 22.1605L179.725 19.2363L176.97 16.8681C176.68 16.6264 176.245 16.6264 175.955 16.8681L172.064 20.203L168.681 17.2789L174.239 12.4456C175.495 11.3581 177.332 11.3581 178.589 12.4456L183.059 16.3122L186.443 19.2363L190.914 23.1271L194.273 26.0512Z" fill="#242628"/>
<path d="M194.804 -7.62939e-06L197.148 2.02996L197.68 2.48912L200.145 4.61575L203.021 7.10487L206.67 10.2707C208.192 11.5998 208.192 13.9681 206.67 15.2731L200.894 20.2755L197.511 17.3514L201.837 13.6056C202.344 13.1706 202.344 12.3731 201.837 11.9381L196.254 7.10487L193.378 4.61575L190.913 2.48912L190.382 2.02996L190.285 1.95746C189.439 1.23247 188.569 0.579983 187.651 -7.62939e-06H194.804Z" fill="#242628"/>
<path d="M15.2489 39.4877C13.7748 40.1402 11.914 40.4543 9.69067 40.4543C3.23828 40.4543 0 37.2644 0 30.9087C0 24.8913 3.28661 21.8705 9.85984 21.8705C11.8656 21.8705 13.6539 22.1605 15.2489 22.7646V25.8338C13.6781 25.1571 11.9623 24.8188 10.1257 24.8188C5.72741 24.8188 3.52827 26.8487 3.52827 30.9087C3.52827 35.3069 5.60657 37.5061 9.76317 37.5061C10.3673 37.5061 11.0682 37.4094 11.8656 37.1919V31.8512H15.2731V39.4877H15.2489Z" fill="#242628"/>
<path d="M21.8463 21.8705V37.5061H29.1204V40.4543H18.4389V21.8705H21.8463Z" fill="#242628"/>
<path d="M29.7728 31.1987C29.7728 24.9879 32.8419 21.8705 38.9802 21.8705C45.0217 21.8705 48.0425 24.9879 48.0425 31.1987C48.0425 37.3852 45.0217 40.4543 38.9802 40.4543C33.1078 40.4543 30.0387 37.3611 29.7728 31.1987ZM38.9802 37.5061C42.6776 37.5061 44.5143 35.3794 44.5143 31.102C44.5143 26.8971 42.6776 24.8188 38.9802 24.8188C35.1861 24.8188 33.3011 26.9212 33.3011 31.102C33.3011 35.3794 35.1861 37.5061 38.9802 37.5061Z" fill="#242628"/>
<path d="M49.7583 21.8946H53.2141L55.1716 35.3069L59.9323 21.8946H63.1948L67.6655 34.7752L69.7438 21.8946H73.0788L69.623 40.4543H66.3847L61.3581 26.0754L55.9691 40.4543H52.7791L49.7583 21.8946Z" fill="#242628"/>
<path d="M80.9087 39.5602V36.4911C82.7453 37.1677 84.8236 37.5061 87.1436 37.5061C89.9469 37.5061 91.3485 36.5636 91.3485 34.6786C91.3485 33.3011 90.4785 32.6245 88.7627 32.6245H85.8869C82.1412 32.6245 80.2562 30.9087 80.2562 27.5012C80.2562 23.7313 82.9145 21.8705 88.2552 21.8705C90.3094 21.8705 92.2427 22.1605 94.0793 22.7646V25.8338C92.2427 25.1571 90.3094 24.8188 88.2552 24.8188C85.1861 24.8188 83.6395 25.7129 83.6395 27.5012C83.6395 28.8787 84.3886 29.5554 85.8628 29.5554H88.7386C92.726 29.5554 94.7318 31.2712 94.7318 34.6786C94.7318 38.521 92.1943 40.4543 87.1194 40.4543C84.7995 40.4543 82.7453 40.1643 80.9087 39.5602Z" fill="#242628"/>
<path d="M109.594 21.8463V24.7946H104.35V40.4543H100.942V24.7946H95.6984V21.8463H109.594Z" fill="#242628"/>
<path d="M111.479 40.4543H107.999L115.781 21.8463H119.43L127.38 40.4543H123.731L121.653 35.4519H115.563L116.723 32.5036H120.42L117.545 25.3504L111.479 40.4543Z" fill="#242628"/>
<path d="M129.628 40.4543V21.8463H137.965C141.711 21.8463 143.572 23.4896 143.572 26.7521C143.572 28.9753 142.122 31.0778 139.198 32.5278L144.998 40.4543H140.72L135.138 32.4795V30.9328C138.376 30.377 140.019 28.8303 140.019 26.8729C140.019 25.5196 139.27 24.8429 137.748 24.8429H133.108V40.4543H129.628Z" fill="#242628"/>
<path d="M82.5036 45.7467V46.1817H80.2803V47.6075H82.3828V48.0425H80.2803V49.5167H82.552V49.9517H79.7487V45.7226H82.5036V45.7467Z" fill="#242628"/>
<path d="M84.1227 48.4292L82.9627 46.8826H83.5911L84.4369 48.0184L85.2827 46.8826H85.911L84.751 48.4292L85.911 49.9759H85.2827L84.4369 48.8401L83.5911 49.9759H82.9627L84.1227 48.4292Z" fill="#242628"/>
<path d="M88.7626 49.9034C88.4968 49.9517 88.231 50 87.941 50C86.8293 50 86.2735 49.4684 86.2735 48.3809C86.2735 47.3901 86.8293 46.8826 87.941 46.8826C88.231 46.8826 88.521 46.9068 88.7626 46.9793V47.4142C88.4968 47.3659 88.231 47.3176 87.9168 47.3176C87.1918 47.3176 86.8293 47.6559 86.8293 48.3567C86.8293 49.1301 87.1918 49.5167 87.9168 49.5167C88.231 49.5167 88.521 49.4925 88.7626 49.42V49.9034Z" fill="#242628"/>
<path d="M90.7443 46.8826C91.6384 46.8826 92.0734 47.3176 92.0734 48.1876C92.0734 48.3084 92.0734 48.4534 92.0493 48.5984H89.8743C89.8743 49.2267 90.2368 49.5409 90.986 49.5409C91.3484 49.5409 91.6626 49.4925 91.9284 49.42V49.855C91.6626 49.9275 91.3243 49.9759 90.9376 49.9759C89.8743 49.9759 89.3426 49.4442 89.3426 48.3809C89.3185 47.3901 89.8018 46.8826 90.7443 46.8826ZM89.8501 48.1392H91.5418C91.5418 47.5834 91.2759 47.3176 90.7443 47.3176C90.1885 47.3176 89.8985 47.5834 89.8501 48.1392Z" fill="#242628"/>
<path d="M93.3784 45.7468V49.9759H92.8226V45.7468H93.3784Z" fill="#242628"/>
<path d="M94.8767 45.7468V49.9759H94.3209V45.7468H94.8767Z" fill="#242628"/>
<path d="M97.0758 46.8826C97.97 46.8826 98.405 47.3176 98.405 48.1876C98.405 48.3084 98.405 48.4534 98.3808 48.5984H96.2058C96.2058 49.2267 96.5683 49.5409 97.3175 49.5409C97.68 49.5409 97.9941 49.4925 98.26 49.42V49.855C97.9941 49.9275 97.6558 49.9759 97.2692 49.9759C96.2058 49.9759 95.6742 49.4442 95.6742 48.3809C95.65 47.3901 96.1092 46.8826 97.0758 46.8826ZM96.1817 48.1392H97.8733C97.8733 47.5834 97.6075 47.3176 97.0758 47.3176C96.52 47.3176 96.23 47.5834 96.1817 48.1392Z" fill="#242628"/>
<path d="M99.1299 49.9759V46.8826H99.4924L99.5891 47.2692C99.9033 47.0034 100.266 46.8826 100.628 46.8826C101.402 46.8826 101.788 47.2692 101.788 48.0426V50H101.257V48.0426C101.257 47.5834 101.015 47.3417 100.556 47.3417C100.242 47.3417 99.9516 47.4626 99.6616 47.7284V49.9759H99.1299Z" fill="#242628"/>
<path d="M105.027 49.9034C104.761 49.9517 104.495 50 104.205 50C103.093 50 102.537 49.4684 102.537 48.3809C102.537 47.3901 103.093 46.8826 104.205 46.8826C104.495 46.8826 104.785 46.9068 105.027 46.9793V47.4142C104.761 47.3659 104.495 47.3176 104.181 47.3176C103.456 47.3176 103.093 47.6559 103.093 48.3567C103.093 49.1301 103.456 49.5167 104.181 49.5167C104.495 49.5167 104.785 49.4925 105.027 49.42V49.9034Z" fill="#242628"/>
<path d="M107.008 46.8826C107.902 46.8826 108.337 47.3176 108.337 48.1876C108.337 48.3084 108.337 48.4534 108.313 48.5984H106.138C106.138 49.2267 106.501 49.5409 107.25 49.5409C107.612 49.5409 107.926 49.4925 108.192 49.42V49.855C107.926 49.9275 107.588 49.9759 107.201 49.9759C106.138 49.9759 105.607 49.4442 105.607 48.3809C105.582 47.3901 106.066 46.8826 107.008 46.8826ZM106.114 48.1392H107.806C107.806 47.5834 107.516 47.3176 107.008 47.3176C106.452 47.3176 106.162 47.5834 106.114 48.1392Z" fill="#242628"/>
<path d="M111.237 45.7468V49.9759H110.681V45.7468H111.237Z" fill="#242628"/>
<path d="M112.276 49.9759V46.8826H112.639L112.736 47.2692C113.05 47.0034 113.412 46.8826 113.775 46.8826C114.548 46.8826 114.935 47.2692 114.935 48.0426V50H114.379V48.0426C114.379 47.5834 114.137 47.3417 113.678 47.3417C113.364 47.3417 113.074 47.4626 112.784 47.7284V49.9759H112.276Z" fill="#242628"/>
<path d="M117.375 49.9759V45.7468H118.922C120.324 45.7468 121.025 46.4234 121.025 47.7526C121.025 49.2509 120.324 49.9759 118.922 49.9759H117.375ZM118.922 49.5409C119.961 49.5409 120.469 48.9367 120.469 47.7526C120.469 46.7134 119.961 46.2059 118.922 46.2059H117.931V49.5409H118.922Z" fill="#242628"/>
<path d="M122.354 45.7468V46.2543H121.798V45.7468H122.354ZM122.354 46.8826V49.9759H121.798V46.8826H122.354Z" fill="#242628"/>
<path d="M123.151 49.0576C123.151 48.4292 123.562 48.0909 124.408 48.0909C124.674 48.0909 124.94 48.1151 125.23 48.1392V47.8492C125.23 47.4867 124.94 47.3176 124.384 47.3176C124.07 47.3176 123.731 47.3659 123.393 47.4626V47.0276C123.731 46.9309 124.045 46.8826 124.384 46.8826C125.302 46.8826 125.761 47.1967 125.761 47.8492V50H125.447L125.254 49.6859C124.94 49.8792 124.601 50 124.239 50C123.538 49.9759 123.151 49.6859 123.151 49.0576ZM124.408 48.5259C123.925 48.5259 123.707 48.6951 123.707 49.0334C123.707 49.3717 123.9 49.5409 124.263 49.5409C124.65 49.5409 124.964 49.4442 125.23 49.2509V48.5984C124.964 48.5501 124.698 48.5259 124.408 48.5259Z" fill="#242628"/>
<path d="M126.655 49.9759V46.8826H127.018L127.115 47.2692C127.405 47.0034 127.743 46.8826 128.081 46.8826C128.54 46.8826 128.83 47.0276 128.999 47.3176C129.338 47.0276 129.676 46.8826 130.014 46.8826C130.739 46.8826 131.078 47.2692 131.078 48.0667V50H130.522V48.0426C130.522 47.5834 130.329 47.3417 129.942 47.3417C129.652 47.3417 129.386 47.4867 129.12 47.7526V50H128.565V48.0426C128.565 47.5834 128.371 47.3417 127.985 47.3417C127.67 47.3417 127.405 47.4867 127.163 47.7526V50H126.655V49.9759Z" fill="#242628"/>
<path d="M131.851 48.4292C131.851 47.3901 132.334 46.8826 133.325 46.8826C134.316 46.8826 134.799 47.3901 134.799 48.4292C134.799 49.4684 134.316 49.9759 133.325 49.9759C132.359 49.9759 131.851 49.4684 131.851 48.4292ZM133.325 49.5409C133.954 49.5409 134.268 49.1784 134.268 48.4292C134.268 47.7042 133.954 47.3417 133.325 47.3417C132.697 47.3417 132.383 47.7042 132.383 48.4292C132.407 49.1784 132.721 49.5409 133.325 49.5409Z" fill="#242628"/>
<path d="M135.549 49.9759V46.8826H135.911L136.008 47.2692C136.322 47.0034 136.684 46.8826 137.047 46.8826C137.82 46.8826 138.207 47.2692 138.207 48.0426V50H137.651V48.0426C137.651 47.5834 137.409 47.3417 136.95 47.3417C136.636 47.3417 136.346 47.4626 136.056 47.7284V49.9759H135.549Z" fill="#242628"/>
<path d="M141.735 49.8067C141.348 49.9276 140.889 50 140.333 50C139.415 50 138.956 49.4684 138.956 48.3809C138.956 47.3901 139.439 46.8826 140.43 46.8826C140.696 46.8826 140.962 46.9309 141.179 47.0276V45.7468H141.735V49.8067ZM141.203 47.5109C140.986 47.4143 140.72 47.3418 140.454 47.3418C139.826 47.3418 139.512 47.6801 139.512 48.3326C139.512 49.1301 139.826 49.5167 140.454 49.5167C140.744 49.5167 140.986 49.4684 141.203 49.3959V47.5109Z" fill="#242628"/>
<path d="M142.605 49.8308V49.3475C142.968 49.4684 143.33 49.5167 143.717 49.5167C144.2 49.5167 144.466 49.3717 144.466 49.0817C144.466 48.8159 144.297 48.6709 143.958 48.6709H143.523C142.847 48.6709 142.508 48.3567 142.508 47.7526C142.508 47.1726 142.943 46.8584 143.789 46.8584C144.152 46.8584 144.538 46.9067 144.901 47.0034V47.4867C144.538 47.3659 144.176 47.3176 143.789 47.3176C143.282 47.3176 143.016 47.4626 143.016 47.7526C143.016 48.0184 143.185 48.1634 143.499 48.1634H143.934C144.635 48.1634 144.998 48.4775 144.998 49.0817C144.998 49.6617 144.563 49.9758 143.717 49.9758C143.33 49.9758 142.968 49.9275 142.605 49.8308Z" fill="#242628"/>
</svg>
