<svg width="49" height="45" viewBox="0 0 49 45" fill="none" xmlns="http://www.w3.org/2000/svg">
<path d="M33.1522 6.2806V1.77217C33.1495 1.30139 32.9607 0.850782 32.6268 0.518814C32.293 0.186846 31.8414 0.00050354 31.3706 0.00050354C30.8998 0.00050354 30.4481 0.186846 30.1143 0.518814C29.7805 0.850782 29.5916 1.30139 29.589 1.77217V6.2806C29.5916 6.75138 29.7805 7.20198 30.1143 7.53395C30.4481 7.86592 30.8998 8.05226 31.3706 8.05226C31.8414 8.05226 32.293 7.86592 32.6268 7.53395C32.9607 7.20198 33.1495 6.75138 33.1522 6.2806Z" fill="black"/>
<path d="M41.6379 22.578V9.71696C41.6359 8.30608 41.0745 6.95356 40.0769 5.9559C39.0793 4.95824 37.7268 4.39685 36.3159 4.39478H34.9103V6.27255C34.9103 7.21109 34.5375 8.1112 33.8739 8.77485C33.2102 9.4385 32.3101 9.81133 31.3716 9.81133C30.433 9.81133 29.5329 9.4385 28.8693 8.77485C28.2056 8.1112 27.8328 7.21109 27.8328 6.27255V4.39478H13.8053V6.27255C13.8053 7.21109 13.4324 8.1112 12.7688 8.77485C12.1051 9.4385 11.205 9.81133 10.2665 9.81133C9.32794 9.81133 8.42783 9.4385 7.76418 8.77485C7.10053 8.1112 6.72769 7.21109 6.72769 6.27255V4.39478H5.32212C3.91123 4.39685 2.55872 4.95824 1.56107 5.9559C0.563426 6.95355 0.00204852 8.30607 0 9.71696V36.3167C0.00204706 37.7276 0.563425 39.0802 1.56107 40.0778C2.55872 41.0755 3.91123 41.6369 5.32212 41.6389H22.5773C22.3296 40.8831 22.1438 40.1083 22.0218 39.3223H5.32212C4.92738 39.3225 4.53646 39.2449 4.17173 39.0939C3.80699 38.9429 3.47559 38.7215 3.19647 38.4424C2.91734 38.1633 2.69597 37.8319 2.545 37.4671C2.39403 37.1024 2.31643 36.7115 2.31664 36.3167V15.2836H39.3213V22.0169C40.1076 22.1401 40.8824 22.3278 41.6379 22.578Z" fill="black"/>
<path d="M12.0486 6.2806V1.77217C12.0461 1.3013 11.8573 0.850565 11.5235 0.518488C11.1897 0.186411 10.7379 0 10.2671 0C9.79618 0 9.34445 0.186411 9.01061 0.518488C8.67677 0.850565 8.48797 1.3013 8.48547 1.77217V6.2806C8.48797 6.75147 8.67677 7.2022 9.01061 7.53428C9.34445 7.86636 9.79618 8.05277 10.2671 8.05277C10.7379 8.05277 11.1897 7.86636 11.5235 7.53428C11.8573 7.2022 12.0461 6.75147 12.0486 6.2806Z" fill="black"/>
<path d="M15.9551 23.9629L13.7635 18.7274L11.5713 23.9629L5.91467 24.4295L10.2169 28.1323L8.91243 33.6561L13.7635 30.7089L18.614 33.6561L17.3096 28.1323L21.6118 24.4295L15.9551 23.9629Z" fill="black"/>
<path fill-rule="evenodd" clip-rule="evenodd" d="M28.8886 25H44.4442L48.3333 31.798L37.3147 44.7143C37.1441 44.8972 36.9104 45 36.6665 45C36.423 45 36.1893 44.8972 36.0186 44.7143L25 31.798L28.8891 25" fill="url(#paint0_linear_167_1426)"/>
<defs>
<linearGradient id="paint0_linear_167_1426" x1="27.7451" y1="23.5714" x2="48.4138" y2="42.7449" gradientUnits="userSpaceOnUse">
<stop stop-color="#B5DFF1"/>
<stop offset="1" stop-color="#0C4875"/>
</linearGradient>
</defs>
</svg>
