<svg width="19" height="19" viewBox="0 0 19 19" fill="none" xmlns="http://www.w3.org/2000/svg">
<g id="icon">
<path id="Vector" d="M15.8751 18C16.2132 18 16.5375 17.8657 16.7767 17.6266C17.0158 17.3874 17.1501 17.0631 17.1501 16.725C17.1501 16.3868 17.0158 16.0625 16.7767 15.8234C16.5375 15.5843 16.2132 15.45 15.8751 15.45C15.5369 15.45 15.2126 15.5843 14.9735 15.8234C14.7344 16.0625 14.6001 16.3868 14.6001 16.725C14.6001 17.0631 14.7344 17.3874 14.9735 17.6266C15.2126 17.8657 15.5369 18 15.8751 18ZM7.3751 18C7.71325 18 8.03755 17.8657 8.27666 17.6266C8.51577 17.3874 8.6501 17.0631 8.6501 16.725C8.6501 16.3868 8.51577 16.0625 8.27666 15.8234C8.03755 15.5843 7.71325 15.45 7.3751 15.45C7.03695 15.45 6.71265 15.5843 6.47354 15.8234C6.23443 16.0625 6.1001 16.3868 6.1001 16.725C6.1001 17.0631 6.23443 17.3874 6.47354 17.6266C6.71265 17.8657 7.03695 18 7.3751 18Z" stroke="#212529" stroke-opacity="0.92" stroke-linecap="round" stroke-linejoin="round"/>
<path id="Vector_2" d="M3.55 2.7H18L16.3 12.05M3.55 2.7L5.25 12.05H16.3M3.55 2.7C3.40805 2.13305 2.7 1 1 1M16.3 12.05H3.7455C2.2291 12.05 1.425 12.7138 1.425 13.75C1.425 14.7861 2.2291 15.45 3.7455 15.45H15.875" stroke="#212529" stroke-opacity="0.92" stroke-linecap="round" stroke-linejoin="round"/>
</g>
</svg>
