<svg width="16" height="16" viewBox="0 0 16 16" fill="none" xmlns="http://www.w3.org/2000/svg">
<path id="Vector" d="M4.75 15.8333C4.31459 15.8333 3.94171 15.6782 3.63138 15.3678C3.32104 15.0575 3.16614 14.6849 3.16667 14.25C3.16667 13.8146 3.32184 13.4417 3.63217 13.1314C3.9425 12.821 4.31511 12.6661 4.75 12.6667C5.18542 12.6667 5.55829 12.8218 5.86863 13.1322C6.17896 13.4425 6.33386 13.8151 6.33334 14.25C6.33334 14.6854 6.17817 15.0583 5.86784 15.3686C5.5575 15.679 5.18489 15.8339 4.75 15.8333ZM12.6667 15.8333C12.2313 15.8333 11.8584 15.6782 11.548 15.3678C11.2377 15.0575 11.0828 14.6849 11.0833 14.25C11.0833 13.8146 11.2385 13.4417 11.5488 13.1314C11.8592 12.821 12.2318 12.6661 12.6667 12.6667C13.1021 12.6667 13.475 12.8218 13.7853 13.1322C14.0956 13.4425 14.2505 13.8151 14.25 14.25C14.25 14.6854 14.0948 15.0583 13.7845 15.3686C13.4742 15.679 13.1016 15.8339 12.6667 15.8333ZM1.58334 1.58334H0.791669C0.567364 1.58334 0.379211 1.50734 0.227211 1.35534C0.075211 1.20334 -0.000525038 1.01545 2.73933e-06 0.791669C2.73933e-06 0.567364 0.0760027 0.379211 0.228003 0.227211C0.380003 0.075211 0.567892 -0.000525038 0.791669 2.73933e-06H2.09792C2.24306 2.73933e-06 2.3816 0.0395861 2.51354 0.118753C2.64549 0.197919 2.74445 0.310072 2.81042 0.455211L5.95729 7.125H11.499L14.3688 1.97917C14.4347 1.84723 14.5271 1.74827 14.6458 1.68229C14.7646 1.61632 14.8965 1.58334 15.0417 1.58334C15.3451 1.58334 15.5729 1.71211 15.7249 1.96967C15.8769 2.22723 15.88 2.48768 15.7344 2.75104L12.9042 7.87709C12.759 8.14097 12.5643 8.34549 12.3199 8.49063C12.0756 8.63577 11.8085 8.70834 11.5188 8.70834H5.62084L4.75 10.2917H13.4583C13.6826 10.2917 13.8708 10.3677 14.0228 10.5197C14.1748 10.6717 14.2505 10.8596 14.25 11.0833C14.25 11.3076 14.174 11.4958 14.022 11.6478C13.87 11.7998 13.6821 11.8755 13.4583 11.875H4.75C4.15625 11.875 3.70421 11.6177 3.39388 11.1031C3.08354 10.5885 3.07378 10.0674 3.36459 9.53959L4.43334 7.6L1.58334 1.58334ZM8.84688 3.95834H6.33334C6.10903 3.95834 5.92088 3.88234 5.76888 3.73034C5.61688 3.57834 5.54114 3.39045 5.54167 3.16667C5.54167 2.94236 5.61767 2.75421 5.76967 2.60221C5.92167 2.45021 6.10956 2.37448 6.33334 2.375H8.84688L8.13438 1.6625C7.97604 1.50417 7.90005 1.31945 7.90638 1.10834C7.91271 0.897225 7.99531 0.712503 8.15417 0.554169C8.3125 0.409031 8.49723 0.33303 8.70834 0.326169C8.91945 0.319308 9.10417 0.395308 9.2625 0.554169L11.3208 2.6125C11.4792 2.77084 11.5583 2.95556 11.5583 3.16667C11.5583 3.37778 11.4792 3.5625 11.3208 3.72084L9.2625 5.77917C9.11736 5.92431 8.93607 6.00031 8.71863 6.00717C8.50118 6.01403 8.31303 5.93803 8.15417 5.77917C8.00903 5.63403 7.93646 5.44931 7.93646 5.225C7.93646 5.0007 8.00903 4.81598 8.15417 4.67084L8.84688 3.95834Z" fill="#4D4D4D" fill-opacity="0.75"/>
</svg>
