<svg width="11" height="12" viewBox="0 0 11 12" fill="none" xmlns="http://www.w3.org/2000/svg">
<path d="M7.33336 5.54235V2.20362C7.33395 2.03401 7.30233 1.86599 7.24038 1.70952C7.17843 1.55305 7.08741 1.41131 6.9727 1.29267L5.92803 0.188688C5.8715 0.128871 5.80437 0.0814179 5.73047 0.0490414C5.65657 0.0166648 5.57736 0 5.49736 0C5.41737 0 5.33816 0.0166648 5.26426 0.0490414C5.19036 0.0814179 5.12323 0.128871 5.0667 0.188688L4.02736 1.28633C3.91326 1.40647 3.82268 1.5492 3.7608 1.70635C3.69891 1.8635 3.66694 2.032 3.6667 2.20221V2.95887H1.22203C0.898261 2.95998 0.588052 3.0964 0.359111 3.33834C0.13017 3.58028 0.00108515 3.9081 3.05176e-05 4.25026V10.7086C0.00108515 11.0508 0.13017 11.3786 0.359111 11.6205C0.588052 11.8625 0.898261 11.9989 1.22203 12H9.77803C10.1018 11.9989 10.412 11.8625 10.641 11.6205C10.8699 11.3786 10.999 11.0508 11 10.7086V6.83374C10.999 6.49158 10.8699 6.16376 10.641 5.92182C10.412 5.67988 10.1018 5.54347 9.77803 5.54235H7.33336ZM2.4447 10.7086H1.22203V9.41722H2.4447V10.7086ZM2.4447 8.12513H1.22203V6.83374H2.4447V8.12513ZM2.4447 5.54165H1.22203V4.25026H2.4447V5.54165ZM6.11136 10.7079H4.8887V9.41722H6.1107L6.11136 10.7079ZM6.11136 8.12442H4.8887V6.83374H6.1107L6.11136 8.12442ZM6.11136 5.54094H4.8887V4.25026H6.1107L6.11136 5.54094ZM6.11136 2.95746H4.8887V1.66748H6.1107L6.11136 2.95746ZM9.77803 10.7072H8.55536V9.41722H9.77736L9.77803 10.7072ZM9.77803 8.12372H8.55536V6.83374H9.77736L9.77803 8.12372Z" fill="#212529" fill-opacity="0.9"/>
</svg>
