<svg width="17" height="15" viewBox="0 0 17 15" fill="none" xmlns="http://www.w3.org/2000/svg">
<path id="Vector" d="M1.56962 2.85714H16L13.7215 10.2857H3.8481L1.56962 2.85714ZM1.56962 2.85714L1 1M6.88 6.57143H8.39899M8.39899 6.57143H9.91797M8.39899 6.57143V5.08571M8.39899 6.57143V8.05714M7.64557 12.8857C7.64557 13.1812 7.52554 13.4647 7.31189 13.6736C7.09824 13.8826 6.80847 14 6.50633 14C6.20418 14 5.91441 13.8826 5.70076 13.6736C5.48712 13.4647 5.36709 13.1812 5.36709 12.8857M12.2025 12.8857C12.2025 13.1812 12.0825 13.4647 11.8689 13.6736C11.6552 13.8826 11.3654 14 11.0633 14C10.7611 14 10.4714 13.8826 10.2577 13.6736C10.0441 13.4647 9.92405 13.1812 9.92405 12.8857" stroke="white" stroke-linecap="round" stroke-linejoin="round"/>
</svg>
