<svg width="28" height="28" viewBox="0 0 28 28" fill="none" xmlns="http://www.w3.org/2000/svg">
<mask id="mask0_2154_2707" style="mask-type:alpha" maskUnits="userSpaceOnUse" x="0" y="0" width="28" height="28">
<circle cx="14" cy="14" r="14" fill="#D9D9D9"/>
</mask>
<g mask="url(#mask0_2154_2707)">
<mask id="mask1_2154_2707" style="mask-type:luminance" maskUnits="userSpaceOnUse" x="-5" y="0" width="39" height="28">
<path d="M-5 0H33.5V28H-5V0Z" fill="white"/>
</mask>
<g mask="url(#mask1_2154_2707)">
<mask id="mask2_2154_2707" style="mask-type:luminance" maskUnits="userSpaceOnUse" x="-5" y="0" width="39" height="28">
<path d="M30 0H-1.5C-3.433 0 -5 1.567 -5 3.5V24.5C-5 26.433 -3.433 28 -1.5 28H30C31.933 28 33.5 26.433 33.5 24.5V3.5C33.5 1.567 31.933 0 30 0Z" fill="white"/>
</mask>
<g mask="url(#mask2_2154_2707)">
<path d="M29.8334 0H-1.33333C-3.35838 0 -5 1.67147 -5 3.73333V24.2667C-5 26.3286 -3.35838 28 -1.33333 28H29.8334C31.8583 28 33.5 26.3286 33.5 24.2667V3.73333C33.5 1.67147 31.8583 0 29.8334 0Z" fill="white"/>
<path fill-rule="evenodd" clip-rule="evenodd" d="M-5 19.25H33.5V28H-5V19.25Z" fill="#151515"/>
<path fill-rule="evenodd" clip-rule="evenodd" d="M-5 0H33.5V8.75H-5V0Z" fill="#249F58"/>
<path fill-rule="evenodd" clip-rule="evenodd" d="M-5 0V28H5.5V0H-5Z" fill="#F93939"/>
</g>
</g>
</g>
</svg>
