<svg width="28" height="28" viewBox="0 0 28 28" fill="none" xmlns="http://www.w3.org/2000/svg">
<g clip-path="url(#clip0_2154_2703)">
<path d="M18.8696 0.870789C17.3529 0.308055 15.7125 0 14 0C12.2875 0 10.6471 0.308055 9.13048 0.870789L7.91309 14L9.13048 27.1292C10.6471 27.692 12.2875 28 14 28C15.7125 28 17.3529 27.692 18.8696 27.1292L20.087 14L18.8696 0.870789Z" fill="#FFDA44"/>
<path d="M28.0001 14C28.0001 7.98055 24.2008 2.8489 18.8696 0.87085V27.1293C24.2008 25.1511 28.0001 20.0196 28.0001 14Z" fill="#D80027"/>
<path d="M0 14C0 20.0196 3.79925 25.1511 9.13046 27.1293V0.87085C3.79925 2.8489 0 7.98055 0 14Z" fill="black"/>
</g>
<defs>
<clipPath id="clip0_2154_2703">
<rect width="28" height="28" fill="white"/>
</clipPath>
</defs>
</svg>
