<svg width="28" height="28" viewBox="0 0 28 28" fill="none" xmlns="http://www.w3.org/2000/svg">
<g clip-path="url(#clip0_2154_2688)">
<path d="M14 28C21.732 28 28 21.732 28 14C28 6.26801 21.732 0 14 0C6.26801 0 0 6.26801 0 14C0 21.732 6.26801 28 14 28Z" fill="#EE1C25"/>
<path d="M13.5334 14.0933C13.1601 13.72 12.9734 13.16 13.0668 12.6C13.2534 11.8533 14.1868 11.6667 14.6534 11.1067C15.1201 10.5467 15.1201 9.70668 14.7468 9.14668C14.4668 8.68001 14.5601 7.93335 15.1201 7.65335C15.2134 7.65335 15.3068 7.56001 15.4001 7.56001C13.8134 7.28001 12.2268 8.21335 11.6668 9.70668C10.9201 11.3867 11.7601 13.44 13.5334 14.0933Z" fill="#F0F0F0"/>
<path d="M13.8134 10.36L13.44 10.2667L13.16 10.64V10.1734L12.6934 10.08L13.0667 9.89335V9.52002L13.3467 9.80002L13.72 9.61335L13.5334 9.98669L13.8134 10.36Z" fill="#EE1C25"/>
<path d="M13.7202 13.9999C14.0002 13.4399 14.4669 13.1599 15.0269 13.1599C15.8669 13.1599 16.2402 13.9066 16.8935 14.1866C17.5469 14.3733 18.2935 14.1866 18.7602 13.6266C19.1335 13.1599 19.7869 13.0666 20.2535 13.4399C20.3469 13.5333 20.3469 13.5333 20.4402 13.6266C20.1602 12.0399 18.8535 10.8266 17.2669 10.7333C15.4935 10.6399 13.8135 12.1333 13.7202 13.9999Z" fill="#F0F0F0"/>
<path d="M17.3602 13.16V12.6933L16.8936 12.6L17.2669 12.4133V11.9467L17.5469 12.32L17.9202 12.1333L17.7336 12.5067L18.0136 12.88L17.5469 12.7867L17.3602 13.16Z" fill="#EE1C25"/>
<path d="M13.5333 14.28C13.0666 14.56 12.4133 14.56 11.9466 14.1866C11.2933 13.72 11.48 12.88 11.0133 12.2266C10.5466 11.6666 9.89331 11.3866 9.14665 11.5733C8.58665 11.76 8.02664 11.3866 7.83998 10.8266C7.83998 10.7333 7.83998 10.64 7.83998 10.5466C7.09331 11.9466 7.46665 13.72 8.67998 14.7466C10.1733 15.96 12.32 15.7733 13.5333 14.28Z" fill="#F0F0F0"/>
<path d="M10.0799 12.88L9.89322 13.2534L10.1732 13.5334L9.70656 13.44L9.51989 13.8134L9.42656 13.44L9.05322 13.3467L9.42656 13.16V12.6934L9.70656 13.0667L10.0799 12.88Z" fill="#EE1C25"/>
<path d="M13.7199 14.28C13.8132 14.84 13.6266 15.4 13.1599 15.7734C12.5066 16.24 11.7599 15.8667 11.0132 16.0534C10.3599 16.24 9.89324 16.8934 9.7999 17.64C9.7999 18.2 9.2399 18.6667 8.6799 18.6667C8.58657 18.6667 8.49324 18.6667 8.3999 18.5734C9.5199 19.6934 11.2932 19.88 12.6932 19.04C14.2799 18.1067 14.7466 15.96 13.7199 14.28Z" fill="#F0F0F0"/>
<path d="M11.2933 17.1733L11.5733 17.5467L12.0399 17.36L11.7599 17.7333L12.0399 18.0133L11.6666 17.92L11.3866 18.2933V17.92L10.9199 17.8267L11.3866 17.64L11.2933 17.1733Z" fill="#EE1C25"/>
<path d="M13.8135 14.1867C14.3735 14.28 14.8401 14.6533 15.0268 15.12C15.3068 15.8667 14.6535 16.52 14.6535 17.2667C14.6535 18.0133 15.1201 18.6667 15.7735 18.8533C16.3335 19.04 16.6135 19.6933 16.3335 20.2533C16.3335 20.3467 16.2401 20.44 16.2401 20.44C17.6401 19.6933 18.3868 18.1067 18.0135 16.52C17.5468 14.7467 15.6801 13.6267 13.8135 14.1867Z" fill="#F0F0F0"/>
<path d="M15.7734 17.36L16.2401 17.1733L16.1468 16.7067L16.4268 17.08L16.8934 16.8933L16.6134 17.2667L16.8934 17.64L16.5201 17.5467L16.2401 17.92V17.4533L15.7734 17.36Z" fill="#EE1C25"/>
</g>
<defs>
<clipPath id="clip0_2154_2688">
<rect width="28" height="28" fill="white"/>
</clipPath>
</defs>
</svg>
