<svg width="28" height="28" viewBox="0 0 28 28" fill="none" xmlns="http://www.w3.org/2000/svg">
<path d="M28 14C28 15.6352 27.7156 17.2047 27.2016 18.6703C25.2711 24.1008 20.0867 28 14 28C7.91328 28 2.72891 24.1008 0.798438 18.6703C0.284375 17.2047 0 15.6352 0 14C0 12.3648 0.284375 10.7953 0.798438 9.32969C2.72891 3.89922 7.91328 0 14 0C20.0867 0 25.2711 3.89922 27.2016 9.32969C27.7156 10.7953 28 12.3648 28 14Z" fill="white"/>
<path d="M27.2016 9.32969H0.798462C2.72893 3.89922 7.91331 0 14 0C20.0867 0 25.2711 3.89922 27.2016 9.32969Z" fill="#FF9933"/>
<path d="M27.2016 18.6703C25.2711 24.1008 20.0867 28 14 28C7.91331 28 2.72893 24.1008 0.798462 18.6703H27.2016Z" fill="#128807"/>
<path d="M14.4977 14.4211L14.5086 14.4156L14.5141 14.4101L14.525 14.3992C14.5305 14.3937 14.5305 14.3883 14.5305 14.3883L14.5414 14.3773L14.5469 14.3719C14.5469 14.3719 14.5523 14.3664 14.5578 14.3609L14.5633 14.3554L15.0719 14.7437L16.8383 15.6351L15.1867 14.5469L14.6016 14.3008L14.607 14.2953L14.6125 14.2844C14.6125 14.2844 14.618 14.2789 14.618 14.2734L14.6234 14.2625C14.6234 14.2625 14.6289 14.257 14.6289 14.2515L14.6344 14.2406L14.6398 14.2297L14.6453 14.2187L14.6508 14.2078C14.6508 14.2023 14.6508 14.2023 14.6508 14.2023L15.2414 14.4429L17.1773 14.8476L15.3016 14.2242L14.6727 14.1367L14.6781 14.1312V14.1203C14.6781 14.1148 14.6836 14.1148 14.6836 14.1148V14.1039L14.6891 14.0929C14.6891 14.0875 14.6891 14.0875 14.6891 14.0875L14.6945 14.0765V14.0547C14.6945 14.0492 14.6945 14.0437 14.6945 14.0437V14.0328L15.3289 14.1094L17.3031 13.9945L15.3289 13.8797L14.6945 13.9562V13.9508C14.6945 13.9453 14.6945 13.9398 14.6945 13.9398V13.9289L14.6891 13.9179C14.6891 13.9125 14.6891 13.9125 14.6891 13.9125L14.6836 13.8961V13.8906C14.6836 13.8851 14.6781 13.8797 14.6781 13.8797V13.8687L14.6727 13.8578L15.3016 13.7703L17.1773 13.1523L15.2414 13.557L14.6508 13.7976V13.7922L14.6453 13.7812L14.6398 13.7703C14.6398 13.7648 14.6398 13.7648 14.6398 13.7648L14.6344 13.7539C14.6289 13.7484 14.6289 13.7429 14.6289 13.7429C14.6234 13.7375 14.6234 13.732 14.6234 13.732L14.618 13.7211L14.6125 13.7101L14.607 13.7047L15.1922 13.4586L16.8437 12.3758L15.0773 13.2672L14.5687 13.65C14.5687 13.6445 14.5633 13.6445 14.5633 13.6445L14.5523 13.6336L14.5469 13.6226L14.5414 13.6172C14.5359 13.6117 14.5359 13.6117 14.5359 13.6117L14.525 13.6008L14.5195 13.5953C14.5195 13.5953 14.5141 13.5898 14.5086 13.5844L14.5031 13.5734L14.4977 13.5679L15.0008 13.1797L16.3187 11.7031L14.8313 13.0156L14.4375 13.5187L14.432 13.5133L14.4211 13.5078L14.4156 13.5023C14.4102 13.4969 14.4102 13.4969 14.4102 13.4969L14.3992 13.4859L14.3883 13.475L14.3828 13.4695L14.3719 13.464L14.3609 13.4586L14.3555 13.4531L14.7383 12.9445L15.6297 11.1781L14.5414 12.8297L14.2953 13.4148L14.2898 13.4094C14.2844 13.4094 14.2844 13.4039 14.2844 13.4039L14.2734 13.3984L14.2625 13.3929L14.2516 13.3875L14.2406 13.382L14.2297 13.3765L14.2187 13.3711L14.2078 13.3656L14.1969 13.3601L14.4375 12.7695L14.8422 10.8336L14.2242 12.7094L14.1367 13.3383H14.1312C14.1258 13.3328 14.1203 13.3328 14.1203 13.3328L14.1094 13.3273C14.1094 13.3273 14.1039 13.3273 14.0984 13.3273L14.0875 13.3219H14.0766H14.0711L14.0602 13.3164H14.0492C14.0492 13.3164 14.0438 13.3164 14.0383 13.3164L14.1148 12.6875L14 10.7133L13.8852 12.6875L13.9617 13.3164H13.9562H13.9453L13.9344 13.3219H13.9234H13.9125L13.9016 13.3273H13.8906L13.8797 13.3328C13.8797 13.3328 13.8742 13.3328 13.8688 13.3383H13.8633L13.7758 12.7094L13.1578 10.8336L13.5625 12.7695L13.8031 13.3601L13.7922 13.3656L13.7812 13.3711L13.7703 13.3765L13.7594 13.382C13.7594 13.382 13.7539 13.3875 13.7484 13.3875L13.7375 13.3929L13.7266 13.3984L13.7211 13.4039C13.7156 13.4094 13.7102 13.4094 13.7102 13.4094L13.6992 13.4148L13.4531 12.8297L12.3703 11.1781L13.2617 12.9445L13.6445 13.4531C13.6391 13.4586 13.6391 13.4586 13.6391 13.4586L13.6281 13.4695C13.6227 13.4695 13.6227 13.475 13.6227 13.475L13.6117 13.4804L13.6008 13.4914L13.5898 13.4969L13.5844 13.5023L13.5789 13.5078L13.568 13.5133L13.5625 13.5187L13.1688 13.0156L11.6977 11.6976L13.0156 13.1742L13.5187 13.5625L13.5133 13.5679L13.5078 13.5789C13.5023 13.5844 13.5023 13.5844 13.5023 13.5844L13.4969 13.5953L13.4859 13.6062C13.4859 13.6062 13.4805 13.6117 13.4805 13.6172L13.475 13.6226L13.4695 13.6336L13.4586 13.6445L13.4531 13.65L12.9445 13.2672L11.1781 12.3758L12.8297 13.4586L13.4148 13.7047C13.4148 13.7101 13.4094 13.7101 13.4094 13.7101L13.4039 13.7211L13.3984 13.732L13.393 13.7375L13.3875 13.7484L13.382 13.7594L13.3766 13.7648L13.3711 13.7758L13.3656 13.7867V13.7922L12.775 13.5515L10.8391 13.1469L12.7203 13.7648L13.3492 13.8523L13.3437 13.8633V13.8742L13.3383 13.8851V13.8906L13.3328 13.9015V13.9125L13.3273 13.9234V13.9344C13.3273 13.9344 13.3273 13.9398 13.3273 13.9453V13.9508L12.693 13.8742L10.7188 13.989L12.693 14.1039L13.3273 14.0273V14.0383C13.3273 14.0383 13.3273 14.0437 13.3273 14.0492V14.0601L13.3328 14.0656V14.0765L13.3383 14.0875V14.0984C13.3383 14.0984 13.3437 14.1039 13.3437 14.1094V14.1203L13.3492 14.1258L12.7203 14.2133L10.8391 14.8367L12.775 14.432L13.3656 14.1914C13.3656 14.1914 13.3656 14.1969 13.3656 14.2023L13.3711 14.2133L13.3766 14.2242L13.382 14.2351C13.382 14.2406 13.3875 14.2406 13.3875 14.2406L13.393 14.257L13.3984 14.2679C13.3984 14.2734 13.4039 14.2734 13.4039 14.2734L13.4094 14.2844L13.4148 14.2898L12.8297 14.5359L11.1781 15.6242L12.9445 14.7328L13.4531 14.3445L13.4586 14.35C13.4641 14.3554 13.4641 14.3609 13.4641 14.3609L13.4695 14.3719C13.475 14.3773 13.475 14.3773 13.475 14.3773C13.475 14.3773 13.4805 14.3828 13.4859 14.3883L13.4969 14.3992L13.5023 14.4047C13.5023 14.4047 13.5078 14.4101 13.5133 14.4101C13.5133 14.4101 13.5187 14.4156 13.5187 14.4211L13.5242 14.4265L13.0211 14.8203L11.7031 16.2914L13.1742 14.9789L13.568 14.4758C13.5734 14.4758 13.5734 14.4812 13.5734 14.4812C13.5789 14.4867 13.5844 14.4867 13.5844 14.4867L13.5953 14.4976L13.6008 14.5031L13.6117 14.514L13.6227 14.5195L13.6281 14.525C13.6281 14.525 13.6336 14.5304 13.6391 14.5304L13.65 14.5359L13.6555 14.5414L13.2727 15.05L12.3812 16.8164L13.4641 15.1648L13.7102 14.5797L13.7156 14.5851C13.7211 14.5906 13.7266 14.5906 13.7266 14.5906L13.732 14.5961L13.743 14.6015L13.7539 14.607C13.7594 14.6125 13.7594 14.6125 13.7594 14.6125L13.7703 14.6179L13.7812 14.6234C13.7812 14.6234 13.7867 14.6289 13.7922 14.6289L13.8031 14.6344L13.5625 15.225L13.1578 17.1609L13.7758 15.2851L13.8633 14.6562L13.8688 14.6617H13.8797L13.8906 14.6672H13.9016L13.9125 14.6726H13.9234C13.9289 14.6781 13.9289 14.6781 13.9289 14.6781H13.9398H13.9508H13.9562L13.8797 15.3125L13.9945 17.2867L14.1094 15.3125L14.0328 14.6781C14.0383 14.6781 14.0383 14.6781 14.0383 14.6781H14.0492H14.0602C14.0602 14.6781 14.0656 14.6781 14.0656 14.6726H14.0766L14.0875 14.6672C14.093 14.6672 14.093 14.6672 14.093 14.6672L14.1039 14.6617H14.1148L14.1203 14.6562L14.2078 15.2851L14.8258 17.1609L14.4211 15.225L14.1805 14.6344L14.1914 14.6289C14.1969 14.6234 14.1969 14.6234 14.1969 14.6234L14.2078 14.6179L14.2187 14.6125L14.2297 14.607L14.2406 14.6015L14.2516 14.5961L14.257 14.5906L14.268 14.5851L14.2734 14.5797L14.5195 15.1648L15.6078 16.8164L14.7164 15.05L14.3336 14.5414L14.3391 14.5359L14.35 14.5304L14.3609 14.525C14.3664 14.5195 14.3664 14.5195 14.3664 14.5195L14.3773 14.5086L14.3883 14.4976L14.3938 14.4922L14.3992 14.4867C14.3992 14.4867 14.4047 14.4812 14.4102 14.4758L14.4156 14.4703L14.8094 14.9734L16.2805 16.2859L14.9844 14.8312L14.4812 14.4375L14.4867 14.432C14.4922 14.4265 14.4977 14.4265 14.4977 14.4211Z" fill="#000088"/>
<path d="M14 10.2539C11.9273 10.2539 10.2539 11.9328 10.2539 14C10.2539 16.0672 11.9328 17.7461 14 17.7461C16.0672 17.7461 17.7461 16.0672 17.7461 14C17.7461 11.9328 16.0727 10.2539 14 10.2539ZM17.1992 14.6016L17.2211 14.607C17.1883 14.782 17.1445 14.9516 17.0844 15.1156C17.0078 15.0828 16.9148 15.1102 16.8766 15.1813C16.8273 15.2633 16.8547 15.3617 16.9367 15.4109C16.9367 15.4109 16.9531 15.4164 16.9586 15.4219C16.882 15.5805 16.7945 15.7336 16.6961 15.8758C16.6305 15.8211 16.532 15.8266 16.4719 15.8867C16.4117 15.9469 16.4117 16.0562 16.4719 16.1219C16.4719 16.1219 16.4828 16.1328 16.4883 16.1383C16.3734 16.275 16.2477 16.3953 16.1164 16.5102C16.0672 16.4445 15.9742 16.4227 15.8977 16.4664C15.8211 16.5156 15.7883 16.6141 15.8375 16.6906C15.843 16.7016 15.8484 16.7016 15.8484 16.7016C15.7062 16.8109 15.5586 16.8984 15.3945 16.9695C15.3672 16.893 15.2797 16.8492 15.1977 16.8711C15.1102 16.8984 15.0555 16.9859 15.0828 17.0734L15.0883 17.0953C14.9242 17.15 14.7547 17.1992 14.5797 17.232C14.5688 17.1445 14.5031 17.0844 14.4156 17.0844C14.3227 17.0844 14.2516 17.1555 14.2516 17.2484L14.257 17.2703C14.1695 17.2758 14.0875 17.2812 14 17.2812C13.907 17.2812 13.8195 17.2758 13.732 17.2703C13.743 17.1828 13.6937 17.1062 13.6117 17.0844C13.5187 17.057 13.4312 17.1117 13.4094 17.1992L13.4039 17.2211C13.2289 17.1883 13.0594 17.1445 12.8953 17.0844C12.9281 17.0078 12.9008 16.9203 12.8297 16.8766C12.7477 16.8273 12.6492 16.8602 12.6055 16.9367C12.6 16.9422 12.5945 16.9531 12.5945 16.9531C12.4359 16.882 12.2828 16.7945 12.1406 16.6961C12.1898 16.6305 12.1898 16.5375 12.1297 16.4719C12.0641 16.4117 11.9602 16.4117 11.8891 16.4719C11.8891 16.4719 11.8781 16.4828 11.8781 16.4883C11.7469 16.3734 11.6211 16.2477 11.5062 16.1164C11.5719 16.0672 11.5937 15.9742 11.55 15.9031C11.5008 15.8211 11.4023 15.7938 11.3258 15.843C11.3148 15.8484 11.3148 15.8539 11.3148 15.8539C11.2055 15.7172 11.1234 15.5641 11.0469 15.4C11.1234 15.3727 11.1672 15.2852 11.1453 15.2031C11.1234 15.1156 11.0305 15.0609 10.943 15.0883C10.932 15.0883 10.9266 15.0938 10.9156 15.0938C10.8609 14.9297 10.8117 14.7602 10.7789 14.5906C10.8664 14.5797 10.932 14.5141 10.932 14.4266C10.932 14.3336 10.8555 14.2625 10.7625 14.2625C10.7625 14.2625 10.7516 14.2625 10.7406 14.268C10.7352 14.1805 10.7297 14.0984 10.7297 14.0109C10.7297 13.918 10.7352 13.8305 10.7406 13.743C10.8227 13.7539 10.9047 13.7047 10.9266 13.6227C10.9484 13.5297 10.8938 13.4422 10.8063 13.4203L10.7734 13.3984C10.8062 13.2234 10.85 13.0539 10.9102 12.8953C10.9867 12.9281 11.0797 12.9008 11.118 12.8242C11.1672 12.7477 11.1344 12.6437 11.0578 12.6L11.0359 12.5891C11.1125 12.4305 11.2 12.2828 11.2984 12.1352C11.3641 12.1844 11.4625 12.1844 11.5227 12.1242C11.5828 12.0586 11.5828 11.9547 11.5227 11.8891C11.5172 11.8836 11.5117 11.8781 11.5117 11.8781C11.6211 11.7359 11.7469 11.6156 11.8781 11.5008C11.9273 11.5664 12.0203 11.5883 12.0969 11.5445C12.1734 11.5008 12.2063 11.3969 12.157 11.3203L12.1461 11.3039C12.2883 11.2055 12.4414 11.118 12.6 11.0414C12.6273 11.118 12.7148 11.1617 12.7969 11.1398C12.8844 11.1125 12.9391 11.025 12.9117 10.9375C12.9117 10.9375 12.9062 10.9211 12.9062 10.9102C13.0703 10.8555 13.2398 10.8063 13.4148 10.7789C13.4258 10.8609 13.4914 10.9266 13.5789 10.9266C13.6719 10.9266 13.743 10.85 13.743 10.7625C13.743 10.7516 13.743 10.7461 13.743 10.7461C13.825 10.7297 13.907 10.7297 13.9945 10.7297C14.0875 10.7297 14.175 10.7352 14.268 10.7406C14.257 10.8227 14.3063 10.8992 14.3883 10.9266C14.4813 10.9484 14.5687 10.8938 14.5906 10.8063C14.5906 10.8063 14.5961 10.7898 14.5961 10.7844C14.7711 10.8172 14.9406 10.8609 15.1047 10.9211C15.0719 10.9977 15.0992 11.0906 15.1703 11.1344C15.2523 11.1781 15.3508 11.1508 15.3945 11.0742L15.4055 11.0523C15.5641 11.1289 15.7172 11.2164 15.8594 11.3203C15.8047 11.3805 15.8102 11.4789 15.8703 11.5391C15.9359 11.6047 16.0453 11.6047 16.1055 11.5391L16.1219 11.5227C16.2531 11.6375 16.3789 11.7633 16.4938 11.8945C16.4281 11.9438 16.4062 12.0367 16.45 12.1133C16.4992 12.1898 16.5977 12.2227 16.6742 12.1734L16.6906 12.1625C16.7891 12.3047 16.8766 12.4578 16.9531 12.6164C16.8766 12.6492 16.8328 12.7313 16.8547 12.8133C16.882 12.9008 16.9695 12.9555 17.057 12.9336L17.0789 12.9227C17.1336 13.0867 17.1828 13.2563 17.2156 13.4313C17.1281 13.4422 17.068 13.5078 17.068 13.5953C17.068 13.6883 17.1391 13.7594 17.232 13.7594H17.2539C17.2594 13.8414 17.2648 13.9234 17.2648 14.0109C17.2648 14.1039 17.2594 14.1914 17.2539 14.2844C17.1664 14.2734 17.0898 14.3227 17.068 14.4047C17.057 14.4812 17.1117 14.5742 17.1992 14.6016Z" fill="#000088"/>
</svg>
