<svg xmlns="http://www.w3.org/2000/svg" xmlns:xlink="http://www.w3.org/1999/xlink" width="48" height="42.103" viewBox="0 0 48 42.103"><defs><style>.a{fill:#fff;}.b{filter:url(#a);}</style><filter id="a" x="0" y="0" width="48" height="42.103" filterUnits="userSpaceOnUse"><feOffset dy="3" input="SourceAlpha"/><feGaussianBlur stdDeviation="3" result="b"/><feFlood flood-opacity="0.161"/><feComposite operator="in" in2="b"/><feComposite in="SourceGraphic"/></filter></defs><g class="b" transform="matrix(1, 0, 0, 1, 0, 0)"><path class="a" d="M29.452,134.014l-4.762-5.1a1.816,1.816,0,0,0-1.326-.589H6.64a1.814,1.814,0,0,0-1.326.589l-4.762,5.1a2.112,2.112,0,0,0-.076,2.756L13.6,151.748a1.791,1.791,0,0,0,2.8,0L29.527,136.77a2.114,2.114,0,0,0-.075-2.756Zm-12.37,1.339H12.92L15,133.5Zm-1.347-2.512,2.561-2.289,1.892,2.027L17.814,134.7ZM12.189,134.7,9.815,132.58l1.892-2.027,2.562,2.289Zm5.147,1.659L15,148.869l-2.334-12.512Zm.956,0h4.6l-6.9,12.327,2.3-12.327Zm.252-1,2.309-2.061,1.923,2.061Zm.87-5.023h3.292l-1.8,1.6ZM15,132.188l-2.081-1.859h4.161Zm-5.91-.254-1.8-1.6h3.293Zm.058,1.358,2.308,2.061H7.227Zm2.561,3.065,2.3,12.327-6.9-12.327Zm.2,10.527L2.686,136.358H6.018Zm12.073-10.527h3.333L18.09,146.887Zm.117-1-2.525-2.706,2.153-1.924,4.319,4.63ZM6.27,130.721l2.157,1.926L5.9,135.353H1.882l4.387-4.632Z" transform="translate(9 -122.32)"/></g></svg>