<svg width="22" height="15" viewBox="0 0 22 15" fill="none" xmlns="http://www.w3.org/2000/svg">
<path id="Toggle" d="M1.25057 15H15.0068C15.6946 15 16.2574 14.4375 16.2574 13.75C16.2574 13.0625 15.6946 12.5 15.0068 12.5H1.25057C0.562755 12.5 0 13.0625 0 13.75C0 14.4375 0.562755 15 1.25057 15ZM1.25057 8.75H11.2551C11.9429 8.75 12.5057 8.1875 12.5057 7.5C12.5057 6.8125 11.9429 6.25 11.2551 6.25H1.25057C0.562755 6.25 0 6.8125 0 7.5C0 8.1875 0.562755 8.75 1.25057 8.75ZM0 1.25C0 1.9375 0.562755 2.5 1.25057 2.5H15.0068C15.6946 2.5 16.2574 1.9375 16.2574 1.25C16.2574 0.5625 15.6946 0 15.0068 0H1.25057C0.562755 0 0 0.5625 0 1.25ZM21.6348 11.1L18.0332 7.5L21.6348 3.9C21.7506 3.78427 21.8424 3.64688 21.9051 3.49568C21.9677 3.34447 22 3.18241 22 3.01875C22 2.85509 21.9677 2.69303 21.9051 2.54182C21.8424 2.39062 21.7506 2.25323 21.6348 2.1375C21.519 2.02177 21.3816 1.92997 21.2303 1.86734C21.079 1.80471 20.9169 1.77247 20.7532 1.77247C20.5894 1.77247 20.4273 1.80471 20.276 1.86734C20.1247 1.92997 19.9873 2.02177 19.8715 2.1375L15.382 6.625C15.266 6.74064 15.1741 6.878 15.1113 7.02922C15.0486 7.18044 15.0163 7.34254 15.0163 7.50625C15.0163 7.66996 15.0486 7.83206 15.1113 7.98328C15.1741 8.1345 15.266 8.27186 15.382 8.3875L19.8715 12.875C20.3592 13.3625 21.1471 13.3625 21.6348 12.875C22.11 12.3875 22.1225 11.5875 21.6348 11.1Z" fill="#212529" fill-opacity="0.92"/>
</svg>
