<svg width="22" height="22" viewBox="0 0 22 22" fill="none" xmlns="http://www.w3.org/2000/svg">
<path d="M22 11C22 13.002 21.472 14.872 20.526 16.5C18.634 19.8 15.07 22 11 22C6.93 22 3.366 19.8 1.474 16.5C0.528 14.872 0 13.002 0 11C0 8.998 0.528 7.106 1.474 5.5C3.366 2.2 6.93 0 11 0C15.07 0 18.634 2.2 20.526 5.5C21.472 7.106 22 8.998 22 11Z" fill="#E32B25"/>
<path d="M5.87388 6.37999L8.09587 6.66599L6.51187 8.24999L6.90788 10.472L4.90587 9.43799L2.94787 10.516L3.29987 8.29399L1.67188 6.75399L3.89388 6.40199L4.83987 4.37799L5.87388 6.37999Z" fill="#FDDB00"/>
<path d="M10.56 5.56602L10.934 5.54402L10.714 5.85202L10.846 6.22602L10.472 6.09402L10.164 6.33602V5.96202L9.85596 5.74202L10.23 5.61002L10.34 5.23602L10.56 5.56602Z" fill="#FDDB00"/>
<path d="M9.57007 3.71796L9.92207 3.58596L9.81207 3.95996L10.0761 4.24596L9.68007 4.26796L9.48207 4.59796L9.35007 4.22396L8.97607 4.13596L9.26207 3.89396L9.24007 3.51996L9.57007 3.71796Z" fill="#FDDB00"/>
<path d="M10.4502 9.65796L10.7582 9.89996L10.3842 9.98796L10.2302 10.34L10.0322 10.01H9.6582L9.9002 9.70196L9.7902 9.32796L10.1422 9.48196L10.4722 9.26196L10.4502 9.65796Z" fill="#FDDB00"/>
<path d="M10.8676 7.61198L11.2196 7.74398L10.9116 7.94198V8.33798L10.6036 8.09598L10.2296 8.20598L10.3616 7.85398L10.1416 7.54598H10.5376L10.7576 7.23798L10.8676 7.61198Z" fill="#FDDB00"/>
</svg>
