<svg width="22" height="22" viewBox="0 0 22 22" fill="none" xmlns="http://www.w3.org/2000/svg">
<g clip-path="url(#clip0_935_1923)">
<path d="M22 11C22 12.2848 21.7766 13.518 21.3727 14.6695C19.8559 18.9363 15.7824 22 11 22C6.21758 22 2.14414 18.9363 0.627344 14.6695C0.223438 13.518 0 12.2848 0 11C0 9.71523 0.223438 8.48203 0.627344 7.33047C2.14414 3.06367 6.21758 0 11 0C15.7824 0 19.8559 3.06367 21.3727 7.33047C21.7766 8.48203 22 9.71523 22 11Z" fill="white"/>
<path d="M21.3728 7.33047H0.627441C2.14424 3.06367 6.21768 0 11.0001 0C15.7825 0 19.856 3.06367 21.3728 7.33047Z" fill="#FF9933"/>
<path d="M21.3728 14.6696C19.856 18.9364 15.7825 22 11.0001 22C6.21768 22 2.14424 18.9364 0.627441 14.6696H21.3728Z" fill="#128807"/>
<path d="M11.391 11.3309L11.3996 11.3266L11.4039 11.3223L11.4125 11.3137C11.4168 11.3094 11.4168 11.3051 11.4168 11.3051L11.4254 11.2965L11.4297 11.2922C11.4297 11.2922 11.434 11.2879 11.4383 11.2836L11.4426 11.2793L11.8422 11.5844L13.2301 12.2848L11.9324 11.4297L11.4727 11.2364L11.477 11.2321L11.4813 11.2235C11.4813 11.2235 11.4855 11.2192 11.4855 11.2149L11.4898 11.2063C11.4898 11.2063 11.4941 11.202 11.4941 11.1977L11.4984 11.1891L11.5027 11.1805L11.507 11.1719L11.5113 11.1633C11.5113 11.159 11.5113 11.159 11.5113 11.159L11.9754 11.3481L13.4965 11.666L12.0227 11.1762L11.5285 11.1074L11.5328 11.1031V11.0946C11.5328 11.0903 11.5371 11.0903 11.5371 11.0903V11.0817L11.5414 11.0731C11.5414 11.0688 11.5414 11.0688 11.5414 11.0688L11.5457 11.0602V11.043C11.5457 11.0387 11.5457 11.0344 11.5457 11.0344V11.0258L12.0441 11.086L13.5953 10.9957L12.0441 10.9055L11.5457 10.9656V10.9614C11.5457 10.9571 11.5457 10.9528 11.5457 10.9528V10.9442L11.5414 10.9356C11.5414 10.9313 11.5414 10.9313 11.5414 10.9313L11.5371 10.9184V10.9141C11.5371 10.9098 11.5328 10.9055 11.5328 10.9055V10.8969L11.5285 10.8883L12.0227 10.8196L13.4965 10.334L11.9754 10.652L11.5113 10.841V10.8367L11.507 10.8281L11.5027 10.8196C11.5027 10.8153 11.5027 10.8153 11.5027 10.8153L11.4984 10.8067C11.4941 10.8024 11.4941 10.7981 11.4941 10.7981C11.4898 10.7938 11.4898 10.7895 11.4898 10.7895L11.4855 10.7809L11.4813 10.7723L11.477 10.768L11.9367 10.5746L13.2344 9.72385L11.8465 10.4242L11.4469 10.725C11.4469 10.7207 11.4426 10.7207 11.4426 10.7207L11.434 10.7121L11.4297 10.7035L11.4254 10.6992C11.4211 10.6949 11.4211 10.6949 11.4211 10.6949L11.4125 10.6864L11.4082 10.6821C11.4082 10.6821 11.4039 10.6778 11.3996 10.6735L11.3953 10.6649L11.391 10.6606L11.7863 10.3555L12.8219 9.19534L11.6531 10.2266L11.3438 10.6219L11.3395 10.6176L11.3309 10.6133L11.3266 10.609C11.3223 10.6047 11.3223 10.6047 11.3223 10.6047L11.3137 10.5961L11.3051 10.5875L11.3008 10.5832L11.2922 10.5789L11.2836 10.5746L11.2793 10.5703L11.5801 10.1707L12.2805 8.78284L11.4254 10.0805L11.232 10.5403L11.2277 10.536C11.2234 10.536 11.2234 10.5317 11.2234 10.5317L11.2148 10.5274L11.2062 10.5231L11.1977 10.5188L11.1891 10.5145L11.1805 10.5102L11.1719 10.5059L11.1633 10.5016L11.1547 10.4973L11.3438 10.0332L11.6617 8.51213L11.1762 9.98596L11.1074 10.4801H11.1031C11.0988 10.4758 11.0945 10.4758 11.0945 10.4758L11.0859 10.4715C11.0859 10.4715 11.0816 10.4715 11.0773 10.4715L11.0688 10.4672H11.0602H11.0559L11.0473 10.4629H11.0387C11.0387 10.4629 11.0344 10.4629 11.0301 10.4629L11.0902 9.96877L11 8.4176L10.9098 9.96877L10.9699 10.4629H10.9656H10.957L10.9484 10.4672H10.9398H10.9312L10.9227 10.4715H10.9141L10.9055 10.4758C10.9055 10.4758 10.9012 10.4758 10.8969 10.4801H10.8926L10.8238 9.98596L10.3383 8.51213L10.6562 10.0332L10.8453 10.4973L10.8367 10.5016L10.8281 10.5059L10.8195 10.5102L10.8109 10.5145C10.8109 10.5145 10.8066 10.5188 10.8023 10.5188L10.7937 10.5231L10.7852 10.5274L10.7809 10.5317C10.7766 10.536 10.7723 10.536 10.7723 10.536L10.7637 10.5403L10.5703 10.0805L9.71953 8.78284L10.4199 10.1707L10.7207 10.5703C10.7164 10.5746 10.7164 10.5746 10.7164 10.5746L10.7078 10.5832C10.7035 10.5832 10.7035 10.5875 10.7035 10.5875L10.6949 10.5918L10.6863 10.6004L10.6777 10.6047L10.6734 10.609L10.6691 10.6133L10.6605 10.6176L10.6562 10.6219L10.3469 10.2266L9.19102 9.19104L10.2266 10.3512L10.6219 10.6563L10.6176 10.6606L10.6133 10.6692C10.609 10.6735 10.609 10.6735 10.609 10.6735L10.6047 10.6821L10.5961 10.6906C10.5961 10.6906 10.5918 10.6949 10.5918 10.6992L10.5875 10.7035L10.5832 10.7121L10.5746 10.7207L10.5703 10.725L10.1707 10.4242L8.78281 9.72385L10.0805 10.5746L10.5402 10.768C10.5402 10.7723 10.5359 10.7723 10.5359 10.7723L10.5316 10.7809L10.5273 10.7895L10.523 10.7938L10.5188 10.8024L10.5145 10.811L10.5102 10.8153L10.5059 10.8239L10.5016 10.8324V10.8367L10.0375 10.6477L8.51641 10.3297L9.99453 10.8153L10.4887 10.884L10.4844 10.8926V10.9012L10.4801 10.9098V10.9141L10.4758 10.9227V10.9313L10.4715 10.9399V10.9485C10.4715 10.9485 10.4715 10.9528 10.4715 10.9571V10.9614L9.97305 10.9012L8.42188 10.9914L9.97305 11.0817L10.4715 11.0215V11.0301C10.4715 11.0301 10.4715 11.0344 10.4715 11.0387V11.0473L10.4758 11.0516V11.0602L10.4801 11.0688V11.0774C10.4801 11.0774 10.4844 11.0817 10.4844 11.086V11.0946L10.4887 11.0989L9.99453 11.1676L8.51641 11.6574L10.0375 11.3395L10.5016 11.1504C10.5016 11.1504 10.5016 11.1547 10.5016 11.159L10.5059 11.1676L10.5102 11.1762L10.5145 11.1848C10.5145 11.1891 10.5188 11.1891 10.5188 11.1891L10.523 11.202L10.5273 11.2106C10.5273 11.2149 10.5316 11.2149 10.5316 11.2149L10.5359 11.2235L10.5402 11.2278L10.0805 11.4211L8.78281 12.2762L10.1707 11.5758L10.5703 11.2707L10.5746 11.275C10.5789 11.2793 10.5789 11.2836 10.5789 11.2836L10.5832 11.2922C10.5875 11.2965 10.5875 11.2965 10.5875 11.2965C10.5875 11.2965 10.5918 11.3008 10.5961 11.3051L10.6047 11.3137L10.609 11.318C10.609 11.318 10.6133 11.3223 10.6176 11.3223C10.6176 11.3223 10.6219 11.3266 10.6219 11.3309L10.6262 11.3352L10.2309 11.6446L9.19531 12.8004L10.3512 11.7692L10.6605 11.3739C10.6648 11.3739 10.6648 11.3781 10.6648 11.3781C10.6691 11.3824 10.6734 11.3824 10.6734 11.3824L10.682 11.391L10.6863 11.3953L10.6949 11.4039L10.7035 11.4082L10.7078 11.4125C10.7078 11.4125 10.7121 11.4168 10.7164 11.4168L10.725 11.4211L10.7293 11.4254L10.4285 11.825L9.72812 13.2129L10.5789 11.9153L10.7723 11.4555L10.7766 11.4598C10.7809 11.4641 10.7852 11.4641 10.7852 11.4641L10.7895 11.4684L10.798 11.4727L10.8066 11.477C10.8109 11.4813 10.8109 11.4813 10.8109 11.4813L10.8195 11.4856L10.8281 11.4899C10.8281 11.4899 10.8324 11.4942 10.8367 11.4942L10.8453 11.4985L10.6562 11.9625L10.3383 13.4836L10.8238 12.0098L10.8926 11.5157L10.8969 11.5199H10.9055L10.9141 11.5242H10.9227L10.9312 11.5285H10.9398C10.9441 11.5328 10.9441 11.5328 10.9441 11.5328H10.9527H10.9613H10.9656L10.9055 12.0313L10.9957 13.5824L11.0859 12.0313L11.0258 11.5328C11.0301 11.5328 11.0301 11.5328 11.0301 11.5328H11.0387H11.0473C11.0473 11.5328 11.0516 11.5328 11.0516 11.5285H11.0602L11.0688 11.5242C11.073 11.5242 11.073 11.5242 11.073 11.5242L11.0816 11.5199H11.0902L11.0945 11.5157L11.1633 12.0098L11.6488 13.4836L11.3309 11.9625L11.1418 11.4985L11.1504 11.4942C11.1547 11.4899 11.1547 11.4899 11.1547 11.4899L11.1633 11.4856L11.1719 11.4813L11.1805 11.477L11.1891 11.4727L11.1977 11.4684L11.202 11.4641L11.2105 11.4598L11.2148 11.4555L11.4082 11.9153L12.2633 13.2129L11.5629 11.825L11.2621 11.4254L11.2664 11.4211L11.275 11.4168L11.2836 11.4125C11.2879 11.4082 11.2879 11.4082 11.2879 11.4082L11.2965 11.3996L11.3051 11.391L11.3094 11.3867L11.3137 11.3824C11.3137 11.3824 11.318 11.3782 11.3223 11.3739L11.3266 11.3696L11.6359 11.7649L12.7918 12.7961L11.7734 11.6532L11.3781 11.3438L11.3824 11.3395C11.3867 11.3352 11.391 11.3352 11.391 11.3309Z" fill="#000088"/>
<path d="M11 8.05664C9.37148 8.05664 8.05664 9.37578 8.05664 11C8.05664 12.6242 9.37578 13.9434 11 13.9434C12.6242 13.9434 13.9434 12.6242 13.9434 11C13.9434 9.37578 12.6285 8.05664 11 8.05664ZM13.5137 11.4727L13.5309 11.477C13.5051 11.6145 13.4707 11.7477 13.4234 11.8766C13.3633 11.8508 13.2902 11.8723 13.2602 11.9281C13.2215 11.9926 13.243 12.0699 13.3074 12.1086C13.3074 12.1086 13.3203 12.1129 13.3246 12.1172C13.2645 12.2418 13.1957 12.3621 13.1184 12.4738C13.0668 12.4309 12.9895 12.4352 12.9422 12.4824C12.8949 12.5297 12.8949 12.6156 12.9422 12.6672C12.9422 12.6672 12.9508 12.6758 12.9551 12.6801C12.8648 12.7875 12.766 12.882 12.6629 12.9723C12.6242 12.9207 12.5512 12.9035 12.491 12.9379C12.4309 12.9766 12.4051 13.0539 12.4438 13.1141C12.448 13.1227 12.4523 13.1227 12.4523 13.1227C12.3406 13.2086 12.2246 13.2773 12.0957 13.3332C12.0742 13.273 12.0055 13.2387 11.941 13.2559C11.8723 13.2773 11.8293 13.3461 11.8508 13.4148L11.8551 13.432C11.7262 13.475 11.593 13.5137 11.4555 13.5395C11.4469 13.4707 11.3953 13.4234 11.3266 13.4234C11.2535 13.4234 11.1977 13.4793 11.1977 13.5523L11.202 13.5695C11.1332 13.5738 11.0687 13.5781 11 13.5781C10.927 13.5781 10.8582 13.5738 10.7895 13.5695C10.798 13.5008 10.7594 13.4406 10.6949 13.4234C10.6219 13.402 10.5531 13.4449 10.5359 13.5137L10.5316 13.5309C10.3941 13.5051 10.2609 13.4707 10.132 13.4234C10.1578 13.3633 10.1363 13.2945 10.0805 13.2602C10.016 13.2215 9.93867 13.2473 9.9043 13.3074C9.9 13.3117 9.8957 13.3203 9.8957 13.3203C9.77109 13.2645 9.65078 13.1957 9.53906 13.1184C9.57773 13.0668 9.57773 12.9938 9.53047 12.9422C9.47891 12.8949 9.39727 12.8949 9.34141 12.9422C9.34141 12.9422 9.33281 12.9508 9.33281 12.9551C9.22969 12.8648 9.13086 12.766 9.04062 12.6629C9.09219 12.6242 9.10937 12.5512 9.075 12.4953C9.03633 12.4309 8.95898 12.4094 8.89883 12.448C8.89023 12.4523 8.89023 12.4566 8.89023 12.4566C8.8043 12.3492 8.73984 12.2289 8.67969 12.1C8.73984 12.0785 8.77422 12.0098 8.75703 11.9453C8.73984 11.8766 8.6668 11.8336 8.59805 11.8551C8.58945 11.8551 8.58516 11.8594 8.57656 11.8594C8.53359 11.7305 8.49492 11.5973 8.46914 11.4641C8.53789 11.4555 8.58945 11.4039 8.58945 11.3352C8.58945 11.2621 8.5293 11.2062 8.45625 11.2062C8.45625 11.2062 8.44766 11.2062 8.43906 11.2105C8.43477 11.1418 8.43047 11.0773 8.43047 11.0086C8.43047 10.9355 8.43477 10.8668 8.43906 10.798C8.50352 10.8066 8.56797 10.768 8.58516 10.7035C8.60234 10.6305 8.55938 10.5617 8.49063 10.5445L8.46484 10.5273C8.49062 10.3898 8.525 10.2566 8.57227 10.132C8.63242 10.1578 8.70547 10.1363 8.73555 10.0762C8.77422 10.016 8.74844 9.93437 8.68828 9.9L8.67109 9.89141C8.73125 9.7668 8.8 9.65078 8.87734 9.53477C8.92891 9.57344 9.00625 9.57344 9.05352 9.52617C9.10078 9.47461 9.10078 9.39297 9.05352 9.34141C9.04922 9.33711 9.04492 9.33281 9.04492 9.33281C9.13086 9.22109 9.22969 9.12656 9.33281 9.03633C9.37148 9.08789 9.44453 9.10508 9.50469 9.0707C9.56484 9.03633 9.59063 8.95469 9.55195 8.89453L9.54336 8.88164C9.65508 8.8043 9.77539 8.73555 9.9 8.67539C9.92148 8.73555 9.99023 8.76992 10.0547 8.75273C10.1234 8.73125 10.1664 8.6625 10.1449 8.59375C10.1449 8.59375 10.1406 8.58086 10.1406 8.57227C10.2695 8.5293 10.4027 8.49063 10.5402 8.46914C10.5488 8.53359 10.6004 8.58516 10.6691 8.58516C10.7422 8.58516 10.798 8.525 10.798 8.45625C10.798 8.44766 10.798 8.44336 10.798 8.44336C10.8625 8.43047 10.927 8.43047 10.9957 8.43047C11.0687 8.43047 11.1375 8.43477 11.2105 8.43906C11.202 8.50352 11.2406 8.56367 11.3051 8.58516C11.3781 8.60234 11.4469 8.55938 11.4641 8.49063C11.4641 8.49063 11.4684 8.47773 11.4684 8.47344C11.6059 8.49922 11.7391 8.53359 11.868 8.58086C11.8422 8.64102 11.8637 8.71406 11.9195 8.74844C11.984 8.78281 12.0613 8.76133 12.0957 8.70117L12.1043 8.68398C12.2289 8.74414 12.3492 8.81289 12.4609 8.89453C12.418 8.9418 12.4223 9.01914 12.4695 9.06641C12.5211 9.11797 12.607 9.11797 12.6543 9.06641L12.6672 9.05352C12.7703 9.14375 12.8691 9.24258 12.9594 9.3457C12.9078 9.38437 12.8906 9.45742 12.925 9.51758C12.9637 9.57773 13.041 9.60352 13.1012 9.56484L13.1141 9.55625C13.1914 9.66797 13.2602 9.78828 13.3203 9.91289C13.2602 9.93867 13.2258 10.0031 13.243 10.0676C13.2645 10.1363 13.3332 10.1793 13.402 10.1621L13.4191 10.1535C13.4621 10.2824 13.5008 10.4156 13.5266 10.5531C13.4578 10.5617 13.4105 10.6133 13.4105 10.682C13.4105 10.7551 13.4664 10.8109 13.5395 10.8109H13.5566C13.5609 10.8754 13.5652 10.9398 13.5652 11.0086C13.5652 11.0816 13.5609 11.1504 13.5566 11.2234C13.4879 11.2148 13.4277 11.2535 13.4105 11.318C13.402 11.3781 13.4449 11.4512 13.5137 11.4727Z" fill="#000088"/>
</g>
<defs>
<clipPath id="clip0_935_1923">
<rect width="22" height="22" fill="white"/>
</clipPath>
</defs>
</svg>
