<svg width="48" height="45" viewBox="0 0 48 45" fill="none" xmlns="http://www.w3.org/2000/svg">
<path d="M22.4957 45H4.49913C3.30589 45 2.16152 44.526 1.31776 43.6822C0.474014 42.8385 0 41.6941 0 40.5009L0 1.50841C0.00147794 1.21233 0.0905643 0.923307 0.256032 0.677774C0.4215 0.432241 0.655945 0.241181 0.92982 0.128673C1.20293 0.0138257 1.50395 -0.0175523 1.79487 0.0384981C2.0858 0.0945484 2.35361 0.235515 2.5645 0.443612L4.93405 2.82815C5.07346 2.96872 5.23933 3.08029 5.42209 3.15642C5.60484 3.23256 5.80086 3.27176 5.99884 3.27176C6.19682 3.27176 6.39284 3.23256 6.57559 3.15642C6.75835 3.08029 6.92422 2.96872 7.06363 2.82815L9.43318 0.443612C9.57259 0.303046 9.73846 0.191476 9.92122 0.115338C10.104 0.0391998 10.3 0 10.498 0C10.696 0 10.892 0.0391998 11.0747 0.115338C11.2575 0.191476 11.4233 0.303046 11.5628 0.443612L13.9323 2.82815C14.0717 2.96872 14.2376 3.08029 14.4203 3.15642C14.6031 3.23256 14.7991 3.27176 14.9971 3.27176C15.1951 3.27176 15.3911 3.23256 15.5739 3.15642C15.7566 3.08029 15.9225 2.96872 16.0619 2.82815L18.4314 0.443612C18.5709 0.303046 18.7367 0.191476 18.9195 0.115338C19.1022 0.0391998 19.2983 0 19.4962 0C19.6942 0 19.8902 0.0391998 20.073 0.115338C20.2557 0.191476 20.4216 0.303046 20.561 0.443612L22.9306 2.82815C23.07 2.96872 23.2359 3.08029 23.4186 3.15642C23.6014 3.23256 23.7974 3.27176 23.9954 3.27176C24.1933 3.27176 24.3894 3.23256 24.5721 3.15642C24.7549 3.08029 24.9207 2.96872 25.0602 2.82815L27.4297 0.443612C27.5691 0.303046 27.735 0.191476 27.9177 0.115338C28.1005 0.0391998 28.2965 0 28.4945 0C28.6925 0 28.8885 0.0391998 29.0712 0.115338C29.254 0.191476 29.4199 0.303046 29.5593 0.443612L31.9288 2.82815C32.0682 2.96872 32.2341 3.08029 32.4169 3.15642C32.5996 3.23256 32.7956 3.27176 32.9936 3.27176C33.1916 3.27176 33.3876 3.23256 33.5704 3.15642C33.7531 3.08029 33.919 2.96872 34.0584 2.82815L36.428 0.443612C36.6389 0.235515 36.9067 0.0945484 37.1976 0.0384981C37.4885 -0.0175523 37.7895 0.0138257 38.0626 0.128673C38.3365 0.241181 38.571 0.432241 38.7364 0.677774C38.9019 0.923307 38.991 1.21233 38.9925 1.50841V22.5043C38.9925 22.9021 38.8345 23.2836 38.5532 23.5648C38.272 23.8461 37.8905 24.0041 37.4928 24.0041C37.095 24.0041 36.7135 23.8461 36.4323 23.5648C36.151 23.2836 35.993 22.9021 35.993 22.5043V5.12271C35.1243 5.86461 34.0109 6.25706 32.8689 6.2238C31.727 6.19055 30.6383 5.73395 29.8142 4.94274L28.4945 3.623L27.1747 4.94274C26.32 5.76393 25.1807 6.22255 23.9954 6.22255C22.8101 6.22255 21.6707 5.76393 20.816 4.94274L19.4962 3.623L18.1765 4.94274C17.3217 5.76393 16.1824 6.22255 14.9971 6.22255C13.8118 6.22255 12.6725 5.76393 11.8177 4.94274L10.498 3.623L9.17823 4.94274C8.35418 5.73395 7.26542 6.19055 6.12351 6.2238C4.98161 6.25706 3.86812 5.86461 2.99942 5.12271V40.5009C2.99942 40.8986 3.15742 41.2801 3.43867 41.5613C3.71993 41.8426 4.10138 42.0006 4.49913 42.0006H22.4957C22.8934 42.0006 23.2749 42.1586 23.5561 42.4398C23.8374 42.7211 23.9954 43.1025 23.9954 43.5003C23.9954 43.898 23.8374 44.2795 23.5561 44.5607C23.2749 44.842 22.8934 45 22.4957 45Z" fill="#1E1E1E"/>
<path d="M22.4956 37.5014H8.99825C8.6005 37.5014 8.21904 37.3434 7.93779 37.0622C7.65654 36.7809 7.49854 36.3995 7.49854 36.0017C7.49854 35.604 7.65654 35.2225 7.93779 34.9413C8.21904 34.66 8.6005 34.502 8.99825 34.502H22.4956C22.8934 34.502 23.2748 34.66 23.5561 34.9413C23.8373 35.2225 23.9953 35.604 23.9953 36.0017C23.9953 36.3995 23.8373 36.7809 23.5561 37.0622C23.2748 37.3434 22.8934 37.5014 22.4956 37.5014Z" fill="#1E1E1E"/>
<path d="M22.4956 31.5026H8.99825C8.6005 31.5026 8.21904 31.3446 7.93779 31.0634C7.65654 30.7821 7.49854 30.4006 7.49854 30.0029C7.49854 29.6052 7.65654 29.2237 7.93779 28.9424C8.21904 28.6612 8.6005 28.5032 8.99825 28.5032H22.4956C22.8934 28.5032 23.2748 28.6612 23.5561 28.9424C23.8373 29.2237 23.9953 29.6052 23.9953 30.0029C23.9953 30.4006 23.8373 30.7821 23.5561 31.0634C23.2748 31.3446 22.8934 31.5026 22.4956 31.5026Z" fill="#1E1E1E"/>
<path d="M25.4951 25.5038H8.99825C8.6005 25.5038 8.21904 25.3458 7.93779 25.0645C7.65654 24.7833 7.49854 24.4018 7.49854 24.0041C7.49854 23.6063 7.65654 23.2249 7.93779 22.9436C8.21904 22.6624 8.6005 22.5043 8.99825 22.5043H25.4951C25.8928 22.5043 26.2743 22.6624 26.5555 22.9436C26.8368 23.2249 26.9948 23.6063 26.9948 24.0041C26.9948 24.4018 26.8368 24.7833 26.5555 25.0645C26.2743 25.3458 25.8928 25.5038 25.4951 25.5038Z" fill="#1E1E1E"/>
<path d="M29.9942 19.5049H8.99825C8.6005 19.5049 8.21904 19.3469 7.93779 19.0657C7.65654 18.7844 7.49854 18.403 7.49854 18.0052C7.49854 17.6075 7.65654 17.226 7.93779 16.9448C8.21904 16.6635 8.6005 16.5055 8.99825 16.5055H29.9942C30.3919 16.5055 30.7734 16.6635 31.0546 16.9448C31.3359 17.226 31.4939 17.6075 31.4939 18.0052C31.4939 18.403 31.3359 18.7844 31.0546 19.0657C30.7734 19.3469 30.3919 19.5049 29.9942 19.5049Z" fill="#1E1E1E"/>
<path d="M29.9942 13.5061H8.99825C8.6005 13.5061 8.21904 13.3481 7.93779 13.0668C7.65654 12.7856 7.49854 12.4041 7.49854 12.0064C7.49854 11.6086 7.65654 11.2272 7.93779 10.9459C8.21904 10.6647 8.6005 10.5067 8.99825 10.5067H29.9942C30.3919 10.5067 30.7734 10.6647 31.0546 10.9459C31.3359 11.2272 31.4939 11.6086 31.4939 12.0064C31.4939 12.4041 31.3359 12.7856 31.0546 13.0668C30.7734 13.3481 30.3919 13.5061 29.9942 13.5061Z" fill="#1E1E1E"/>
<path fill-rule="evenodd" clip-rule="evenodd" d="M30.4938 27.0035H44.4912L47.9907 33.1205L38.0758 44.743C37.9223 44.9075 37.712 45 37.4926 45C37.2734 45 37.0631 44.9075 36.9096 44.743L26.9948 33.1205L30.4943 27.0035" fill="url(#paint0_linear_167_1405)"/>
<defs>
<linearGradient id="paint0_linear_167_1405" x1="29.4649" y1="25.718" x2="48.0631" y2="42.9708" gradientUnits="userSpaceOnUse">
<stop stop-color="#B5DFF1"/>
<stop offset="1" stop-color="#0C4875"/>
</linearGradient>
</defs>
</svg>
