<svg width="46" height="46" viewBox="0 0 46 46" fill="none" xmlns="http://www.w3.org/2000/svg">
<path fill-rule="evenodd" clip-rule="evenodd" d="M14.0711 3.85714H30.3569L34.4286 10.8494L22.8927 24.1347C22.7141 24.3228 22.4694 24.4286 22.2141 24.4286C21.9591 24.4286 21.7145 24.3228 21.5358 24.1347L10 10.8494L14.0717 3.85714" fill="url(#paint0_linear_167_1384)"/>
<path d="M17.006 28.5613L11.8627 23.3857C11.4423 22.9643 10.946 22.642 10.4051 22.439C9.86422 22.2359 9.29043 22.1566 8.71987 22.206L5.51919 9.55197C5.36878 8.95473 5.01906 8.43947 4.53799 8.10633C4.05692 7.77318 3.47885 7.64594 2.91613 7.74933C2.3534 7.85272 1.8462 8.17936 1.49309 8.66577C1.13998 9.15218 0.966176 9.76362 1.00546 10.3813L1.95699 25.6048C2.07329 27.5209 2.73979 29.3495 3.86293 30.8338L10.8215 40.0566V44.4666C10.8215 44.6081 10.8733 44.7438 10.9655 44.8438C11.0577 44.9438 11.1828 45 11.3132 45C11.4436 45 11.5687 44.9438 11.6609 44.8438C11.7531 44.7438 11.8049 44.6081 11.8049 44.4666V39.8652C11.8068 39.7395 11.7675 39.6172 11.694 39.5201L4.62358 30.1498C3.63093 28.8375 3.04168 27.2212 2.9384 25.5274L1.98687 10.3102C1.96496 9.95694 2.06474 9.60746 2.26687 9.3295C2.469 9.05154 2.75907 8.8649 3.08085 8.80577C3.40263 8.74664 3.73319 8.81923 4.00843 9.00946C4.28368 9.1997 4.484 9.49403 4.57056 9.83538L7.75196 22.4152C7.45218 22.5218 7.16462 22.6653 6.89491 22.8429C6.68128 22.9842 6.49708 23.1722 6.35399 23.3948C6.21091 23.6175 6.11207 23.87 6.06375 24.1363C6.01543 24.4026 6.01868 24.6769 6.07331 24.9418C6.12794 25.2066 6.23274 25.4563 6.38106 25.6749L11.8319 33.7044C11.912 33.8081 12.0254 33.8748 12.1491 33.8911C12.2729 33.9075 12.3978 33.8722 12.4985 33.7925C12.5991 33.7128 12.6682 33.5945 12.6915 33.4617C12.7149 33.3288 12.6909 33.1913 12.6243 33.077L7.17448 25.0432C7.10701 24.9437 7.05933 24.8301 7.03446 24.7095C7.00959 24.589 7.00808 24.4641 7.03001 24.3429C7.05194 24.2217 7.09685 24.1067 7.16188 24.0053C7.22691 23.9039 7.31065 23.8182 7.40779 23.7538C7.99489 23.3684 8.68151 23.2003 9.36428 23.2748C10.0471 23.3493 10.6891 23.6624 11.1937 24.1669L16.3379 29.3425C17.2715 30.2851 18.0165 31.4259 18.5265 32.6941C19.0365 33.9622 19.3006 35.3306 19.3024 36.7142V44.4666C19.3024 44.6081 19.3542 44.7438 19.4464 44.8438C19.5386 44.9438 19.6636 45 19.794 45C19.9244 45 20.0495 44.9438 20.1417 44.8438C20.2339 44.7438 20.2857 44.6081 20.2857 44.4666V36.7142C20.2838 35.1839 19.9916 33.6704 19.4274 32.2678C18.8632 30.8652 18.0389 29.6035 17.006 28.5613Z" fill="#1E1E1E" stroke="#1E1E1E"/>
<path d="M28.7083 28.5613L33.8516 23.3857C34.272 22.9643 34.7683 22.642 35.3092 22.439C35.8501 22.2359 36.4239 22.1566 36.9944 22.206L40.1951 9.55197C40.3455 8.95473 40.6952 8.43947 41.1763 8.10633C41.6574 7.77318 42.2354 7.64594 42.7982 7.74933C43.3609 7.85272 43.8681 8.17936 44.2212 8.66577C44.5743 9.15218 44.7481 9.76362 44.7088 10.3813L43.7573 25.6048C43.641 27.5209 42.9745 29.3495 41.8514 30.8338L34.8928 40.0566V44.4666C34.8928 44.6081 34.841 44.7438 34.7488 44.8438C34.6566 44.9438 34.5315 45 34.4011 45C34.2707 45 34.1456 44.9438 34.0534 44.8438C33.9612 44.7438 33.9094 44.6081 33.9094 44.4666V39.8652C33.9075 39.7395 33.9468 39.6172 34.0203 39.5201L41.0907 30.1498C42.0834 28.8375 42.6726 27.2212 42.7759 25.5274L43.7274 10.3102C43.7493 9.95694 43.6496 9.60746 43.4474 9.3295C43.2453 9.05154 42.9552 8.8649 42.6334 8.80577C42.3117 8.74664 41.9811 8.81923 41.7059 9.00946C41.4306 9.1997 41.2303 9.49403 41.1437 9.83538L37.9623 22.4152C38.2621 22.5218 38.5497 22.6653 38.8194 22.8429C39.033 22.9842 39.2172 23.1722 39.3603 23.3948C39.5034 23.6175 39.6022 23.87 39.6505 24.1363C39.6989 24.4026 39.6956 24.6769 39.641 24.9418C39.5864 25.2066 39.4816 25.4563 39.3332 25.6749L33.8824 33.7044C33.8023 33.8081 33.6889 33.8748 33.5652 33.8911C33.4414 33.9075 33.3165 33.8722 33.2158 33.7925C33.1151 33.7128 33.0461 33.5945 33.0228 33.4617C32.9994 33.3288 33.0234 33.1913 33.09 33.077L38.5398 25.0432C38.6073 24.9437 38.655 24.8301 38.6798 24.7095C38.7047 24.589 38.7062 24.4641 38.6843 24.3429C38.6624 24.2217 38.6174 24.1067 38.5524 24.0053C38.4874 23.9039 38.4036 23.8182 38.3065 23.7538C37.7194 23.3684 37.0328 23.2003 36.35 23.2748C35.6672 23.3493 35.0252 23.6624 34.5206 24.1669L29.3764 29.3425C28.4427 30.2851 27.6978 31.4259 27.1878 32.6941C26.6778 33.9622 26.4137 35.3306 26.4119 36.7142V44.4666C26.4119 44.6081 26.3601 44.7438 26.2679 44.8438C26.1757 44.9438 26.0507 45 25.9203 45C25.7899 45 25.6648 44.9438 25.5726 44.8438C25.4804 44.7438 25.4286 44.6081 25.4286 44.4666V36.7142C25.4305 35.1839 25.7227 33.6704 26.2869 32.2678C26.8511 30.8652 27.6754 29.6035 28.7083 28.5613Z" fill="#1E1E1E" stroke="#1E1E1E"/>
<path d="M34.4286 0L35.0059 1.77681L36.8741 1.77681L35.3627 2.87494L35.94 4.65176L34.4286 3.55363L32.9171 4.65176L33.4944 2.87494L31.983 1.77681L33.8513 1.77681L34.4286 0Z" fill="#1E1E1E"/>
<path d="M37 5.14286L37.2887 6.03127L38.2228 6.03127L37.4671 6.58033L37.7557 7.46874L37 6.91967L36.2443 7.46874L36.5329 6.58033L35.7772 6.03127L36.7113 6.03127L37 5.14286Z" fill="#1E1E1E"/>
<defs>
<linearGradient id="paint0_linear_167_1384" x1="12.874" y1="2.38775" x2="34.1581" y2="22.4847" gradientUnits="userSpaceOnUse">
<stop stop-color="#B5DFF1"/>
<stop offset="1" stop-color="#0C4875"/>
</linearGradient>
</defs>
</svg>
