<svg width="47" height="47" viewBox="0 0 47 47" fill="none" xmlns="http://www.w3.org/2000/svg">
<path d="M29.2512 26.5056C32.8816 22.8764 32.8816 16.9949 29.2512 13.3651C25.6244 9.7376 19.7405 9.73526 16.1112 13.3651C12.9355 16.5402 12.5007 21.6679 14.8793 25.2743L12.8256 27.3279L12.0869 26.5892L1 37.6762L4.94071 41.6169L16.0277 30.5294L15.289 29.7901L17.3426 27.7364C20.9473 30.129 26.0738 29.6825 29.2512 26.5056ZM14.4679 30.6123L5.0237 40.0571L2.55981 37.5932L12.004 28.1479L14.4679 30.6123ZM13.6468 28.1479L15.7004 26.0942L16.5215 26.9153L14.4679 28.969L13.6468 28.1479ZM16.9318 25.6845C13.7631 22.5153 13.7636 17.3555 16.9323 14.1856C20.101 11.0163 25.2608 11.0163 28.4295 14.1856C31.5982 17.3549 31.5982 22.5147 28.4295 25.684C25.2608 28.8532 20.101 28.8538 16.9318 25.6845ZM38.987 2.16883H15.6104V10.9351C15.6104 11.2582 15.3486 11.5195 15.026 11.5195C14.7034 11.5195 14.4416 11.2582 14.4416 10.9351V1.58442C14.4416 1.26123 14.7034 1 15.026 1H39.5714C39.7269 1 39.8753 1.06136 39.9846 1.17123L45.8288 7.01539C45.9386 7.12467 46 7.27312 46 7.42857V45.4156C46 45.7388 45.7388 46 45.4156 46H15.026C14.7034 46 14.4416 45.7388 14.4416 45.4156V39.2792C14.4416 38.956 14.7034 38.6948 15.026 38.6948C15.3486 38.6948 15.6104 38.956 15.6104 39.2792V44.8312H44.8312V8.01299H39.5714C39.2482 8.01299 38.987 7.75175 38.987 7.42857V2.16883ZM44.0048 6.84416L40.1558 2.99519V6.84416H44.0048ZM40.1558 37.8182H20.2857C19.9631 37.8182 19.7013 37.5569 19.7013 37.2338C19.7013 36.9106 19.9631 36.6493 20.2857 36.6493H40.1558C40.479 36.6493 40.7403 36.9106 40.7403 37.2338C40.7403 37.5569 40.479 37.8182 40.1558 37.8182ZM40.1558 33.1429H20.2857C19.9631 33.1429 19.7013 32.8816 19.7013 32.5584C19.7013 32.2353 19.9631 31.974 20.2857 31.974H40.1558C40.479 31.974 40.7403 32.2353 40.7403 32.5584C40.7403 32.8816 40.479 33.1429 40.1558 33.1429ZM40.1558 28.4675H31.974C31.6508 28.4675 31.3896 28.2063 31.3896 27.8831C31.3896 27.5599 31.6508 27.2987 31.974 27.2987H40.1558C40.479 27.2987 40.7403 27.5599 40.7403 27.8831C40.7403 28.2063 40.479 28.4675 40.1558 28.4675ZM40.1558 23.7922H34.8961C34.5729 23.7922 34.3117 23.531 34.3117 23.2078C34.3117 22.8846 34.5729 22.6234 34.8961 22.6234H40.1558C40.479 22.6234 40.7403 22.8846 40.7403 23.2078C40.7403 23.531 40.479 23.7922 40.1558 23.7922ZM40.1558 19.1169H35.4805C35.1573 19.1169 34.8961 18.8556 34.8961 18.5325C34.8961 18.2093 35.1573 17.9481 35.4805 17.9481H40.1558C40.479 17.9481 40.7403 18.2093 40.7403 18.5325C40.7403 18.8556 40.479 19.1169 40.1558 19.1169ZM40.1558 14.4416H33.7273C33.4041 14.4416 33.1429 14.1803 33.1429 13.8571C33.1429 13.534 33.4041 13.2727 33.7273 13.2727H40.1558C40.479 13.2727 40.7403 13.534 40.7403 13.8571C40.7403 14.1803 40.479 14.4416 40.1558 14.4416Z" fill="#1E1E1E" stroke="#1E1E1E"/>
<path fill-rule="evenodd" clip-rule="evenodd" d="M19.2499 16H26.2499L28 18.5493L23.0416 23.3929C22.9648 23.4615 22.8597 23.5 22.7499 23.5C22.6403 23.5 22.5352 23.4614 22.4584 23.3929L17.5 18.5493L19.2501 16" fill="url(#paint0_linear_167_1418)"/>
<defs>
<linearGradient id="paint0_linear_167_1418" x1="18.7353" y1="15.4643" x2="26.4635" y2="24.0672" gradientUnits="userSpaceOnUse">
<stop stop-color="#B5DFF1"/>
<stop offset="1" stop-color="#0C4875"/>
</linearGradient>
</defs>
</svg>
