<svg width="47" height="47" viewBox="0 0 47 47" fill="none" xmlns="http://www.w3.org/2000/svg">
<path d="M45.2472 20.9489L39.1987 19.3107L45.2818 17.6793C45.3734 17.6793 45.4613 17.6429 45.5261 17.5781C45.591 17.5133 45.6274 17.4253 45.6274 17.3337C45.6274 17.242 45.591 17.1541 45.5261 17.0893C45.4613 17.0245 45.3734 16.9881 45.2818 16.9881L30.6755 13.1032C30.6164 13.0894 30.5549 13.0894 30.4958 13.1032L23.2999 15.0456L16.1108 13.0963C16.0522 13.079 15.9898 13.079 15.9311 13.0963L1.35254 16.9742C1.26087 16.9742 1.17296 17.0106 1.10814 17.0755C1.04333 17.1403 1.00691 17.2282 1.00691 17.3199C1.00691 17.4115 1.04333 17.4994 1.10814 17.5642C1.17296 17.6291 1.26087 17.6655 1.35254 17.6655L7.43558 19.3038L1.34563 20.9351C1.25396 20.9351 1.16605 20.9715 1.10123 21.0363C1.03641 21.1012 1 21.1891 1 21.2807C1 21.3724 1.03641 21.4603 1.10123 21.5251C1.16605 21.59 1.25396 21.6264 1.34563 21.6264L8.3826 23.5066V41.7626C8.38183 41.8386 8.40664 41.9126 8.45303 41.9728C8.49942 42.033 8.56469 42.0758 8.63836 42.0944L23.21 46H23.2999H23.3897L37.9683 42.0944C38.0414 42.0747 38.106 42.0316 38.1522 41.9717C38.1984 41.9117 38.2236 41.8383 38.224 41.7626V23.4858L45.2472 21.6195C45.3389 21.6195 45.4268 21.583 45.4916 21.5182C45.5564 21.4534 45.5928 21.3655 45.5928 21.2738C45.5928 21.1822 45.5564 21.0943 45.4916 21.0294C45.4268 20.9646 45.3389 20.9282 45.2472 20.9282V20.9489ZM23.2999 22.843L10.0623 19.2968L22.2975 16.0134L23.2999 15.7369L36.5374 19.283L24.0741 22.6494L23.2999 22.843ZM30.5857 13.7945L43.8232 17.3475L37.8715 18.9374L25.1317 15.5226L24.634 15.3913L30.5857 13.7945ZM16.021 13.7945L21.9727 15.3982L8.72822 18.9167L2.77652 17.3129L16.021 13.7945ZM8.72822 19.6563H8.825L21.9588 23.1748L16.0071 24.7716L8.81809 22.8706L2.77652 21.2669L8.72822 19.6563ZM15.9242 25.4905H16.1039L22.9542 23.6517V39.9308L9.07385 36.2118V23.6517L15.9242 25.4905ZM9.07385 36.9238L22.9542 40.622V45.1981L9.07385 41.4999V36.9238ZM23.6455 45.2189V40.622L37.5328 36.9031V41.4792L23.6455 45.2189ZM37.5328 36.2326L23.6455 39.9308V23.6587L30.4889 25.4974C30.5184 25.5047 30.5493 25.5047 30.5788 25.4974H30.6686L37.5328 23.6656V36.2326ZM37.8784 22.8845C37.8489 22.8777 37.8181 22.8777 37.7886 22.8845L30.5857 24.7992L24.634 23.2024L37.8715 19.677L43.8232 21.2669L37.8784 22.8845Z" fill="#1E1E1E" stroke="#1E1E1E"/>
<path fill-rule="evenodd" clip-rule="evenodd" d="M16.4125 0H31.386L35.1296 6.63845L24.5233 19.2516C24.3591 19.4302 24.1341 19.5306 23.8994 19.5306C23.6649 19.5306 23.44 19.4302 23.2757 19.2516L12.6694 6.63845L16.413 0" fill="url(#paint0_linear_167_1396)"/>
<defs>
<linearGradient id="paint0_linear_167_1396" x1="15.3118" y1="-1.39504" x2="35.4716" y2="17.0391" gradientUnits="userSpaceOnUse">
<stop stop-color="#B5DFF1"/>
<stop offset="1" stop-color="#0C4875"/>
</linearGradient>
</defs>
</svg>
