<svg xmlns="http://www.w3.org/2000/svg" width="47.497" height="47.497" viewBox="0 0 47.497 47.497" style="&#10; ">
  <g id="diamonds_1_" data-name="diamonds (1)" transform="matrix(0.985, 0.174, -0.174, 0.985, 7.12, 0)">
    <rect id="Sizing_Rectangle" data-name="Sizing Rectangle" width="41" height="41" transform="translate(0 0)" fill="rgba(0,0,0,0)"/>
    <path id="rgba_255_255_255_0.03_" data-name="rgba(255,255,255,0.03)" d="M1,0,0,2Z" transform="translate(29.71 10)" fill="rgba(255,255,255,0.03)"/>
    <path id="rgba_255_255_255_0.03_2" data-name="rgba(255,255,255,0.03)" d="M0,0,6.5.5,0,1Z" transform="translate(10.363 12)" fill="rgba(255,255,255,0.03)"/>
    <path id="rgba_255_255_255_0.03_3" data-name="rgba(255,255,255,0.03)" d="M1,0,0,2Z" transform="translate(18.481 17.954)" fill="rgba(255,255,255,0.03)"/>
    <path id="rgba_255_255_255_0.03_4" data-name="rgba(255,255,255,0.03)" d="M0,0,1,2Z" transform="translate(9.871 18.607)" fill="rgba(255,255,255,0.03)"/>
    <path id="rgba_255_255_255_0.03_5" data-name="rgba(255,255,255,0.03)" d="M0,0,1,2Z" transform="translate(11.436 21.875)" fill="rgba(255,255,255,0.03)"/>
    <path id="rgba_255_255_255_0.03_6" data-name="rgba(255,255,255,0.03)" d="M0,0,1,2Z" transform="translate(13.784 25.143)" fill="rgba(255,255,255,0.03)"/>
    <path id="rgba_255_255_255_0.03_7" data-name="rgba(255,255,255,0.03)" d="M0,0,1,2Z" transform="translate(23.96 27.333)" fill="rgba(255,255,255,0.03)"/>
    <path id="rgba_255_255_255_0.03_8" data-name="rgba(255,255,255,0.03)" d="M0,0,2,3Z" transform="translate(23.819 30.333)" fill="rgba(255,255,255,0.03)"/>
    <path id="rgba_0_0_0_0_" data-name="rgba(0,0,0,0)" d="M0,0,3.142.333,2.357,1.667,5.5,3.333,6.285,1,5.892,0H26.318l.393,1L23.569,2.667Q22.7,4.467,24.747,4L27.5,7.333q2.121.733,1.571-1L32.21,4.667l-.393,14-1.178-2Q27.968,14.2,20.033,15.333l-4.321,3L14.927,21,21.6,27.333,6.285,27l2.75-3L11,23,7.071,20.333,5.107,18,1.964,21.333.393,22,0,10.667l9.035,6,9.035-7V7.333q-2.121.733-1.571-1l-.786-1.667Q12.884,2.6,5.892,3.333L1.571,5.667.393,7.333ZM19.64,1.333q.786,2-.786,1.333v.667q1.571-.667.786,1.333Q22,5.333,21.212,4V2.667Q22,.667,19.64,1.333ZM22.783,6,20.426,9.333q-2.357-.667-1.571,2L21.212,12l1.571,2.667,6.285-4L27.5,9.333l-2.357-2Zm-11,10.667-2.357,2L11,20l2.357-.667L12.57,18Q13.355,16,11.784,16.667Z" transform="translate(4 7)" fill="rgba(0,0,0,0)"/>
    <path id="rgba_0_0_0_0_2" data-name="rgba(0,0,0,0)" d="M0,.456q5.3-1.8,3.5,3.5Z" transform="translate(32.71 6.544)" fill="rgba(0,0,0,0)"/>
    <path id="rgba_0_0_0_0_3" data-name="rgba(0,0,0,0)" d="M0,0,3,.5,0,2Z" transform="translate(30.21 11)" fill="rgba(0,0,0,0)"/>
    <path id="rgba_0_0_0_0_4" data-name="rgba(0,0,0,0)" d="M5.5,0,7,.5,5,5,0,4.5Z" transform="translate(6 11.83)" fill="rgba(0,0,0,0)"/>
    <path id="rgba_0_0_0_0_5" data-name="rgba(0,0,0,0)" d="M0,0,6,3.5V5H2Z" transform="translate(14.529 11.83)" fill="rgba(0,0,0,0)"/>
    <path id="rgba_0_0_0_0_6" data-name="rgba(0,0,0,0)" d="M2.5,0,4,3,0,2.5Z" transform="translate(10.888 13.284)" fill="rgba(0,0,0,0)"/>
    <path id="rgba_0_0_0_0_7" data-name="rgba(0,0,0,0)" d="M2.557,0q5,2.5,0,5-2.2.8-1.5-1.5Q-1.643,1.7,2.557,0Z" transform="translate(25.196 14.927)" fill="rgba(0,0,0,0)"/>
    <path id="rgba_0_0_0_0_8" data-name="rgba(0,0,0,0)" d="M0,0,3.5,1.5,3,3Z" transform="translate(7.5 15.863)" fill="rgba(0,0,0,0)"/>
    <path id="rgba_0_0_0_0_9" data-name="rgba(0,0,0,0)" d="M0,0,5,.5,2.5,6Z" transform="translate(10.83 15.428)" fill="rgba(0,0,0,0)"/>
    <path id="rgba_0_0_0_0_10" data-name="rgba(0,0,0,0)" d="M1,0,4,.5l-4,3Z" transform="translate(15.48 15.795)" fill="rgba(0,0,0,0)"/>
    <path id="rgba_0_0_0_0_11" data-name="rgba(0,0,0,0)" d="M5.5,0,5,1.5,3.5,5,0,4.5,1,2Z" transform="translate(20.622 22.457)" fill="rgba(0,0,0,0)"/>
    <path id="rgba_0_0_0_0_12" data-name="rgba(0,0,0,0)" d="M0,0,5.5,3.5Q6.3,6.1,3,5Z" transform="translate(27.71 22.371)" fill="rgba(0,0,0,0)"/>
    <path id="rgba_0_0_0_0_13" data-name="rgba(0,0,0,0)" d="M0,0,3,1.5,0,2Z" transform="translate(26.372 25.143)" fill="rgba(0,0,0,0)"/>
    <path id="rgba_0_0_0_0_14" data-name="rgba(0,0,0,0)" d="M3.5,0,7,3.5,5.5,5Q3.3,4.3,4,6.5l-4-3L2,3Z" transform="translate(7 24.333)" fill="rgba(0,0,0,0)"/>
    <path id="rgba_0_0_0_0_15" data-name="rgba(0,0,0,0)" d="M0,.169q2.3-.7,1.5,1.5l.5,1.5Z" transform="translate(23.042 25.164)" fill="rgba(0,0,0,0)"/>
    <path id="rgba_0_0_0_0_16" data-name="rgba(0,0,0,0)" d="M0,.5Q4.4-1,3.5,2l-1,2.5Q-.5,5.8.5,2Z" transform="translate(25.873 24.833)" fill="rgba(0,0,0,0)"/>
    <path id="rgba_0_0_0_0_17" data-name="rgba(0,0,0,0)" d="M1,0,2.5.5,0,2Z" transform="translate(29.71 27.758)" fill="rgba(0,0,0,0)"/>
    <path id="rgba_0_0_0_0_18" data-name="rgba(0,0,0,0)" d="M8.5,0,9,8,0,7.5Z" transform="translate(27.21 26.333)" fill="rgba(0,0,0,0)"/>
    <path id="rgba_0_0_0_0_19" data-name="rgba(0,0,0,0)" d="M0,0,5,3.5V5H0Z" transform="translate(4 29.333)" fill="rgba(0,0,0,0)"/>
    <path id="rgba_255_255_255_0.14_" data-name="rgba(255,255,255,0.14)" d="M0,0,2,3Z" transform="translate(32.71 8)" fill="rgba(255,255,255,0.14)"/>
    <path id="rgba_255_255_255_0.14_2" data-name="rgba(255,255,255,0.14)" d="M0,0,2.5.5Q.4,3.8,0,0Z" transform="translate(8.5 10)" fill="rgba(255,255,255,0.14)"/>
    <path id="rgba_255_255_255_0.14_3" data-name="rgba(255,255,255,0.14)" d="M0,0,2,.5l-2,1Z" transform="translate(14.104 11.45)" fill="rgba(255,255,255,0.14)"/>
    <path id="rgba_255_255_255_0.14_4" data-name="rgba(255,255,255,0.14)" d="M1,0,0,2Z" transform="translate(32.71 11.417)" fill="rgba(255,255,255,0.14)"/>
    <path id="rgba_255_255_255_0.14_5" data-name="rgba(255,255,255,0.14)" d="M0,0,1,2Z" transform="translate(17.698 12.071)" fill="rgba(255,255,255,0.14)"/>
    <path id="rgba_255_255_255_0.14_6" data-name="rgba(255,255,255,0.14)" d="M0,0,2,3Z" transform="translate(6.5 17.152)" fill="rgba(255,255,255,0.14)"/>
    <path id="rgba_255_255_255_0.14_7" data-name="rgba(255,255,255,0.14)" d="M0,0,5.5.5,0,1Z" transform="translate(24.777 22.076)" fill="rgba(255,255,255,0.14)"/>
    <path id="rgba_255_255_255_0.14_8" data-name="rgba(255,255,255,0.14)" d="M0,0,1,2Z" transform="translate(15.35 23.183)" fill="rgba(255,255,255,0.14)"/>
    <path id="rgba_255_255_255_0.14_9" data-name="rgba(255,255,255,0.14)" d="M0,0,1,2Z" transform="translate(31.71 23.836)" fill="rgba(255,255,255,0.14)"/>
    <path id="rgba_255_255_255_0.14_10" data-name="rgba(255,255,255,0.14)" d="M1,0,0,2Z" transform="translate(16.132 25.143)" fill="rgba(255,255,255,0.14)"/>
    <path id="rgba_255_255_255_0.14_11" data-name="rgba(255,255,255,0.14)" d="M0,0,2,3Z" transform="translate(19.933 25.333)" fill="rgba(255,255,255,0.14)"/>
    <path id="rgba_255_255_255_0.14_12" data-name="rgba(255,255,255,0.14)" d="M2,0,0,3Z" transform="translate(30.71 25.333)" fill="rgba(255,255,255,0.14)"/>
    <path id="rgba_255_255_255_0.14_13" data-name="rgba(255,255,255,0.14)" d="M1,0,0,2Z" transform="translate(6.5 26.333)" fill="rgba(255,255,255,0.14)"/>
    <path id="rgba_255_255_255_0.14_14" data-name="rgba(255,255,255,0.14)" d="M0,0,1,2Z" transform="translate(11.436 26.333)" fill="rgba(255,255,255,0.14)"/>
    <path id="rgba_255_255_255_0.14_15" data-name="rgba(255,255,255,0.14)" d="M0,0,2.5.5Q.4,3.8,0,0Z" transform="translate(9.5 30.333)" fill="rgba(255,255,255,0.14)"/>
    <path id="rgba_255_255_255_0.14_16" data-name="rgba(255,255,255,0.14)" d="M3,0,0,4Z" transform="translate(28.3 30.333)" fill="rgba(255,255,255,0.14)"/>
    <path id="rgba_255_255_255_0.07_" data-name="rgba(255,255,255,0.07)" d="M1,0,0,2Z" transform="translate(29.439 9)" fill="rgba(255,255,255,0.07)"/>
    <path id="rgba_255_255_255_0.07_2" data-name="rgba(255,255,255,0.07)" d="M1,0,0,2Z" transform="translate(6.5 11.417)" fill="rgba(255,255,255,0.07)"/>
    <path id="rgba_255_255_255_0.07_3" data-name="rgba(255,255,255,0.07)" d="M2,0,0,3Z" transform="translate(16.824 16.507)" fill="rgba(255,255,255,0.07)"/>
    <path id="rgba_255_255_255_0.07_4" data-name="rgba(255,255,255,0.07)" d="M1,0,0,2Z" transform="translate(20.046 16.646)" fill="rgba(255,255,255,0.07)"/>
    <path id="rgba_255_255_255_0.07_5" data-name="rgba(255,255,255,0.07)" d="M1,0,0,2Z" transform="translate(27.091 23.836)" fill="rgba(255,255,255,0.07)"/>
    <path id="rgba_255_255_255_0.07_6" data-name="rgba(255,255,255,0.07)" d="M1,0,0,2Z" transform="translate(9.5 24.49)" fill="rgba(255,255,255,0.07)"/>
    <path id="rgba_255_255_255_0.07_7" data-name="rgba(255,255,255,0.07)" d="M0,0,1,2Z" transform="translate(22.394 28.333)" fill="rgba(255,255,255,0.07)"/>
    <path id="rgba_255_255_255_0.58_" data-name="rgba(255,255,255,0.58)" d="M1,0,3,.5l-3,2Z" transform="translate(28.21 9)" fill="rgba(255,255,255,0.58)"/>
    <path id="rgba_255_255_255_0.58_2" data-name="rgba(255,255,255,0.58)" d="M0,0,2,.5l-2,1Z" transform="translate(10 13)" fill="rgba(255,255,255,0.58)"/>
    <path id="rgba_255_255_255_0.58_3" data-name="rgba(255,255,255,0.58)" d="M2,0l.5,1.5L0,3V2Q2.5,2.7,2,0Z" transform="translate(6.5 11.35)" fill="rgba(255,255,255,0.58)"/>
    <path id="rgba_255_255_255_0.58_4" data-name="rgba(255,255,255,0.58)" d="M6,0,4.5,2.5,0,8,3.5,3.5Z" transform="translate(14.905 15.095)" fill="rgba(255,255,255,0.58)"/>
    <path id="rgba_255_255_255_0.58_5" data-name="rgba(255,255,255,0.58)" d="M4,0l.5,1.5L0,5,1,3,3.5,1.5Z" transform="translate(26.484 16.831)" fill="rgba(255,255,255,0.58)"/>
    <path id="rgba_255_255_255_0.58_6" data-name="rgba(255,255,255,0.58)" d="M0,0,5.5,3.5,3,4Z" transform="translate(9.5 17.631)" fill="rgba(255,255,255,0.58)"/>
    <path id="rgba_255_255_255_0.58_7" data-name="rgba(255,255,255,0.58)" d="M0,0,1,2Z" transform="translate(11.436 21.222)" fill="rgba(255,255,255,0.58)"/>
    <path id="rgba_255_255_255_0.58_8" data-name="rgba(255,255,255,0.58)" d="M1.5,0,2,2,0,1.5Z" transform="translate(24.208 27.104)" fill="rgba(255,255,255,0.58)"/>
    <path id="rgba_255_255_255_0.58_9" data-name="rgba(255,255,255,0.58)" d="M0,0,2.5.5Q.4,3.8,0,0Z" transform="translate(33.71 27.095)" fill="rgba(255,255,255,0.58)"/>
    <path id="rgba_255_255_255_0.58_10" data-name="rgba(255,255,255,0.58)" d="M0,0,3,4Q.8,4.8,1.5,2.5Z" transform="translate(22.129 26.333)" fill="rgba(255,255,255,0.58)"/>
    <path id="rgba_255_255_255_0.58_11" data-name="rgba(255,255,255,0.58)" d="M1.531,0l2.5,1.5L2.531,1l-1.5.5L2.531,4Q-1.969,2,1.531,0Z" transform="translate(24.635 30.333)" fill="rgba(255,255,255,0.58)"/>
    <path id="rgba_255_255_255_0.84_" data-name="rgba(255,255,255,0.84)" d="M.5,0,2,2.5l-2,1Z" transform="translate(9 7)" fill="rgba(255,255,255,0.84)"/>
    <path id="rgba_255_255_255_0.84_2" data-name="rgba(255,255,255,0.84)" d="M3.5,0,8,3.5,4.5,8,0,4.5,1.5,2,1,3.5,3.5,7,7,4.5,4.5,1Z" transform="translate(27.21 8)" fill="rgba(255,255,255,0.84)"/>
    <path id="rgba_255_255_255_0.84_3" data-name="rgba(255,255,255,0.84)" d="M1.5,0q3,1.5,0,3Q-1.5,1.5,1.5,0Z" transform="translate(22.514 10)" fill="rgba(255,255,255,0.84)"/>
    <path id="rgba_255_255_255_0.84_4" data-name="rgba(255,255,255,0.84)" d="M0,0,6.5.5l-3,1L4,3Q2.8.8,1.5,3.5L0,6,.5,4.5,1.5,1Z" transform="translate(10.363 10.511)" fill="rgba(255,255,255,0.84)"/>
    <path id="rgba_255_255_255_0.84_5" data-name="rgba(255,255,255,0.84)" d="M0,0,4.5,3.5,1,1Z" transform="translate(16.576 11.315)" fill="rgba(255,255,255,0.84)"/>
    <path id="rgba_255_255_255_0.84_6" data-name="rgba(255,255,255,0.84)" d="M2.5,0,2,1.5,2.5,3H14L13,.5l2,1Q14.4,4.3,20.5,3L22,2.5q.5,4-2.5,4.5l1-3H8.5l-1,1-5-1,6,7,3,1,1-2,1,1L18,7.5,11.5,14l-2-2L0,3.5Z" transform="translate(4 11.795)" fill="rgba(255,255,255,0.84)"/>
    <path id="rgba_255_255_255_0.84_7" data-name="rgba(255,255,255,0.84)" d="M2.5,0l4,5L8,5.5l-2,1L2.5,2Q.3,1.3,1,3.5H0Z" transform="translate(23.21 12.912)" fill="rgba(255,255,255,0.84)"/>
    <path id="rgba_255_255_255_0.84_8" data-name="rgba(255,255,255,0.84)" d="M1.5,0,1,1.5,5.5,7,0,1.5Z" transform="translate(22.889 15.266)" fill="rgba(255,255,255,0.84)"/>
    <path id="rgba_255_255_255_0.84_9" data-name="rgba(255,255,255,0.84)" d="M1.5,0,2,1.5.5,4,0,2.5Z" transform="translate(14.104 16.36)" fill="rgba(255,255,255,0.84)"/>
    <path id="rgba_255_255_255_0.84_10" data-name="rgba(255,255,255,0.84)" d="M0,0,1.5,3.5H.5Z" transform="translate(10.63 17.075)" fill="rgba(255,255,255,0.84)"/>
    <path id="rgba_255_255_255_0.84_11" data-name="rgba(255,255,255,0.84)" d="M1,0,0,2Z" transform="translate(28.656 17.954)" fill="rgba(255,255,255,0.84)"/>
    <path id="rgba_255_255_255_0.84_12" data-name="rgba(255,255,255,0.84)" d="M5.5,0,15,.5l-4,1L11.5,3,9,2,8,6l5-.5L12.5,4Q13.9,7.3,19,6L16,1.5l4,3,1,2L10.5,17l-3-3L6,13.5,8,13l.5-2L9,12.5,8.5,14l2,1,2-5,.5,1.5-1,2,7-6L14,7l-.5,2L13,7,6.5,8,2,7l3,4.5-5-4Q.3,2.8,3.5,1L2,3.5l-1,2L7,6,9,1.5Q4.6,1.9,5.5,0Z" transform="translate(15.21 17.333)" fill="rgba(255,255,255,0.84)"/>
    <path id="rgba_255_255_255_0.84_13" data-name="rgba(255,255,255,0.84)" d="M.5,0,1,3.5H0Z" transform="translate(14.958 23.474)" fill="rgba(255,255,255,0.84)"/>
    <path id="rgba_255_255_255_0.84_14" data-name="rgba(255,255,255,0.84)" d="M6.5,0l4,5L13,6.5l-5,4L6.5,13l-5-6L0,6.5l6-5ZM7,2,2,7l5,4,4-4Z" transform="translate(4 21.333)" fill="rgba(255,255,255,0.84)"/>
    <path id="rgba_255_255_255_0.31_" data-name="rgba(255,255,255,0.31)" d="M.5,0,2,2.5l-2-1Z" transform="translate(33.21 11)" fill="rgba(255,255,255,0.31)"/>
    <path id="rgba_255_255_255_0.31_2" data-name="rgba(255,255,255,0.31)" d="M0,0,2.5.5Q.4,3.8,0,0Z" transform="translate(11.357 12.068)" fill="rgba(255,255,255,0.31)"/>
    <path id="rgba_255_255_255_0.31_3" data-name="rgba(255,255,255,0.31)" d="M1,0,0,2Z" transform="translate(19.263 12.725)" fill="rgba(255,255,255,0.31)"/>
    <path id="rgba_255_255_255_0.31_4" data-name="rgba(255,255,255,0.31)" d="M0,0,1,2Z" transform="translate(5.5 13.378)" fill="rgba(255,255,255,0.31)"/>
    <path id="rgba_255_255_255_0.31_5" data-name="rgba(255,255,255,0.31)" d="M0,0,2.5.5Q.4,3.8,0,0Z" transform="translate(28.393 15.335)" fill="rgba(255,255,255,0.31)"/>
    <path id="rgba_255_255_255_0.31_6" data-name="rgba(255,255,255,0.31)" d="M0,0H2L4.5,2.5,2,1,1,2Z" transform="translate(4.5 15.928)" fill="rgba(255,255,255,0.31)"/>
    <path id="rgba_255_255_255_0.31_7" data-name="rgba(255,255,255,0.31)" d="M0,0Q3,1.5,0,3Z" transform="translate(24.67 16.507)" fill="rgba(255,255,255,0.31)"/>
    <path id="rgba_255_255_255_0.31_8" data-name="rgba(255,255,255,0.31)" d="M0,0,1,2Z" transform="translate(14.567 17.3)" fill="rgba(255,255,255,0.31)"/>
    <path id="rgba_255_255_255_0.31_9" data-name="rgba(255,255,255,0.31)" d="M1,0,0,2Z" transform="translate(26.308 18.607)" fill="rgba(255,255,255,0.31)"/>
    <path id="rgba_255_255_255_0.31_10" data-name="rgba(255,255,255,0.31)" d="M1,0,0,2Z" transform="translate(13.784 21.222)" fill="rgba(255,255,255,0.31)"/>
    <path id="rgba_255_255_255_0.31_11" data-name="rgba(255,255,255,0.31)" d="M0,0,1,2Z" transform="translate(32.71 23.183)" fill="rgba(255,255,255,0.31)"/>
    <path id="rgba_255_255_255_0.31_12" data-name="rgba(255,255,255,0.31)" d="M0,0,1,2Z" transform="translate(25.525 24.49)" fill="rgba(255,255,255,0.31)"/>
    <path id="rgba_255_255_255_0.31_13" data-name="rgba(255,255,255,0.31)" d="M0,0,1,2Z" transform="translate(20.046 25.143)" fill="rgba(255,255,255,0.31)"/>
    <path id="rgba_255_255_255_0.31_14" data-name="rgba(255,255,255,0.31)" d="M.5,0l2,3L0,2.5Z" transform="translate(10.195 26.176)" fill="rgba(255,255,255,0.31)"/>
    <path id="rgba_255_255_255_0.31_15" data-name="rgba(255,255,255,0.31)" d="M0,0,4,.5.5,2Z" transform="translate(20.837 27.104)" fill="rgba(255,255,255,0.31)"/>
    <path id="rgba_255_255_255_0.31_16" data-name="rgba(255,255,255,0.31)" d="M0,0,4.5.5,0,1Z" transform="translate(25.722 27.374)" fill="rgba(255,255,255,0.31)"/>
    <path id="rgba_255_255_255_0.31_17" data-name="rgba(255,255,255,0.31)" d="M0,0,2.5.5,0,1Z" transform="translate(30.71 27.374)" fill="rgba(255,255,255,0.31)"/>
    <path id="rgba_255_255_255_0.31_18" data-name="rgba(255,255,255,0.31)" d="M7.5,0l-3,4-1-1L1,4.5l-1-2L1.5,3l2-1,1,1Z" transform="translate(26.21 26.333)" fill="rgba(255,255,255,0.31)"/>
    <path id="rgba_255_255_255_0.31_19" data-name="rgba(255,255,255,0.31)" d="M1,0,0,2Z" transform="translate(25.525 27.333)" fill="rgba(255,255,255,0.31)"/>
    <path id="rgba_255_255_255_0.31_20" data-name="rgba(255,255,255,0.31)" d="M1.5,0l1,2L0,1.5Z" transform="translate(6 28.333)" fill="rgba(255,255,255,0.31)"/>
    <path id="rgba_255_255_255_0.31_21" data-name="rgba(255,255,255,0.31)" d="M1.5,0l1,2L0,1.5Z" transform="translate(10.195 28.333)" fill="rgba(255,255,255,0.31)"/>
    <path id="rgba_255_255_255_0.01_" data-name="rgba(255,255,255,0.01)" d="M0,0,1,2Z" transform="translate(10.5 11)" fill="rgba(255,255,255,0.01)"/>
    <path id="rgba_255_255_255_0.01_2" data-name="rgba(255,255,255,0.01)" d="M1,0,0,2Z" transform="translate(31.71 12)" fill="rgba(255,255,255,0.01)"/>
    <path id="rgba_255_255_255_0.01_3" data-name="rgba(255,255,255,0.01)" d="M0,0,2.5,1.5,1,2Z" transform="translate(9.5 17.3)" fill="rgba(255,255,255,0.01)"/>
    <path id="rgba_255_255_255_0.01_4" data-name="rgba(255,255,255,0.01)" d="M1,0,0,2Z" transform="translate(29.439 18.607)" fill="rgba(255,255,255,0.01)"/>
    <path id="rgba_255_255_255_0.01_5" data-name="rgba(255,255,255,0.01)" d="M1,0,0,2Z" transform="translate(16.915 19.261)" fill="rgba(255,255,255,0.01)"/>
    <path id="rgba_255_255_255_0.01_6" data-name="rgba(255,255,255,0.01)" d="M0,0,1,2Z" transform="translate(24.743 23.183)" fill="rgba(255,255,255,0.01)"/>
    <path id="rgba_255_255_255_0.01_7" data-name="rgba(255,255,255,0.01)" d="M0,0,1,2Z" transform="translate(22.394 27.758)" fill="rgba(255,255,255,0.01)"/>
    <path id="rgba_255_255_255_0.01_8" data-name="rgba(255,255,255,0.01)" d="M1,0,0,2Z" transform="translate(34.71 27.758)" fill="rgba(255,255,255,0.01)"/>
  </g>
</svg>