<svg width="16" height="18" viewBox="0 0 16 18" fill="none" xmlns="http://www.w3.org/2000/svg">
<path id="Vector" fill-rule="evenodd" clip-rule="evenodd" d="M6.26241 2.83316H1.70494C1.35712 2.83316 1.06687 3.11786 1.03603 3.48943C1.03603 3.48943 0.293269 12.4351 0.00713096 15.8832C-0.0379314 16.4267 0.132038 16.9656 0.475574 17.368C0.819282 17.7706 1.30486 18 1.81374 18H11.3241C11.833 18 12.3188 17.7706 12.6623 17.368C13.0058 16.9656 13.176 16.4267 13.1307 15.8832L12.4015 7.09825H14.4223C15.2937 7.09825 16 6.34114 16 5.40698V1.69127C16 0.757102 15.2937 0 14.4223 0H7.84011C6.96867 0 6.26241 0.757102 6.26241 1.69127V2.83316ZM6.26241 3.55316H1.70494C1.70494 3.55316 0.962351 12.499 0.676042 15.9469C0.647771 16.2893 0.754687 16.6285 0.971089 16.882C1.18749 17.1355 1.49333 17.28 1.81374 17.28H11.3241C11.6445 17.28 11.9504 17.1355 12.1668 16.882C12.3832 16.6285 12.4903 16.2893 12.4618 15.9469L11.7705 7.61896L11.2176 8.33749C11.0246 8.58839 10.6987 8.66939 10.4224 8.53531C10.1462 8.40123 9.98802 8.08531 10.0365 7.76425L10.1371 7.09825H9.51615C9.50125 7.77159 9.24509 8.41408 8.79978 8.89145C8.34076 9.38369 7.71811 9.66012 7.06891 9.66012H6.06897C5.41976 9.66012 4.79711 9.38369 4.33809 8.89145C3.87907 8.39939 3.62103 7.73192 3.62103 7.03598V5.73171C3.62103 5.53316 3.7713 5.37208 3.95669 5.37208H3.9572C4.14259 5.37208 4.29269 5.53316 4.29269 5.73171V7.03598C4.29269 7.5409 4.47996 8.02524 4.81304 8.38231C5.14613 8.73955 5.59795 8.94012 6.06897 8.94012H7.06891C7.53992 8.94012 7.99174 8.73955 8.32483 8.38231C8.64421 8.03994 8.82942 7.58057 8.84416 7.09825H7.84011C6.96867 7.09825 6.26241 6.34114 6.26241 5.40698V3.55316ZM10.9263 6.37825L10.6994 7.87941L11.8543 6.37825H14.4223C14.9228 6.37825 15.3283 5.94349 15.3283 5.40698V1.69127C15.3283 1.15476 14.9228 0.72 14.4223 0.72H7.84011C7.33962 0.72 6.93406 1.15476 6.93406 1.69127V5.40698C6.93406 5.94349 7.33962 6.37825 7.84011 6.37825H10.9263ZM11.1312 1.52284C10.496 1.10939 9.69246 1.23539 9.23396 1.64314C8.65911 2.15449 8.51193 3.17094 9.08335 4.19363C9.38594 4.7678 10.151 5.37704 10.8062 5.76551C11.0084 5.88527 11.2541 5.88527 11.4562 5.76551C12.109 5.37851 12.8708 4.77239 13.1801 4.19161C13.7503 3.17039 13.6031 2.15431 13.0283 1.64314C12.5699 1.23539 11.7664 1.10939 11.1312 1.52284ZM11.1312 2.52367C11.4982 1.8709 12.2324 1.8709 12.5996 2.19729C12.9666 2.52367 12.9666 3.17663 12.5996 3.82959C12.3426 4.31927 11.6819 4.80894 11.1312 5.13533C10.5805 4.80894 9.91983 4.31927 9.66282 3.82959C9.29581 3.17663 9.29581 2.52367 9.66282 2.19729C10.03 1.8709 10.7642 1.8709 11.1312 2.52367Z" fill="#212529" fill-opacity="0.92"/>
</svg>
